<svg xmlns="http://www.w3.org/2000/svg" width="22.367" height="24.032" viewBox="0 0 22.367 24.032">
  <path id="f-thumb" d="M4626.281,4758.124v-.476a2.378,2.378,0,0,1-.952-2.855v-.476a2.382,2.382,0,0,0-2.379-2.38h-3.73a.476.476,0,0,1-.452-.626l.119-.356a10.531,10.531,0,0,0,.456-4.61l-.076-.609a2.429,2.429,0,0,0-4.744-.366l-.476,1.664a6.918,6.918,0,0,1-4.056,4.493,2.879,2.879,0,0,0-.781.473,2.356,2.356,0,0,0-1.489-.539h-1.428a2.382,2.382,0,0,0-2.379,2.38v7.614a.951.951,0,1,0,1.9,0v-7.614a.476.476,0,0,1,.476-.476h1.428a.476.476,0,0,1,.476.476v11.421a.476.476,0,0,1-.476.476h-1.428a.476.476,0,0,1-.476-.476v-.952a.951.951,0,0,0-1.9,0v.952a2.382,2.382,0,0,0,2.379,2.38h1.428a2.376,2.376,0,0,0,1.961-1.037,3.308,3.308,0,0,0,1.846.561h9.994a2.382,2.382,0,0,0,2.379-2.38v-.476a2.353,2.353,0,0,0-.087-.638,2.383,2.383,0,0,0,1.515-2.217v-.476a2.378,2.378,0,0,1,.952-2.855Zm-1.9,0a.476.476,0,0,1-.476.476h-.951a.951.951,0,1,0,0,1.9.477.477,0,0,1,.476.476v.476a.477.477,0,0,1-.476.476h-1.428a.952.952,0,1,0,0,1.9.476.476,0,0,1,.476.475v.476a.477.477,0,0,1-.476.476h-9.994a1.429,1.429,0,0,1-1.427-1.427v-9.657a.949.949,0,0,1,.6-.884,8.832,8.832,0,0,0,5.178-5.737l.476-1.665a.525.525,0,0,1,1.025.079l.077.61a8.637,8.637,0,0,1-.374,3.772l-.119.355a2.38,2.38,0,0,0,2.258,3.133h3.73a.477.477,0,0,1,.476.476v.476a.477.477,0,0,1-.476.476.951.951,0,1,0,0,1.9h.951a.476.476,0,0,1,.476.476Z" transform="translate(-4603.914 -4743.61)" fill="#358ffe"/>
</svg>
