<svg xmlns="http://www.w3.org/2000/svg" width="90.176" height="64.616" viewBox="0 0 90.176 64.616">
  <g id="Groupe_176" data-name="Groupe 176" transform="translate(-385.333 -6324.622)">
    <path id="Tracé_1147" data-name="Tracé 1147" d="M403.052,6336c-6.018,4.6-12.137,8.561-17.587,12.113,15.751-3.7,25.664-20.066,44.378-20.129a31.984,31.984,0,0,1,19.505,6.6c-4.564-4.638-9.428-8.906-16.9-9.734a36.338,36.338,0,0,0-4.055-.233c-11.4,0-18.048,5.8-25.342,11.381" fill="#fff"/>
    <path id="Tracé_1148" data-name="Tracé 1148" d="M431.907,6369.289a27.985,27.985,0,0,0,6.814-.868c12.158-3.026,23.713-14.836,33.6-20.979a16.017,16.017,0,0,0,3.193-2.146c-15.119,3.463-24.522,18.591-42.063,20.441a28.635,28.635,0,0,1-2.909.15c-7.938-.005-14.486-3.322-19.8-6.427,5.259,5.2,12.258,9.832,21.169,9.829" fill="#fff"/>
    <path id="Tracé_1149" data-name="Tracé 1149" d="M426.541,6334.873a.194.194,0,0,0,.037-.02c0-.053,0-.053-.469-.115a.252.252,0,0,1,0-.04c-.214.053-.3.073-.374.02.307-.1.307-.1.315-.145-.092-.061-.185.04-.28-.005a.231.231,0,0,0,.045-.08c-.139-.1-.31-.011-.454-.081.23-.085.292-.056.634.1a.257.257,0,0,0,.291-.025c-.017-.049-.083-.062-.1-.116a.644.644,0,0,0-.107-.005c.081-.024.1-.031.129-.081l-.023-.031-.116.016c.013-.016.013-.016.138-.061a.887.887,0,0,0-.243-.189.617.617,0,0,1-.152-.07l-.056.02-.011-.033a.128.128,0,0,1-.065.01h-.005a.357.357,0,0,0-.214.094.527.527,0,0,1,.032-.068.154.154,0,0,1-.071.021.327.327,0,0,0,.052-.1.145.145,0,0,0-.076.015l0-.037c-.133.079-.133.079-.152.083s-.019-.011-.031-.017l-.1.068a.388.388,0,0,1,.036-.066.213.213,0,0,0-.02-.027c-.055-.006-.055-.006-.28.271-.063-.04-.111-.07-.113-.07.064-.114.253-.116.24-.289-.108.054-.215.1-.324.154,0-.073,0-.073-.014-.1-.049,0-.049,0-.133.032.084-.064.2-.072.261-.165-.117,0-.117,0-.152-.053a.28.28,0,0,0-.289.039.284.284,0,0,1,.111-.091c-.058,0-.058,0-.253.083.011-.02.023-.047.032-.063s-.3-.141-.424.007c.009.023.009.023.09.079a1.412,1.412,0,0,1-.4.089l0,0c-.121-.226-.331-.218-.486.014.01.008.022.018.033.025a.687.687,0,0,0,.09-.028c-.027.026-.063.047-.088.076.044.074.044.074.046.089a.245.245,0,0,0-.025.028.115.115,0,0,0-.019-.03.182.182,0,0,1,.01-.031.269.269,0,0,0-.182-.041c-.006-.01-.011-.02-.017-.028a.172.172,0,0,0,.022-.029.234.234,0,0,1-.033-.021c-.061.034-.061.034-.119.13-.041,0-.152.055-.133.143.053,0,.1-.034.149-.042-.016.017-.035.042-.051.056a.119.119,0,0,1,.065.007.324.324,0,0,0-.01.035.225.225,0,0,1,.035.052c.03,0,.065,0,.09,0a.251.251,0,0,1-.064.047h.071c.009.214-.177.335-.246.51-.122.042-.122.042-.168.056,0,.011.015.022.019.033a1.511,1.511,0,0,1-.293.285.168.168,0,0,0-.06-.017c-.075.072-.175.1-.253.163l.008.034c.049.013.1-.013.15.008,0,.026.009.06.014.087-.007.007-.016.02-.024.029a.262.262,0,0,0,.059.039.228.228,0,0,0-.074.019c.009.024.023.055.032.075a.251.251,0,0,1-.034-.009c0,.011-.013.025-.017.035a.231.231,0,0,0-.072.01l.015.031a.128.128,0,0,1-.063.02.162.162,0,0,1-.033.068c-.042-.09.03-.236-.1-.278a.347.347,0,0,0-.071.125c-.085-.029-.256.038-.268.118.008.009.017.021.024.028a.255.255,0,0,1-.01.034l-.034,0a.252.252,0,0,0-.024-.022.1.1,0,0,0-.042.053c.094.113.257.021.263.015.091-.049.05-.164.114-.229.044.18.044.18.063.2-.01.033-.023.066-.16.131l.031.02a.5.5,0,0,0-.112.09v-.035c-.031.008-.031.008-.141.107-.085-.069-.1-.066-.161-.053a.129.129,0,0,0,.011.031.176.176,0,0,1,.089.051.229.229,0,0,1-.033.077c-.036-.041-.07-.085-.109-.123a.148.148,0,0,0-.025.065c-.03-.049-.044-.073-.18.026l.2.025c-.038.011-.038.011-.06.074l.032.017c.065-.048.065-.048.1-.047-.1.066-.129.06-.154.054-.032-.074-.039-.091-.168-.085-.123.144-.123.144-.147.151a.162.162,0,0,0,0,.028l-.027.018-.032-.007a.261.261,0,0,0-.02.03c0,.009.013.019.019.028a.166.166,0,0,1-.062.037.256.256,0,0,0,.078.029c-.007.011-.013.023-.02.036l-.04,0a.431.431,0,0,0-.032.06c-.073.022-.084.1-.135.144.022.011.022.011.107.011a.135.135,0,0,1,.01.035c-.006.011-.015.023-.022.034-.029-.015-.029-.015-.118-.013,0,.011,0,.023,0,.034a.487.487,0,0,1-.069.01c-.021.041-.018.09-.037.133l-.032.007a.1.1,0,0,1-.029.06.175.175,0,0,1,.036.009.391.391,0,0,1-.044.072.3.3,0,0,0,.015.032l-.035.061c.018.009.046.024.068.033a.872.872,0,0,0-.109.083c.049-.036.061-.03.1-.017a.582.582,0,0,1-.066.032c0,.047,0,.047-.058.09a.161.161,0,0,0,.058.029.232.232,0,0,0-.076.016.19.19,0,0,1-.024.14.758.758,0,0,0,.216-.018.328.328,0,0,0-.048.082l-.034,0a.123.123,0,0,1,.016.067.17.17,0,0,0,.031.021.189.189,0,0,1,.028-.012.138.138,0,0,1,.011.03c.013,0,.026,0,.037,0-.041.034-.091.048-.13.08a.856.856,0,0,1,.106-.029c-.017.021-.038.043-.052.061a.335.335,0,0,0,.069-.027c-.044.088-.044.088-.044.119a.286.286,0,0,1,.031.016.239.239,0,0,1,.064-.012c0-.02.015-.048.021-.07h.031a.329.329,0,0,0-.011-.087,1.087,1.087,0,0,0,.481-.295c.018,0,.044.007.061.008a.752.752,0,0,1,.094-.138c.013.02.031.043.046.062a.9.9,0,0,1,.14-.125.184.184,0,0,1-.054-.046c.127-.046.127-.046.207-.166.074.027.089.015.145-.041.071.052.172.043.243.1-.006.013-.012.03-.016.041.051.006.087-.034.136-.039a.235.235,0,0,0,0,.039c.646-.2.646-.2.745-.372-.051.186.16.141.164.14l.027-.017c0,.012,0,.025,0,.036.126.024.126.024.137.034.321-.012.321-.012.358-.057.193.1.316.047.645-.089a.627.627,0,0,0-.177-.126h0v0h0c-.083-.023-.17-.036-.253-.061.026-.015.057-.035.081-.052-.168-.062-.168-.062-.187-.087.051-.078.118-.093.371.011.085-.107-.015-.134-.2-.18l.02-.015h.005a.207.207,0,0,0,.034-.006v-.034a.222.222,0,0,1,.036,0,.148.148,0,0,0,.01.038c.035.075.14.059.176.136.046.1-.038.2.027.3a.174.174,0,0,0,.151.037v-.045c.039-.016.086-.034.1-.167a.279.279,0,0,1-.033-.009c.052-.156.047-.2-.122-.265l0,0h0l0,0h0l0,0h0l0,0a.177.177,0,0,1,.075-.014.238.238,0,0,0,.024-.025c-.047-.036-.137.033-.16-.042-.026-.1,0-.128.1-.159a2.131,2.131,0,0,1,.3-.034.216.216,0,0,1-.04.058c.111.162.33.16.368.034a.131.131,0,0,0,0-.034c-.045-.013-.091.009-.136-.013.023-.046.023-.046.124-.155.131.175.131.175.205.156-.025-.034-.025-.034-.1-.085.009-.018.02-.042.029-.062l-.065-.013c.04-.01.04-.01.1-.15a.088.088,0,0,1,.036.008.374.374,0,0,1,.041.066c.17.026.186-.239.184-.24a.16.16,0,0,0-.067.02.177.177,0,0,1-.023-.024.139.139,0,0,1,.074-.026c.053-.071.053-.071.222.019.029-.017.074-.039.083-.16a.33.33,0,0,0-.07.012.144.144,0,0,0-.028-.026.225.225,0,0,1,.033-.075c.05.032.05.032.092.024-.069-.115-.069-.115-.1-.125.007-.018.02-.043.03-.062.007.038.007.038.058.074a.8.8,0,0,0,.148-.082c.058-.022.058-.022.158-.151a.2.2,0,0,1,.06.02c.015,0,.015.006.015.006a.456.456,0,0,0,.141-.086.19.19,0,0,0,0-.036c-.062-.037-.12.007-.184,0,.041-.206.313.038.438-.094-.2-.015-.2-.015-.229-.052Zm-.753-.677c-.007,0-.013,0-.023-.015s-.044-.016-.08.006a.306.306,0,0,0,.02-.042c.023,0,.023-.006.081-.05,0,.007-.005.009-.027.031s-.031.034,0,.039h.026l.01,0c.006.007.005.014,0,.027h0m.241.067a.077.077,0,0,1-.044,0h-.012a.338.338,0,0,1-.049-.025c-.035-.015-.074-.007-.112-.019-.011-.007-.014-.012-.009-.027a.3.3,0,0,1,.113.01c.017,0,.017,0,.129.057a.032.032,0,0,1-.016,0m-.355-.127c-.032.015-.045.012-.058.006a.075.075,0,0,0-.05,0,.255.255,0,0,0,.036-.024.164.164,0,0,1,.076.01l0,0m-.486-.032c-.006-.009.018-.033.042-.056s.035-.037.037-.056c.015.036.006.066-.075.117l0,0m.459.614c-.006,0-.016,0-.023,0a.066.066,0,0,1,.017-.012s.012.006.006.009m-.05.007a.874.874,0,0,1-.194.034.28.28,0,0,1,.2-.038h0l-.005,0" fill="#fff"/>
    <path id="Tracé_1150" data-name="Tracé 1150" d="M424.624,6333.567a.7.7,0,0,1-.282-.02.042.042,0,0,0,0-.015.133.133,0,0,1-.029.015.108.108,0,0,0-.093-.02c.032.033.081.024.115.053a.3.3,0,0,1-.113.016c-.061-.006-.11-.051-.174-.056a1.3,1.3,0,0,1-.14.007c-.005,0-.01-.007-.016-.007.01-.013.01-.013.04-.028-.036.008-.136.017-.136.017l-.008-.009c0-.008.006-.017.008-.025-.035,0-.049.028-.074.041-.045-.043-.045-.043-.142-.006,0-.04,0-.04,0-.053a.107.107,0,0,0-.039,0l-.009,0a.263.263,0,0,0,.03-.036.105.105,0,0,1-.03.013c.011-.025.043-.029.045-.06a.066.066,0,0,1-.015-.018.1.1,0,0,0-.043.008v0c0,.024,0,.028-.022.072-.029.007-.029.007-.043,0a.4.4,0,0,1,.032-.061c-.035.018-.049.057-.083.074-.009-.01-.021-.023-.031-.032a.373.373,0,0,1,.038-.059c-.012.013-.027.033-.039.046-.033.008-.069,0-.1.012.028.02.073,0,.091.038-.038.078-.038.078-.043.078-.053.027-.113.005-.167.029-.006-.028-.006-.028-.023-.033a.034.034,0,0,0-.014.02c-.047.022-.1.03-.079-.049-.046,0-.08.049-.13.02l0-.011v-.009h0c0-.028-.015-.028-.041-.028-.031.058-.105.074-.131.134-.1.007-.1.007-.111,0a.1.1,0,0,1,.036-.027c-.117.008-.117.008-.137,0,.036-.047.1-.04.148-.073a.036.036,0,0,0-.025,0,1.2,1.2,0,0,1,.108-.061l-.1.018c-.011-.048-.012-.06.092-.089-.041,0-.041,0-.055,0l0-.01a.6.6,0,0,0-.137.035.237.237,0,0,1,.124-.1.467.467,0,0,0-.07.017.387.387,0,0,1,.083-.048.493.493,0,0,1-.085,0c.014-.031.051-.029.073-.046-.015,0-.015,0-.051.007,0,0,.186-.142.239-.007.062-.023.122-.061.185-.086.07.118-.146.131-.189.221a.127.127,0,0,1,.032-.008l.01.008c.036-.01.045-.011.087-.021a.054.054,0,0,1,.024-.044l-.011-.007-.016,0c.025-.023.025-.023.232-.08-.033-.014-.068,0-.105,0,0-.012,0-.012.031-.037l-.006-.013-.021-.006,0-.018c.06-.039.236-.06.226.016a.311.311,0,0,1-.055.107c.022,0,.022,0,.091-.1a.072.072,0,0,1,.025,0v.01h0v.012c.037-.01.049-.015.056-.023l0-.009a.816.816,0,0,1,.131-.065c-.2.043-.2.043-.228.028v0l0-.033c-.046,0-.048,0-.058-.013a.554.554,0,0,1,.077-.02c-.055-.016-.11.022-.163,0a.214.214,0,0,0-.053.007.063.063,0,0,1,.02-.016l-.05.016c.021-.018.05-.03.075-.05a.221.221,0,0,1-.057,0l0-.011c.016-.018.04-.044.274-.11,0,.015.018.023.02.039a.086.086,0,0,0,.04-.02c0-.019-.025-.029-.025-.05.015-.016.023-.022.076-.036-.008.027-.008.027-.006.036h.025c.028-.071.136-.095.24-.116-.026.027-.056.045-.081.071.043-.008.074-.039.115-.046a.1.1,0,0,0-.03-.025s0,0,.115-.026l.029,0,.009.01c0,.007-.012.016-.015.023a.415.415,0,0,0,.112-.024h-.013a.018.018,0,0,1,0-.011c.008-.006.021-.014.03-.021h-.032c.011-.034.107-.047.109-.047s-.005.012-.068.06l.091-.019a.241.241,0,0,0,.043-.018l-.011,0v-.016a.087.087,0,0,1,.064-.017l0,.009c-.07.085-.07.085-.25.153-.148.045-.148.045-.182.109,0,.006-.006.017-.011.026l.037,0a.155.155,0,0,1-.057.028.166.166,0,0,0,.044,0,.824.824,0,0,1-.217.066v.012c.063,0,.126-.052.2-.028.037.016-.027.093-.027.093-.06.059-.309.085-.207.147.01,0,.027-.013.023-.029-.009-.046.165-.083.168-.083.039,0,.036.031.034.047-.009.041,0,.094.084.076-.018-.016-.049-.047,0-.058s.067.036.1.049c0-.011.009-.026.014-.037.035,0,.065.022.1.022a1.509,1.509,0,0,1-.2-.175c0-.018.005-.025.087-.041-.038-.011-.08,0-.117,0l0-.009h0c0-.025,0-.035.1-.051-.014-.011-.035-.013-.047-.021l0,0c.009,0,.017-.009.028-.013-.012-.075-.012-.075.04-.095.089.048.089.048.121.045a.287.287,0,0,1-.083-.061c.058-.011.065-.015.09,0a.227.227,0,0,0,.007.037l.016,0c.024-.018.024-.02.008-.052,0-.006,0-.009,0-.013a.054.054,0,0,1,.043,0l0,.013a.074.074,0,0,0,.032-.017l0-.011-.011-.007a.067.067,0,0,1,.057-.009l0,.013a.283.283,0,0,1-.053.038c.029.028.065.012.1.02l0,.01c-.018.015-.018.015-.115.055l.059-.014.01,0,0,.008c-.039.021-.083.032-.125.05.034-.009.079-.018.109-.026l-.009.017a.456.456,0,0,0-.072.021c.1.01.152-.093.24-.115-.009.016-.013.035-.02.05a.6.6,0,0,0,.117-.028c-.055.091-.165.1-.245.152l.069-.012-.084.037a1.655,1.655,0,0,0,.211-.062c-.033.062-.12.057-.149.124.045-.015.079-.058.125-.073l0,.013a.119.119,0,0,0-.011.021.219.219,0,0,0,.094-.014.442.442,0,0,1-.04.025c.005,0,.012.013.021.013-.009.013-.009.013-.047.027a.077.077,0,0,1-.021.024h0l-.063.022c.019,0,.019,0,.063-.022h0c.17-.085.2-.062.186-.024-.01.013-.01.013-.09.1a.389.389,0,0,1,.069-.018l.156.02c0,.018,0,.018-.032.055.04.012.053.017.028.067a.563.563,0,0,1-.241,0,.313.313,0,0,0,.16.025c.081,0,.084,0,.094.012-.03.065-.13.09-.1.186l-.039.013" fill="#fff"/>
    <path id="Tracé_1151" data-name="Tracé 1151" d="M432.027,6334.959s-.007,0-.007.011.01.035.009.057c0,0,0,.013-.007.015s-.01,0-.01.007.015.024.018.037-.041,0-.041,0-.056-.032-.058-.046l.007-.008L431.9,6335c.05,0,.03-.045.017-.066.018-.015.018-.015.026-.016a.107.107,0,0,1,.081.041" fill="#fff"/>
    <path id="Tracé_1152" data-name="Tracé 1152" d="M433.893,6334.4c.005.006.013.015.013.02s0,.006-.01.007l.044.02a.252.252,0,0,1,.024.069c-.012.01-.024-.007-.034,0l0,0c.018.013.022.016.008.029s-.059,0-.083.025c-.009.006-.012.025-.029.025a.126.126,0,0,1-.059-.029c0,.026,0,.029-.008.042-.058-.038-.07-.067-.048-.072h0c-.1-.06-.1-.1-.084-.132-.054-.015-.049.029-.04.043s.013.01.013.022a.125.125,0,0,1-.1,0c-.018-.007-.018-.007-.034.017-.036-.044-.036-.044-.022-.076-.018-.009-.036-.023-.055-.033s-.051-.042-.077-.059c.01,0,.029-.009-.018-.056-.025-.026-.028-.029-.027-.034h.02c.058.013.113.028.173.039a.451.451,0,0,1,.072.017c.01,0,.078.042.078.042.032.022.031.044.031.044s0,.009.007.019c.009-.018-.006-.037,0-.054.029-.013.116.031.15.071.048-.006-.047-.054-.067-.08l0,0c.011,0,.154.069.154.069" fill="#fff"/>
    <path id="Tracé_1153" data-name="Tracé 1153" d="M431.934,6335.125a.06.06,0,0,0-.034.009.04.04,0,0,1-.032.009c.077.081.077.081.081.1l0,0c-.016,0-.027-.01-.04-.01s-.013,0-.043.017c-.055-.044-.067-.055-.083-.085s0-.033-.009-.048-.023-.031-.023-.048,0-.022.021-.029.037,0,.06.029c.008-.009.043-.011.1.056" fill="#fff"/>
    <path id="Tracé_1154" data-name="Tracé 1154" d="M431.09,6335.317l-.089.008c-.017,0-.033.018-.05.018s-.022,0-.033,0,0,.017,0,.028a.071.071,0,0,1,0,.02c0,.007-.012.011-.016.02s0,.011-.005.016-.005,0-.021-.015-.029-.01-.043-.012-.026.038-.049.042-.027-.011-.041-.015a.178.178,0,0,0-.061.011c-.008-.019-.023-.046-.01-.063a.061.061,0,0,1,.046-.02c.013,0,.013,0,.02-.009s.035-.033.053-.048a.739.739,0,0,1,.12-.028.285.285,0,0,1,.2.044h-.014" fill="#fff"/>
    <path id="Tracé_1155" data-name="Tracé 1155" d="M431.276,6335.307a.074.074,0,0,1-.008.031.037.037,0,0,1-.028,0c-.03,0-.038.011-.038.016a.4.4,0,0,1,.038.035.305.305,0,0,1-.1.007c.019.039.011.049-.032.077-.011-.023-.017-.032-.04-.028s-.035,0-.046-.056a.088.088,0,0,0-.05-.011.028.028,0,0,1-.006-.017h0a.433.433,0,0,0,.159-.015c.038-.015.031-.044.024-.068-.005,0-.018-.007-.024-.014a.01.01,0,0,1,.011-.006c.019,0,.036,0,.054-.006.006.017.011.03.015.044.009-.009.009-.031.027-.025a.067.067,0,0,1,.039.031" fill="#fff"/>
    <path id="Tracé_1156" data-name="Tracé 1156" d="M429.565,6335.589c0,.013-.011.1-.054.107-.019,0-.04.008-.008.034-.013.032-.032.04-.1.045.018.1-.043.1-.243.039-.184-.057-.193-.041-.2-.032-.029,0-.05-.062-.05-.062.026-.016.048.007.071.01a.112.112,0,0,0-.006-.025c.069,0,.087,0,.1-.031-.075-.028-.229.055-.234-.059.045,0,.045,0,.051-.05h-.008c-.08,0-.08-.02-.078-.061.084.024.084.024.086.041s0,.018.024.015l0,0c.014-.018,0-.033,0-.051s.034-.008.042-.024c-.032-.011-.014-.06-.014-.06h0c.031.008.043.041.072.053.069.058.069.058.108.067a.072.072,0,0,1,.06.035c.049.012.062,0,.055-.056.009.011.021.027.031.041,0-.029,0-.056,0-.082a.117.117,0,0,1,.025.106.064.064,0,0,0,.039-.021c.018-.018.03-.041.05-.059,0,.022-.009.042-.011.067.025-.015.036-.041.062-.052,0,.025.009.079.119.058v.012" fill="#fff"/>
    <path id="Tracé_1157" data-name="Tracé 1157" d="M431.781,6335.228a.086.086,0,0,1,.006.023.544.544,0,0,1,0,.057c-.009-.006-.028-.021-.042-.008-.021-.027-.047-.053-.065-.081s-.011-.019-.006-.022l.011,0c.015,0,.026.007.041.009a.065.065,0,0,1,.029,0,.037.037,0,0,1,.03.015" fill="#fff"/>
    <path id="Tracé_1158" data-name="Tracé 1158" d="M429,6335.956h-.006c-.165,0-.133.127-.131.127.006.024.016.038.01.05s-.025,0-.035.017,0,.053-.016.076l-.007.007c-.01.01-.023.008-.035.015-.021.025-.027.057-.056.07s-.043.012-.056,0c-.036.022-.014.122-.066.1,0,0,0,0-.009.022-.02-.022-.024-.035-.042-.112-.019,0-.019,0-.082-.013-.013-.037-.015-.04-.052-.05-.077-.024-.07-.039-.052-.117a.053.053,0,0,1,.033.038l.1,0a.113.113,0,0,1-.04-.034c.01-.029.01-.029.092-.07-.06-.006-.16-.013-.177.023-.024-.018-.024-.018-.016-.117a.24.24,0,0,0,.032.023v-.027c.1.036.1.036.115,0,.1.041.163.038.185-.012-.07,0-.07,0-.084-.009s-.008-.044-.033-.044-.036.02-.048,0-.009-.035-.008-.074a.152.152,0,0,1-.044.021c0-.008,0-.008-.008-.011-.026.011,0,.048-.026.055s-.033-.006-.052-.006c-.037.082-.082.025-.082.023-.016-.024,0-.053-.007-.082s-.031-.072-.027-.115l.029-.012c-.014-.019-.009-.043-.02-.061-.005.006-.017.015-.023.022.009-.04.02-.092.036-.1.007.007.007.014.016.02s.016-.006.025-.027a.4.4,0,0,1,.1.019c-.014.028-.047.033-.068.049a.069.069,0,0,1,.052.062h.014c-.01-.087.044-.1.066-.1a1.667,1.667,0,0,1,.09.238.632.632,0,0,1-.025-.187c0-.009,0-.017.009-.022l.088-.1.021.063c.038-.023.038-.023.1.062.022.034,0,.076.024.113.005-.02.008-.023.016-.029.059.019,0,.09.043.122s.091.027.125.063a.11.11,0,0,1,.013.033Z" fill="#fff"/>
    <path id="Tracé_1159" data-name="Tracé 1159" d="M431.946,6335.357s0,.02-.014.018a.3.3,0,0,1-.065-.024s-.026-.044,0-.05a.11.11,0,0,1,.081.056" fill="#fff"/>
    <path id="Tracé_1160" data-name="Tracé 1160" d="M433.693,6334.59c-.01.054-.013.069-.037.078-.043-.029-.088-.051-.126-.08s-.038-.03-.031-.038a.246.246,0,0,1,.194.037v0" fill="#fff"/>
    <path id="Tracé_1161" data-name="Tracé 1161" d="M434.2,6334.374c.013.013.009.021.006.026v0l0,0h0v0h0l.053.077a.284.284,0,0,1-.08.022c.06.054.1.12.074.12a.046.046,0,0,1-.043-.027.084.084,0,0,0-.018-.021l-.115-.109a.113.113,0,0,0-.024-.017.563.563,0,0,1-.124-.084c-.055-.039-.055-.039-.073-.043.016,0,.018,0,.021,0s0-.007-.032-.021c.015,0,.015,0,.123.049-.023-.022-.023-.024-.023-.028s.01-.006.008-.017a.158.158,0,0,0,.1.021.208.208,0,0,1,.154.046" fill="#fff"/>
    <path id="Tracé_1162" data-name="Tracé 1162" d="M423.263,6332.739a.085.085,0,0,1-.051,0c0-.016,0-.016.034-.026a2.13,2.13,0,0,0,.313-.145c-.013,0-.024,0-.031,0a.14.14,0,0,1,.033-.01c0-.013-.026-.02-.016-.033a.163.163,0,0,1,.056-.022l-.026.015,0,0c.011,0,.011,0,.033-.013h.034c.012,0,.012,0,.013-.008l0-.006a.63.63,0,0,1,.088-.015h-.018c-.007,0-.012-.006-.015-.008a.526.526,0,0,1,.061-.009l-.008-.011a.281.281,0,0,1,.108-.013v0c-.052.036-.115.038-.168.069l0,0a.391.391,0,0,1,.067-.01l-.005,0c-.031.019-.067.02-.1.039l0,.013c.005.007-.007.013-.032.022a.137.137,0,0,0-.036.018.085.085,0,0,1-.019.01c-.023.013-.052.013-.076.027a.593.593,0,0,1-.065.045.875.875,0,0,1-.176.059" fill="#fff"/>
    <path id="Tracé_1163" data-name="Tracé 1163" d="M423.8,6332.369c-.007,0-.04,0-.035-.007a.423.423,0,0,1,.1-.056c.02,0,.079-.006.065.011l-.009.008a.321.321,0,0,1-.124.044" fill="#fff"/>
    <path id="Tracé_1164" data-name="Tracé 1164" d="M423.867,6332.3s-.013,0-.04,0c.029-.013.061-.022.089-.036l.011-.007.005-.012c.061-.015.059,0,.057,0l-.016.013a.4.4,0,0,1-.106.039v0" fill="#fff"/>
    <path id="Tracé_1165" data-name="Tracé 1165" d="M423.682,6332.375c-.025,0-.026,0-.031,0l.006-.013c-.032.005-.065.018-.1.026s-.046,0-.046,0,.016-.011.019-.021l0-.013,0,0c.008-.006.047-.024.051-.028a.712.712,0,0,1,.181-.036.048.048,0,0,0,0,.014l.005.007c.007.006.007.008,0,.015h.009s0,.009-.013.02-.009.008-.015.009c-.023.013-.035.017-.039.023a.169.169,0,0,0-.03,0" fill="#fff"/>
    <path id="Tracé_1166" data-name="Tracé 1166" d="M423.854,6332.213c-.036,0-.069,0-.1.011.029-.009.057-.022.085-.03-.1.017-.122.017-.133.01v0l.011-.007v0a.563.563,0,0,1,.147-.025c0-.007-.015,0-.021-.009s0,0,.023-.007l-.05,0c-.029.006-.05.012-.062.006.006,0,.008-.006.06-.018a.282.282,0,0,0-.06.007c-.035,0-.037,0-.04,0s.1-.022.139-.035c-.027.006-.055.009-.084.017a.194.194,0,0,1,.045-.013.276.276,0,0,1-.031,0l0,0c.017-.008.039-.012.058-.019s.023-.018.036-.024.131-.036.17-.043c-.019.016-.02.016-.023.023s.034,0,.048.013c-.005,0-.012,0-.017.011s.035,0,.035.019,0,.012-.035.025a.192.192,0,0,1-.055.024c-.027.006-.027.008-.028.011l.013,0a.4.4,0,0,0,.049-.011.4.4,0,0,1-.032.026.662.662,0,0,1-.148.039" fill="#fff"/>
    <path id="Tracé_1167" data-name="Tracé 1167" d="M429.1,6336.116a.023.023,0,0,1-.018,0c-.022,0-.041-.014-.062-.014s-.016.009-.023,0l-.007-.015a.053.053,0,0,0-.007-.033.073.073,0,0,0-.017-.011.08.08,0,0,1-.04-.025.292.292,0,0,1,.125-.04.068.068,0,0,1,.067.048c.01.024-.015.061-.018.085" fill="#fff"/>
    <path id="Tracé_1168" data-name="Tracé 1168" d="M429.373,6336.242c0,.014,0,.014-.133.056a.213.213,0,0,0-.09.013c0-.013,0-.029,0-.043a.873.873,0,0,0-.123.032.607.607,0,0,1,.025-.089c-.024-.011-.034-.018-.031-.034s.029-.035.043-.054c.026,0,.049.019.078.018s.021-.016.023-.023a.176.176,0,0,1,.1.067s.007.015.014.017a.412.412,0,0,1,.091.022c.013,0,.013.011.011.018" fill="#fff"/>
    <path id="Tracé_1169" data-name="Tracé 1169" d="M435.739,6333.7c-.294-.181-.687-.423-.988-.591-.035-.019-.082-.043-.114-.062.445.274.462.285.687.447-.072-.042-.17-.094-.242-.137a2.113,2.113,0,0,0,.359.269c-.077-.045-.18-.1-.255-.155.029.023.071.052.1.075-.033-.015-.079-.037-.113-.055l.06.061h0v0h0a5.646,5.646,0,0,0,.668.6c-.034-.014-.08-.036-.115-.05.125.092.259.173.384.263a.739.739,0,0,1-.247-.017c.029.022.067.06.1.086-.037-.009-.086-.02-.124-.026a.8.8,0,0,0-.123.216.4.4,0,0,0-.239-.009c.1.153.1.153.311.3-.07-.037-.159-.091-.227-.132-.029.023-.071.053-.1.075h-.006c.249.242.249.242.291.394-.9-.881-.9-.881-1.011-.885-.007.041-.017.1-.024.139l-.113.054a.488.488,0,0,0-.23-.065.352.352,0,0,0,.237.3,1.247,1.247,0,0,0,.023.129l.135.063c-.018.031-.041.074-.061.109-.033-.017-.079-.041-.115-.057a.916.916,0,0,0-.133.1c.087.6.087.6.32.7-.233.15-.233.15-.276.252.028.049,1.044.654,1.049.652.033.024.076.052.11.074h-.005v0a1.226,1.226,0,0,1-.119-.042l-.121.058c-.274-.1-.278-.1-.388-.372a.9.9,0,0,1-.385-.041c-.02.03-.049.072-.07.1.036.02.083.043.115.059l-.121.031a.4.4,0,0,0,.217.133c-.026.028-.062.064-.086.091-.121-.031-.121-.031-.463-.363a2.454,2.454,0,0,0,.571.773,1.006,1.006,0,0,0,.247-.1c.182.1.283.329.529.316-.025.029-.059.065-.085.094a2.694,2.694,0,0,1-.43-.346.817.817,0,0,1-.084.091c.045.211.265.383.129.63a.833.833,0,0,1,.211.167c-.073-.026-.166-.063-.234-.095l-.006,0-.006,0h-.005l-.005,0-.006,0,0,0-.006,0-.007,0c-.044,0-.1,0-.142,0,.048-.063.12-.14.175-.2-.028-.111-.822-1.373-1.247-1.276.078.282.22.546.309.827.037.008.037.008.329.239-.186.016-.226.018-.681-.13a.845.845,0,0,0-.2.15l.109.123c-.009.036-.02.089-.028.126-.038-.013-.091-.033-.129-.049-.179.1-.377.173-.553.282,0-.037,0-.087,0-.124-.037,0-.089-.006-.125-.01a4.934,4.934,0,0,1-.4.361c0,.228-.027.239-.166.294a1.009,1.009,0,0,1-.081-.1.939.939,0,0,0,.015-.294.571.571,0,0,0-.386-.141c.162.159.162.159.118.334.087.119.087.119.047.35-.027-.027-.064-.061-.09-.086-.152.007-.182.009-.292.184a.618.618,0,0,0,.156.207,2.192,2.192,0,0,1-.269.024c.008-.019.018-.045.024-.065l-.121-.051c-.017.04-.039.087-.056.123a.741.741,0,0,1,.166.224c-.356.005-.437-.4-.733-.486l-.09-.044h.009a.388.388,0,0,0-.135-.2c.913.164.913.164,1.059.009-.006-.049-.013-.115-.017-.166-.356-.273-.9-.131-1.193-.553-.03,0-.026.008-.025.019a.844.844,0,0,0-.251.028c.023-.031.056-.072.078-.1l-.063-.135-.053.033c-.035.012-.081.03-.117.043-.015-.034-.035-.08-.049-.114a.421.421,0,0,0-.173.171v-.13a.687.687,0,0,0-.155.208c.008-.042.017-.1.022-.145-.029-.022-.064-.057-.093-.079a.407.407,0,0,0-.21.146c-.043-.009-.1-.024-.143-.034a.979.979,0,0,0-.11.122l-.125-.049c-.023.029-.051.068-.073.1-.016-.017-.033-.041-.049-.059,0,.039-.006.092-.009.13l-.05.021-.064-.03c-.025.07-.061.164-.088.232l-.128.046.121.026c-.025.029-.063.068-.089.1-.032-.022-.075-.046-.108-.065.014.036.028.086.041.126-.217.17-.893.74-.9.747.038,0,.089,0,.126,0a.479.479,0,0,1-.211.129c-.032-.028-.069-.06-.1-.084a.345.345,0,0,0-.138.172l-.069-.045-.121.014c-.018.036-.045.08-.064.118-.037,0-.086,0-.124,0,.016.027.038.059.053.083-.078-.008-.182-.019-.262-.022l.1.081-.145.039a.357.357,0,0,0,.208.1.476.476,0,0,1-.246.025.785.785,0,0,0-.018.078l.027.112h.01a.379.379,0,0,0,.232-.038,1.092,1.092,0,0,1-.227.193c.031.028.067.063.1.089-.027.035-.058.081-.083.119.062.193.062.193.827.01a.7.7,0,0,0,.117.185.358.358,0,0,0,.143.368,1.567,1.567,0,0,1-.059.257.442.442,0,0,0,.241.053c.029-.05.029-.05.475-.238-.041-.165.042-.334-.025-.5.172-.028.692-.107.308-.409-.031-.022-.075-.049-.1-.068a1.264,1.264,0,0,1,0-.427c.18-.139.39-.229.577-.363,0-.563.364-.415.522-.327,0,.04,0,.093,0,.128-.721.694-.495.855-.348.961.037.018.083.036.117.052-.015.038-.036.09-.052.126a.609.609,0,0,1,.244.055,2.234,2.234,0,0,0,.219-.128l.057-.014.029,0a2.567,2.567,0,0,0,.291-.091c.018.036.041.083.057.118a.9.9,0,0,1,.257.09c-.117.067-.256.073-.373.13l-.13.011h-.069a.744.744,0,0,0-.4.1c-.009.153.035.3.019.454-.036.015-.092.035-.131.051a.57.57,0,0,0-.22-.124c-.114.142-.114.142-.166.539-.043,0-.1,0-.139.007-.113.284-.24.218-.37.116-.464.09-1.1.211-1.4-.063.215-.435.215-.435.233-.445-.045-.059-.108-.138-.158-.194l.119-.046c.009-.039.024-.09.032-.128a1.384,1.384,0,0,1-.411.166l.124.008c.02.033.045.079.067.113-.084.005-.194.018-.274.029.021.2.081.39.1.589-.421.452-1.233-.123-1.549.592-.443.119-.443.119-.543.116-.019-.031-.047-.075-.065-.1a.354.354,0,0,0,0,.24,3.5,3.5,0,0,0-.635-.056c-.008.036-.02.086-.027.127.117.041.21.14.34.153.271.808.271.808.053.912-.53.263-.907-.383-1.416-.242a8.2,8.2,0,0,0-.308.912.612.612,0,0,1-.015.248,3.617,3.617,0,0,0,1.191.447l1.419-.9c.039-.09.118-.222.213-.25.329-.1.68.037,1-.106.015.008,1.439.994,1.2,1.459.03.022.068.055.1.076a2.257,2.257,0,0,0,.188-.243.638.638,0,0,1-.067-.292.966.966,0,0,1,.255.116c-.006-.043-.014-.1-.02-.148-.239-.116-.239-.116-1.067-.837a.469.469,0,0,0,.092-.237c.039-.006.094-.018.132-.028a.926.926,0,0,1,.141.212c.028-.034.066-.078.093-.112a3.587,3.587,0,0,0,1.026.8c-.038.288,0,.348.316.593l.038,0h.006c-.014.034-.035.081-.051.118.079.021.179.048.256.073l-.133-.007c-.012.042-.028.094-.041.13.022.038.052.081.073.112l.119,0h.069c.059-.045.144-.1.211-.143-.022-.037-.052-.09-.076-.125a.793.793,0,0,1,.275.088.885.885,0,0,0-.192-.2l-.1-.024h0l-.082.041a1.426,1.426,0,0,1,.012-.424c.02.035.044.078.061.111l.124,0-.023-.134a1.04,1.04,0,0,1,.62.094,1.086,1.086,0,0,0,.4-.178c-.207-.151-.207-.151-.255-.28.168-.235.737-.9.739-.9.016.036.039.078.056.11a.656.656,0,0,0,.26-.007c-.022.034-.056.081-.081.115a.961.961,0,0,1,.107.273c.18-.047.341-.148.516-.206-.005-.042-.009-.042-.011-.042h-.03l-.011,0h-.01l-.011,0h-.012c-.05,0-.05,0-.345-.142.279-.1.55-.212.827-.311-.022.035-.051.085-.074.121-.033.02-.077.041-.109.058.024.025.058.066.083.09a2.18,2.18,0,0,1-.21.182c.85.432.85.432.9.618-.125.148-.358.418-1.15.109a2.464,2.464,0,0,0-1.154.237c.04.006.091.011.131.013-.649.237-.649.237-.686.336.037.008.089.02.126.026l.045.113c-.031.019-.075.044-.106.065.183.194.569.6.847.384l.081-.022c.28.068.28.068.925-.1.035.466.035.466.08.531-.519.8-.519.8-1.367.733-.618-.044-1.138-.687-1.829-.295-.037.02-.09.042-.128.06a.871.871,0,0,0-.033.256c-.376.227-1.533-.438-2.012-.736.1-.285.268-.643.268-.643-.223,0-.438-.065-.659-.091l-.105-.017c-.023,0-2.454.14-2.779-.193l-.123,0a1.008,1.008,0,0,1-.079.109c-.206.206-.532.166-.739.37-.157.153-.018.413-.2.556a4.9,4.9,0,0,1-.813.363c-.856.691-.856.691-.827,1.062a1.486,1.486,0,0,1-.264,1.155c.762,2.142.812,2.149,3.587,2.473-.022-.033-.047-.08-.067-.114.183.112.183.112.673.048l.06.016h0v0c.4.148.739.419,1.154.532l.1-.021c.408.4-.029.917-.036.919v.137a2.536,2.536,0,0,1,1.025,1.741c-.6,1.013-.6,1.013.055,1.585-.094.574.838.746.554,1.4.02.031.047.074.068.1.743.156,2.979-.033,2.973-.994.2-.081.449,0,.609-.2a.424.424,0,0,0-.036-.514c.3-.454.891-.373,1.267-.694.464-.391-.045-.887.144-1.307-.124-.15-.142-.17-.022-.39.67-1.239,2.224-1.758,2.641-3.207l-.133-.061c-.893.425-1,.39-1.484.217.023-.034.062-.081.088-.113-.077-.261-.574-.549-.754-.592a1.144,1.144,0,0,0-.469-.689c.081-.839-.706-1.245-.965-1.91a3,3,0,0,1,.312.265c.028-.035.06-.079.083-.114.012,0,.961.707.867,1.249l.825,1.038c.106.5.106.5.789.43h.011c2.255-1.064,2.338-2.335,2.036-2.435s-.31-.106-.367-.38c-.561.529-.561.529-.857.489a2.126,2.126,0,0,0-.022-.262.77.77,0,0,1-.227.089c-.085-.328-.373-.547-.458-.877.555.1,1.029.532,1.643.413.077.085.077.085,1.608-.161.015.034.033.081.045.115a.7.7,0,0,1,.231.107l.123-.032c0,.037,0,.085,0,.122.2.058.235.018.318-.1-.038.134-.141.239-.181.372a.571.571,0,0,0,.251.116c.133-.118.161-.139.174-.41.581.677.267,1.643.76,2.352a.98.98,0,0,0,.325-.678,5.227,5.227,0,0,1,.937-2.629c.161-.174.161-.174.151-.332.039-.006.087-.011.128-.016.029.083.068.2.1.278.03-.019.074-.044.106-.062.057.29.153.683.155.683a.751.751,0,0,0,.111-.252l.113.059c.2.683.047,1.4.189,2.083a.893.893,0,0,0-.015-.955,4.606,4.606,0,0,1,.019-.859l.019-.092a.452.452,0,0,1,.208.434c.3-.9-.14-1.811.008-2.715.012.039.032.088.046.128a6.641,6.641,0,0,0,.011-.735l.012-.056v0c-.009-.6-.009-.6-.853-3.326a1.28,1.28,0,0,0,.049.264c-.08-.087-.08-.087-.347-.853a1.528,1.528,0,0,1,.119.239h.011c.011.033.03.079.043.114-.042-.126-.087-.248-.131-.374a3.192,3.192,0,0,1,.241.491c-.076-.172-.176-.4-.253-.575l0-.015a14.875,14.875,0,0,0-1.274-2.2c-.231-.3-.535-.716-.779-1.01.03.037.07.085.1.122a15.3,15.3,0,0,0-1.386-1.455,15.134,15.134,0,0,0-1.81-1.4m-4.55,5.787a.035.035,0,0,1-.033.035c-.052,0-.133-.085-.152-.122.067.012.118.066.187.075l0,.012m.252.475a.137.137,0,0,1-.05.089.12.12,0,0,0-.04-.058.833.833,0,0,0-.148-.109c-.038-.015-.047-.024-.038-.03l.035-.061c.019-.015.045-.011.066-.016.036-.015.029-.076-.051-.072-.046,0-.061-.008-.081-.058.141.019.141.019.164.043a.065.065,0,0,1,.017.05.1.1,0,0,0,.024.076c.028.035.07.058.091.1a.1.1,0,0,1,.011.049m-4.447-.261,0,0s-.005,0-.01-.011l-.005-.012.017.02m-.017-.021h0Zm3.911.464.021.054a.482.482,0,0,1-.143.041.115.115,0,0,1-.108-.057c-.021-.028-.034-.061-.054-.088-.031-.043-.069-.076-.1-.119a.034.034,0,0,1,.006-.047.162.162,0,0,1,.067-.018c0-.071.092-.032.114-.009s.016.031.032.042a.616.616,0,0,0,.1.054.306.306,0,0,1,.124.166Zm-2.9.326c-.027.057-.03.068-.085.09a.392.392,0,0,1-.174.026h-.009a.278.278,0,0,1,.025-.095l.012-.013a.156.156,0,0,1,.069-.024c.017,0,.027,0,.033-.009a.086.086,0,0,0,.014-.057.04.04,0,0,1,.014-.026c.024-.018.076.026.1.064s.009.041.005.045m7.258,3.613c0,.043-.052.064-.05.113a1.06,1.06,0,0,0-.188.014c-.019-.051-.023-.061-.075-.058.011.025.058.157-.007.228.013.01.013.01.229-.053-.149.052.074.214.08.327l-.013,0-.021-.017-.011.012a.427.427,0,0,0,.054.183c.067.156-.009.222-.04.186a.06.06,0,0,1-.007-.032c-.088.032-.158.1-.249.128a.337.337,0,0,1-.149-.029c-.061-.018-.115-.05-.176-.067s-.134,0-.188-.039c-.011-.009-.148-.17-.118-.281l.059-.041a.041.041,0,0,0,0-.018c-.03-.024-.03-.024-.033-.035.069-.078.022-.259.168-.255-.018-.026-.027-.037-.112-.075s-.072-.029-.314-.238a.487.487,0,0,1-.184-.307c0-.049,0-.051-.018-.066-.044-.04-.1,0-.145-.024a.1.1,0,0,0,.038-.056l.027-.3c-.007-.052.064-.061.064-.109a.1.1,0,0,1,.081.082c.049-.034.06-.052.06-.09a.12.12,0,0,1-.06,0c0-.02,0-.02.012-.04.013.01.016.012.043.01,0,0,.259-.091.312-.221.006-.017.016-.052.055-.046s.083.062.139.055a.328.328,0,0,1,.107.009c.041.011.083.023.124.038a.267.267,0,0,1,.1.043l.012.01c.02.028.016.064.038.092s.07.02.089.056a.168.168,0,0,1,0,.116l-.191.215c-.033.024-.07,0-.092-.021.148-.083.175-.134.186-.156,0-.006-.006-.012-.008-.019-.227-.044-.263-.033-.228.063a.83.83,0,0,1-.165.035.082.082,0,0,0,.115.075v.016c-.056.057-.155-.023-.2.065.008.024.013.038.09.054a.214.214,0,0,1,.14.156c.069.007.161.02.231.027-.022.225-.022.225.051.251.027-.114.133-.19.175-.132a.269.269,0,0,0,.172.138.128.128,0,0,1,0,.028m.937-1.022c0,.026-.006.027-.015.031h0v0h0c-.023,0-.021.01.011.064l0,0h0c-.072.034-.074.134-.074.154-.039.065-.039.065-.155.114a.083.083,0,0,0-.038-.087.721.721,0,0,0-.029.164l-.05-.036c.087-.03,0-.119,0-.119-.018-.008-.039,0-.086.042a.149.149,0,0,1-.058.041.238.238,0,0,0-.03-.08.229.229,0,0,1-.033-.074l-.007-.028c0-.022.016-.037.014-.059s-.036-.059-.034-.1c0-.009.011-.015.015-.026.034-.049.036-.117.1-.148a.353.353,0,0,0,.012.076c.018,0,.022-.009.022-.009.018-.039-.022-.08,0-.118s.083-.019.1-.066c.011-.028.011-.028-.016-.068a.275.275,0,0,1,.093-.022c.024-.009.024-.017.006-.044a.238.238,0,0,0,.1-.013c0,.107-.043.213,0,.318.034.087.1.079.164.072l0,.013m4.412,3.057s-.006.011-.01.022a.034.034,0,0,0-.014.019c0-.011,0-.028.012-.034l.012-.007" fill="#fff"/>
    <path id="Tracé_1170" data-name="Tracé 1170" d="M422.8,6332.654l.022.006a1.43,1.43,0,0,0,.313-.1l0,0a.649.649,0,0,1-.16.035.393.393,0,0,0,.108-.037c-.012,0-.028,0-.039,0l.005,0c.032,0,.125-.027.139-.031l0-.012a1.5,1.5,0,0,1,.284-.1h-.007a.134.134,0,0,0-.027.009.308.308,0,0,1,.031-.016c-.033.007-.068.018-.1.025l.012-.007a.584.584,0,0,0-.1.024.467.467,0,0,1-.114.034c-.038,0-.069.028-.109.035a.97.97,0,0,1,.21-.111c.035-.012.27-.126.27-.126h-.019c.013-.007.027-.013.04-.021-.042.005-.076.025-.116.032,0,0,0,0,.02-.022-.036-.017-.05.033-.081.033,0-.008.005-.013.006-.02s-.02-.007-.1.037h0c-.04.016-.043.018-.052.018a.089.089,0,0,0,.036,0c-.005.007-.005.007-.029.013-.046.007-.054.016-.056.02a.788.788,0,0,0,.158-.033.361.361,0,0,1-.106.033c-.081.016-.088.039-.088.046h.019c-.077.037-.094.052-.1.054a.2.2,0,0,0,.034,0,.162.162,0,0,1-.072.013l0,0,0-.007c.007-.013.028-.015.035-.03s-.007-.022,0-.03c-.039.008-.154.045-.154.082.018.014.036,0,.053,0l0,0-.031.051c-.029.022-.066.032-.092.052a.226.226,0,0,1,.036,0s0,0-.02.015-.013.009-.02.016Z" fill="#fff"/>
    <path id="Tracé_1171" data-name="Tracé 1171" d="M422.274,6333.722c-.071-.025-.122.059-.189.034-.011-.019.007-.039,0-.06v0c.014-.035.055-.045.071-.082-.1.051-.086-.017-.086-.017.005-.021.029-.033.033-.056s-.018,0-.022-.009c.006-.021.041-.015.046-.04l-.01-.009c0-.007,0-.016,0-.022-.022-.006-.022-.006-.027-.011.029-.052.092-.046.13-.077-.062.016-.1.02-.1-.029.031-.011.035-.014.045-.018v0c-.025-.007-.025-.007-.025-.01a.078.078,0,0,1,.029-.019c.119-.05.247-.074.365-.126.066-.027.117-.081.185-.107-.014,0-.03,0-.043,0a.876.876,0,0,1,.115-.091.454.454,0,0,1,.187-.06v.01a.177.177,0,0,0-.041.02l-.008.008c-.016.017-.025.039-.038.055a.211.211,0,0,1-.055.03c-.039.018-.038.019-.035.029a.142.142,0,0,1-.007.048c-.014.011-.039.018-.052.027a1.244,1.244,0,0,1-.137.09c0-.03,0-.037-.025-.032-.007.019-.031.026-.068.027.011,0,.027.009.04.012l-.052.017,0,0a.138.138,0,0,0,.029,0l-.072.024a.251.251,0,0,1-.067.093.114.114,0,0,1,.042-.01c0,.026-.035.028-.033.054.08.032.08.032.082.044s0,.008-.032.055c-.005.01-.005.01,0,.047v0l-.048.027c-.016.022-.016.056-.035.074a.313.313,0,0,1-.089.065l-.009-.006" fill="#fff"/>
    <path id="Tracé_1172" data-name="Tracé 1172" d="M422.485,6333.006V6333c-.014.007-.033.013-.05.02,0,0-.047-.085.173-.155.015.013.036.012.068,0,.005-.071.005-.071.019-.081l.107-.019c-.009.019-.032.024-.047.036a1.914,1.914,0,0,0,.21-.069l.027-.01c.037-.009.04-.009.043-.007-.086.061-.2.063-.291.124v0l0,0c.013,0,.026,0,.04-.008a.127.127,0,0,1,.026-.013l.152-.048v0c0,.006-.007.008-.007.013.016.006.018,0,.034-.011a.081.081,0,0,1,.085-.015c-.1.03-.153.043-.155.055.036.03.076-.053.1-.014a.071.071,0,0,1-.028.021c-.017.007-.034,0-.053.012s-.039.022-.058.028c-.041.016-.088.029-.134.042a2.161,2.161,0,0,1-.252.1" fill="#fff"/>
    <path id="Tracé_1173" data-name="Tracé 1173" d="M433.1,6335.9c.029.133-.165.133-.15.258-.036-.026-.044-.018-.053.015s-.062.036-.086.065-.018.068-.041.1c0,0-.01.006-.016.012s.005,0,.024.033c-.008.011-.008.011-.053.015a.044.044,0,0,0,0,.023.527.527,0,0,1-.067.065l.043.041c-.024.03.027.07-.01.1h0c-.023-.032-.034-.032-.051-.032.005.012.005.012.059.081-.01,0-.02,0-.031.006a.189.189,0,0,1,.027.043l0,.007a.137.137,0,0,1-.055-.012c.091.131.017.119,0,.117a.57.57,0,0,0-.057-.022.054.054,0,0,1,0,.022c-.017.009-.028,0-.085-.013.012.045.029.036.066.02l0,0h0c.089,0,.089,0,.175.159l-.011.016c0,.006,0,.013.008.015s.022.025.03.041.01.016.006.035-.006.025.079.12l.051.051c.072.093.191.065.283.112l-.028.037c-.042.009-.083-.013-.124-.013a.509.509,0,0,0,.067.081c-.018-.019-.018-.019-.076,0-.031.013-.057-.013-.087-.018a.249.249,0,0,0,.013.067.443.443,0,0,0-.127-.023c-.014.063-.069.01-.069.008a.037.037,0,0,1,0-.014l.022-.007c0-.006,0-.006-.061-.068a.494.494,0,0,0,.067-.037c-.008-.017-.018-.034-.03-.056-.053.039-.092.041-.121-.066l-.04.017.005.014c-.007.006-.007.006-.079-.009,0,.022,0,.049,0,.071h0c-.012,0-.105,0-.132-.173.01-.008.01-.008.057,0v-.021l.012-.006c0-.013,0-.013-.04-.049.014-.008.014-.008,0-.062l.008-.014h.01c-.068-.083-.068-.083-.072-.106.072-.037.086-.047.082-.107-.008.007-.017.02-.024.027l-.031-.027c-.011-.061-.015-.091.035-.088-.045-.029-.091.014-.139,0a.11.11,0,0,1,0-.026l.011,0h0v0l.013,0,0-.009a.568.568,0,0,1,.059-.093.094.094,0,0,0-.027-.045l.02.007.007-.012a.091.091,0,0,1-.02-.051c.012-.007.012-.007.076.006-.064-.051-.064-.051-.046-.08-.008,0-.014,0-.026.007,0-.022,0-.022.059-.041,0-.016-.007-.03-.007-.046a.094.094,0,0,1,.094-.019c0-.012.008-.025.012-.038l.035-.087c.012-.04.071-.038.077-.087l.064-.007c-.038-.043-.04-.045-.046-.061.037-.074.122.027.174-.028.036-.039.052-.093.083-.133a.144.144,0,0,0,.029,0c-.013-.085-.013-.085.015-.114.01,0,.01,0,.1.051,0,.035.046.035.052.065" fill="#fff"/>
    <path id="Tracé_1174" data-name="Tracé 1174" d="M423.585,6332.227l-.013,0a.32.32,0,0,0-.044,0,.136.136,0,0,0-.041.007c-.02,0-.02,0-.02,0,.033-.029.132-.044.127-.028v0c.036-.009.041,0,.043,0h0a.26.26,0,0,1-.05.013" fill="#fff"/>
    <path id="Tracé_1175" data-name="Tracé 1175" d="M422.35,6333.159c-.1.032-.1.032-.114.029s0-.011.035-.029a.024.024,0,0,0,.017-.01s0,0-.016,0a.22.22,0,0,1,.053-.037c.048-.03.055-.038.048-.043a.2.2,0,0,1,.073-.023.368.368,0,0,1,.081,0c.017,0,.031-.011.045-.013s0,.021,0,.021l0,0a.927.927,0,0,1-.222.1" fill="#fff"/>
    <path id="Tracé_1176" data-name="Tracé 1176" d="M425.22,6336.04l-.009.006c-.019,0-.038,0-.056,0a.026.026,0,0,0-.014.005.063.063,0,0,1-.035.007c-.029,0-.025-.019-.025-.024s.008-.024.06-.1a.249.249,0,0,0,.07-.006c-.063.062-.025.074,0,.074a.113.113,0,0,0,.025,0c0,.017-.007.033-.02.039" fill="#fff"/>
    <path id="Tracé_1177" data-name="Tracé 1177" d="M424.956,6336.064a.135.135,0,0,1-.038.037c0-.028.016-.05.045-.08,0,0,.016.015-.007.043" fill="#fff"/>
    <path id="Tracé_1178" data-name="Tracé 1178" d="M424.776,6336.174c-.024.024-.082,0-.105-.015.019-.048.037-.064.06-.057s.036.041.056.059a.034.034,0,0,1-.011.013" fill="#fff"/>
    <path id="Tracé_1179" data-name="Tracé 1179" d="M421.656,6333.329c-.094.025-.122-.014-.1-.052.011-.018.011-.018.173-.108a.907.907,0,0,0,.146-.087l0,0a.045.045,0,0,0-.027.011s.22-.152.274-.123c-.138.049-.164.106-.164.106a.191.191,0,0,0,.133-.047c.006,0,.13-.084.192-.058a.2.2,0,0,0-.092.053.047.047,0,0,0,.043-.014c.013-.011.05.009.037.041s-.053-.011-.08-.007c-.052.073-.052.073-.162.114a.07.07,0,0,0,.018-.029l0,0c-.029,0-.091.04-.091.04v0c-.005.011-.02.025-.128.063a.052.052,0,0,0,.036.016c-.068.026-.131.065-.2.085" fill="#fff"/>
    <path id="Tracé_1180" data-name="Tracé 1180" d="M417.317,6351.46c0-.163-.19-.719-.42-.748a2.167,2.167,0,0,0-.944-.93.156.156,0,0,0-.038-.1.354.354,0,0,0-.048-.188c-.019,0-.043,0-.065-.006-.01-.059-.143-.4-.311-.362v.07a.266.266,0,0,0-.122-.011.434.434,0,0,1-.172-.3.267.267,0,0,0-.051.142c-.02-.059-.02-.124-.036-.181-.11-.064-.255-.035-.347-.135a.425.425,0,0,1,.1.074,1.21,1.21,0,0,0,.262-.019.985.985,0,0,1,.061-.132c.021.031.051.077.072.111a.294.294,0,0,1,.046-.12.4.4,0,0,1-.061-.01.192.192,0,0,0-.016-.116l.056-.04c-.241-.363-.189-.829-.416-1.2a.418.418,0,0,0-.133-.152.33.33,0,0,0-.061.006,1.373,1.373,0,0,0-.116-.342c-.007.019-.015.045-.022.063l-.014-.006-.019.015c.086-.433-.077-.555-.221-.663a.283.283,0,0,0,.113-.045c.018-.12-.07-.21-.086-.32a.316.316,0,0,1,.039-.009c-.031-.056-.06-.107-.09-.163,0,.015.007.038.008.056-.2-.131-.244-.5-.288-.893a.712.712,0,0,0,0,.153c-.013-.016-.033-.036-.045-.051a1.115,1.115,0,0,0-.038.293c-.073-.192.042-.366.044-.55-.036-.007-.081-.021-.116-.026a.473.473,0,0,0-.091.287,2.393,2.393,0,0,1,0-.422,7.226,7.226,0,0,1,.224-1.852c-.083.494-.193,1.157-.245,1.653v0s-.015.179-.024.366c.007-.045.011-.109.014-.154a6.389,6.389,0,0,1-.014.779,12.688,12.688,0,0,0,.558,4.348l.009.036a14.207,14.207,0,0,0,1.983,4.067l.313.428.013.015c.013.016.029.038.045.055-.09-.313-.362-.5-.512-.774a2.792,2.792,0,0,0,.392.513c.01-.013.026-.034.037-.052a1.163,1.163,0,0,1-.09-.258c.06.048.065.051.1.155a3.491,3.491,0,0,0-.215-.684.394.394,0,0,0,.035-.049c.24.055.24.055.259.068a.293.293,0,0,0-.03-.051.775.775,0,0,1,.233.095c.017-.011.033-.029.05-.039a.478.478,0,0,0-.023-.137c.1-.091.1-.091.006-1.19a1,1,0,0,1,.094.1c.041-.223.365-.223.381-.474m.865-12.838c.019-.01.019-.01.133-.175a.038.038,0,0,0-.017-.014c-.035-.23-.035-.23-.284-.233a.287.287,0,0,1,.01-.047,1.25,1.25,0,0,0,.318.04.2.2,0,0,0,.033-.1l-.006,0a.209.209,0,0,0-.038-.028c.008-.02.017-.046.022-.063-.01-.013-.023-.027-.032-.04a.164.164,0,0,0-.019-.087c.055-.106.064-.229.127-.333a.3.3,0,0,0-.033-.009c.016-.009.032-.021.045-.03l0-.036a.185.185,0,0,1,.045-.014c.005.014.01.036.016.05.124-.094.125-.267.239-.368a.183.183,0,0,0-.018-.045c.117-.136.2-.3.33-.431-.17.018-.3.149-.462.171.087-.45.253-.513.4-.566,0-.03.008-.067.009-.1a.3.3,0,0,1,.052-.015c-.09-.183.133-.258.144-.408-.062-.011-.062-.011-.069-.194-.116-.015-.557.382-.564.386-.04-.011-.04-.011-.589.585a.327.327,0,0,0,.049-.025l-.063.079c-.43-.07-.5.389-.788.533l-.032-.038a19.587,19.587,0,0,1,1.551-2.108l-.006-.012a.855.855,0,0,1,.606-.309v0h.005v0a.331.331,0,0,0,0,.045,1.819,1.819,0,0,0,.232-.132.4.4,0,0,1,.032.04c-.008.009-.02.027-.031.038.014.009.029.019.044.027.148-.087.148-.087.211-.251a.352.352,0,0,0,.1-.034c-.058.065-.1.139-.151.207.086-.013.086-.013.169-.085a.493.493,0,0,1,.005.054c-.021.025-.05.053-.068.079.063-.009.063-.009.139-.091a.354.354,0,0,1-.071.1c.161.007.161.007.495-.191a.929.929,0,0,0,.218-.087c.037-.1.153-.144.18-.257-.2.013-.336.165-.517.209-.11.043-.11.043-.149.043.136-.2.386-.226.562-.365-.082-.013-.15.037-.229.056.074-.074.076-.076.622-.386a.25.25,0,0,0-.051.026.049.049,0,0,1,.006.025c.1-.057.6-.371.6-.375a.485.485,0,0,1,.1.067.353.353,0,0,0,.362-.226.394.394,0,0,0-.049.008c0-.012.015-.031.019-.043a4.947,4.947,0,0,0-.713.27.184.184,0,0,0,.041-.035,4.144,4.144,0,0,0-.416.168.464.464,0,0,0-.007.048c-.025.018-.062.041-.088.061.006.011.016.03.023.041-.155.018-.247.053-.265.1a.4.4,0,0,0-.321.092.553.553,0,0,1,.287-.19l-.024,0a.709.709,0,0,0,.183-.131.491.491,0,0,0-.159.074l-.009-.019.048-.044c.2-.188.466-.3.657-.506-.1.005-.109.024-.149.105-.067-.024-.067-.024-.268.083a6.323,6.323,0,0,1,.73-.433.284.284,0,0,1-.044.024c.364-.154.7-.365,1.075-.5-.019,0-.045.014-.067.02.254-.1.475-.18.635-.235-.072.021-.072.021-.568.209a14.739,14.739,0,0,0-1.8.859,15.845,15.845,0,0,0-2.25,1.582,14.415,14.415,0,0,0-2.567,2.886,13.587,13.587,0,0,0-1.147,2.073h0l-.031.063v0c-.014.029-.028.067-.039.093.006-.013.015-.035.022-.048-.024.062-.051.124-.075.19.037-.09.075-.179.113-.269a1.3,1.3,0,0,1-.064.2l.019-.028-.033.112s-.314.933-.421,1.344c.3-.359.286-.877.611-1.224a.182.182,0,0,1,.047.015c.134-.1.134-.1.157-.181l.016.048a.16.16,0,0,0,.031-.089c.054-.042.054-.042.127-.275l.015.045a.719.719,0,0,1,.152-.289c.018-.025.042-.059.058-.085h.049a1.622,1.622,0,0,0-.191.321c.041-.019.041-.019.178-.24a.574.574,0,0,0-.011.1c.112-.053.146-.248.318-.2a.164.164,0,0,1,.02.041c.018-.01.036-.022.053-.03a.318.318,0,0,0,0,.061c.011.006.028.019.041.026.032-.157.032-.157.219-.279.012.013.024.03.032.039a.32.32,0,0,0,.085-.059l-.015.063.035-.032a.445.445,0,0,0,.007.05l.054,0a.741.741,0,0,0,.069-.1.428.428,0,0,1,.028.1c.022-.023.053-.052.075-.072,0,.014-.008.035-.013.048l.053.015c.027-.02.056-.054.081-.076l.012.044a.487.487,0,0,1-.085.065.307.307,0,0,0,.051.092c-.02.015-.046.03-.068.044a.143.143,0,0,0-.053-.075c-.2.141-.2.141-.2.222l.036.027a.3.3,0,0,1-.02.044c.071,0,.115-.063.176-.09,0,.017-.006.039-.007.054a1.082,1.082,0,0,1,.257-.024.22.22,0,0,1,.055-.126c-.036,0-.082.009-.116.011.018-.067.018-.067-.01-.157.016-.011.036-.022.05-.032-.031-.088-.025-.093.09-.24-.011-.013-.024-.026-.035-.037.121-.083.121-.083.111-.153l-.047-.017a1.022,1.022,0,0,1,.043-.1v.052c.015.005.035.009.05.013.015-.015.037-.034.051-.048l.053,0c.21-.344-.114-.3-.152-.293-.053.006-.053.006-.334.137.2-.138.2-.138.213-.2.154.063.258-.1.4-.09l.3.437Zm-3.981,3c.024-.077.046-.153.069-.23-.032.112-.077.26-.11.374l.009-.027c.009-.039.02-.076.032-.117m7.491-8.342c.012-.005.048-.021.045-.013a.11.11,0,0,1-.027.024Zm-.265-.4c-.032.015-.062.03-.092.046.021-.012.127-.066.133-.068l.419-.2-.1.044c-.047.025-.1.047-.146.072a.627.627,0,0,1,.078-.037c-.1.045-.2.1-.3.146m-.071.034a.114.114,0,0,0-.037.021Zm-1.058.63.054-.037c-.019.011-.045.026-.065.04.005,0,.011-.007.018-.014s-.007,0-.013.007l.006-.007a.159.159,0,0,1-.037.016.144.144,0,0,1,.028-.018.058.058,0,0,0-.02.011.037.037,0,0,0,.013-.011.2.2,0,0,1-.044.024c.029-.015.06-.035.087-.052l-.011.007.193-.12s.117-.07.286-.168h0l0,0s-.286.168-.39.234a.175.175,0,0,1-.03.021.168.168,0,0,0,.03-.015l-.006,0h.007s0,.007-.083.065a.062.062,0,0,1-.018.011m-.813.543c.005-.009.016-.013.024-.022a.256.256,0,0,0,.048-.037l-.012.007.027-.025a.121.121,0,0,1,.015-.013l-.039.029.092-.065c.01-.009.055-.038.055-.038a.067.067,0,0,1-.02.016c-.053.038-.053.038-.19.148m-3.259,4.1-.009.006a.037.037,0,0,1-.006-.019.162.162,0,0,1-.025.039c0-.009,0-.009.04-.151a.651.651,0,0,0-.11.1c-.068.091-.072.091-.083.089a.035.035,0,0,0-.022.01.486.486,0,0,1,.051-.083c.077-.112.073-.126.068-.137l-.03,0a.476.476,0,0,1,.089-.1.789.789,0,0,0,.186-.312h-.008c-.027.026-.068.028-.1.054a.865.865,0,0,0-.171.208.657.657,0,0,1-.16.183l0,0c.04-.113.04-.113.389-.519,0,0,0,0-.046.029l0-.007c.058-.069.09-.1.12-.1l.007,0v.014a.059.059,0,0,1,.015-.014l0,.005,0,.031a.059.059,0,0,0,.02-.011c-.016.05-.033.105-.049.159a1.1,1.1,0,0,0,.118-.218.068.068,0,0,0,0-.064c-.011-.016-.011-.019,0-.049a.728.728,0,0,1,.124-.216l0,.007c0,.012,0,.012,0,.022.029-.007.044-.051.044-.061s-.019.006-.031.006l0-.016a.027.027,0,0,0-.025,0l-.007-.008c.009-.035.036-.056.05-.084v0a.26.26,0,0,1,.034-.075.13.13,0,0,1,.019-.016c.011,0,.018,0,.028,0,0,.022.008.029.025.025s.034-.032.054-.043a.132.132,0,0,1,0,.024.258.258,0,0,0,.046-.03.254.254,0,0,0-.034.044l.006-.012,0,0-.011.019,0,0,0,0a.62.62,0,0,0,.058-.056.263.263,0,0,0-.034.1.1.1,0,0,1-.017.036,1.9,1.9,0,0,0-.139.2c-.063.15-.186.264-.245.414s-.051.294-.117.427c-.009.015-.1.167-.109.175m0,.359c-.009.01-.021.022-.032.035a.176.176,0,0,1-.067.049l0,0c-.01.008,0,.031-.021.035,0,0-.011,0-.013,0s0-.019-.009-.026-.02,0-.028-.01a.092.092,0,0,1-.01-.045c-.005-.1-.005-.1-.01-.109-.013.023-.028.053-.039.076l0,0c-.01,0-.014,0-.035.015,0,0-.04.022-.051.012s-.015-.036-.032-.046-.011,0-.022,0a.021.021,0,0,1-.031-.008.1.1,0,0,1,.02-.076v.009l0,0a.219.219,0,0,0,.025-.083.391.391,0,0,1,.119-.1l0,0c-.026.029-.06.048-.078.085,0,0-.024.052.011.049.019,0,.034-.014.05-.009s.044.012.043.034c0,.048,0,.048,0,.053a.114.114,0,0,0,.031-.075c.028-.022.041-.023.051,0,.019-.017.03-.017.024.031-.012.1-.012.1-.01.1s.009.018.025.009l.007-.007,0-.007a.306.306,0,0,1,.024-.116c.026.106.026.106.073.109a.14.14,0,0,0-.013.017" fill="#fff"/>
    <path id="Tracé_1181" data-name="Tracé 1181" d="M420.526,6335.844c.066-.031.073-.107.119-.156a.29.29,0,0,0-.076.058.075.075,0,0,0,.009-.033c-.009.006-.021.011-.028.017a.039.039,0,0,1,.011-.029c-.023.006-.045.018-.068.025.023-.034.068-.047.1-.067a.114.114,0,0,0,0-.027c-.033.019-.041.025-.076.049a.155.155,0,0,1,.01-.107c.053.006.089-.044.1-.084a.234.234,0,0,1-.061.016c.006-.01.006-.01.106-.076-.037-.008-.066.02-.1.022.036-.02.042-.024.055-.05l-.062.037.026-.038c-.019,0-.019,0-.055.022a.021.021,0,0,0-.013-.008c.033-.023.075-.03.1-.068a.161.161,0,0,1-.032.016c.046-.034.045-.043.031-.068a.393.393,0,0,1,.058-.017s-.006-.011-.008-.014l-.016-.007c.043-.038.036-.106.081-.143h0c.023.015.049.006.078.02a.642.642,0,0,1,.083-.09.139.139,0,0,0,.01.073c.048-.044.033-.122.084-.165.056.073.137,0,.182-.047a.04.04,0,0,0-.013-.011c-.067.011-.067.011-.087.007.035-.018.035-.018.046-.036l0-.014a.042.042,0,0,1,.065,0,.082.082,0,0,0,.062-.065c-.021-.016-.05-.018-.071-.036a.577.577,0,0,0,.07-.011l.006-.011-.011-.012c-.051.012-.051.012-.063.008a.929.929,0,0,0,.122-.05l-.016,0a.064.064,0,0,1,.024-.025c-.02,0-.038.014-.056.018a.038.038,0,0,1-.01-.013c.034-.041.125-.041.115-.117-.026,0-.031,0-.088.039.012-.011.029-.027.039-.038l-.039,0c.034-.019.065-.043.1-.06-.022-.009-.029-.01-.1.026.018-.036.062-.043.085-.076l.043.012a.972.972,0,0,0,.12-.076.092.092,0,0,0-.016-.006.035.035,0,0,0,.01-.017c.036,0,.073-.018.112-.063-.005-.027-.029-.048-.025-.077.013-.049.057-.08.068-.128-.022-.022-.055-.01-.076,0-.047.027-.058.083-.1.112a.422.422,0,0,1,.039-.074c-.029,0-.029,0-.1.041l.014-.014c-.026,0-.026,0-.078.026.022-.028.022-.028.166-.092l-.054-.008c.018-.01.042-.012.056-.029l-.005-.013c-.019,0-.019,0-.155.048l-.008-.016a.129.129,0,0,1,.04-.037c.04.018.51-.187.513-.266a.206.206,0,0,0-.208,0l.005-.012-.01-.014s-.132.025-.152.1v0h0v.006c-.023,0-.027,0-.089.037.023-.024.023-.024.028-.044a.09.09,0,0,0-.087.058,1.006,1.006,0,0,0-.173.071.257.257,0,0,0,.039-.052.094.094,0,0,0-.021-.019l.009-.016a.058.058,0,0,1,.05.022c.4-.214.551-.295.556-.17.045-.018.049-.026.058-.039-.025-.051.018-.1.015-.147-.02-.013-.02-.013-.235.033a.8.8,0,0,0-.228.059c-.1.043-.153.143-.239.2l-.009,0v0h0v0c-.079-.013-.1.074-.159.094l-.009.014.021.02c-.034.059-.1.074-.147.128.022,0,.022,0,.054-.016a1.074,1.074,0,0,0-.08.1c.035.053-.054.076-.039.128.081,0,.1-.089.155-.124-.043.083-.125.124-.187.186l-.007.01c.064-.017.1-.077.162-.1l.005.013c-.061.115-.061.115-.061.128.032.005.034.005.111-.04a.116.116,0,0,1-.03-.009.067.067,0,0,1,.056-.018l.006.014a1.364,1.364,0,0,1-.206.171c.023,0,.023,0,.063-.021a.035.035,0,0,1,.014.024c-.016.012-.092.061-.1.067l.008.015a.111.111,0,0,0,.058-.021c-.005.03-.01.033-.043.054a.034.034,0,0,1,0-.016c-.08,0-.094.078-.142.112a.1.1,0,0,0,.018-.025c-.084,0-.118.073-.182.1.055.024.11,0,.164,0-.162.1-.2.117-.207.181a2.52,2.52,0,0,0-.207.15l0,0a.18.18,0,0,1-.02-.011c-.023.009-.044.017-.108.094-.115-.038-.115-.038-.4.241-.067-.1-.067-.1-.083-.1,0-.038-.03-.065-.031-.1,0,0-.129-.033-.305.2a.114.114,0,0,1,.007.022c.047.008.09-.015.137-.012,0,.027-.024.041-.035.065,0,0,.009,0,.011.008.05-.013.066-.061.1-.087l.018.009a.176.176,0,0,0-.056.066l.015,0a.022.022,0,0,1,.012-.011c0,.009-.006.036-.074.093a.111.111,0,0,0,.026,0v.016c-.068.057-.112.133-.179.19a.117.117,0,0,1,.025,0,.139.139,0,0,0-.035.039.442.442,0,0,1,.044-.013c-.006.021-.006.021-.106.061a.158.158,0,0,1-.008.119.093.093,0,0,1,.01.016.086.086,0,0,0,.057-.016c-.044.1.024.195.028.291a.037.037,0,0,0,.012.013.249.249,0,0,0,.088-.069c-.044-.123.141-.4.174-.413.027.038-.012.073-.012.11a.05.05,0,0,0,.031-.024c0,.032-.019.061-.014.088.045.024.06.033.009.075l.016.008c-.011.031-.041.053-.032.088h.014c.007-.039.051-.13.09-.128a.066.066,0,0,1,0,.028.308.308,0,0,1,.067-.072v.016l.012.01a.262.262,0,0,0,.1-.123.08.08,0,0,0-.052.045c0-.023,0-.023.028-.045l-.013-.009a2.249,2.249,0,0,1,.16-.233c-.006-.007-.012-.016-.018-.022a.935.935,0,0,1,.093-.1.2.2,0,0,0-.011.052c.07-.007.088-.079.133-.116-.009.033-.041.05-.05.082.035-.023.058-.054.09-.078a.14.14,0,0,0,0,.029c-.1.1-.144.151-.077.2-.022.021-.051.017-.074.027a.27.27,0,0,1,.02.031l-.032.017a.219.219,0,0,0,.027.016.438.438,0,0,0-.065.031l.036.039a.037.037,0,0,1-.043,0,.123.123,0,0,1-.026.015l.037.013c-.054.048-.043.075-.03.092.1,0,.109-.1.167-.138a.433.433,0,0,1-.019.05l.019-.006.011.008a.05.05,0,0,0,0,.017c.025-.022.039-.051.062-.07v.012c.034-.01.058-.045.1-.034a.146.146,0,0,1,.046-.025.2.2,0,0,1,0,.048c.009,0,.009,0,.075-.07a.047.047,0,0,0,.007.029m-.369-.05s0,0,0-.007v0h0Z" fill="#fff"/>
    <path id="Tracé_1182" data-name="Tracé 1182" d="M421.21,6333.368l-.009,0c.02-.056.082-.048.116-.084l-.01-.007a.209.209,0,0,0-.042.032l-.012,0v-.009c.03-.028.065-.052.1-.079a.809.809,0,0,0-.12.071l.009.005a.193.193,0,0,1-.1.055l-.008-.008c.008-.022.008-.022.131-.112v-.011a.866.866,0,0,1,.182-.1c.019-.007.034-.012.034-.031s-.026-.009-.037-.02c.044-.159.8-.461.8-.464-.074.041-.145.094-.221.133-.032.018-.032.022-.033.033s.03.009.056-.015v-.009c.027-.014.055-.027.083-.039v-.009a1.717,1.717,0,0,1,.366-.2.337.337,0,0,0-.1.077.465.465,0,0,0,.128-.074l-.006,0a.459.459,0,0,1,.075-.038l-.03.02.01,0,.009,0a.52.52,0,0,1,.282-.093v.009h.007c-.024.015-.04.036-.065.049a.11.11,0,0,1,.037,0,.028.028,0,0,1-.01.016.791.791,0,0,1-.148.052.936.936,0,0,0-.275.113c.071-.018.141-.044.212-.062a1.549,1.549,0,0,1-.242.114c.034-.011.071-.013.108-.025a2.267,2.267,0,0,1-.413.164.756.756,0,0,0,.1-.008h0a1.476,1.476,0,0,1-.138.1c-.318.143-.318.143-.383.176-.014.007-.035.016-.047.023s-.042.024-.06.034a.217.217,0,0,0,.06-.014,1.846,1.846,0,0,1-.39.232" fill="#fff"/>
    <path id="Tracé_1183" data-name="Tracé 1183" d="M422.126,6332.873a.061.061,0,0,1-.018,0h0a.781.781,0,0,1,.068-.041.391.391,0,0,1,.109-.057.867.867,0,0,1,.18-.054h0a3.346,3.346,0,0,1-.337.15" fill="#fff"/>
    <path id="Tracé_1184" data-name="Tracé 1184" d="M424.335,6336.646c-.009,0-.025.008-.05-.011,0-.015,0-.024-.024-.058-.047-.07-.058-.1.005-.142-.007-.031-.007-.031.033-.029-.022-.032-.051-.073-.072-.1-.062.057-.166.057-.167.032s0-.036-.021-.041c.023-.026.055-.06.091-.06a.084.084,0,0,1,.033.011c.023.013.04.033.062.048a.48.48,0,0,1,.015-.048.33.33,0,0,0,.076-.011c.019,0,.023,0,.032,0s.023.013.07.087c-.012.014-.012.014-.045.027l.006,0,.011,0,.012,0,.007,0a.014.014,0,0,0,.009.006l.009,0,.011,0,.009,0c-.032.023-.074.017-.107.035a.188.188,0,0,1,.132.047.277.277,0,0,1-.031.02.139.139,0,0,0-.015.03.053.053,0,0,1-.039,0c-.022-.011-.029-.038-.05-.048,0,.015-.01.052.06.089a.4.4,0,0,1-.078.036c.068.036.016.062.016.062" fill="#fff"/>
    <path id="Tracé_1185" data-name="Tracé 1185" d="M423.8,6336.738a.064.064,0,0,1-.056.008.271.271,0,0,1-.076-.041c-.042-.019-.089-.024-.133-.04a.147.147,0,0,1,.041-.061.228.228,0,0,0,.084.025.7.7,0,0,1,.118.036c.019.008.081.034.022.073" fill="#fff"/>
    <path id="Tracé_1186" data-name="Tracé 1186" d="M433.6,6337.567c.01.05-.108.021-.11.021s-.021-.023-.037-.027-.038.006-.056,0-.1-.1-.059-.118a.588.588,0,0,1,.262.12" fill="#fff"/>
    <path id="Tracé_1187" data-name="Tracé 1187" d="M432.548,6337.9a.1.1,0,0,1,.007.037v.013l-.005.015c0,.009.005.019,0,.03s-.038.011-.05,0c-.093-.048-.118-.145-.043-.164h0c.059-.006.081.056.087.065" fill="#fff"/>
    <path id="Tracé_1188" data-name="Tracé 1188" d="M424.257,6338.409a.083.083,0,0,1-.085,0c-.1.091-.348.172-.432.1-.027.04-.027.04-.154-.038-.005.021-.01.053-.014.075-.028,0-.044,0-.063.039-.013-.011-.013-.011-.015-.026l.006,0c-.042-.015-.092,0-.132-.021a.6.6,0,0,0-.087-.043.054.054,0,0,1-.017,0,.07.07,0,0,1,.075-.031c-.018-.037-.052-.052-.149-.083-.114-.038-.143-.056-.137-.094a.562.562,0,0,0,.175-.021c-.048-.025-.015-.087-.048-.118s-.106.01-.147-.04c-.013-.016.02-.034.041-.041.071-.022.139.043.211,0-.037-.008-.037-.011-.043-.021.019-.026.054-.029.071-.06-.07-.055-.245.059-.235-.053a.2.2,0,0,0,.133-.012c.036-.021.015-.063.025-.091a.409.409,0,0,0,.04.028l-.007-.015c.034-.027.034-.027.052-.027a.1.1,0,0,0,.041.129c.011-.039-.014-.081.015-.12.087.042.1.066.027.195-.023.038-.021.047-.02.055.044.018.08-.034.124-.012.027-.03.034-.07.062-.1a.084.084,0,0,1,.062-.017s-.018.075,0,.1c.062-.02.1-.087.179-.073-.05.061-.053.086-.018.119.015-.028.026-.06.044-.089.06.048.172.112.24.029.023-.027.044-.036.055-.033.042.023.013.083.055.106s.083,0,.124,0c-.028.036-.083.029-.115.064.018.019.018.019-.034.091.041.011.086.026.129.035l-.05.085c.021.037.021.037.017.041" fill="#fff"/>
    <path id="Tracé_1189" data-name="Tracé 1189" d="M419.462,6335.113c-.019.013-.07.04-.09.03a.145.145,0,0,0,.044-.074c.008-.038.024-.051.059-.084.01.007.01.007.09-.053,0-.024-.013-.024-.039-.02a.067.067,0,0,0-.018.011,1.04,1.04,0,0,1-.133.074c-.029.01-.053,0-.039-.015a.174.174,0,0,1,.089-.064c-.05-.045.06-.092.077-.094s.027.013.047.01a.194.194,0,0,0,.054-.037.941.941,0,0,1,.222-.126l0,0c-.007.022-.028.037-.038.036l0-.013c-.006,0-.006,0-.068.056.057,0-.019.085-.068.137a1.483,1.483,0,0,1-.2.167c.034-.012.056.007.045.027a.144.144,0,0,1-.04.03" fill="#fff"/>
    <path id="Tracé_1190" data-name="Tracé 1190" d="M429.4,6340.547a.052.052,0,0,0-.034-.054h0a.108.108,0,0,1-.041.038c.006.023.014.046.022.069.042-.009.055-.034.055-.053m-.077-.016h0c-.007-.017-.009-.018-.009-.018v.006l0,.013v0l.013-.006m-.013.007h0l-.018.007c.016.019.018,0,.018-.007" fill="#fff"/>
    <path id="Tracé_1191" data-name="Tracé 1191" d="M425.611,6341.767a.276.276,0,0,1-.273.109c.012.048.012.048,0,.07a.337.337,0,0,1,.14.022.3.3,0,0,1-.209.093c-.035-.063-.081-.07-.177-.063a1.6,1.6,0,0,1-.4-.035c-.053,0-.093.035-.142.041s-.091-.054-.146-.056c-.083,0-.133.08-.212.089.005-.035-.022-.041-.084-.053.08-.127.271-.086.347-.22.3.07.3.07.349-.032l-.132.029c-.067-.042-.067-.042-.1-.031a.2.2,0,0,1-.1,0c0-.02.008-.042.01-.058-.046-.009-.083.023-.13.023a.047.047,0,0,1,.011-.02.038.038,0,0,0,.021,0l.005-.012a.108.108,0,0,1-.05-.027c.064-.091.216-.074.255-.194a.88.88,0,0,1-.124,0c.035-.065.128-.029.164-.1-.027,0-.065-.01-.063-.058.083.013.083.013.1.037s.128.028.13.028c.072-.024.116-.131.135-.187-.1-.017-.1-.017-.114-.024s.013-.055.013-.055c.022-.017.054-.013.078-.031l0-.012c-.076-.033-.244-.1-.261-.006-.088-.072-.088-.072.008-.173.072-.146.018-.163-.022-.159s-.039.05-.074.05c.032-.093.032-.093.032-.106h.008c.042.006.067,0,.081-.039-.011-.008-.011-.008-.1-.011a.783.783,0,0,0,.085-.148c.01-.038-.023-.074-.017-.111a.1.1,0,0,0,.058-.02l0-.013a.083.083,0,0,1-.016-.006s.007-.009.01-.009c.029-.028.065.02.1-.008.006-.006,0-.022,0-.031s0-.05.085-.124c.027-.02.035-.022.045-.022s.014.014,0,.055c.051,0,.09-.036.141-.041a.15.15,0,0,1,.03,0c.067.019.087.084-.035.154s-.121.069-.147.122c.245-.011.46-.015.3.139-.045.046-.133.049-.148.132,0,.03.023.061,0,.1s-.028.024-.078.022c.038.029.092.069.13.1a.116.116,0,0,1,.031.038c.034.059.023.135.059.194.062.109.217.153.217.307-.037-.012-.06-.053-.1-.063,0,.067.088.08.1.142s-.028.087-.028.133c.009,0,.022,0,.031,0a.148.148,0,0,0,0-.025l.005-.01c.168.025.168.025.188.042.039.038.011.1,0,.122" fill="#fff"/>
    <path id="Tracé_1192" data-name="Tracé 1192" d="M424.687,6340.09c-.022.052-.09.173-.152.141l-.063.032c.015-.03.033-.058.045-.089a.21.21,0,0,0,.02-.057.092.092,0,0,0,.042-.015.124.124,0,0,1,.1-.019l.008,0,0,0" fill="#fff"/>
    <path id="Tracé_1193" data-name="Tracé 1193" d="M429.468,6340.674c-.015.033-.044.057-.058.088-.067,0-.078,0-.1.036-.063.005-.092-.091-.065-.133h.069c.052,0,.1-.009.156-.009,0,.006,0,.012,0,.017" fill="#fff"/>
    <path id="Tracé_1194" data-name="Tracé 1194" d="M428.833,6340.838c0,.008-.006.008-.041.015a.222.222,0,0,1-.058.148.3.3,0,0,0-.048.081.2.2,0,0,1-.051-.063.546.546,0,0,1-.022-.1c.017.006.005.035.028.037l.007,0a.27.27,0,0,1,.078-.1c.014-.009.039.007.054.009.012-.038.012-.038.014-.039s0,0,.007,0h.032v.013" fill="#fff"/>
    <path id="Tracé_1195" data-name="Tracé 1195" d="M424.576,6340.471a.189.189,0,0,1-.019.038l-.025,0a.225.225,0,0,0-.009-.065c-.015-.058-.022-.1.009-.13.031.024.035.011.047-.024-.009.031-.022.063-.031.1s.006.048.023.058.013.009,0,.032" fill="#fff"/>
    <path id="Tracé_1196" data-name="Tracé 1196" d="M424.4,6341.1a.4.4,0,0,1,.046,0,.106.106,0,0,0-.056-.125c.031-.028.077-.074.006-.079-.054,0-.106.009-.159.011.068-.084.068-.084.023-.11a.118.118,0,0,0-.016.02c-.071.03-.156,0-.222.049.021.007.04.021.061.027-.035.033-.1.028-.113.089l-.087-.024h-.049l-.038-.053c-.006.016-.006.016.01.131-.072-.006-.185.035-.136.1.014.017.081.076.128.047-.117.094-.139.111-.132.145a.052.052,0,0,1,.021.01l-.087.024a.05.05,0,0,0,0,.02l.013.008a.075.075,0,0,1,0,.025.778.778,0,0,0-.107,0c0,.022.011.031.045.033a.663.663,0,0,0-.062.056.835.835,0,0,1,.121,0c-.014.029-.055.026-.071.055a1.148,1.148,0,0,1,.143-.024c-.008.029-.013.063.035.059h.013a.568.568,0,0,0,.134-.057c.027-.01.046.013.072.007a.338.338,0,0,0,.094-.04.09.09,0,0,1,.108,0l-.01-.058c.081,0,.108-.007.081-.159-.014-.065.065-.136.1-.175.016-.013.048-.011.093-.008m-.576.056a.05.05,0,0,1-.021.022.058.058,0,0,0,.019-.028s.007,0,0,0Z" fill="#fff"/>
    <path id="Tracé_1197" data-name="Tracé 1197" d="M417.938,6339.821c-.085.094-.143.083-.174.077a.323.323,0,0,1,.059-.057c-.032-.049-.032-.049-.043-.044.023-.046.043-.091.068-.137-.093-.04-.142.087-.231.055.049-.053.123-.061.176-.1-.033-.02-.07.019-.1,0a.433.433,0,0,0,.05-.05c-.029-.022-.072-.024-.1-.05-.011-.012-.006-.041-.009-.059-.026,0-.046,0-.111-.081l-.009-.008-.007-.01-.006-.007-.008-.008-.007-.007s0-.006-.008-.007l-.007-.007-.005-.009c-.037-.033-.037-.058-.03-.065.044-.042.11-.037.158-.066a.117.117,0,0,0-.043-.054c.023-.028.043-.036.059.02.028-.048.033-.048.047-.048s.013.011.016.048c.015-.013.034-.013.047-.029a.117.117,0,0,0,0-.043.09.09,0,0,1,.037-.067c.162-.156.162-.156.208-.166.021,0,.043-.033.061-.049.042-.022.042-.022.119.04-.029.03-.053.036-.074.02-.053.077-.053.077-.06.078s-.011,0-.016-.022a2.713,2.713,0,0,0-.211.209c.029.013.1-.027.123-.05.035.044.017.063-.067.113a.2.2,0,0,1,.029.016c0,.009.006.011-.021.039.008,0,.008,0,.036.008l0,.007c0,.011,0,.013-.018.041a.381.381,0,0,0,.043-.041c.016.023.016.023.072.019a.288.288,0,0,0-.035.035c.019.014.067-.006.068.031,0,.011-.027.093-.061.1a.042.042,0,0,1-.026-.011c-.011.057-.011.057-.018.065.012.01.012.01.043.009a.3.3,0,0,1-.065.049.481.481,0,0,0,.123.034c-.027.027-.068.03-.094.059s-.016.027,0,.056c-.022.013-.054,0-.066.032-.005.01.007.031.025.055.068-.1.11-.089.128-.087-.033.032-.074.045-.106.078,0,0-.023.027-.02.048.012.005.012.005.08-.022-.006.006-.011.017-.018.024" fill="#fff"/>
    <path id="Tracé_1198" data-name="Tracé 1198" d="M417.391,6338.851c-.034,0-.04-.035-.043-.052s-.014-.127-.014-.127.015-.026.018-.035l.017-.08c0-.01-.015-.019-.009-.03s.009-.016.029-.037a.471.471,0,0,1,.032.147.151.151,0,0,1,0,.029.349.349,0,0,1-.009.034l0,.014a.342.342,0,0,1-.016.134l-.005,0" fill="#fff"/>
    <path id="Tracé_1199" data-name="Tracé 1199" d="M416.974,6339.367c-.027.016-.039,0-.033-.031s.008-.025.04-.045l-.043,0a.034.034,0,0,1-.022-.025v-.019c0-.026.007-.057.009-.087,0-.007-.006-.013,0-.02,0-.031.047-.053.051-.056.021-.011.028-.009.032-.006a.53.53,0,0,1-.063.062.194.194,0,0,0,.009.063c0,.007.018,0,.023,0a.207.207,0,0,1-.019.029.591.591,0,0,0,.058.066l-.012,0c-.022.034-.023.04-.018.07l-.007,0" fill="#fff"/>
    <path id="Tracé_1200" data-name="Tracé 1200" d="M426.73,6344.167c-.016.144-.049.177-.061.183-.029.016-.119-.039-.14-.068a.111.111,0,0,1-.023-.077v-.01a.29.29,0,0,1,.228-.2.566.566,0,0,1,0,.174" fill="#fff"/>
    <path id="Tracé_1201" data-name="Tracé 1201" d="M426.759,6344.641c-.046.256-.212.253-.253.193-.036-.045-.033-.081-.027-.152a.229.229,0,0,0,0-.1.068.068,0,0,0-.013-.034.364.364,0,0,0-.03-.025c-.006-.008,0-.017,0-.025a.043.043,0,0,0,0-.033c.079-.007.145-.065.228-.059s.1.133.089.236" fill="#fff"/>
    <path id="Tracé_1202" data-name="Tracé 1202" d="M427.822,6345.195c-.007.015-.024.026-.025.042s.007.043.007.065c0,.005,0,.052-.07.089,0,.046-.013.068-.055.055s-.079-.059-.124-.081-.1-.024-.143-.05a.76.76,0,0,1-.164-.106c-.016-.025-.021-.081.031-.083.016,0,.025.009.035.029.09,0,.116,0,.142.034.064,0,.064,0,.375-.017a.211.211,0,0,0-.009.023" fill="#fff"/>
    <path id="Tracé_1203" data-name="Tracé 1203" d="M414.223,6342.944a1,1,0,0,1-.066-.174.265.265,0,0,1,0-.09c.011,0,.021,0,.026-.029s.05-.334.05-.336a.1.1,0,0,0-.006-.03.956.956,0,0,1,.028-.245v-.027a1.232,1.232,0,0,0,.019-.141c.006-.015.01-.029.014-.041,0-.034.009-.067.008-.1-.007,0-.014.013-.022.018-.006-.036-.006-.036,0-.051l0,.006c.023-.065.024-.07.037-.078.011.018.011.018.009.059-.015.212-.015.212-.063.65l-.011.331c0,.022-.02.041-.024.07-.01.07.015.138.005.21l-.005,0" fill="#fff"/>
    <path id="Tracé_1204" data-name="Tracé 1204" d="M414.352,6343.8c-.019-.015-.029-.048-.058-.13-.005.021-.007.026-.013.032h-.006c-.006,0-.006,0-.032-.157,0,.032-.007.079-.03.09,0,0-.006,0-.006-.007v0h0c-.007-.031,0-.062,0-.092,0,0-.024-.087-.05-.161v0c-.008-.032-.022-.126,0-.146.009.008.017.015.044.226a.122.122,0,0,0,.016-.041,1.052,1.052,0,0,1,.01-.124.747.747,0,0,0,.019-.153.492.492,0,0,1,.018.127.07.07,0,0,0,.013.034c.011.013.031.014.039.028a1.02,1.02,0,0,1,.013.117l0,.015c.007.028,0,.051,0,.078.007.051.03.1.035.15a.479.479,0,0,1,0,.121l0,0" fill="#fff"/>
    <path id="Tracé_1205" data-name="Tracé 1205" d="M414.083,6343.16s-.006-.005-.009-.042l-.006.016a.385.385,0,0,1,0-.162.645.645,0,0,0,0-.076c.005-.013.007-.015.014-.018s.008.013.012.04a.374.374,0,0,0,0,.067.713.713,0,0,1-.015.175" fill="#fff"/>
    <path id="Tracé_1206" data-name="Tracé 1206" d="M439.942,6349.341c-.015.144-.155.349-.232.262a.69.69,0,0,1-.043-.266.049.049,0,0,1,.016-.044.321.321,0,0,0,.035-.121c.007-.062.006-.119.018-.177a.137.137,0,0,1,.016-.035c.01,0,.016,0,.029.017a.914.914,0,0,1,.066.118c.017.029.057.033.073.065a.366.366,0,0,1,.022.181" fill="#fff"/>
    <path id="Tracé_1207" data-name="Tracé 1207" d="M441.622,6349.533a.518.518,0,0,0-.054.131c-.011.024-.013.024-.021.024l-.012-.012,0-.012-.006.008-.01,0a.566.566,0,0,1,.014-.122.915.915,0,0,0-.006-.116c0-.065.011-.128.006-.193a.121.121,0,0,0-.021-.071c-.025-.038-.025-.04-.017-.257,0-.006,0-.006-.045-.01-.006-.015-.006-.022,0-.065-.023-.011-.04-.062-.052-.1h-.006l-.006.007-.008-.007,0-.013c-.1-.046-.075-.227-.051-.259a.054.054,0,0,1,.066-.01c.042-.023.043-.091.1-.1.019.021.019.021.024.083.007-.007.008-.02.016-.028.019.038.054.067.06.111.006-.006.012-.015.021-.018v.057l.013-.009,0,.007c-.009.07-.009.1.018.1,0-.014.007-.036.01-.051l.033.082c-.006.043-.006.043,0,.053.017-.015.017-.015.041-.107,0,.018,0,.018-.016.084a.026.026,0,0,1,.008-.01l.009,0c.026.1-.051.184-.04.281.008-.013.013-.03.021-.043l0,0a.049.049,0,0,0,.017-.025,1.033,1.033,0,0,1-.024.171.433.433,0,0,1,.031-.055,3.166,3.166,0,0,1-.109.484" fill="#fff"/>
    <path id="Tracé_1208" data-name="Tracé 1208" d="M434.357,6354.705a.176.176,0,0,1-.1.117c.008-.087-.047-.041-.047-.041-.05.041-.012.1-.02.148-.008.074-.089.1-.115.17-.007.013-.007.028-.013.041a.18.18,0,0,1-.064.073c-.058.051-.058.051-.219.3a4.486,4.486,0,0,1-.489.609c-.115.1-.6.261-.587-.042a.388.388,0,0,1,.012-.045c-.022-.007-.091-.046-.072-.1l.068-.17c.031-.043.087-.048.128-.082l-.009-.007c.024-.1.151-.093.193-.175a.067.067,0,0,0,0-.066.343.343,0,0,1-.028-.23.186.186,0,0,1,.041-.052,1.3,1.3,0,0,1,.667-.292c.02-.024.008-.063.037-.085s.042-.018.078-.009c.027-.027.063-.067.09-.1.036-.016-.007-.082.033-.086a.262.262,0,0,0,.126-.028l.009-.009c.01-.007.012-.02.016-.044.03-.137.067-.16.134-.2-.011.038,0,.043.072.072.013.005.051.02.053.036a.09.09,0,0,1,.006.027Z" fill="#fff"/>
    <path id="Tracé_1209" data-name="Tracé 1209" d="M387.139,6389.055h-1.806v-14.322h6.31v1.6h-4.5v4.221h3.914v1.561h-3.914Z" fill="#fff"/>
    <path id="Tracé_1210" data-name="Tracé 1210" d="M394.418,6389.054h-1.6V6378.89h1.6Zm0-11.928h-1.6v-2.09h1.6Z" fill="#fff"/>
    <path id="Tracé_1211" data-name="Tracé 1211" d="M402.022,6389.055h-1.644v-6.614c0-1.459,0-2.433-1.2-2.433-1.359,0-1.359,1.377-1.359,2.494v6.553H396.2v-10.143h1.54v.932a2.686,2.686,0,0,1,2.171-1.115c2.11,0,2.11,1.785,2.11,3.185Z" fill="#fff"/>
    <path id="Tracé_1212" data-name="Tracé 1212" d="M407.575,6383.272a9.817,9.817,0,0,1-1.338,1.1,2.425,2.425,0,0,0-1.277,2.172c0,.446,0,1.5,1.1,1.5a1.421,1.421,0,0,0,.872-.3,2.211,2.211,0,0,0,.648-1.947Zm1.6,3.631c0,1.582.062,1.805.486,2.151h-1.987v-1.216a2.191,2.191,0,0,1-2.088,1.4,2.363,2.363,0,0,1-1.219-.3,2.42,2.42,0,0,1-1.054-2.292,3,3,0,0,1,1.7-2.9,14.974,14.974,0,0,0,2.554-1.925c0-.831,0-1.786-1.237-1.786-1.217,0-1.217.852-1.217,1.46,0,.306.02.529.04.75h-1.48a7.783,7.783,0,0,1,.142-2.028c.507-1.48,2.232-1.48,2.678-1.48a2.6,2.6,0,0,1,2.048.75c.629.65.629,1.2.629,2.578Z" fill="#fff"/>
    <path id="Tracé_1213" data-name="Tracé 1213" d="M416.8,6389.055h-1.643v-6.614c0-1.459,0-2.433-1.2-2.433-1.36,0-1.36,1.377-1.36,2.494v6.553H410.98v-10.143h1.541v.932a2.684,2.684,0,0,1,2.171-1.115c2.11,0,2.11,1.785,2.11,3.185Z" fill="#fff"/>
    <path id="Tracé_1214" data-name="Tracé 1214" d="M424.181,6385.281c0,1.848,0,3.956-2.941,3.956a2.382,2.382,0,0,1-2.577-1.6,13.622,13.622,0,0,1-.242-3.407c0-3.608.1-5.5,2.981-5.5,2.779,0,2.779,1.843,2.779,3.852H422.64c0-1.741,0-2.615-1.279-2.615s-1.3.874-1.3,3.714c0,.4,0,1.844.021,2.717.021.527.062,1.562,1.259,1.562s1.3-.992,1.3-2.678Z" fill="#fff"/>
    <path id="Tracé_1215" data-name="Tracé 1215" d="M429.8,6382.989v-1.258c-.021-.545-.04-1.745-1.258-1.745a1.112,1.112,0,0,0-1.176.854,7.357,7.357,0,0,0-.123,2.149Zm1.522,2.922a5.017,5.017,0,0,1-.184,1.723,2.988,2.988,0,0,1-5.274.042c-.181-.488-.263-.689-.263-4.77,0-2.168.182-4.156,2.8-4.156a2.5,2.5,0,0,1,2.841,2.212,22.605,22.605,0,0,1,.081,3.347h-4.079c0,.791-.02,1.822.021,2.19.042.384.121,1.44,1.278,1.44,1.177,0,1.279-.994,1.279-2.028Z" fill="#fff"/>
    <path id="Tracé_1216" data-name="Tracé 1216" d="M446.951,6389.055H444.6l-1.562-11.867-1.644,11.867h-2.352l-2.352-14.322h1.765l1.764,12.556,1.684-12.556h2.291l1.644,12.556,1.785-12.556h1.745Z" fill="#fff"/>
    <path id="Tracé_1217" data-name="Tracé 1217" d="M453.622,6383.272a10.03,10.03,0,0,1-1.339,1.1,2.424,2.424,0,0,0-1.278,2.172c0,.446,0,1.5,1.1,1.5a1.414,1.414,0,0,0,.872-.3,2.206,2.206,0,0,0,.65-1.947Zm1.6,3.631c0,1.582.062,1.805.488,2.151h-1.989v-1.216a2.191,2.191,0,0,1-2.091,1.4,2.362,2.362,0,0,1-1.216-.3,2.424,2.424,0,0,1-1.054-2.292,3,3,0,0,1,1.7-2.9,15.09,15.09,0,0,0,2.556-1.925c0-.831,0-1.786-1.237-1.786-1.218,0-1.218.852-1.218,1.46,0,.306.021.529.04.75h-1.48a7.912,7.912,0,0,1,.141-2.028c.507-1.48,2.232-1.48,2.678-1.48a2.6,2.6,0,0,1,2.05.75c.628.65.628,1.2.628,2.578Z" fill="#fff"/>
    <path id="Tracé_1218" data-name="Tracé 1218" d="M460.618,6380.129h-1.483v6.449c0,.65.062,1.3.933,1.3a2,2,0,0,0,.567-.08v1.318a3.007,3.007,0,0,1-.89.123c-1.421,0-1.867-.487-2.069-.954s-.2-.67-.2-2.537v-5.618h-1.215v-1.239h1.257v-2.717h1.622v2.717h1.483Z" fill="#fff"/>
    <path id="Tracé_1219" data-name="Tracé 1219" d="M467.267,6385.281c0,1.848,0,3.956-2.942,3.956a2.382,2.382,0,0,1-2.577-1.6,13.637,13.637,0,0,1-.241-3.407c0-3.608.1-5.5,2.981-5.5,2.779,0,2.779,1.843,2.779,3.852h-1.542c0-1.741,0-2.615-1.279-2.615s-1.3.874-1.3,3.714c0,.4,0,1.844.021,2.717.021.527.062,1.562,1.258,1.562s1.3-.992,1.3-2.678Z" fill="#fff"/>
    <path id="Tracé_1220" data-name="Tracé 1220" d="M474.49,6389.055h-1.6v-6.086c0-1.97,0-2.961-1.258-2.961-1.358,0-1.358,1.337-1.358,2.961v6.086h-1.6v-14.323h1.6v5.092a2.375,2.375,0,0,1,2.028-1.1,2.091,2.091,0,0,1,1.643.731,4.1,4.1,0,0,1,.549,2.615Z" fill="#fff"/>
  </g>
</svg>
