<svg xmlns="http://www.w3.org/2000/svg" width="1099.111" height="291.258" viewBox="0 0 1099.111 291.258">
  <g id="Groupe_267" data-name="Groupe 267" transform="translate(-385.562 -1755.495)">
    <g id="Groupe_260" data-name="Groupe 260">
      <path id="Tracé_1451" data-name="Tracé 1451" d="M433.4,2040.878s-81.426-121.827,14.418-179.967c53.478-32.441,126.5,25.158,180.721-61.92,31.557-50.669,141.991-66.053,197.211,3.132s102.7,68.832,140.8,56.033c43.7-14.672,62.892-58.847,131.294-49.509,79.053,10.8,68.467,76.25,126.719,64.852,112.342-21.979,195.569,103.592,117.917,168.244Z" fill="#fff"/>
    </g>
    <g id="Groupe_261" data-name="Groupe 261">
      <path id="Tracé_1452" data-name="Tracé 1452" d="M719.891,1919.368l-1.406.692a1.105,1.105,0,0,1-.111-.173c0-.017,1.428-.491,1.517-.519" fill="#ee994b"/>
    </g>
    <path id="Tracé_1453" data-name="Tracé 1453" d="M475.946,1917.679l.005,2.2,55.254-.558L1484.673,1918l-.006-2.209Z" fill="#233861"/>
    <path id="Tracé_1454" data-name="Tracé 1454" d="M755.526,1912.9s7.637-1.652,10.795.463,5.494,5.612,3.514,6.4-8.016-.887-9.071-1.54-4.206-1.551-4.568-1.952-.67-3.375-.67-3.375" fill="#f6b07f"/>
    <path id="Tracé_1455" data-name="Tracé 1455" d="M678.351,1862.887s-31.937,23.312-31.937,33.761c0,5.254,7.766,19.524,25.812,21.571l2.688-5.026s-15.223-12.244-14.341-13.516,20.84-14.03,20.84-22.113a38.664,38.664,0,0,0-3.062-14.677" fill="#4c72b6"/>
    <path id="Tracé_1456" data-name="Tracé 1456" d="M756.538,2031.054s5.4,5.841,12.652,6.789c0,0,4.848.039,4.848,4.558H748.383a44.246,44.246,0,0,1-.592-6.086c-.128-3-4.239-6.081-4.239-6.081Z" fill="#212975"/>
    <path id="Tracé_1457" data-name="Tracé 1457" d="M684.445,2033.5s1.478,4.362,7.391,5.132c0,0,3.955.039,3.955,3.726h-20.93a16.2,16.2,0,0,1,1.038-5.472,47.214,47.214,0,0,1,2.577-5.467Z" fill="#212975"/>
    <path id="Tracé_1458" data-name="Tracé 1458" d="M666.343,1946.536s20.579,39.45,17.254,45.653c-7.046,13.159-9.115,40.1-8.323,41.972a15.264,15.264,0,0,0,12.674,2.2s19.223-40.8,18.788-54.111c-.6-18.308-21.616-46.574-21.616-46.574Z" fill="#212975"/>
    <path id="Tracé_1459" data-name="Tracé 1459" d="M674.912,1865.306s2.454,9.377,10.849,9.969a24.045,24.045,0,0,0,4.575-5.774c.161-.335.318-.664.469-.976,1.483-3.091,2.392-4.786,2.392-4.786l-.005-.006c-.257-.29-8.741-9.718-8.9-9.349-3.727,8.5-9.377,10.922-9.377,10.922" fill="#d1e5ff"/>
    <path id="Tracé_1460" data-name="Tracé 1460" d="M684.413,1856.9a18.551,18.551,0,0,0,6.393,11.625c1.478-3.09,2.393-4.786,2.393-4.786l-.005-.006c-.257-.217-8.82-7.542-8.781-6.833" fill="#a8cfff"/>
    <path id="Tracé_1461" data-name="Tracé 1461" d="M695.553,1864.469s-13.142-2.84-11.279-11.124,1.434-14.23,9.9-12.768,9.382,5,9.427,7.921-4.58,16.495-8.05,15.971" fill="#d1e5ff"/>
    <path id="Tracé_1462" data-name="Tracé 1462" d="M704.729,1941.6s35.539,64.821,55.309,90.069c0,0-5.712,4.859-14.827,2.058,0,0-29.61-24.349-38.039-38.167s-27.133-37.386-39.534-46.925Z" fill="#444b8b"/>
    <path id="Tracé_1463" data-name="Tracé 1463" d="M658.385,1914.313s1.886,30.609,7.96,34.374c6.979,4.329,42.541-1.623,40.288-5.773a53.058,53.058,0,0,1-4.625-11.609,76.484,76.484,0,0,1-2.07-26.927,72.879,72.879,0,0,0,.045-12.088c-.6-7.486-2.41-14.1-5.283-17.661-4.379-5.417-16.35-11.743-16.35-11.743s-21.382,8.981-19.965,51.427" fill="#7794cc"/>
    <path id="Tracé_1464" data-name="Tracé 1464" d="M702.009,1931.3a76.454,76.454,0,0,1-2.069-26.926,73.55,73.55,0,0,0,.044-12.089c-2.51-3.866-6.1-6.3-11.179-6.075,0,0-9.16,27.267,13.2,45.09" fill="#4c72b6"/>
    <path id="Tracé_1465" data-name="Tracé 1465" d="M691.1,1871.627s20.311,19.374,31.25,27.289c0,0,34.29,11.815,35.216,13.037a8.1,8.1,0,0,1-1.338,4.914s-33.783-2.755-39.691-4.987-29.4-15.251-31.384-17.967-3.893-24.166,5.947-22.286" fill="#7794cc"/>
    <path id="Tracé_1466" data-name="Tracé 1466" d="M681.742,1836.593c-.1-.162-.368-.318-.987-.446a2.474,2.474,0,0,1,1.216-.168c.257-.881.943-2.4,2.493-2.571a1.934,1.934,0,0,0-1.1,1.266c1.986-1.584,5.891-2.388,16.06-.067,13.405,3.057,7.687,11.363,5.779,12.178s-5.913-2.75-9.221-2.951-4.608,4.58-5.813,5.087-.6-.608-2-1.528-1.908,1.629-1.707,3.358-2.17,3.637-2.17,3.637l-1.757-2.616c-1.763-2.616-2.354-12.7-1.116-14.655.106-.173.218-.351.329-.524" fill="#444b8b"/>
    <path id="Tracé_1467" data-name="Tracé 1467" d="M703.618,1912.9s7.637-1.652,10.794.463,5.495,5.612,3.514,6.4-8.016-.887-9.07-1.54-4.206-1.551-4.569-1.952-.669-3.375-.669-3.375" fill="#d1e5ff"/>
    <path id="Tracé_1468" data-name="Tracé 1468" d="M626.442,1862.887s-31.936,23.312-31.936,33.761c0,5.254,7.771,19.524,25.811,21.571l2.689-5.026s-15.223-12.244-14.342-13.516,20.841-14.03,20.841-22.113a38.654,38.654,0,0,0-3.063-14.677" fill="#212975"/>
    <path id="Tracé_1469" data-name="Tracé 1469" d="M704.631,2031.054s5.4,5.841,12.651,6.789c0,0,4.848.039,4.848,4.558H696.475a44.246,44.246,0,0,1-.592-6.086c-.128-3-4.239-6.081-4.239-6.081Z" fill="#212975"/>
    <path id="Tracé_1470" data-name="Tracé 1470" d="M632.537,2033.5s1.478,4.362,7.391,5.132c0,0,3.956.039,3.956,3.726h-20.93a16.187,16.187,0,0,1,1.037-5.472,47.207,47.207,0,0,1,2.577-5.467Z" fill="#233861"/>
    <path id="Tracé_1471" data-name="Tracé 1471" d="M614.435,1946.536s20.579,39.45,17.254,45.653c-7.045,13.159-9.115,40.1-8.323,41.972a15.265,15.265,0,0,0,12.674,2.2s19.223-40.8,18.788-54.111c-.6-18.308-21.616-46.574-21.616-46.574Z" fill="#e04820"/>
    <path id="Tracé_1472" data-name="Tracé 1472" d="M623,1865.306s2.454,9.377,10.856,9.969a24.064,24.064,0,0,0,4.568-5.774c.162-.335.318-.664.469-.976,1.484-3.091,2.393-4.786,2.393-4.786l-.006-.006c-.256-.29-8.741-9.718-8.9-9.349-3.726,8.5-9.377,10.922-9.377,10.922" fill="#d1e5ff"/>
    <path id="Tracé_1473" data-name="Tracé 1473" d="M632.505,1856.9a18.546,18.546,0,0,0,6.393,11.625c1.478-3.09,2.393-4.786,2.393-4.786l-.006-.006c-.257-.217-8.819-7.542-8.78-6.833" fill="#a8cfff"/>
    <path id="Tracé_1474" data-name="Tracé 1474" d="M643.645,1864.469s-13.143-2.84-11.274-11.124,1.428-14.23,9.9-12.768,9.388,5,9.428,7.921-4.581,16.495-8.05,15.971" fill="#d1e5ff"/>
    <path id="Tracé_1475" data-name="Tracé 1475" d="M652.82,1941.6s35.54,64.821,55.31,90.069c0,0-5.713,4.859-14.828,2.058,0,0-29.61-24.349-38.039-38.167s-27.133-37.386-39.534-46.925Z" fill="#e07d63"/>
    <path id="Tracé_1476" data-name="Tracé 1476" d="M606.477,1914.313s1.885,30.609,7.96,34.374c6.979,4.329,42.541-1.623,40.293-5.773a52.677,52.677,0,0,1-4.631-11.609,76.487,76.487,0,0,1-2.069-26.927,73,73,0,0,0,.045-12.088c-.6-7.486-2.405-14.1-5.283-17.661-4.379-5.417-16.35-11.743-16.35-11.743s-21.382,8.981-19.965,51.427" fill="#444b8b"/>
    <path id="Tracé_1477" data-name="Tracé 1477" d="M650.1,1931.3a76.45,76.45,0,0,1-2.07-26.926,73.66,73.66,0,0,0,.045-12.089c-2.511-3.866-6.1-6.3-11.179-6.075,0,0-9.16,27.267,13.2,45.09" fill="#212975"/>
    <path id="Tracé_1478" data-name="Tracé 1478" d="M639.193,1871.627s20.31,19.374,31.25,27.289c0,0,34.29,11.815,35.216,13.037a8.1,8.1,0,0,1-1.339,4.914s-33.783-2.755-39.69-4.987-29.4-15.251-31.384-17.967-3.894-24.166,5.947-22.286" fill="#444b8b"/>
    <path id="Tracé_1479" data-name="Tracé 1479" d="M629.834,1836.593c-.1-.162-.368-.318-.987-.446a2.472,2.472,0,0,1,1.215-.168c.257-.881.943-2.4,2.494-2.571a1.934,1.934,0,0,0-1.1,1.266c1.986-1.584,5.89-2.388,16.059-.067,13.405,3.057,7.688,11.363,5.78,12.178s-5.913-2.75-9.221-2.951-4.608,4.58-5.813,5.087-.6-.608-2-1.528-1.907,1.629-1.707,3.358-2.169,3.637-2.169,3.637l-1.758-2.616c-1.763-2.616-2.354-12.7-1.115-14.655.106-.173.217-.351.329-.524" fill="#e04820"/>
    <path id="Tracé_1480" data-name="Tracé 1480" d="M942.97,1912.9s7.637-1.652,10.8.463,5.494,5.612,3.514,6.4-8.016-.887-9.071-1.54-4.206-1.551-4.568-1.952-.67-3.375-.67-3.375" fill="#f6b07f"/>
    <path id="Tracé_1481" data-name="Tracé 1481" d="M865.795,1862.887s-31.936,23.312-31.936,33.761c0,5.254,7.765,19.524,25.811,21.571l2.684-5.026s-15.224-12.244-14.337-13.516,20.841-14.03,20.841-22.113a38.654,38.654,0,0,0-3.063-14.677" fill="#1d3d70"/>
    <path id="Tracé_1482" data-name="Tracé 1482" d="M943.984,2031.054s5.4,5.841,12.651,6.789c0,0,4.848.039,4.848,4.558H935.828a44.443,44.443,0,0,1-.592-6.086c-.128-3-4.239-6.081-4.239-6.081Z" fill="#212975"/>
    <path id="Tracé_1483" data-name="Tracé 1483" d="M871.89,2033.5s1.478,4.362,7.391,5.132c0,0,3.955.039,3.955,3.726h-20.93a16.217,16.217,0,0,1,1.037-5.472,47.132,47.132,0,0,1,2.578-5.467Z" fill="#212975"/>
    <path id="Tracé_1484" data-name="Tracé 1484" d="M853.789,1946.536s20.578,39.45,17.253,45.653c-7.045,13.159-9.115,40.1-8.323,41.972a15.267,15.267,0,0,0,12.675,2.2s19.223-40.8,18.787-54.111c-.6-18.308-21.616-46.574-21.616-46.574Z" fill="#e04820"/>
    <path id="Tracé_1485" data-name="Tracé 1485" d="M862.356,1865.306s2.454,9.377,10.855,9.969a24.085,24.085,0,0,0,4.569-5.774l.468-.976c1.484-3.091,2.393-4.786,2.393-4.786l-.005-.006c-.257-.29-8.742-9.718-8.9-9.349-3.727,8.5-9.377,10.922-9.377,10.922" fill="#d1e5ff"/>
    <path id="Tracé_1486" data-name="Tracé 1486" d="M871.857,1856.9a18.551,18.551,0,0,0,6.393,11.625c1.478-3.09,2.393-4.786,2.393-4.786l-.005-.006c-.257-.217-8.82-7.542-8.781-6.833" fill="#a8cfff"/>
    <path id="Tracé_1487" data-name="Tracé 1487" d="M883,1864.469s-13.143-2.84-11.274-11.124,1.428-14.23,9.9-12.768,9.388,5,9.428,7.921-4.58,16.495-8.05,15.971" fill="#d1e5ff"/>
    <path id="Tracé_1488" data-name="Tracé 1488" d="M892.174,1941.6s35.54,64.821,55.3,90.069c0,0-5.707,4.859-14.822,2.058,0,0-29.61-24.349-38.039-38.167s-27.133-37.386-39.534-46.925Z" fill="#e07d63"/>
    <path id="Tracé_1489" data-name="Tracé 1489" d="M845.83,1914.313s1.885,30.609,7.96,34.374c6.979,4.329,42.541-1.623,40.287-5.773a53.07,53.07,0,0,1-4.624-11.609,76.46,76.46,0,0,1-2.07-26.927,73.648,73.648,0,0,0,.045-12.088c-.6-7.486-2.41-14.1-5.283-17.661-4.379-5.417-16.35-11.743-16.35-11.743s-21.382,8.981-19.965,51.427" fill="#444b8b"/>
    <path id="Tracé_1490" data-name="Tracé 1490" d="M889.454,1931.3a76.452,76.452,0,0,1-2.07-26.926,73.66,73.66,0,0,0,.045-12.089c-2.511-3.866-6.1-6.3-11.179-6.075,0,0-9.16,27.267,13.2,45.09" fill="#1d3d70"/>
    <path id="Tracé_1491" data-name="Tracé 1491" d="M878.546,1871.627s20.311,19.374,31.25,27.289c0,0,34.29,11.815,35.216,13.037a8.052,8.052,0,0,1-1.339,4.914s-33.782-2.755-39.69-4.987-29.4-15.251-31.384-17.967-3.893-24.166,5.947-22.286" fill="#444b8b"/>
    <path id="Tracé_1492" data-name="Tracé 1492" d="M869.187,1836.593c-.1-.162-.368-.318-.987-.446a2.472,2.472,0,0,1,1.215-.168c.257-.881.943-2.4,2.494-2.571a1.934,1.934,0,0,0-1.1,1.266c1.986-1.584,5.89-2.388,16.06-.067,13.4,3.057,7.687,11.363,5.779,12.178s-5.913-2.75-9.221-2.951-4.608,4.58-5.813,5.087-.6-.608-2-1.528-1.907,1.629-1.706,3.358-2.17,3.637-2.17,3.637l-1.758-2.616c-1.763-2.616-2.354-12.7-1.115-14.655.106-.173.217-.351.329-.524" fill="#444b8b"/>
    <path id="Tracé_1493" data-name="Tracé 1493" d="M1021.225,2026.624s5.405,4.112,13.689,1.942c0,0,6.677-1.546,8.144,1.835,0,0-10.242,5.283-12.836,6.727a30.768,30.768,0,0,0-5.433,4.14,2.664,2.664,0,0,1-3.888-.307c-.452-.564-.965-1.233-1.534-2.014-1.579-2.17-5.255-9.188-5.255-9.188Z" fill="#212975"/>
    <path id="Tracé_1494" data-name="Tracé 1494" d="M1024.4,2024.535s-3.292,7.7-10.89,6.287c0,0-15.5-13-26.14-26.5a60.187,60.187,0,0,1-8.122-12.886c-7.051-16.579-26.084-41.308-38.189-53.837l30.279-11.124s9.7,19.809,22.6,44.136c9.3,17.533,20.26,37.415,30.458,53.927" fill="#444b8b"/>
    <path id="Tracé_1495" data-name="Tracé 1495" d="M993.939,1970.611l-6.571,33.705a60.19,60.19,0,0,1-8.122-12.886c-7.051-16.579-26.085-41.3-38.19-53.837l30.28-11.123s9.7,19.808,22.6,44.141" fill="#233861"/>
    <path id="Tracé_1496" data-name="Tracé 1496" d="M996.079,1908.6l2.41,1.986s6.6-2.4,8.083,5.562c0,0,.4,3.391-1.718,3.4s-1.244-.374-4.24-.285-5.478-1.511-5.919-3.983l-1.433-2.092Z" fill="#9ab0dc"/>
    <path id="Tracé_1497" data-name="Tracé 1497" d="M995.806,1912.864c1.925-2.036,1.768-3.548,1.768-3.548S975.3,1890.8,973.041,1889.3c-1.54-1.032-17.94-15.8-25.611-24.8-3.8-4.468-8.512-2.733-13.906-1.165l-4.435,1.294c-5.361,1.562-6.756,9.176-2.36,12.875,12.39,10.414,32.99,22.129,36.851,24.595,9.567,6.114,28.3,13.377,28.3,13.377a11.873,11.873,0,0,0,3.921-2.611" fill="#4c72b6"/>
    <path id="Tracé_1498" data-name="Tracé 1498" d="M969.19,2031.1s-.33,6.148,7.011,6.968c0,0,4.2.022,4.207,3.938l-21.338.067a17.1,17.1,0,0,1-.77-4.959c-.117-2.594,2.477-9.383,2.477-9.383Z" fill="#212975"/>
    <path id="Tracé_1499" data-name="Tracé 1499" d="M961.406,1926.472s13.488,15.05,22.051,42.161c4.658,14.749-8.541,51.84-11.112,64.726,0,0-8.853.764-14.906-1.612,0,0-.463-26.615,3.079-47.132,1.981-11.48-17.761-24.55-26.385-45.3-5.869-14.114,1.272-13.874,10.041-14.214Z" fill="#444b8b"/>
    <path id="Tracé_1500" data-name="Tracé 1500" d="M939.467,1856a64.041,64.041,0,0,0-.876-8.942l-12.222-6.3c2.834,11.664-3.4,18.905-3.4,18.905s15.363,3.966,22.872-.335a19.562,19.562,0,0,0-6.371-3.33" fill="#bedbff"/>
    <path id="Tracé_1501" data-name="Tracé 1501" d="M942.43,1845.127s-11.185,8.15-16.071,1-9.629-10.911-2.7-16.417,10.2-3.76,12.407-1.779,9.142,14.894,6.359,17.2" fill="#bedbff"/>
    <path id="Tracé_1502" data-name="Tracé 1502" d="M973.354,1925.694c0,1.339-1.518,1.98-1.841,2.047-3.029.558-11.48,3.9-19.095,4.664a60.17,60.17,0,0,1-18.9-1.3c-.87-.178-2.9-.731-3.045-1.573-.179-.92-25.22-51.834-5.757-73.707.457-.513,4.3.413,7.815,1.255a14.147,14.147,0,0,0,8.881-.736l3.3,1.763c4.05,2.292,11.7,10.426,12.6,16.807.458,3.247,2.282,5.651,2.812,8.507.2,1.06.4,2.087.6,3.1q.594,2.953,1.233,5.634c1.144,4.826,2.354,8.982,3.542,12.574,1.261,3.81,2.5,6.984,3.609,9.634,1.434,3.442,2.645,6.013,3.4,7.983a9.937,9.937,0,0,1,.842,3.352" fill="#7794cc"/>
    <path id="Tracé_1503" data-name="Tracé 1503" d="M972.512,1922.34c-35.35-16.908-47.6-49.38-47.6-49.38s28.723,10.755,35.808,13.556q.594,2.961,1.232,5.634c1.144,4.831,2.355,8.987,3.543,12.573,1.261,3.816,2.5,6.984,3.6,9.64,1.44,3.436,2.65,6.008,3.409,7.977" fill="#4c72b6"/>
    <path id="Tracé_1504" data-name="Tracé 1504" d="M993.194,1912.54l3.057,1.138s6.114-4.39,9.924,2.75c0,0,1.377,3.118-.8,3.8s-1.389.039-4.451,1.076-6.086.29-7.246-1.935l-2.076-1.545Z" fill="#a9bde3"/>
    <path id="Tracé_1505" data-name="Tracé 1505" d="M995.708,1916.927l1.645-4.346s-23.083-19.106-25.437-20.746c-1.6-1.116-17.555-13.221-25.331-22.659a16.144,16.144,0,0,0-15.832-5.567l-4.842,1.026a7.356,7.356,0,0,0-3.213,12.719c12.78,11.129,34.341,24.031,38.362,26.715,9.98,6.666,32.048,16,32.048,16a5.728,5.728,0,0,0,2.6-3.14" fill="#7794cc"/>
    <path id="Tracé_1506" data-name="Tracé 1506" d="M937.25,1821.472a18.446,18.446,0,0,0-1.3-4.681s-.7,2.951-6.014,2.544-13.728.53-16.534,6.678a12.4,12.4,0,0,0-.48,1.2,14.443,14.443,0,0,1-.63-3.4,10.63,10.63,0,0,0,0,5.952c-.017.1-.028.2-.045.29-1.172,1.009-2.159,4.139-2.159,4.139a3.722,3.722,0,0,1,1.992-1.8c-.028,4.78,1.885,9.461,5.238,10.85,4.9,2.036,4.864.485,9.795,3.8,0,0,1.322-1.668.419-2.783s-4.312-2.751-2.4-4.38,2.605.207,3.307-.914-2.806-4.374,1.7-7.431,7.519-7.324,7.118-10.074" fill="#212975"/>
    <path id="Tracé_1507" data-name="Tracé 1507" d="M401.1,2011.446c-1.2-4.156-26.23-21.845-10.192-46.373,9.1-13.919,20.166-35.987,32.807-43.975,15.814-9.991,32.136-3.107,52.23-3.419l.006,2.2c-19.687.312-34.994-7.241-50.463,2.533-12.378,7.826-24.422,29.61-32.672,43.706-14.939,25.51,11.57,39.914,11.425,44.783-.067,2.237-2.907,1.362-3.141.542" fill="#233861"/>
    <path id="Tracé_1508" data-name="Tracé 1508" d="M817.425,2032.888s1.517,4.479,7.592,5.271c0,0,4.061.034,4.061,3.821H807.585a16.666,16.666,0,0,1,1.065-5.611,48.912,48.912,0,0,1,2.644-5.618Z" fill="#212975"/>
    <path id="Tracé_1509" data-name="Tracé 1509" d="M836.332,1998.326c-5.651,17-15.313,37.493-15.313,37.493a15.653,15.653,0,0,1-13.009-2.26c-.814-1.919,1.311-29.571,8.546-43.081,1.132-2.115-.441-8-3.051-14.911-5.238-13.9-14.66-31.959-14.66-31.959l19.273-11.146s21.572,29.014,22.191,47.807c.134,4.106-1.551,10.761-3.977,18.057" fill="#444b8b"/>
    <path id="Tracé_1510" data-name="Tracé 1510" d="M811.169,1857.737s-32.785,25.2-32.785,34.658c0,5.394,9.238,18.431,30.888,23.078l3.81-5.461s-18.95-14.526-18.041-15.832,19.268-13.075,19.268-21.376a39.745,39.745,0,0,0-3.14-15.067" fill="#2b76c1"/>
    <path id="Tracé_1511" data-name="Tracé 1511" d="M891.435,2030.375s5.545,6,12.987,6.967c0,0,4.976.039,4.976,4.68H883.062a45.787,45.787,0,0,1-.608-6.242c-.128-3.085-4.351-6.248-4.351-6.248Z" fill="#212975"/>
    <path id="Tracé_1512" data-name="Tracé 1512" d="M836.332,1998.326l-22.827-22.759c-5.238-13.9-14.66-31.959-14.66-31.959l19.273-11.146s21.572,29.014,22.191,47.807c.134,4.106-1.551,10.761-3.977,18.057" fill="#233861"/>
    <path id="Tracé_1513" data-name="Tracé 1513" d="M807.639,1860.221s2.521,9.628,11.139,10.231a24.663,24.663,0,0,0,4.692-5.925c.167-.346.329-.68.479-1,1.523-3.18,2.461-4.92,2.461-4.92l-.006-.006c-.262-.3-8.976-9.969-9.143-9.595-3.821,8.73-9.622,11.213-9.622,11.213" fill="#d1e5ff"/>
    <path id="Tracé_1514" data-name="Tracé 1514" d="M817.392,1851.589a19.069,19.069,0,0,0,6.56,11.938c1.523-3.175,2.46-4.915,2.46-4.915a.006.006,0,0,0-.006-.006c-.262-.228-9.053-7.742-9.014-7.017" fill="#a8cfff"/>
    <path id="Tracé_1515" data-name="Tracé 1515" d="M828.829,1859.36s-13.494-2.912-11.575-11.419,1.467-14.61,10.164-13.109,9.634,5.138,9.673,8.133-4.7,16.936-8.262,16.4" fill="#d1e5ff"/>
    <path id="Tracé_1516" data-name="Tracé 1516" d="M838.248,1938.543s36.483,66.544,56.777,92.467c0,0-5.863,4.982-15.218,2.109,0,0-30.4-25-39.049-39.183s-27.858-38.379-40.582-48.175Z" fill="#444b8b"/>
    <path id="Tracé_1517" data-name="Tracé 1517" d="M790.672,1910.531s1.936,31.423,8.172,35.289c7.163,4.44,43.673-1.668,41.364-5.924a54.155,54.155,0,0,1-4.753-11.921,78.523,78.523,0,0,1-2.125-27.641,75.049,75.049,0,0,0,.044-12.412c-.619-7.682-2.471-14.47-5.422-18.13-4.49-5.562-16.785-12.055-16.785-12.055s-21.946,9.221-20.495,52.794" fill="#358ffe"/>
    <path id="Tracé_1518" data-name="Tracé 1518" d="M835.456,1927.973a78.393,78.393,0,0,1-2.125-27.641,75.528,75.528,0,0,0,.044-12.406c-2.577-3.978-6.259-6.477-11.475-6.242,0,0-9.4,27.992,13.556,46.289" fill="#2b76c1"/>
    <path id="Tracé_1519" data-name="Tracé 1519" d="M816.692,1850.239c-.217.028-3.207-.407-3.509-12.791a9.681,9.681,0,0,1,4.206-7.731c3.208-2.137,10.728-1.429,16.54.1s5.679,5.188,5.517,8.853c-.178,3.849,2.4,8.323,2.4,8.323-5.812.407-9.622-5.98-11.826-6.287s-4.312,2.443-4.914,3.358-1.2,1.629-3.208-.407-2.7,2.951-2.7,3.972c0,0-.7,2.376-2.505,2.61" fill="#e04820"/>
    <path id="Tracé_1520" data-name="Tracé 1520" d="M532.5,2032.888s1.517,4.479,7.592,5.271c0,0,4.056.034,4.056,3.821H522.656a16.666,16.666,0,0,1,1.065-5.611,48.912,48.912,0,0,1,2.644-5.618Z" fill="#212975"/>
    <path id="Tracé_1521" data-name="Tracé 1521" d="M551.4,1998.326c-5.651,17-15.313,37.493-15.313,37.493a15.65,15.65,0,0,1-13.008-2.26c-.815-1.919,1.311-29.571,8.546-43.081,1.132-2.115-.441-8-3.052-14.911-5.238-13.9-14.66-31.959-14.66-31.959l19.274-11.146s21.571,29.014,22.19,47.807c.134,4.106-1.55,10.761-3.977,18.057" fill="#e07d63"/>
    <path id="Tracé_1522" data-name="Tracé 1522" d="M526.239,1857.737s-32.784,25.2-32.784,34.658c0,5.394,9.238,18.431,30.893,23.078l3.8-5.461s-18.95-14.526-18.04-15.832S529.38,1881.1,529.38,1872.8a39.735,39.735,0,0,0-3.141-15.067" fill="#2b76c1"/>
    <path id="Tracé_1523" data-name="Tracé 1523" d="M606.506,2030.375s5.544,6,12.986,6.967c0,0,4.976.039,4.976,4.68H598.132a45.787,45.787,0,0,1-.608-6.242c-.128-3.085-4.351-6.248-4.351-6.248Z" fill="#212975"/>
    <path id="Tracé_1524" data-name="Tracé 1524" d="M551.4,1998.326l-22.827-22.759c-5.238-13.9-14.66-31.959-14.66-31.959l19.274-11.146s21.571,29.014,22.19,47.807c.134,4.106-1.55,10.761-3.977,18.057" fill="#e04820"/>
    <path id="Tracé_1525" data-name="Tracé 1525" d="M522.709,1860.221s2.521,9.628,11.14,10.231a24.669,24.669,0,0,0,4.691-5.925c.168-.346.329-.68.486-1,1.517-3.18,2.46-4.92,2.46-4.92a.019.019,0,0,1-.012-.006c-.262-.3-8.975-9.969-9.137-9.595-3.827,8.73-9.628,11.213-9.628,11.213" fill="#d1e5ff"/>
    <path id="Tracé_1526" data-name="Tracé 1526" d="M532.463,1851.589a19.07,19.07,0,0,0,6.56,11.938c1.523-3.175,2.46-4.915,2.46-4.915a.006.006,0,0,0-.006-.006c-.262-.228-9.053-7.742-9.014-7.017" fill="#a8cfff"/>
    <path id="Tracé_1527" data-name="Tracé 1527" d="M543.9,1859.36s-13.495-2.912-11.576-11.419,1.467-14.61,10.164-13.109,9.634,5.138,9.673,8.133-4.7,16.936-8.261,16.4" fill="#d1e5ff"/>
    <path id="Tracé_1528" data-name="Tracé 1528" d="M553.319,1938.543s36.483,66.544,56.777,92.467c0,0-5.863,4.982-15.218,2.109,0,0-30.4-25-39.049-39.183s-27.858-38.379-40.582-48.175Z" fill="#e07d63"/>
    <path id="Tracé_1529" data-name="Tracé 1529" d="M505.743,1910.531s1.936,31.423,8.172,35.289c7.163,4.44,43.673-1.668,41.358-5.924a54.54,54.54,0,0,1-4.747-11.921,78.525,78.525,0,0,1-2.125-27.641,75.6,75.6,0,0,0,.044-12.412c-.619-7.682-2.471-14.47-5.422-18.13-4.49-5.562-16.785-12.055-16.785-12.055s-21.946,9.221-20.495,52.794" fill="#358ffe"/>
    <path id="Tracé_1530" data-name="Tracé 1530" d="M550.527,1927.973a78.532,78.532,0,0,1-2.126-27.641,75.638,75.638,0,0,0,.045-12.406c-2.578-3.978-6.259-6.477-11.475-6.242,0,0-9.4,27.992,13.556,46.289" fill="#2b76c1"/>
    <path id="Tracé_1531" data-name="Tracé 1531" d="M531.763,1850.239c-.218.028-3.208-.407-3.509-12.791a9.7,9.7,0,0,1,4.206-7.731c3.207-2.137,10.727-1.429,16.54.1s5.678,5.188,5.517,8.853c-.179,3.849,2.4,8.323,2.4,8.323-5.813.407-9.623-5.98-11.826-6.287s-4.313,2.443-4.915,3.358-1.2,1.629-3.208-.407-2.7,2.951-2.7,3.972c0,0-.7,2.376-2.5,2.61" fill="#212975"/>
    <path id="Tracé_1532" data-name="Tracé 1532" d="M986.676,2032.888s1.518,4.479,7.592,5.271c0,0,4.056.034,4.056,3.821H976.836a16.666,16.666,0,0,1,1.065-5.611,48.912,48.912,0,0,1,2.644-5.618Z" fill="#212975"/>
    <path id="Tracé_1533" data-name="Tracé 1533" d="M1005.582,1998.326c-5.651,17-15.313,37.493-15.313,37.493a15.653,15.653,0,0,1-13.009-2.26c-.814-1.919,1.311-29.571,8.546-43.081,1.133-2.115-.44-8-3.051-14.911-5.238-13.9-14.66-31.959-14.66-31.959l19.273-11.146s21.572,29.014,22.191,47.807c.134,4.106-1.551,10.761-3.977,18.057" fill="#e07d63"/>
    <path id="Tracé_1534" data-name="Tracé 1534" d="M1054.793,1913.463s6.655-1.233,9.17,1.11,4.541,5.422,1.233,5.584c-3.442.167-5.534-.206-6.382-.937s-3.458-1.835-3.732-2.265a16.818,16.818,0,0,1-.289-3.492" fill="#f6b07f"/>
    <path id="Tracé_1535" data-name="Tracé 1535" d="M980.42,1857.737s-32.784,25.2-32.784,34.658c0,5.394,9.237,18.431,30.887,23.078l3.81-5.461s-18.95-14.526-18.041-15.832S983.56,1881.1,983.56,1872.8a39.745,39.745,0,0,0-3.14-15.067" fill="#2b76c1"/>
    <path id="Tracé_1536" data-name="Tracé 1536" d="M1060.686,2030.375s5.545,6,12.986,6.967c0,0,4.976.039,4.976,4.68h-26.335a45.576,45.576,0,0,1-.608-6.242c-.129-3.085-4.351-6.248-4.351-6.248Z" fill="#212975"/>
    <path id="Tracé_1537" data-name="Tracé 1537" d="M1005.582,1998.326l-22.827-22.759c-5.238-13.9-14.66-31.959-14.66-31.959l19.273-11.146s21.572,29.014,22.191,47.807c.134,4.106-1.551,10.761-3.977,18.057" fill="#e04820"/>
    <path id="Tracé_1538" data-name="Tracé 1538" d="M976.889,1860.221s2.522,9.628,11.14,10.231a24.662,24.662,0,0,0,4.692-5.925c.167-.346.329-.68.485-1,1.517-3.18,2.46-4.92,2.46-4.92a.017.017,0,0,1-.011-.006c-.262-.3-8.976-9.969-9.138-9.595-3.826,8.73-9.628,11.213-9.628,11.213" fill="#d1e5ff"/>
    <path id="Tracé_1539" data-name="Tracé 1539" d="M986.643,1851.589a19.07,19.07,0,0,0,6.56,11.938c1.523-3.175,2.46-4.915,2.46-4.915s0-.006-.005-.006c-.263-.228-9.054-7.742-9.015-7.017" fill="#a8cfff"/>
    <path id="Tracé_1540" data-name="Tracé 1540" d="M998.08,1859.36s-13.494-2.912-11.575-11.419,1.467-14.61,10.163-13.109,9.635,5.138,9.673,8.133-4.7,16.936-8.261,16.4" fill="#d1e5ff"/>
    <path id="Tracé_1541" data-name="Tracé 1541" d="M1007.5,1938.543s36.482,66.544,56.776,92.467c0,0-5.863,4.982-15.218,2.109,0,0-30.4-25-39.048-39.183s-27.859-38.379-40.583-48.175Z" fill="#e07d63"/>
    <path id="Tracé_1542" data-name="Tracé 1542" d="M959.923,1910.531s1.936,31.423,8.172,35.289c7.163,4.44,43.673-1.668,41.358-5.924a54.594,54.594,0,0,1-4.747-11.921,78.55,78.55,0,0,1-2.125-27.641,75.6,75.6,0,0,0,.044-12.412c-.619-7.682-2.471-14.47-5.422-18.13-4.49-5.562-16.785-12.055-16.785-12.055s-21.945,9.221-20.5,52.794" fill="#358ffe"/>
    <path id="Tracé_1543" data-name="Tracé 1543" d="M1004.706,1927.973a78.559,78.559,0,0,1-2.125-27.641,75.528,75.528,0,0,0,.044-12.406c-2.577-3.978-6.259-6.477-11.474-6.242,0,0-9.4,27.992,13.555,46.289" fill="#2b76c1"/>
    <path id="Tracé_1544" data-name="Tracé 1544" d="M993.506,1866.46s19.3,21.448,29.877,30.424c0,0,34.19,14.822,35.038,16.15a8.272,8.272,0,0,1-1.746,4.92s-34.363-5.512-40.242-8.262-28.919-17.957-30.732-20.9-2.119-25.041,7.8-22.335" fill="#358ffe"/>
    <path id="Tracé_1545" data-name="Tracé 1545" d="M985.943,1850.239c-.218.028-3.208-.407-3.509-12.791a9.7,9.7,0,0,1,4.206-7.731c3.208-2.137,10.727-1.429,16.54.1s5.684,5.188,5.517,8.853c-.178,3.849,2.4,8.323,2.4,8.323-5.812.407-9.622-5.98-11.826-6.287s-4.312,2.443-4.914,3.358-1.2,1.629-3.208-.407-2.705,2.951-2.705,3.972c0,0-.7,2.376-2.505,2.61" fill="#e07d63"/>
    <path id="Tracé_1546" data-name="Tracé 1546" d="M1051.792,1840.1s-4.284-3.631-9.266-3.045-10.6,2.716-11.318,12.863,2.878,14.5-2.7,18.47-4.474,7.933-3.207,11.827c0,0,2.41-6.126,5.461-5.529,0,0-4.011,5.155-3.6,8.792s4.228,6.962,6.237,8.183a5.133,5.133,0,0,1,5.014-1.444c6.544,1.444,15.213-9.026,14.348-13.377s-.976-36.74-.976-36.74" fill="#212975"/>
    <path id="Tracé_1547" data-name="Tracé 1547" d="M1111.169,2035.838l-4.312.273a224.119,224.119,0,0,1-8.122-24.115,93.145,93.145,0,0,1-3.353-18.6c-.234-4.741-.4-8.378-.4-8.378-.167-.212-1.166-1.2-2.7-2.907-.513-.574-1.088-1.221-1.712-1.952a114.75,114.75,0,0,1-13.4-19.474.14.14,0,0,1-.016-.028,105.885,105.885,0,0,1-6.432-14.158.22.22,0,0,0-.034-.056c-.005-.017-4.178-9.74-5.065-15.134a.018.018,0,0,0-.005-.011c-.056-.352-.1-.692-.129-1a7.1,7.1,0,0,1-.028-.893l.162-.078,18.749-9.26a86.46,86.46,0,0,1,8.73,15.117c.279.625.564,1.267.848,1.914.212.474.424.959.636,1.445.056.122.106.239.156.362,6.6,15.207,13.372,37.308,14.844,46.468.57,3.537.943,13.416,1.183,23.513.318,13.3.4,26.955.4,26.955" fill="#7794cc"/>
    <path id="Tracé_1548" data-name="Tracé 1548" d="M1094.743,1938.9l-2.466,43.216c-.508-.575-1.083-1.227-1.707-1.958a114.884,114.884,0,0,1-13.4-19.469c-.006-.011-.006-.016-.011-.027a118.71,118.71,0,0,1-6.438-14.627c-.011-.033-.022-.05-.028-.067a118.968,118.968,0,0,1-5.07-14.66v-.005c-.062-.357-.1-.692-.129-1.005a8.286,8.286,0,0,1-.033-.892l.167-.084s18.52-9.132,19.469-9.438a137.147,137.147,0,0,1,8.01,15.3c.279.63.564,1.266.848,1.913.212.474.424.959.636,1.45.05.117.106.24.157.357" fill="#4c72b6"/>
    <path id="Tracé_1549" data-name="Tracé 1549" d="M1086.361,1988.988c-1.423,3.916-6.415,15.48-11.023,26.017-4.563,10.426-8.758,19.848-8.758,19.848l-4.262.441a199.8,199.8,0,0,1,.346-22c.753-9.874,2.538-20.394,6.605-25.281a.834.834,0,0,0,.044-.781v-.011c-.569-1.735-2.856-8.859-5.171-17.862-.558-2.187-1.121-4.48-1.662-6.834-.787-3.414-1.523-6.956-2.142-10.476a1.621,1.621,0,0,1-.028-.167c-.3-.792-.764-2.12-1.289-3.894a78.509,78.509,0,0,1-2.159-9.439c-.016-.111-.039-.223-.055-.34-1.35-8.39-.352-13.343-.352-13.343s15.469-2.064,20.417-3.788a19.893,19.893,0,0,1,7.971-1.4s4.709,60.52,1.518,69.3" fill="#7794cc"/>
    <path id="Tracé_1550" data-name="Tracé 1550" d="M1117.5,1915.163c-.324-.547-3-3.247-8.954-4.452a8.429,8.429,0,0,1-2.17-1.367v.006c-5.511-4.189-11.3-8.819-18.007-13.2-3.564-2.332-8.9-7.676-14.453-13.02-2.812-2.7-5.679-5.411-8.39-7.726-1.462-1.249-13.026,6.259-11.994,7.637,5.45,7.3,19.368,15.6,27.173,20.774,6.844,4.529,17.019,8.206,21.872,9.818a.019.019,0,0,0-.011.005s2.589.815,2.767.954a40.84,40.84,0,0,0,4.831,3.721c1.64.893,4.066.575,6.716-.257,1.758-.546,1.155-1.986.62-2.889" fill="#a8cfff"/>
    <path id="Tracé_1551" data-name="Tracé 1551" d="M1073.917,1883.124c-.619,2.555-2.438,7.224-7.52,7.631-6.516.525-10.147-15.073-3.2-17.337.909.775.864.736,2.326,1.98,2.711,2.315,5.578,5.02,8.39,7.726" fill="#233861"/>
    <path id="Tracé_1552" data-name="Tracé 1552" d="M1057.549,1840.868c-2.387-1.986-12.545-9.751-16.383-1.713,0,0-3.922,2.41-4.352,9.868-.435,7.615,6.181,13.137,8.474,11.369,1.467-1.138,3.353,1.657,3.353,1.657l1.9-4.173,9.222-2.1.435-2.945c1.779-7.632-.525-10.594-2.645-11.96" fill="#212975"/>
    <path id="Tracé_1553" data-name="Tracé 1553" d="M1055.957,1936.609c-4.129-9.969-19.971-48.376-8.229-65.831.1-.05.2-.094.3-.139,4.4-1.969,11.982-.859,14.052.892,10.186,8.63,11.859,14.1,12.919,21.327,1.1,7.491,2.482,15.217,8.3,23.39a37.239,37.239,0,0,0,2.476,3.118c7.4,8.379-27.612,22.587-29.821,17.243" fill="#2b488c"/>
    <path id="Tracé_1554" data-name="Tracé 1554" d="M1059.876,1870.679c.4.557,3.168,2.253-3.448,2.253-5.165,0-8.909-1.835-8.7-2.153.675-1.026,1.434-3.682.235-10.727l.552.016,9.232.268s.273,2.89.714,5.579a16.187,16.187,0,0,0,1.412,4.764" fill="#d1e5ff"/>
    <path id="Tracé_1555" data-name="Tracé 1555" d="M1057.75,1860.333s.273,2.89.714,5.579c-5.026.714-8.44-3.464-9.946-5.846Z" fill="#a8cfff"/>
    <path id="Tracé_1556" data-name="Tracé 1556" d="M1059.483,1862.774s-11.832,2.036-12.965-5.467-3.425-12.289,4.084-13.907,9.41,1.021,10.387,3.431,1.539,15.223-1.506,15.943" fill="#d1e5ff"/>
    <path id="Tracé_1557" data-name="Tracé 1557" d="M1060.01,1842.714c-2.17-1.97-3.481-1.267-4.156-.469-7.341-2.438-10.4,3.38-10.4,3.38a14.606,14.606,0,0,1-3.347,9.183s2.365,1.02,7.157-1.049a8.653,8.653,0,0,0,3.609-3.448,28.422,28.422,0,0,1-3.877,6.639c5.534-3.716,6.666-12.5,6.772-13.422a9.552,9.552,0,0,1,3.113,3.1c.876,1.818,1.729,5.712,2.839,5.405,0,0,1.551-6.359-1.707-9.321" fill="#212975"/>
    <path id="Tracé_1558" data-name="Tracé 1558" d="M1083.3,1916.247a54.228,54.228,0,0,1-36.6-32.015s26.224,7.224,29.515,9.874c1.1,7.486,1.434,13.963,7.085,22.141" fill="#212975"/>
    <path id="Tracé_1559" data-name="Tracé 1559" d="M1075.337,2015.007c-4.563,10.426-8.758,19.848-8.758,19.848l-4.256.44a198.883,198.883,0,0,1,.34-21.995c2.276,1.182,6.3,2.421,12.674,1.707" fill="#ccd9f0"/>
    <path id="Tracé_1560" data-name="Tracé 1560" d="M1111.169,2035.838l-4.312.273a224.119,224.119,0,0,1-8.122-24.115c2.934.145,8.852,0,12.032-3.113.318,13.3.4,26.955.4,26.955" fill="#ccd9f0"/>
    <path id="Tracé_1561" data-name="Tracé 1561" d="M1123.128,2040.194a1.531,1.531,0,0,0-1-.942,11.429,11.429,0,0,1-5.411-2.567c-1.149-1.071-5.551-3.943-5.551-3.943l-.022-.012c-.1.006-.563.145-2.588,1.852-1.049.882-2.806-1.283-2.806-1.283a2.57,2.57,0,0,0-.586.8,2.773,2.773,0,0,0-.245,1.668,11,11,0,0,1-.8,4.033c-.257.748-.469,1.278-.469,1.278s-.128.613,2.042.909l2.527.022c.847-.128,1.472-.374,2.342-.479a2.318,2.318,0,0,1,2.042.513.094.094,0,0,1,.022.028l10.733.094c.274-.39.017-1.3-.228-1.969" fill="#2b488c"/>
    <path id="Tracé_1562" data-name="Tracé 1562" d="M1078.718,2039.011a11.528,11.528,0,0,1-5.451-2.488c-1.16-1.055-5.6-3.866-5.6-3.866l-.028-.006c-.1.006-.558.151-2.561,1.886-1.032.9-2.822-1.239-2.822-1.239a2.638,2.638,0,0,0-.575.8,2.777,2.777,0,0,0-.223,1.673,11,11,0,0,1-.742,4.044c-.246.754-.452,1.283-.452,1.283s-.117.614,2.053.876l2.527-.011c.848-.139,1.467-.4,2.337-.513a2.328,2.328,0,0,1,2.048.485.157.157,0,0,1,.022.028l10.733-.067c.267-.39,0-1.3-.257-1.963a1.533,1.533,0,0,0-1.009-.926" fill="#2b488c"/>
    <path id="Tracé_1563" data-name="Tracé 1563" d="M1112.991,1914.084c-.608-.173-3.236-.073-9.233-1.054a8.393,8.393,0,0,1-2.214-1.289v.006c-5.662-3.983-11.609-8.4-18.47-12.529-4.809-2.9-12.9-10.934-20.423-17.305-1.065-.9-2.12-1.774-3.152-2.588-1.137-.9-2.142-1.69-2.967-2.348a5,5,0,0,0-6.042-.14,9.6,9.6,0,0,0-4.278,6.973,5.552,5.552,0,0,0,1.578,3.593,35.919,35.919,0,0,0,5.4,5.193c6.789,5.484,16.44,10.856,22.5,14.56,7.006,4.278,17.3,7.575,22.207,9.009a0,0,0,0,0-.005.005s2.616.72,2.8.854,4.15,1.573,5.818,2.4,7.637,1.534,9.573-1.222-1.846-3.771-3.09-4.122" fill="#d1e5ff"/>
    <path id="Tracé_1564" data-name="Tracé 1564" d="M1062.9,1881.856a21.466,21.466,0,0,1-9.746,11,36.624,36.624,0,0,1-5.561-5.349c-1.111-1.384-1.713-2.633-1.624-3.693a10.112,10.112,0,0,1,4.937-7.553,4.577,4.577,0,0,1,5.372.256c.909.72,2.053,1.629,3.375,2.672q1.6,1.265,3.247,2.667" fill="#2b488c"/>
    <path id="Tracé_1565" data-name="Tracé 1565" d="M748.482,1840.1s-4.29-3.631-9.266-3.045-10.6,2.716-11.319,12.863,2.879,14.5-2.694,18.47-4.474,7.933-3.208,11.827c0,0,2.41-6.126,5.462-5.529,0,0-4.011,5.155-3.6,8.792s4.228,6.962,6.236,8.183a5.135,5.135,0,0,1,5.015-1.444c6.543,1.444,15.212-9.026,14.348-13.377s-.976-36.74-.976-36.74" fill="#e07d63"/>
    <path id="Tracé_1566" data-name="Tracé 1566" d="M807.858,2035.838l-4.312.273A224.127,224.127,0,0,1,795.424,2012a93.141,93.141,0,0,1-3.353-18.6c-.234-4.741-.4-8.378-.4-8.378-.167-.212-1.166-1.2-2.7-2.907-.513-.574-1.088-1.221-1.712-1.952a114.686,114.686,0,0,1-13.4-19.474.14.14,0,0,1-.016-.028,105.885,105.885,0,0,1-6.432-14.158.219.219,0,0,0-.034-.056c-.005-.017-4.178-9.74-5.065-15.134a.018.018,0,0,0-.005-.011c-.056-.352-.1-.692-.129-1a7.112,7.112,0,0,1-.028-.893l.162-.078,18.749-9.26a86.469,86.469,0,0,1,8.73,15.117c.279.625.564,1.267.848,1.914.212.474.424.959.636,1.445.056.122.106.239.156.362,6.6,15.207,13.372,37.308,14.844,46.468.57,3.537.943,13.416,1.183,23.513.312,13.3.4,26.955.4,26.955" fill="#358ffe"/>
    <path id="Tracé_1567" data-name="Tracé 1567" d="M791.432,1938.9l-2.466,43.216c-.508-.575-1.082-1.227-1.707-1.958a114.891,114.891,0,0,1-13.4-19.469c-.005-.011-.005-.016-.011-.027a118.7,118.7,0,0,1-6.437-14.627c-.011-.033-.023-.05-.028-.067a118.909,118.909,0,0,1-5.071-14.66v-.005c-.062-.357-.1-.692-.128-1.005a8.582,8.582,0,0,1-.034-.892l.168-.084s18.52-9.132,19.468-9.438a137.219,137.219,0,0,1,8.011,15.3c.279.63.563,1.266.848,1.913.212.474.423.959.636,1.45.05.117.1.24.156.357" fill="#2b76c1"/>
    <path id="Tracé_1568" data-name="Tracé 1568" d="M783.05,1988.988c-1.422,3.916-6.415,15.48-11.023,26.017-4.563,10.426-8.758,19.848-8.758,19.848l-4.256.441a199.191,199.191,0,0,1,.34-22c.753-9.874,2.538-20.394,6.61-25.281a.851.851,0,0,0,.04-.781v-.011c-.569-1.735-2.857-8.859-5.172-17.862-.557-2.187-1.121-4.48-1.662-6.834-.787-3.414-1.523-6.956-2.136-10.476a1.636,1.636,0,0,1-.034-.167c-.3-.792-.764-2.12-1.288-3.894a78.12,78.12,0,0,1-2.159-9.439c-.017-.111-.039-.223-.056-.34-1.35-8.39-.351-13.343-.351-13.343s15.468-2.064,20.416-3.788a19.9,19.9,0,0,1,7.972-1.4s4.708,60.52,1.517,69.3" fill="#358ffe"/>
    <path id="Tracé_1569" data-name="Tracé 1569" d="M814.19,1915.163c-.324-.547-3-3.247-8.954-4.452a8.428,8.428,0,0,1-2.17-1.367v.006c-5.511-4.189-11.3-8.819-18.007-13.2-3.564-2.332-8.9-7.676-14.453-13.02-2.812-2.7-5.679-5.411-8.39-7.726-1.462-1.249-13.026,6.259-11.994,7.637,5.45,7.3,19.368,15.6,27.173,20.774,6.844,4.529,17.019,8.206,21.872,9.818a.019.019,0,0,0-.011.005s2.589.815,2.767.954a40.753,40.753,0,0,0,4.831,3.721c1.64.893,4.066.575,6.716-.257,1.758-.546,1.155-1.986.62-2.889" fill="#a8cfff"/>
    <path id="Tracé_1570" data-name="Tracé 1570" d="M770.607,1883.124c-.62,2.555-2.438,7.224-7.52,7.631-6.516.525-10.147-15.073-3.2-17.337.909.775.865.736,2.327,1.98,2.711,2.315,5.578,5.02,8.39,7.726" fill="#233861"/>
    <path id="Tracé_1571" data-name="Tracé 1571" d="M754.239,1840.868c-2.388-1.986-12.546-9.751-16.384-1.713,0,0-3.922,2.41-4.351,9.868-.435,7.615,6.181,13.137,8.473,11.369,1.467-1.138,3.353,1.657,3.353,1.657l1.9-4.173,9.221-2.1.435-2.945c1.779-7.632-.525-10.594-2.644-11.96" fill="#e07d63"/>
    <path id="Tracé_1572" data-name="Tracé 1572" d="M752.646,1936.609c-4.129-9.969-19.971-48.376-8.229-65.831.1-.05.2-.094.3-.139,4.4-1.969,11.982-.859,14.052.892,10.186,8.63,11.859,14.1,12.919,21.327,1.1,7.491,2.482,15.217,8.3,23.39a37.226,37.226,0,0,0,2.476,3.118c7.4,8.379-27.612,22.587-29.821,17.243" fill="#2b488c"/>
    <path id="Tracé_1573" data-name="Tracé 1573" d="M756.565,1870.679c.4.557,3.169,2.253-3.447,2.253-5.166,0-8.909-1.835-8.7-2.153.675-1.026,1.434-3.682.234-10.727l.553.016,9.232.268s.273,2.89.714,5.579a16.192,16.192,0,0,0,1.411,4.764" fill="#d1e5ff"/>
    <path id="Tracé_1574" data-name="Tracé 1574" d="M754.44,1860.333s.273,2.89.714,5.579c-5.026.714-8.44-3.464-9.947-5.846Z" fill="#a8cfff"/>
    <path id="Tracé_1575" data-name="Tracé 1575" d="M756.172,1862.774s-11.832,2.036-12.964-5.467-3.426-12.289,4.083-13.907,9.411,1.021,10.387,3.431,1.54,15.223-1.506,15.943" fill="#d1e5ff"/>
    <path id="Tracé_1576" data-name="Tracé 1576" d="M756.7,1842.714c-2.17-1.97-3.481-1.267-4.156-.469-7.341-2.438-10.4,3.38-10.4,3.38a14.606,14.606,0,0,1-3.347,9.183s2.365,1.02,7.157-1.049a8.654,8.654,0,0,0,3.609-3.448,28.424,28.424,0,0,1-3.877,6.639c5.534-3.716,6.666-12.5,6.772-13.422a9.551,9.551,0,0,1,3.113,3.1c.876,1.818,1.729,5.712,2.839,5.405,0,0,1.551-6.359-1.707-9.321" fill="#e07d63"/>
    <path id="Tracé_1577" data-name="Tracé 1577" d="M779.989,1916.247a54.228,54.228,0,0,1-36.6-32.015s26.223,7.224,29.515,9.874c1.1,7.486,1.434,13.963,7.084,22.141" fill="#233861"/>
    <path id="Tracé_1578" data-name="Tracé 1578" d="M772.027,2015.007c-4.564,10.426-8.758,19.848-8.758,19.848l-4.257.44a199.165,199.165,0,0,1,.34-21.995c2.277,1.182,6.3,2.421,12.675,1.707" fill="#ccd9f0"/>
    <path id="Tracé_1579" data-name="Tracé 1579" d="M807.858,2035.838l-4.312.273A224.127,224.127,0,0,1,795.424,2012c2.934.145,8.852,0,12.032-3.113.312,13.3.4,26.955.4,26.955" fill="#ccd9f0"/>
    <path id="Tracé_1580" data-name="Tracé 1580" d="M819.816,2040.194a1.528,1.528,0,0,0-1-.942,11.429,11.429,0,0,1-5.411-2.567c-1.149-1.071-5.55-3.943-5.55-3.943l-.022-.012c-.095.006-.564.145-2.589,1.852-1.049.882-2.806-1.283-2.806-1.283a2.559,2.559,0,0,0-.585.8,2.773,2.773,0,0,0-.246,1.668,10.955,10.955,0,0,1-.8,4.033c-.257.748-.469,1.278-.469,1.278s-.128.613,2.042.909l2.527.022c.848-.128,1.472-.374,2.343-.479a2.32,2.32,0,0,1,2.042.513.122.122,0,0,1,.022.028l10.733.094c.273-.39.022-1.3-.229-1.969" fill="#2b488c"/>
    <path id="Tracé_1581" data-name="Tracé 1581" d="M775.407,2039.011a11.528,11.528,0,0,1-5.451-2.488c-1.16-1.055-5.6-3.866-5.6-3.866l-.028-.006c-.1.006-.558.151-2.561,1.886-1.032.9-2.822-1.239-2.822-1.239a2.639,2.639,0,0,0-.575.8,2.779,2.779,0,0,0-.223,1.673,11,11,0,0,1-.742,4.044c-.246.754-.452,1.283-.452,1.283s-.117.614,2.053.876l2.527-.011c.848-.139,1.467-.4,2.337-.513a2.328,2.328,0,0,1,2.048.485.157.157,0,0,1,.022.028l10.733-.067c.267-.39,0-1.3-.257-1.963a1.533,1.533,0,0,0-1.009-.926" fill="#2b488c"/>
    <path id="Tracé_1582" data-name="Tracé 1582" d="M592.2,1882.195s22.352,23.837,28.46,25.906c9.718,3.3,17.092,5.422,21.182,6.834,0,0,5.042-.592,6.694.719s2.125,2.064,1.45,2.633-6.973.168-8.144,0-4.686-.474-4.686-.474l.133-.084a123.829,123.829,0,0,1-19.764-2.649c-6.287-1.657-25.989-17.511-28.533-20.964-7.007-9.505-1.283-14.18,3.208-11.921" fill="#d1e5ff"/>
    <path id="Tracé_1583" data-name="Tracé 1583" d="M568.85,1879.7c1.132-.234,3.091-4.418,3.052-11.2l.513.1,8.6,1.713s-.19,2.75-.19,5.338a21.825,21.825,0,0,0,.195,3.453c1.663.062,2.784.14,2.784.14s6.716,6.052,7.257,9.282-12.261,3.152-16.607,2.761-5.606-11.586-5.606-11.586" fill="#d1e5ff"/>
    <path id="Tracé_1584" data-name="Tracé 1584" d="M581.017,1870.31s-.19,2.75-.19,5.338c-4.814-.128-7.363-4.585-8.412-7.051Z" fill="#a8cfff"/>
    <path id="Tracé_1585" data-name="Tracé 1585" d="M560.689,1844.187c1.908-1.188,4.954.223,4.954.223-1.054-1.5-4.9-1-4.9-1,7.676-1.674,9.271,3.325,9.394,3.765,4.831-4.44,12.217,3.208,14.035,5.25,1.8,1.584,3.554,4.691.82,11.6l-.82,2.7-10.37.759-1.941,2.616s-1.166-2.727-2.7-1.874c-2.4,1.333-7.046-4.039-5.573-11.118a18.187,18.187,0,0,1,.563-2.108,4.084,4.084,0,0,1-1.6.4c-1.395.006-3.509-3.6-3.793-4.819s.016-5.2,1.924-6.393" fill="#212975"/>
    <path id="Tracé_1586" data-name="Tracé 1586" d="M582.628,1872.757s-11.385.212-11.408-6.99-1.5-12.021,5.768-12.462,8.686,2.3,9.272,4.708-.67,14.5-3.632,14.744" fill="#d1e5ff"/>
    <path id="Tracé_1587" data-name="Tracé 1587" d="M574.288,1862.832c-4.781,1.256-6.855-.038-6.855-.038a13.807,13.807,0,0,0,4.412-8.134s7.308-4.418,10.231-1.684c.747-.653,2.075-1.127,3.838,1.032,2.644,3.246.306,8.992.306,8.992-1.087.128-1.35-3.648-1.918-5.478a8.993,8.993,0,0,0-2.488-3.353c-.224.831-2.5,8.92-8.217,11.62a26.923,26.923,0,0,0,4.563-5.679,8.162,8.162,0,0,1-3.872,2.722" fill="#212975"/>
    <path id="Tracé_1588" data-name="Tracé 1588" d="M582.635,1948.108c3.241,7.48,7.363,17.214,10.972,25.811.742,1.768,1.467,3.486,2.153,5.126,3.632,8.658,6.326,15.151,6.326,15.151-.223,20.428,27.965,45.308,27.965,45.308l3.19-2.271s-15.24-21.192-17.32-45.508a208.28,208.28,0,0,0-9.54-46.061c-1.991-6.091-3.776-10.6-4.8-13.059a11.324,11.324,0,0,0-2.477-.519l-15.625,15.5Z" fill="#444b8b"/>
    <path id="Tracé_1589" data-name="Tracé 1589" d="M582.635,1948.108c3.241,7.48,7.363,17.214,10.972,25.811l12.774-28.255c-1.991-6.091-3.776-10.6-4.8-13.059a11.324,11.324,0,0,0-2.477-.519l-15.625,15.5Z" fill="#212975"/>
    <path id="Tracé_1590" data-name="Tracé 1590" d="M551.184,2036.394l3.447,1.244s12.814-37.3,18.118-43.048c10.259-11.095,25.354-59.477,25.354-59.477l-23.256-6.722c-3.029,2.979-8.925,9.545-9.5,22.849-.63,14.649-2.042,31.658-2.3,34.966v.011a1.132,1.132,0,0,1-.323.669c-15.876,17.94-11.536,49.508-11.536,49.508" fill="#444b8b"/>
    <path id="Tracé_1591" data-name="Tracé 1591" d="M560.353,1892.453a51.751,51.751,0,0,0,3.046,6.917s11.352,18.593,10.973,20.384-6.148,14.794-4.887,15.614c6.677,4.373,33.537,2.527,33.041-.871s-4.218-9.912-4.424-17.265c-.112-3.988.379-9,.251-13.711,0-.168-.011-.335-.017-.508a17.19,17.19,0,0,0,2.9-3.526,10.974,10.974,0,0,0,1.847-6.537s-7.464-9.339-10.337-11.425-8.936-2.287-8.936-2.287,4.669,6.058,4.775,8.156-12.278,2.839-14.208,1.472-5.523-9.165-5.523-9.165-7.743.3-9.293,3.23c-1.205,2.276-.391,6.125.8,9.522" fill="#6f99d1"/>
    <path id="Tracé_1592" data-name="Tracé 1592" d="M598.358,1900.316a24.6,24.6,0,0,0-.006,3.2c0-.167-.011-.334-.017-.5a17.315,17.315,0,0,0,2.895-3.525,4.21,4.21,0,0,0-1.684-3.693,46.212,46.212,0,0,0-5.64-4.725s4.558,7.034,4.452,9.243" fill="#4c72b6"/>
    <path id="Tracé_1593" data-name="Tracé 1593" d="M563.4,1899.373s11.351,18.592,10.972,20.377c10.872-21.1-7.464-26.179-14.018-27.3a51.651,51.651,0,0,0,3.046,6.918" fill="#4c72b6"/>
    <path id="Tracé_1594" data-name="Tracé 1594" d="M623.838,2041.491s.2-.5.441-1.211a10.49,10.49,0,0,0,.736-3.832,2.616,2.616,0,0,1,.223-1.584c.234-.5,2.231,1.283,3.219.44,1.913-1.634,2.354-1.774,2.449-1.774l.022.006s4.189,2.7,5.288,3.715a10.856,10.856,0,0,0,5.149,2.4,1.466,1.466,0,0,1,.954.887c.24.636.48,1.495.223,1.869l-10.18-.028-.023-.023a2.2,2.2,0,0,0-1.941-.474c-.82.106-1.417.34-2.22.469l-2.393-.006c-2.064-.268-1.947-.853-1.947-.853" fill="#212975"/>
    <path id="Tracé_1595" data-name="Tracé 1595" d="M549.018,2041.533s.2-.5.434-1.216a10.315,10.315,0,0,0,.731-3.832,2.622,2.622,0,0,1,.218-1.585,2.457,2.457,0,0,1,.552-.758s1.685,2.036,2.672,1.194c1.908-1.641,2.349-1.774,2.443-1.78l.023.006s4.2,2.694,5.294,3.7a10.864,10.864,0,0,0,5.154,2.393,1.455,1.455,0,0,1,.954.887c.24.631.491,1.49.234,1.863H557.541a.076.076,0,0,0-.017-.022,2.189,2.189,0,0,0-1.941-.474c-.825.106-1.417.346-2.22.474h-2.4c-2.064-.262-1.946-.848-1.946-.848" fill="#212975"/>
    <path id="Tracé_1596" data-name="Tracé 1596" d="M537.81,1912.759s7.553-1.5,10.632.636,5.333,5.623,3.369,6.37-7.893-1.009-8.92-1.667-4.122-1.6-4.474-2-.607-3.341-.607-3.341" fill="#b3c4e6"/>
    <path id="Tracé_1597" data-name="Tracé 1597" d="M475.6,1871.063s23.7,19.669,34.362,27.657c0,0,33.621,12.217,34.508,13.439a7.92,7.92,0,0,1-1.4,4.819s-33.258-3.274-39.049-5.572-28.745-15.519-30.653-18.236-7.436-24.127,2.232-22.107" fill="#212975"/>
    <path id="Tracé_1598" data-name="Tracé 1598" d="M565.929,2031.212s5.327,5.757,12.473,6.695c0,0,4.78.039,4.78,4.5h-25.3a43.864,43.864,0,0,1-.586-6c-.123-2.956-4.178-6-4.178-6Z" fill="#212975"/>
    <path id="Tracé_1599" data-name="Tracé 1599" d="M468.919,1952.372c12.222,9.41,38.563,33.509,46.869,47.137a54.958,54.958,0,0,0,8.217,9.773c12.15,12,30.754,24.567,30.754,24.567,8.987,2.756,14.615-2.03,14.615-2.03-13.667-17.756-28.293-35.624-40.778-50.5-17.834-21.248-31.278-36.387-31.278-36.387Z" fill="#2b76c1"/>
    <path id="Tracé_1600" data-name="Tracé 1600" d="M468.919,1952.372c12.222,9.41,38.563,33.509,46.869,47.137a54.958,54.958,0,0,0,8.217,9.773l4.591-27.959c-17.834-21.248-31.278-36.387-31.278-36.387Z" fill="#2b76c1"/>
    <path id="Tracé_1601" data-name="Tracé 1601" d="M499.2,2031.794s1.768,5.227,8.858,6.153c0,0,4.736.039,4.736,4.457H487.721a19.43,19.43,0,0,1,1.244-6.549,55.937,55.937,0,0,1,3.085-6.555Z" fill="#212975"/>
    <path id="Tracé_1602" data-name="Tracé 1602" d="M489.278,1947.04s32.891,28.338,31.886,38.251c-1.316,12.97-19.39,50.216-19.39,50.216s-3.152,1.863-11.107-2.75c0,0,.642-28.455,9.032-45.374,1.734-3.509-33.013-18.046-36.979-27.987s-4.92-15.536,0-15.631,26.558,3.275,26.558,3.275" fill="#358ffe"/>
    <path id="Tracé_1603" data-name="Tracé 1603" d="M475.79,1866.814s1.6,9.427,9.79,10.76a23.736,23.736,0,0,0,4.993-5.254c.184-.318.368-.625.547-.915,1.723-2.907,2.766-4.491,2.766-4.491l0,0c-.229-.313-7.743-10.326-7.932-9.98-4.4,8.016-10.159,9.885-10.159,9.885" fill="#d1e5ff"/>
    <path id="Tracé_1604" data-name="Tracé 1604" d="M485.854,1859.409a18.338,18.338,0,0,0,5.265,11.994c1.724-2.907,2.767-4.491,2.767-4.491l0-.006c-.229-.234-8.005-8.194-8.027-7.5" fill="#a8cfff"/>
    <path id="Tracé_1605" data-name="Tracé 1605" d="M497.243,1868.3s-13.138-1.752-11.938-10.041.312-14.1,8.752-13.333,9.606,4.173,9.868,7.04-3.235,16.574-6.682,16.334" fill="#d1e5ff"/>
    <path id="Tracé_1606" data-name="Tracé 1606" d="M455.293,1913.457s-.815,30.23,4.825,34.475c6.471,4.875,41.916,2.226,40.069-2.053a51.214,51.214,0,0,1-3.3-10.588c-.084-.4-.162-.809-.235-1.227a75.462,75.462,0,0,1,.307-26.631c.128-.737.251-1.467.357-2.2a71.67,71.67,0,0,0,.742-9.667c.061-7.4-1.138-14.057-3.648-17.817-3.827-5.713-15.034-13-15.034-13s-21.778,6.9-24.087,48.71" fill="#444b8b"/>
    <path id="Tracé_1607" data-name="Tracé 1607" d="M480.145,1886.614s-1.762,33.365,16.747,48.677c-.084-.4-.162-.809-.235-1.227a75.343,75.343,0,0,1,.307-26.631c.128-.737.251-1.467.351-2.2-5.014-9.924-11.463-18.3-17.17-18.615" fill="#212975"/>
    <path id="Tracé_1608" data-name="Tracé 1608" d="M484.616,1859.366s1.5-.162,1.389-2.249.056-4.808,1.684-4.2,1.635,1.969,2.366,1.222.948-4.067,5.907-3.989,6.867,1.958,9.232,1.077,2.7-4.413,2.7-4.413a3.983,3.983,0,0,1-1.746,1.562s4.168-5.093-.055-9.026-8.9-1.829-11.481-1.829c-5.684-.011-9.366.106-11.452,3.771s-1.958,14.208,1.456,18.074" fill="#444b8b"/>
    <rect id="Rectangle_152" data-name="Rectangle 152" width="49.503" height="1.858" transform="translate(788.106 1916.844)" fill="#233861"/>
    <g id="Groupe_262" data-name="Groupe 262">
      <path id="Tracé_1609" data-name="Tracé 1609" d="M809.68,1914.084c-.608-.173-3.235-.073-9.232-1.054a8.394,8.394,0,0,1-2.214-1.289v.006c-5.663-3.983-11.609-8.4-18.471-12.529-4.808-2.9-12.9-10.934-20.422-17.305-1.065-.9-2.12-1.774-3.152-2.588-1.138-.9-2.142-1.69-2.968-2.348a5,5,0,0,0-6.041-.14,9.6,9.6,0,0,0-4.278,6.973,5.547,5.547,0,0,0,1.578,3.593,35.92,35.92,0,0,0,5.4,5.193c6.789,5.484,16.44,10.856,22.5,14.56,7.006,4.278,17.3,7.575,22.207,9.009a0,0,0,0,0-.005.005s2.616.72,2.8.854,4.15,1.573,5.818,2.4,7.637,1.534,9.573-1.222-1.847-3.771-3.091-4.122" fill="#d1e5ff"/>
      <path id="Tracé_1610" data-name="Tracé 1610" d="M759.592,1881.856a21.461,21.461,0,0,1-9.745,11,36.683,36.683,0,0,1-5.562-5.349c-1.11-1.384-1.712-2.633-1.623-3.693a10.112,10.112,0,0,1,4.937-7.553,4.577,4.577,0,0,1,5.372.256c.909.72,2.053,1.629,3.375,2.672q1.6,1.265,3.246,2.667" fill="#2b488c"/>
    </g>
    <rect id="Rectangle_153" data-name="Rectangle 153" width="90.108" height="1.735" transform="translate(565.044 1917.351)" fill="#233861"/>
    <rect id="Rectangle_154" data-name="Rectangle 154" width="52.487" height="1.735" transform="translate(497.317 1917.714)" fill="#233861"/>
    <path id="Tracé_1611" data-name="Tracé 1611" d="M600.612,1913.463s6.655-1.233,9.171,1.11,4.54,5.422,1.233,5.584c-3.442.167-5.534-.206-6.382-.937s-3.459-1.835-3.732-2.265a16.764,16.764,0,0,1-.29-3.492" fill="#d1e5ff"/>
    <path id="Tracé_1612" data-name="Tracé 1612" d="M617.556,1913.626a20.821,20.821,0,0,0,6.488.508c2.56-.4,6.521,2.689,6.75,3.548s-.776,2.834-2.171,2.834a3.426,3.426,0,0,1-2.878-1.356c-.457-.7-2.705-.111-3.949-.931s-4.24-4.6-4.24-4.6" fill="#d1e5ff"/>
    <path id="Tracé_1613" data-name="Tracé 1613" d="M561.693,1894.987c1.071,1.451,5.812,5.211,11.413,9.2,7.732,5.506,17.1,11.463,20.746,12.417,6.281,1.657,31.892,2.55,31.892.463,0-1.941-23.513-7.553-29.8-8.97-2.873-.647-8.942-6.248-14.693-12.138-6.84-7.012-13.227-14.437-13.227-14.437-4.491-2.259-13.338,3.955-6.331,13.46" fill="#d1e5ff"/>
    <path id="Tracé_1614" data-name="Tracé 1614" d="M561.693,1894.987c1.071,1.451,5.812,5.211,11.413,9.2,5.947-1.947,7.654-6.014,8.145-8.228-6.84-7.012-13.227-14.437-13.227-14.437-4.491-2.259-13.338,3.955-6.331,13.46" fill="#6f99d1"/>
    <path id="Tracé_1615" data-name="Tracé 1615" d="M569.2,1896.884c-10.582-8.976-29.878-30.424-29.878-30.424-9.924-2.706-9.623,19.4-7.8,22.335s24.857,18.141,30.731,20.9,40.243,8.262,40.243,8.262a8.266,8.266,0,0,0,1.745-4.92C603.393,1911.706,569.2,1896.884,569.2,1896.884Z" fill="#358ffe"/>
    <path id="Tracé_1616" data-name="Tracé 1616" d="M541.08,1916.334s8.735-3.431,11.463-2.281c3.442,1.456,5.551,3.988,3.754,5.093a15.4,15.4,0,0,1-9.26,1.489,27.908,27.908,0,0,1-4.758-1.132c-.413-.324-1.2-3.169-1.2-3.169" fill="#d1e5ff"/>
    <path id="Tracé_1617" data-name="Tracé 1617" d="M478.636,1873.266s7.286.664,31.261,28.361c0,0,33.616,12.216,34.508,13.438a7.934,7.934,0,0,1-1.4,4.825s-33.258-3.28-39.049-5.572-28.745-15.525-30.653-18.236-4.334-24.835,5.333-22.816" fill="#444b8b"/>
    <rect id="Rectangle_155" data-name="Rectangle 155" width="58.88" height="1.897" transform="translate(842.401 1916.671)" fill="#233861"/>
    <g id="Groupe_263" data-name="Groupe 263">
      <path id="Tracé_1618" data-name="Tracé 1618" d="M885.541,1913.463s6.655-1.233,9.171,1.11,4.54,5.422,1.233,5.584c-3.442.167-5.534-.206-6.382-.937s-3.459-1.835-3.732-2.265a16.764,16.764,0,0,1-.29-3.492" fill="#ccd9f0"/>
      <path id="Tracé_1619" data-name="Tracé 1619" d="M824.256,1866.46s19.3,21.448,29.877,30.424c0,0,34.19,14.822,35.038,16.15a8.254,8.254,0,0,1-1.751,4.92s-34.363-5.512-40.237-8.262-28.919-17.957-30.732-20.9-2.12-25.041,7.8-22.335" fill="#358ffe"/>
    </g>
    <path id="Tracé_1620" data-name="Tracé 1620" d="M1182.969,1907.034s-3.593,2.856-4.128,3.308-1.077,2.337-1.506,4.557-.023,5.417.256,5.69a1.953,1.953,0,0,0,1.411.848,3.723,3.723,0,0,0,1.9-.228,2.293,2.293,0,0,0,2.215.2,2,2,0,0,0,2.225-.178,1.667,1.667,0,0,0,1.847-.056,15.418,15.418,0,0,1,.948-2.532c.4-.642.853-4.686,1.093-8.664,0,0,.837-4.34-6.264-2.945" fill="#d1e5ff"/>
    <path id="Tracé_1621" data-name="Tracé 1621" d="M1281.8,2031.629a34.282,34.282,0,0,0,2.872,4.552c1.138,1.294,5.489,3.609,5.512,7.452.028,4.167-7.336,3.013-10.214,2.856s-3.1-2.376-4.307-4.736-2.432-1.958-2.661-3.865,1.177-6.259,1.177-6.259Z" fill="#131a42"/>
    <path id="Tracé_1622" data-name="Tracé 1622" d="M1210.262,2031.249s-3.548,3.977-7.146,4.814-6.119,1.9-6.147,4.178,10.359,3.788,14.481,1.49c6.148-3.437,6.778-2.4,7.459-4.117s-.82-6.315-.776-6.862c.056-.669-7.871.5-7.871.5" fill="#131a42"/>
    <path id="Tracé_1623" data-name="Tracé 1623" d="M1210.661,2029.345a16.051,16.051,0,0,0-.4,1.9c.067.039,8.111,1,7.866-.491-.2-1.216-.475-2.532-.475-2.532Z" fill="#8eaac1"/>
    <path id="Tracé_1624" data-name="Tracé 1624" d="M1274.273,2030.37a16.816,16.816,0,0,0-.273,1.819c.066.044,8.161,1.5,8.116.022a7.253,7.253,0,0,0-.747-2.544Z" fill="#8eaac1"/>
    <path id="Tracé_1625" data-name="Tracé 1625" d="M1217.976,1917.746s-2.929,28.55-4.447,38.323c-1.779,11.43-2.382,20.874-2.878,26.787-.625,7.442-.748,44.036-1.183,46.212s9.69.6,9.69.6,4.982-47.818,6.845-55.739c1.729-7.38,8.15-39.144,9.728-37.13s20.043,37.738,21.215,43.556,14.543,49.927,14.543,49.927,9.277.407,11.419-1.417c0,0-8.106-40.717-11.782-51.918-1.294-3.955-10.677-46.117-17.259-64.509-3.476-9.723-35.891,5.306-35.891,5.306" fill="#131a42"/>
    <path id="Tracé_1626" data-name="Tracé 1626" d="M1254.174,1905.934c.106,7.163.279,14.6.279,14.6l-2.12.569-5.707,1.539-25.008.235-5.706-2.343s.624-6.5.853-11.062c.145-2.9.708-8.094.563-13.154a47.078,47.078,0,0,0-.435-7.626c-.056-10.136-.669-20.171-.669-20.171q-.5-6.9-.709-12.9c1.1-.586,2.433-1.272,3.493-1.779,3.285-1.568,7.859-3.688,10.794-5.043,1.723-.792,3.408-1.373,3.408-1.373s11.737-1.126,12.691-1.071a31.375,31.375,0,0,1,3.693,1.272c2.532.965,6.493,2.544,9.494,3.833a30.389,30.389,0,0,1,3.966,1.907c.67.48,2.672,4.971,4.976,10.633-.982,4.758-2.131,11.023-3.051,17.918a57.971,57.971,0,0,0-7.364-5.8.089.089,0,0,1-.005.022v.012c0,.005-.006.011-.006.016-.234.854-3.391,12.63-3.5,18.292-.028,1.166-.028,2.906-.012,4.937" fill="#e9edf4"/>
    <path id="Tracé_1627" data-name="Tracé 1627" d="M1277.376,1889.576c.1,1.316-3.381,4.1-8.128,7.246.234-8.088.6-18.252,1.138-26.882,3.5,8.976,6.9,18.459,6.99,19.636" fill="#dbd8e2"/>
    <path id="Tracé_1628" data-name="Tracé 1628" d="M1216.665,1918.394s17.175,1.467,32.22,0v4.959s-22.4,2.153-32.973-.943Z" fill="#090c1e"/>
    <path id="Tracé_1629" data-name="Tracé 1629" d="M1215.242,1855.551c.134,4.078.329,8.446.675,13.126,0,0,.323,11.43.976,22.274a21.787,21.787,0,0,1,.212,4.764c-.161,2.12-.39,4.435-.669,6.851,0,.033-.006.061-.006.089-.067.575-.139,1.149-.206,1.735v.022c-1.462,12.077-3.939,25.94-5.227,30.129-.274.876.669,1.685,1.339,2.309l4.7,2.979s1.935-17.918,2.583-24c.619-5.868,2.571-13.739,3.424-21.409,1.088-9.729,2.578-19.262,3.387-24.925,2.091-14.743,4.886-21.342,4.886-21.342-1.333.4-16.071,7.4-16.071,7.4" fill="#131a42"/>
    <path id="Tracé_1630" data-name="Tracé 1630" d="M1279.567,1891.074c-.642-2.159-13.009-36.1-14.883-37.448-1.083-.781-9.1-3.637-13.031-5.193-.72-.291-3.174-1.217-3.821-1.462-.831.932-6.589,7.313-8.619,31.412-.34,4.061.742,12.663,1.461,19.686.77,7.486,1.624,13.332,2.249,19.6,1.232,12.339,2.1,22.163,2.1,22.163l12.217-5.467c1.98-1,5.4-3.593,4.658-5.685-2.829-7.954-7.068-23.027-7.068-30,0,0,2-19.257,3.074-23.016,0,0,4.931,5.372,7.207,10.392,2.036,4.491,3.046,6.61.106,9.545s8.78,5.913,8.78,5.913,4.446,1.227,5.573-1.121.859-6.416,0-9.316" fill="#131a42"/>
    <path id="Tracé_1631" data-name="Tracé 1631" d="M1244.815,1847.614a82.633,82.633,0,0,1,1.634-12.239c.413-2.193-12.668,5.768-12.668,5.768s.039.77.067,1.807c.011.547.022,1.166.017,1.791,0,.223,0,.44-.006.658-.011.575-.039,1.132-.089,1.6a7.707,7.707,0,0,1-.436,1.584c-.541,1.25,7.074,2.2,11.481-.97" fill="#d1e5ff"/>
    <path id="Tracé_1632" data-name="Tracé 1632" d="M1238,1855.231l-1.356-3.375-2.17,2.929a2.376,2.376,0,0,0,.5.455c-.859,3.427-8.042,32.959-6.447,56.261l2.772,4.9,2.589-5.132s.679-42.4,2.82-55.595A3.468,3.468,0,0,0,1238,1855.231Z" fill="#358ffe"/>
    <path id="Tracé_1633" data-name="Tracé 1633" d="M1234.327,1849.126l2.32,2.728s3.726-.725,4.825-2.678-7.145-.05-7.145-.05" fill="#d1e5ff"/>
    <path id="Tracé_1634" data-name="Tracé 1634" d="M1233.793,1846.737s.268,2.08,2.856,5.121l-2.823,3.81-1.528-7.905Z" fill="#d0d5dd"/>
    <path id="Tracé_1635" data-name="Tracé 1635" d="M1245.065,1844.422s-4.647,5.935-8.418,7.436l1.752,4.356,8.01-9.728Z" fill="#d0d5dd"/>
    <rect id="Rectangle_156" data-name="Rectangle 156" width="8.033" height="6.125" transform="translate(1229.328 1918.656)" fill="#212975"/>
    <g id="Groupe_264" data-name="Groupe 264">
      <path id="Tracé_1636" data-name="Tracé 1636" d="M1226.891,1820.985s-2.873,5.355-1.451,6.186c1.177.692-1.378,5.947-1.712,6.806s2.13,1.478,2.655,2.036,2.075,7.352,4.111,7.553,11.185-2.99,13.678-5.6,4.535-14.37,2.873-19.329-15.084-7.012-20.154,2.343" fill="#d1e5ff"/>
      <path id="Tracé_1637" data-name="Tracé 1637" d="M1226.317,1822.145a8.257,8.257,0,0,1,2.392-10.074c5.333-4.29,15.157,3.241,16.267,3.525s7.391.726,4.217,11.81c-2.722,9.522-3.1,9.924-3.1,9.924s-2.036-5.517-3.185-6.36c-1.8-1.31-5.746-.992-5.746-.992s1.879-5.021-1.06-5.729-6.811-3.214-9.784-2.1" fill="#212975"/>
      <path id="Tracé_1638" data-name="Tracé 1638" d="M1240.289,1827.1c.256-.686,1.1-3.643,3.62-1.908s-1.573,7.308-2.014,7.38-3.787.318-1.606-5.472" fill="#d1e5ff"/>
      <path id="Tracé_1639" data-name="Tracé 1639" d="M1233.866,1844.741c0,.217-.006.44-.012.652,7.486-2.521,8.937-6.32,8.937-6.32-2.338,1.657-8.942,3.877-8.942,3.877.011.547.022,1.166.017,1.791" fill="#a8cfff"/>
      <path id="Tracé_1640" data-name="Tracé 1640" d="M1189.821,1911.511s9.165-14.086,12.847-17.522c1.64-1.529,4.608-6.014,7.324-9.55.893-1.166,1.769-2.388,2.605-3.6v-.006c3.331-4.831,5.941-9.461,5.941-9.461s9.846-11.6,1.947-16.763c0,0-3.386-.072-5.244.943-1.907,1.037-5.979,9.578-6.671,11.1s-8.172,15.558-8.675,15.876-2.6,4.084-4.914,6.588c-3.693,4-14.286,18.6-14.286,18.6Z" fill="#131a42"/>
      <path id="Tracé_1641" data-name="Tracé 1641" d="M1373.9,2031.629a34.282,34.282,0,0,0,2.872,4.552c1.138,1.294,5.489,3.609,5.512,7.452.028,4.167-7.33,3.013-10.209,2.856s-3.1-2.376-4.312-4.736-2.432-1.958-2.661-3.865,1.177-6.259,1.177-6.259Z" fill="#131a42"/>
      <path id="Tracé_1642" data-name="Tracé 1642" d="M1302.363,2031.249s-3.548,3.977-7.146,4.814-6.12,1.9-6.147,4.178,10.359,3.788,14.481,1.49c6.147-3.437,6.778-2.4,7.459-4.117s-.821-6.315-.776-6.862c.056-.669-7.871.5-7.871.5" fill="#131a42"/>
      <path id="Tracé_1643" data-name="Tracé 1643" d="M1302.762,2029.345a15.858,15.858,0,0,0-.4,1.9c.067.039,8.111,1,7.865-.491-.195-1.216-.474-2.532-.474-2.532Z" fill="#d0d5dd"/>
      <path id="Tracé_1644" data-name="Tracé 1644" d="M1366.374,2030.37a17.059,17.059,0,0,0-.274,1.819c.067.044,8.161,1.5,8.117.022a7.247,7.247,0,0,0-.748-2.544Z" fill="#d0d5dd"/>
      <path id="Tracé_1645" data-name="Tracé 1645" d="M1310.076,1917.746s-2.928,28.55-4.446,38.323c-1.779,11.43-2.382,20.874-2.878,26.787-.625,7.442-.748,44.036-1.183,46.212s9.69.6,9.69.6,4.981-47.818,6.844-55.739c1.73-7.38,8.15-39.144,9.729-37.13s20.043,37.738,21.215,43.556,14.542,49.927,14.542,49.927,9.277.407,11.419-1.417c0,0-8.105-40.717-11.781-51.918-1.294-3.955-10.677-46.117-17.26-64.509-3.475-9.723-35.891,5.306-35.891,5.306" fill="#8eaac1"/>
      <path id="Tracé_1646" data-name="Tracé 1646" d="M1346.274,1905.934c.106,7.163.279,14.6.279,14.6l-2.12.569-5.707,1.539-25.008.235-5.706-2.343s.624-6.5.853-11.062c.145-2.9.708-8.094.563-13.154a46.972,46.972,0,0,0-.435-7.626c-.056-10.136-.669-20.171-.669-20.171q-.5-6.9-.709-12.9c1.1-.586,2.433-1.272,3.493-1.779,3.285-1.568,7.86-3.688,10.794-5.043,1.723-.792,3.408-1.373,3.408-1.373s11.737-1.126,12.691-1.071a31.367,31.367,0,0,1,3.693,1.272c2.532.965,6.493,2.544,9.494,3.833a30.4,30.4,0,0,1,3.966,1.907c.67.48,2.673,4.971,4.976,10.633-.981,4.758-2.131,11.023-3.051,17.918a57.9,57.9,0,0,0-7.364-5.8.089.089,0,0,1-.005.022v.012c0,.005-.006.011-.006.016-.234.854-3.391,12.63-3.5,18.292-.028,1.166-.028,2.906-.012,4.937" fill="#e9edf4"/>
      <path id="Tracé_1647" data-name="Tracé 1647" d="M1369.476,1889.576c.105,1.316-3.381,4.1-8.128,7.246.234-8.088.6-18.252,1.138-26.882,3.5,8.976,6.9,18.459,6.99,19.636" fill="#dbd8e2"/>
      <path id="Tracé_1648" data-name="Tracé 1648" d="M1308.765,1918.394s17.175,1.467,32.22,0v4.959s-22.4,2.153-32.973-.943Z" fill="#090c1e"/>
      <path id="Tracé_1649" data-name="Tracé 1649" d="M1307.342,1855.551c.134,4.078.329,8.446.675,13.126,0,0,.324,11.43.976,22.274a21.364,21.364,0,0,1,.212,4.764c-.161,2.12-.39,4.435-.669,6.851,0,.033-.006.061-.006.089-.067.575-.134,1.149-.206,1.735v.022c-1.462,12.077-3.938,25.94-5.227,30.129-.274.876.669,1.685,1.339,2.309l4.7,2.979s1.935-17.918,2.583-24c.619-5.868,2.571-13.739,3.425-21.409,1.087-9.729,2.577-19.262,3.386-24.925,2.091-14.743,4.886-21.342,4.886-21.342-1.333.4-16.071,7.4-16.071,7.4" fill="#8eaac1"/>
      <path id="Tracé_1650" data-name="Tracé 1650" d="M1371.668,1891.074c-.642-2.159-13.009-36.1-14.883-37.448-1.083-.781-9.1-3.637-13.031-5.193-.72-.291-3.175-1.217-3.822-1.462-.831.932-6.588,7.313-8.618,31.412-.341,4.061.742,12.663,1.461,19.686.77,7.486,1.624,13.332,2.248,19.6,1.233,12.339,2.1,22.163,2.1,22.163l12.216-5.467c1.981-1,5.4-3.593,4.658-5.685-2.828-7.954-7.068-23.027-7.068-30,0,0,2-19.257,3.074-23.016,0,0,4.932,5.372,7.208,10.392,2.036,4.491,3.045,6.61.1,9.545s8.786,5.913,8.786,5.913,4.446,1.227,5.573-1.121.859-6.416,0-9.316" fill="#8eaac1"/>
      <path id="Tracé_1651" data-name="Tracé 1651" d="M1336.915,1847.614a82.64,82.64,0,0,1,1.634-12.239c.413-2.193-12.668,5.768-12.668,5.768s.039.77.067,1.807c.011.547.022,1.166.017,1.791,0,.223,0,.44-.006.658-.017.575-.039,1.132-.089,1.6a7.784,7.784,0,0,1-.435,1.584c-.541,1.25,7.073,2.2,11.48-.97" fill="#d1e5ff"/>
      <path id="Tracé_1652" data-name="Tracé 1652" d="M1328.749,1851.856l-2.17,2.929a2.622,2.622,0,0,0,3.525.446Z" fill="#358ffe"/>
      <path id="Tracé_1653" data-name="Tracé 1653" d="M1327.16,1854.9s-8.223,31.825-6.533,56.6l2.773,4.9,2.588-5.132s.709-44.309,2.962-56.442Z" fill="#358ffe"/>
      <path id="Tracé_1654" data-name="Tracé 1654" d="M1326.427,1849.126l2.32,2.728s3.727-.725,4.825-2.678-7.145-.05-7.145-.05" fill="#d1e5ff"/>
      <path id="Tracé_1655" data-name="Tracé 1655" d="M1325.894,1846.737s.267,2.08,2.856,5.121l-2.823,3.81-1.528-7.905Z" fill="#d0d5dd"/>
      <path id="Tracé_1656" data-name="Tracé 1656" d="M1337.164,1844.422s-4.647,5.935-8.418,7.436l1.758,4.356,8.005-9.728Z" fill="#d0d5dd"/>
    </g>
    <rect id="Rectangle_157" data-name="Rectangle 157" width="8.033" height="6.125" transform="translate(1321.433 1918.656)" fill="#212975"/>
    <g id="Groupe_265" data-name="Groupe 265">
      <path id="Tracé_1657" data-name="Tracé 1657" d="M1318.991,1820.985s-2.873,5.355-1.451,6.186c1.177.692-1.378,5.947-1.712,6.806s2.13,1.478,2.655,2.036,2.075,7.352,4.111,7.553,11.185-2.99,13.678-5.6,4.535-14.37,2.873-19.329-15.084-7.012-20.154,2.343" fill="#d1e5ff"/>
      <path id="Tracé_1658" data-name="Tracé 1658" d="M1318.417,1822.145a8.258,8.258,0,0,1,2.393-10.074c5.333-4.29,15.157,3.241,16.267,3.525s7.391.726,4.217,11.81c-2.722,9.522-3.1,9.924-3.1,9.924s-2.036-5.517-3.186-6.36c-1.8-1.31-5.746-.992-5.746-.992s1.88-5.021-1.059-5.729-6.812-3.214-9.785-2.1" fill="#e07d63"/>
      <path id="Tracé_1659" data-name="Tracé 1659" d="M1332.389,1827.1c.257-.686,1.1-3.643,3.621-1.908s-1.574,7.308-2.014,7.38-3.788.318-1.607-5.472" fill="#d1e5ff"/>
      <path id="Tracé_1660" data-name="Tracé 1660" d="M1325.966,1844.741c0,.217-.006.44-.012.652,7.487-2.521,8.937-6.32,8.937-6.32-2.337,1.657-8.942,3.877-8.942,3.877.011.547.022,1.166.017,1.791" fill="#a8cfff"/>
      <path id="Tracé_1661" data-name="Tracé 1661" d="M1275.069,1907.034s-3.593,2.856-4.128,3.308-1.077,2.337-1.506,4.557-.023,5.417.256,5.69a1.953,1.953,0,0,0,1.412.848,3.72,3.72,0,0,0,1.9-.228,2.294,2.294,0,0,0,2.215.2,2,2,0,0,0,2.225-.178,1.667,1.667,0,0,0,1.847-.056,15.512,15.512,0,0,1,.948-2.532c.4-.642.854-4.686,1.094-8.664,0,0,.836-4.34-6.265-2.945" fill="#d1e5ff"/>
      <path id="Tracé_1662" data-name="Tracé 1662" d="M1334.85,1920.333a4.465,4.465,0,0,0,1.428-.274s.747-.479,1.3-.792a4,4,0,0,1,.435-.217,8.364,8.364,0,0,0,2.4-1.155c.937-.72,4.005-3.6,4.005-3.6l-1.98-3.057-.915-3.034s-7.151.714-8.1,1.283c-.089.056-.184.117-.262.178a10.345,10.345,0,0,0-1.456,1.64c-.134.123-1.384,1.462-1.311,2.009a1.8,1.8,0,0,0,.931,1.467,4.273,4.273,0,0,0,1.01,2.125,2.663,2.663,0,0,0,1.356,1.908s.351,1.361,1.16,1.523" fill="#ccd9f0"/>
      <path id="Tracé_1663" data-name="Tracé 1663" d="M1369.857,1893.982a48.078,48.078,0,0,1,1.812,5.64c.179,1.328.8,3.782-26.993,16.646,0,0-4.709-4.323-5.7-8.066,0,0,15.954-8.625,18.331-12.6,2.527-4.228,12.546-1.618,12.546-1.618" fill="#8eaac1"/>
      <path id="Tracé_1664" data-name="Tracé 1664" d="M1434.3,2031.629a34.207,34.207,0,0,0,2.873,4.552c1.138,1.294,5.489,3.609,5.511,7.452.028,4.167-7.335,3.013-10.208,2.856s-3.1-2.376-4.312-4.736-2.432-1.958-2.661-3.865,1.177-6.259,1.177-6.259Z" fill="#131a42"/>
      <path id="Tracé_1665" data-name="Tracé 1665" d="M1362.771,2031.249s-3.548,3.977-7.146,4.814-6.119,1.9-6.147,4.178,10.359,3.788,14.481,1.49c6.148-3.437,6.778-2.4,7.459-4.117s-.821-6.315-.776-6.862c.056-.669-7.871.5-7.871.5" fill="#131a42"/>
      <path id="Tracé_1666" data-name="Tracé 1666" d="M1363.17,2029.345a16.077,16.077,0,0,0-.4,1.9c.067.039,8.111,1,7.866-.491-.2-1.216-.474-2.532-.474-2.532Z" fill="#8eaac1"/>
      <path id="Tracé_1667" data-name="Tracé 1667" d="M1426.782,2030.37a16.816,16.816,0,0,0-.273,1.819c.066.044,8.16,1.5,8.116.022a7.253,7.253,0,0,0-.747-2.544Z" fill="#8eaac1"/>
      <path id="Tracé_1668" data-name="Tracé 1668" d="M1370.485,1917.746s-2.929,28.55-4.447,38.323c-1.779,11.43-2.381,20.874-2.878,26.787-.625,7.442-.747,44.036-1.182,46.212s9.689.6,9.689.6,4.982-47.818,6.839-55.739c1.735-7.38,8.156-39.144,9.735-37.13s20.043,37.738,21.214,43.556S1424,2030.284,1424,2030.284s9.277.407,11.419-1.417c0,0-8.106-40.717-11.782-51.918-1.294-3.955-10.677-46.117-17.259-64.509-3.475-9.723-35.891,5.306-35.891,5.306" fill="#090c1e"/>
      <path id="Tracé_1669" data-name="Tracé 1669" d="M1406.682,1905.934c.106,7.163.279,14.6.279,14.6l-2.12.569-5.706,1.539-25.008.235-5.707-2.343s.625-6.5.853-11.062c.145-2.9.709-8.094.564-13.154a47.078,47.078,0,0,0-.435-7.626c-.056-10.136-.67-20.171-.67-20.171q-.5-6.9-.708-12.9c1.1-.586,2.432-1.272,3.492-1.779,3.286-1.568,7.86-3.688,10.794-5.043,1.724-.792,3.408-1.373,3.408-1.373s11.737-1.126,12.691-1.071a31.253,31.253,0,0,1,3.693,1.272c2.533.965,6.493,2.544,9.495,3.833a30.464,30.464,0,0,1,3.966,1.907c.669.48,2.672,4.971,4.976,10.633-.982,4.758-2.131,11.023-3.052,17.918a57.921,57.921,0,0,0-7.363-5.8.076.076,0,0,1-.006.022v.012c0,.005-.005.011-.005.016-.234.854-3.392,12.63-3.5,18.292-.028,1.166-.028,2.906-.011,4.937" fill="#e9edf4"/>
      <path id="Tracé_1670" data-name="Tracé 1670" d="M1429.883,1889.576c.106,1.316-3.381,4.1-8.128,7.246.234-8.088.6-18.252,1.138-26.882,3.5,8.976,6.9,18.459,6.99,19.636" fill="#dbd8e2"/>
      <path id="Tracé_1671" data-name="Tracé 1671" d="M1369.173,1918.394s17.176,1.467,32.221,0v4.959s-22.4,2.153-32.974-.943Z" fill="#090c1e"/>
      <path id="Tracé_1672" data-name="Tracé 1672" d="M1367.751,1855.551c.134,4.078.329,8.446.675,13.126,0,0,.323,11.43.976,22.274a21.489,21.489,0,0,1,.212,4.764c-.162,2.12-.391,4.435-.67,6.851,0,.033-.005.061-.005.089-.067.575-.134,1.149-.207,1.735v.022c-1.461,12.077-3.938,25.94-5.227,30.129-.273.876.67,1.685,1.339,2.309l4.7,2.979s1.936-17.918,2.583-24c.619-5.868,2.572-13.739,3.425-21.409,1.088-9.729,2.577-19.262,3.386-24.925,2.092-14.743,4.887-21.342,4.887-21.342-1.333.4-16.071,7.4-16.071,7.4" fill="#090c1e"/>
      <path id="Tracé_1673" data-name="Tracé 1673" d="M1432.075,1891.074c-.641-2.159-13.009-36.1-14.883-37.448-1.082-.781-9.1-3.637-13.036-5.193-.715-.291-3.169-1.217-3.816-1.462-.831.932-6.588,7.313-8.619,31.412-.34,4.061.742,12.663,1.462,19.686.77,7.486,1.623,13.332,2.248,19.6,1.233,12.339,2.1,22.163,2.1,22.163l12.217-5.467c1.98-1,5.4-3.593,4.658-5.685-2.828-7.954-7.068-23.027-7.068-30,0,0,2-19.257,3.074-23.016,0,0,4.931,5.372,7.207,10.392,2.036,4.491,3.046,6.61.1,9.545s8.786,5.913,8.786,5.913,4.446,1.227,5.573-1.121.859-6.416,0-9.316" fill="#090c1e"/>
      <path id="Tracé_1674" data-name="Tracé 1674" d="M1397.323,1847.614a82.577,82.577,0,0,1,1.635-12.239c.412-2.193-12.669,5.768-12.669,5.768s.039.77.067,1.807c.011.547.022,1.166.017,1.791,0,.223,0,.44-.006.658-.017.575-.039,1.132-.089,1.6a7.777,7.777,0,0,1-.435,1.584c-.541,1.25,7.073,2.2,11.48-.97" fill="#d1e5ff"/>
      <path id="Tracé_1675" data-name="Tracé 1675" d="M1389.157,1851.856l-2.17,2.929a2.623,2.623,0,0,0,3.526.446Z" fill="#358ffe"/>
      <path id="Tracé_1676" data-name="Tracé 1676" d="M1387.568,1854.9s-8.228,31.825-6.533,56.6l2.773,4.9,2.588-5.132s.709-44.309,2.962-56.442Z" fill="#358ffe"/>
      <path id="Tracé_1677" data-name="Tracé 1677" d="M1386.834,1849.126l2.32,2.728s3.727-.725,4.826-2.678-7.146-.05-7.146-.05" fill="#d1e5ff"/>
      <path id="Tracé_1678" data-name="Tracé 1678" d="M1386.3,1846.737s.268,2.08,2.856,5.121l-2.823,3.81-1.528-7.905Z" fill="#d0d5dd"/>
      <path id="Tracé_1679" data-name="Tracé 1679" d="M1397.573,1844.422s-4.647,5.935-8.418,7.436l1.752,4.356,8.01-9.728Z" fill="#d0d5dd"/>
    </g>
    <rect id="Rectangle_158" data-name="Rectangle 158" width="8.033" height="6.125" transform="translate(1381.841 1918.656)" fill="#212975"/>
    <g id="Groupe_266" data-name="Groupe 266">
      <path id="Tracé_1680" data-name="Tracé 1680" d="M1379.4,1820.985s-2.873,5.355-1.451,6.186c1.177.692-1.378,5.947-1.712,6.806s2.13,1.478,2.655,2.036,2.075,7.352,4.111,7.553,11.185-2.99,13.678-5.6,4.536-14.37,2.873-19.329-15.083-7.012-20.154,2.343" fill="#d1e5ff"/>
      <path id="Tracé_1681" data-name="Tracé 1681" d="M1378.825,1822.145a8.258,8.258,0,0,1,2.393-10.074c5.333-4.29,15.156,3.241,16.266,3.525s7.392.726,4.217,11.81c-2.722,9.522-3.1,9.924-3.1,9.924s-2.036-5.517-3.185-6.36c-1.8-1.31-5.746-.992-5.746-.992s1.88-5.021-1.06-5.729-6.811-3.214-9.784-2.1" fill="#131a42"/>
      <path id="Tracé_1682" data-name="Tracé 1682" d="M1392.8,1827.1c.256-.686,1.1-3.643,3.62-1.908s-1.573,7.308-2.014,7.38-3.788.318-1.606-5.472" fill="#d1e5ff"/>
      <path id="Tracé_1683" data-name="Tracé 1683" d="M1386.374,1844.741c0,.217-.006.44-.011.652,7.486-2.521,8.936-6.32,8.936-6.32-2.337,1.657-8.942,3.877-8.942,3.877.011.547.023,1.166.017,1.791" fill="#a8cfff"/>
      <path id="Tracé_1684" data-name="Tracé 1684" d="M1335.478,1907.034s-3.593,2.856-4.129,3.308-1.076,2.337-1.506,4.557-.022,5.417.257,5.69a1.937,1.937,0,0,0,1.411.848,3.717,3.717,0,0,0,1.9-.228,2.294,2.294,0,0,0,2.215.2,2,2,0,0,0,2.226-.178,1.666,1.666,0,0,0,1.846-.056,15.512,15.512,0,0,1,.948-2.532c.4-.642.854-4.686,1.094-8.664,0,0,.837-4.34-6.264-2.945" fill="#d1e5ff"/>
      <path id="Tracé_1685" data-name="Tracé 1685" d="M1342.329,1911.511s9.165-14.086,12.847-17.522c1.64-1.529,4.608-6.014,7.325-9.55.892-1.166,1.768-2.388,2.6-3.6v-.006c3.336-4.831,5.941-9.461,5.941-9.461s9.845-11.6,1.946-16.763c0,0-3.386-.072-5.243.943-1.908,1.037-5.98,9.578-6.672,11.1s-8.172,15.558-8.674,15.876-2.605,4.084-4.915,6.588c-3.693,4-14.286,18.6-14.286,18.6Z" fill="#090c1e"/>
      <path id="Tracé_1686" data-name="Tracé 1686" d="M1177.68,1920s1.227-5.6,2.147-5.517a1.455,1.455,0,0,1,1.211.681l1.545-2.075s1.8-.793,2.131,1.405c0,0,1.6-.914,1.673,1.244,0,0,1.328-.128,1.535.865s-.726,4.569-.726,4.569-.563.875-1.88.267a1.841,1.841,0,0,1-2.142.14,2.219,2.219,0,0,1-2.309-.117s-2.176.876-3.275-.876a5.407,5.407,0,0,1,.09-.586" fill="#a8cfff"/>
      <path id="Tracé_1687" data-name="Tracé 1687" d="M1178.781,1910.513s.993,3.81,2.449,5.645c.324.418.72.759,1.228.614s.937-1.083.591-2.756a14.487,14.487,0,0,1-.034-3.989s-.859-1.612-4.234.486" fill="#d1e5ff"/>
      <path id="Tracé_1688" data-name="Tracé 1688" d="M1242.75,1920.333a4.465,4.465,0,0,0,1.428-.274s.747-.479,1.3-.792a4,4,0,0,1,.435-.217,8.367,8.367,0,0,0,2.405-1.155c.937-.72,4.005-3.6,4.005-3.6l-1.98-3.057-.915-3.034s-7.152.714-8.106,1.283c-.089.056-.184.117-.262.178a10.445,10.445,0,0,0-1.456,1.64c-.134.123-1.383,1.462-1.311,2.009a1.8,1.8,0,0,0,.932,1.467,4.273,4.273,0,0,0,1.01,2.125,2.66,2.66,0,0,0,1.355,1.908s.346,1.361,1.161,1.523" fill="#d1e5ff"/>
      <path id="Tracé_1689" data-name="Tracé 1689" d="M1277.756,1893.982a48.225,48.225,0,0,1,1.813,5.64c.178,1.328.8,3.782-26.994,16.646,0,0-4.708-4.323-5.7-8.066,0,0,15.954-8.625,18.331-12.6,2.527-4.228,12.546-1.618,12.546-1.618" fill="#131a42"/>
      <path id="Tracé_1690" data-name="Tracé 1690" d="M1281.921,1911.511s9.165-14.086,12.847-17.522c1.64-1.529,4.608-6.014,7.324-9.55.893-1.166,1.769-2.388,2.6-3.6v-.006c3.336-4.831,5.941-9.461,5.941-9.461s9.846-11.6,1.947-16.763c0,0-3.386-.072-5.243.943-1.908,1.037-5.98,9.578-6.672,11.1s-8.172,15.558-8.674,15.876-2.6,4.084-4.915,6.588c-3.693,4-14.286,18.6-14.286,18.6Z" fill="#8eaac1"/>
      <path id="Tracé_1691" data-name="Tracé 1691" d="M1269.78,1920s1.228-5.6,2.148-5.517a1.455,1.455,0,0,1,1.211.681l1.545-2.075s1.8-.793,2.131,1.405c0,0,1.6-.914,1.673,1.244,0,0,1.328-.128,1.534.865s-.731,4.569-.731,4.569-.557.875-1.874.267a1.841,1.841,0,0,1-2.142.14,2.219,2.219,0,0,1-2.309-.117s-2.176.876-3.275-.876a5.553,5.553,0,0,1,.089-.586" fill="#a8cfff"/>
      <path id="Tracé_1692" data-name="Tracé 1692" d="M1271.116,1910.513s.993,3.81,2.449,5.645c.323.418.719.759,1.227.614s.937-1.083.591-2.756a14.467,14.467,0,0,1-.033-3.989s-.859-1.612-4.234.486" fill="#d1e5ff"/>
      <path id="Tracé_1693" data-name="Tracé 1693" d="M1330.188,1920s1.227-5.6,2.147-5.517a1.455,1.455,0,0,1,1.211.681l1.545-2.075s1.8-.793,2.131,1.405c0,0,1.6-.914,1.674,1.244,0,0,1.327-.128,1.534.865s-.725,4.569-.725,4.569-.564.875-1.88.267a1.841,1.841,0,0,1-2.142.14,2.221,2.221,0,0,1-2.31-.117s-2.176.876-3.275-.876a5.394,5.394,0,0,1,.09-.586" fill="#a8cfff"/>
      <path id="Tracé_1694" data-name="Tracé 1694" d="M1331.29,1910.513s.993,3.81,2.448,5.645c.324.418.72.759,1.228.614s.937-1.083.591-2.756a14.47,14.47,0,0,1-.033-3.989s-.859-1.612-4.234.486" fill="#d1e5ff"/>
      <path id="Tracé_1695" data-name="Tracé 1695" d="M1395.258,1920.333a4.462,4.462,0,0,0,1.428-.274s.748-.479,1.3-.792a4,4,0,0,1,.435-.217,8.351,8.351,0,0,0,2.4-1.155c.937-.72,4.005-3.6,4.005-3.6l-1.98-3.057-.915-3.034s-7.151.714-8.105,1.283c-.089.056-.184.117-.262.178a10.337,10.337,0,0,0-1.456,1.64c-.134.123-1.383,1.462-1.311,2.009a1.8,1.8,0,0,0,.932,1.467,4.278,4.278,0,0,0,1.009,2.125,2.663,2.663,0,0,0,1.356,1.908s.351,1.361,1.16,1.523" fill="#ccd9f0"/>
      <path id="Tracé_1696" data-name="Tracé 1696" d="M1430.264,1893.982a48.248,48.248,0,0,1,1.813,5.64c.179,1.328.8,3.782-26.994,16.646,0,0-4.708-4.323-5.7-8.066,0,0,15.954-8.625,18.33-12.6,2.527-4.228,12.546-1.618,12.546-1.618" fill="#1c1c1c"/>
      <path id="Tracé_1697" data-name="Tracé 1697" d="M1347.578,1810.753s17.522-6.454,11.988-11.988-11.988,11.988-11.988,11.988" fill="#131a42"/>
      <path id="Tracé_1698" data-name="Tracé 1698" d="M1414.482,1824.868s16.952,7.826,16.952,0-16.952,0-16.952,0" fill="#131a42"/>
      <path id="Tracé_1699" data-name="Tracé 1699" d="M1407.477,1810.753s17.521-6.454,11.987-11.988-11.987,11.988-11.987,11.988" fill="#131a42"/>
      <path id="Tracé_1700" data-name="Tracé 1700" d="M1337.426,1804.219s7.826-16.953,0-16.953,0,16.953,0,16.953" fill="#131a42"/>
      <path id="Tracé_1701" data-name="Tracé 1701" d="M1212.44,1809.887s-17.522-6.454-11.988-11.988,11.988,11.988,11.988,11.988" fill="#131a42"/>
      <path id="Tracé_1702" data-name="Tracé 1702" d="M1229.268,1804.219s-7.826-16.953,0-16.953,0,16.953,0,16.953" fill="#131a42"/>
      <path id="Tracé_1703" data-name="Tracé 1703" d="M1423.381,1946.391a4.208,4.208,0,0,1,1.818,5.188,4.2,4.2,0,0,0,1.819,5.188,4.205,4.205,0,0,1,1.813,5.193,4.209,4.209,0,0,0,1.818,5.188,4.209,4.209,0,0,1,1.819,5.188,4.21,4.21,0,0,0,1.818,5.188,4.209,4.209,0,0,1,1.819,5.188,4.207,4.207,0,0,0,1.819,5.193" fill="none" stroke="#12304b" stroke-miterlimit="10" stroke-width="0.133"/>
      <path id="Tracé_1704" data-name="Tracé 1704" d="M1431.391,1950.452a4.21,4.21,0,0,1,1.819,5.188,4.2,4.2,0,0,0,1.818,5.188,4.2,4.2,0,0,1,1.813,5.193,4.209,4.209,0,0,0,1.819,5.188,4.21,4.21,0,0,1,1.818,5.188,4.209,4.209,0,0,0,1.819,5.188,4.21,4.21,0,0,1,1.818,5.188,4.207,4.207,0,0,0,1.819,5.193" fill="none" stroke="#12304b" stroke-miterlimit="10" stroke-width="0.133"/>
      <path id="Tracé_1705" data-name="Tracé 1705" d="M1268.851,1938.484a4.21,4.21,0,0,1,1.818,5.188,4.2,4.2,0,0,0,1.819,5.188,4.207,4.207,0,0,1,1.813,5.194,4.207,4.207,0,0,0,1.818,5.187,4.209,4.209,0,0,1,1.819,5.188,4.21,4.21,0,0,0,1.818,5.188,4.209,4.209,0,0,1,1.819,5.188,4.208,4.208,0,0,0,1.818,5.194" fill="none" stroke="#12304b" stroke-miterlimit="10" stroke-width="0.133"/>
      <path id="Tracé_1706" data-name="Tracé 1706" d="M1276.86,1942.546a4.209,4.209,0,0,1,1.819,5.188,4.2,4.2,0,0,0,1.818,5.188,4.2,4.2,0,0,1,1.813,5.193,4.209,4.209,0,0,0,1.819,5.188,4.21,4.21,0,0,1,1.818,5.188,4.209,4.209,0,0,0,1.819,5.188,4.208,4.208,0,0,1,1.818,5.188,4.215,4.215,0,0,0,1.819,5.193" fill="none" stroke="#12304b" stroke-miterlimit="10" stroke-width="0.133"/>
      <path id="Tracé_1707" data-name="Tracé 1707" d="M1200.25,1849.938a4.2,4.2,0,0,1-3.051,4.574,4.209,4.209,0,0,0-3.052,4.575,4.2,4.2,0,0,1-3.045,4.574,4.206,4.206,0,0,0-3.052,4.574,4.208,4.208,0,0,1-3.051,4.574,4.215,4.215,0,0,0-3.051,4.575,4.2,4.2,0,0,1-3.052,4.574,4.206,4.206,0,0,0-3.046,4.574" fill="none" stroke="#12304b" stroke-miterlimit="10" stroke-width="0.133"/>
      <path id="Tracé_1708" data-name="Tracé 1708" d="M1201.827,1858.78a4.2,4.2,0,0,1-3.052,4.574,4.208,4.208,0,0,0-3.051,4.574,4.2,4.2,0,0,1-3.046,4.575,4.2,4.2,0,0,0-3.051,4.574,4.208,4.208,0,0,1-3.052,4.574,4.212,4.212,0,0,0-3.051,4.574,4.2,4.2,0,0,1-3.051,4.575,4.2,4.2,0,0,0-3.046,4.574" fill="none" stroke="#12304b" stroke-miterlimit="10" stroke-width="0.133"/>
    </g>
  </g>
</svg>
