<svg xmlns="http://www.w3.org/2000/svg" width="29.921" height="24.989" viewBox="0 0 29.921 24.989">
  <g id="Groupe_256" data-name="Groupe 256" transform="translate(-879.212 -4597.03)">
    <g id="Groupe_253" data-name="Groupe 253">
      <path id="Tracé_1446" data-name="Tracé 1446" d="M898.538,4612.458a.843.843,0,0,0,.841-.794c.042-.731.062-1.4.062-2.018,0-3.18-.512-4.94-1.2-6a2.966,2.966,0,0,0-1.125-1.049,2.019,2.019,0,0,0-.856-.225l-.047,0h-4.071l-.047,0a2.008,2.008,0,0,0-.857.225,3.558,3.558,0,0,0-1.6,1.985,13.944,13.944,0,0,0-.725,5.061c0,.618.021,1.289.063,2.019a.844.844,0,0,0,.841.794l.05,0a.844.844,0,0,0,.793-.891c-.042-.7-.061-1.339-.061-1.92a11.216,11.216,0,0,1,.734-4.733v15.8a1.3,1.3,0,1,0,2.606,0v-9.51h.488v9.51a1.3,1.3,0,1,0,2.6,0v-15.8a4.407,4.407,0,0,1,.188.446,13.054,13.054,0,0,1,.546,4.281c0,.582-.019,1.22-.06,1.921a.843.843,0,0,0,.792.89Z" fill="#fff"/>
      <circle id="Ellipse_9" data-name="Ellipse 9" cx="2.371" cy="2.371" r="2.371" transform="translate(891.802 4597.03)" fill="#fff"/>
    </g>
    <g id="Groupe_254" data-name="Groupe 254">
      <path id="Tracé_1447" data-name="Tracé 1447" d="M887.4,4612.409a.717.717,0,0,0,.715-.675c.036-.621.053-1.19.053-1.715,0-2.7-.435-4.2-1.024-5.1a2.532,2.532,0,0,0-.956-.892,1.713,1.713,0,0,0-.728-.19l-.04,0H881.96l-.04,0a1.713,1.713,0,0,0-.728.19,3.024,3.024,0,0,0-1.364,1.687,11.845,11.845,0,0,0-.616,4.3c0,.524.017,1.095.053,1.716a.717.717,0,0,0,.715.674l.042,0a.717.717,0,0,0,.674-.757q-.052-.892-.052-1.631a9.534,9.534,0,0,1,.624-4.022v13.43a1.107,1.107,0,1,0,2.214,0v-8.082h.415v8.082a1.107,1.107,0,1,0,2.214,0V4606a4,4,0,0,1,.16.379,11.111,11.111,0,0,1,.464,3.639c0,.494-.017,1.036-.051,1.632a.715.715,0,0,0,.673.756Z" fill="#fff"/>
      <circle id="Ellipse_10" data-name="Ellipse 10" cx="2.015" cy="2.015" r="2.015" transform="translate(881.675 4599.298)" fill="#fff"/>
    </g>
    <g id="Groupe_255" data-name="Groupe 255">
      <path id="Tracé_1448" data-name="Tracé 1448" d="M908.365,4612.409a.717.717,0,0,0,.715-.675c.036-.621.053-1.19.053-1.715,0-2.7-.435-4.2-1.024-5.1a2.532,2.532,0,0,0-.956-.892,1.717,1.717,0,0,0-.728-.19l-.04,0h-3.459l-.041,0a1.709,1.709,0,0,0-.727.19,3.029,3.029,0,0,0-1.365,1.687,11.871,11.871,0,0,0-.615,4.3c0,.524.017,1.095.053,1.716a.717.717,0,0,0,.714.674l.043,0a.717.717,0,0,0,.673-.757c-.035-.595-.051-1.138-.051-1.631a9.517,9.517,0,0,1,.624-4.022v13.43a1.107,1.107,0,1,0,2.214,0v-8.082h.415v8.082a1.107,1.107,0,1,0,2.214,0V4606a3.771,3.771,0,0,1,.159.379,11.056,11.056,0,0,1,.464,3.639c0,.494-.016,1.036-.05,1.632a.715.715,0,0,0,.673.756Z" fill="#fff"/>
      <circle id="Ellipse_11" data-name="Ellipse 11" cx="2.015" cy="2.015" r="2.015" transform="translate(902.641 4599.298)" fill="#fff"/>
    </g>
  </g>
</svg>
