<svg xmlns="http://www.w3.org/2000/svg" viewBox="0 0 45.64 45.65"><defs><style>.cls-1{fill:#9ac7fe;}.cls-2{fill:#358ffe;}</style></defs><title>linkedin</title><g id="Calque_2" data-name="Calque 2"><g id="Calque_1-2" data-name="Calque 1"><path class="cls-1" d="M22.82,45.65A22.83,22.83,0,1,1,45.64,22.82,22.85,22.85,0,0,1,22.82,45.65m0-44.43a21.61,21.61,0,1,0,21.61,21.6A21.62,21.62,0,0,0,22.82,1.22"/><path class="cls-2" d="M17.43,30.76H13.67v-12h3.76Zm-2-13.52h0a2.1,2.1,0,1,1,.05-4.18,2.1,2.1,0,1,1,0,4.18m17,13.52H28.2V24.54c0-1.63-.67-2.74-2.13-2.74a2.16,2.16,0,0,0-2,1.48,3,3,0,0,0-.09,1v6.5H19.72s.06-11,0-12h4.22v1.89c.25-.83,1.6-2,3.75-2,2.67,0,4.77,1.73,4.77,5.46Z"/></g></g></svg>