<svg xmlns="http://www.w3.org/2000/svg" width="88.616" height="63.498" viewBox="0 0 88.616 63.498">
  <g id="Groupe_215" data-name="Groupe 215" transform="translate(-387.866 -75.899)">
    <g id="Groupe_214" data-name="Groupe 214">
      <path id="Tracé_1370" data-name="Tracé 1370" d="M405.279,87.083c-5.914,4.525-11.927,8.413-17.283,11.9,15.479-3.633,25.22-19.719,43.611-19.782a31.445,31.445,0,0,1,19.167,6.488c-4.485-4.557-9.265-8.752-16.607-9.565a35.806,35.806,0,0,0-3.985-.229c-11.205,0-17.735,5.7-24.9,11.184" fill="#358ffe"/>
      <path id="Tracé_1371" data-name="Tracé 1371" d="M433.635,119.793a27.541,27.541,0,0,0,6.7-.852c11.947-2.975,23.3-14.58,33.014-20.616a15.755,15.755,0,0,0,3.137-2.11c-14.857,3.4-24.1,18.27-41.335,20.088a28.231,28.231,0,0,1-2.859.147c-7.8,0-14.236-3.265-19.456-6.316,5.168,5.109,12.045,9.662,20.8,9.659" fill="#358ffe"/>
      <path id="Tracé_1372" data-name="Tracé 1372" d="M428.361,85.973a.264.264,0,0,0,.037-.02c0-.052,0-.052-.461-.113a.27.27,0,0,1,0-.04c-.21.053-.3.072-.368.021.3-.1.3-.1.31-.143-.091-.06-.182.039-.275-.005a.212.212,0,0,0,.044-.079c-.137-.1-.3-.01-.446-.079.226-.084.287-.055.623.1a.251.251,0,0,0,.285-.024c-.016-.049-.081-.061-.1-.115a.711.711,0,0,0-.1,0c.079-.024.1-.03.126-.079l-.022-.03-.115.015c.013-.015.013-.015.136-.06a.911.911,0,0,0-.239-.186.539.539,0,0,1-.149-.068l-.055.019-.011-.032a.125.125,0,0,1-.063.01h-.006a.357.357,0,0,0-.21.093.682.682,0,0,1,.031-.067.147.147,0,0,1-.069.021.325.325,0,0,0,.051-.1.14.14,0,0,0-.075.014l0-.036c-.13.078-.13.078-.15.081s-.018-.011-.029-.017l-.094.068a.345.345,0,0,1,.036-.065.147.147,0,0,0-.02-.026c-.054-.007-.054-.007-.276.265-.061-.038-.108-.068-.111-.068.063-.112.249-.114.236-.284-.106.053-.21.1-.318.151,0-.072,0-.072-.014-.1-.048,0-.048,0-.13.031.082-.062.2-.07.256-.162-.115,0-.115,0-.149-.052a.278.278,0,0,0-.284.038.274.274,0,0,1,.109-.089c-.057,0-.057,0-.248.081.01-.019.021-.046.031-.062s-.292-.138-.417.007c.008.023.008.023.088.078a1.331,1.331,0,0,1-.4.087l0,0c-.118-.223-.325-.214-.477.014a.4.4,0,0,0,.033.024.52.52,0,0,0,.087-.028c-.026.026-.061.047-.085.075.042.073.042.073.045.088s-.017.018-.026.027a.1.1,0,0,0-.018-.029.188.188,0,0,1,.01-.031.268.268,0,0,0-.179-.04c-.006-.01-.01-.02-.016-.028a.155.155,0,0,0,.021-.028.136.136,0,0,1-.032-.021c-.06.034-.06.034-.117.128-.041,0-.15.054-.131.14a.964.964,0,0,0,.146-.041c-.015.017-.034.041-.049.055a.115.115,0,0,1,.064.007c0,.011-.008.025-.011.034a.238.238,0,0,1,.035.052c.029,0,.063,0,.088,0a.237.237,0,0,1-.063.046h.07c.009.21-.174.329-.242.5-.119.041-.119.041-.165.055.005.011.015.022.019.032a1.433,1.433,0,0,1-.288.28.157.157,0,0,0-.059-.016c-.073.071-.172.1-.249.16l.009.034c.048.012.1-.013.146.008,0,.025.01.058.015.085-.007.007-.016.019-.024.028a.207.207,0,0,0,.058.038.218.218,0,0,0-.073.019c.009.024.022.054.032.074a.142.142,0,0,1-.034-.009.358.358,0,0,1-.017.034.2.2,0,0,0-.07.011c0,.007.009.02.015.03a.13.13,0,0,1-.063.02.151.151,0,0,1-.032.066c-.041-.088.03-.232-.1-.273a.35.35,0,0,0-.07.123c-.083-.028-.252.038-.263.116a.16.16,0,0,0,.024.027.149.149,0,0,1-.011.034l-.033,0a.235.235,0,0,0-.023-.022.1.1,0,0,0-.042.052c.092.111.253.021.259.015.089-.048.049-.161.112-.225.043.177.043.177.062.193-.01.032-.023.064-.158.128l.031.02a.486.486,0,0,0-.111.089v-.036c-.03.009-.03.009-.138.106-.084-.068-.1-.065-.158-.052a.175.175,0,0,0,.01.03.173.173,0,0,1,.088.05.232.232,0,0,1-.032.076c-.036-.04-.068-.083-.107-.12a.139.139,0,0,0-.025.063c-.029-.048-.043-.072-.176.026a1.764,1.764,0,0,1,.2.025c-.038.011-.038.011-.059.072l.031.017c.064-.047.064-.047.1-.047-.093.065-.126.06-.151.053-.032-.072-.039-.089-.165-.082-.121.14-.121.14-.144.148a.147.147,0,0,0,0,.027l-.027.018-.032-.007c-.006.009-.014.021-.019.03l.019.027a.181.181,0,0,1-.061.037.265.265,0,0,0,.076.028.228.228,0,0,0-.019.035l-.039,0a.371.371,0,0,0-.032.059c-.072.022-.082.1-.133.141.022.011.022.011.106.012a.157.157,0,0,1,.009.034.318.318,0,0,1-.022.033c-.028-.014-.028-.014-.116-.013,0,.011,0,.023,0,.033a.358.358,0,0,1-.068.011c-.02.04-.018.088-.036.13l-.032.007a.094.094,0,0,1-.028.059.182.182,0,0,1,.035.009.374.374,0,0,1-.043.071c0,.011.011.021.014.031s-.024.041-.034.06c.018.009.045.024.067.033a.963.963,0,0,0-.108.081c.049-.036.061-.03.1-.017a.665.665,0,0,1-.066.032c0,.046,0,.046-.057.088a.154.154,0,0,0,.057.029.227.227,0,0,0-.074.016c.008.058.008.058-.023.137a.716.716,0,0,0,.212-.018.347.347,0,0,0-.048.081l-.033,0a.121.121,0,0,1,.015.066.213.213,0,0,0,.031.021.113.113,0,0,1,.027-.013.171.171,0,0,1,.012.03l.036,0c-.04.032-.089.046-.128.078a.808.808,0,0,1,.1-.029c-.016.021-.038.043-.051.061a.383.383,0,0,0,.068-.027c-.044.086-.044.086-.044.117a.075.075,0,0,0,.093,0c.006-.02.015-.047.021-.069h.031a.326.326,0,0,0-.011-.086,1.07,1.07,0,0,0,.473-.289c.017,0,.043.007.06.007a.766.766,0,0,1,.092-.136.689.689,0,0,0,.045.061.977.977,0,0,1,.137-.122.183.183,0,0,1-.052-.045c.124-.045.124-.045.2-.163.073.026.088.014.142-.041.071.051.17.043.24.1l-.016.041c.049.006.085-.034.133-.039a.236.236,0,0,0,0,.039c.635-.2.635-.2.733-.366-.051.183.157.139.161.138l.026-.017c0,.012,0,.025,0,.035.124.024.124.024.134.034.316-.012.316-.012.352-.056.19.1.311.046.634-.088a.612.612,0,0,0-.174-.123h0v0h0c-.082-.023-.168-.036-.249-.06a.9.9,0,0,0,.079-.052c-.165-.06-.165-.06-.183-.085.05-.077.116-.091.364.011.084-.106-.014-.132-.2-.177l.019-.014h.006a.217.217,0,0,0,.033-.007V87.5a.206.206,0,0,1,.035,0,.136.136,0,0,0,.01.037c.034.074.138.058.173.134.045.1-.037.2.027.291a.169.169,0,0,0,.148.036v-.045c.038-.015.084-.033.1-.163-.01,0-.022,0-.032-.009.051-.154.046-.195-.121-.26l0,0h0l0,0h0l0,0h-.005a.166.166,0,0,1,.074-.014l.023-.024c-.046-.036-.134.032-.156-.042-.026-.1,0-.125.1-.156a2.069,2.069,0,0,1,.293-.033.24.24,0,0,1-.039.057c.109.158.324.157.361.032a.087.087,0,0,0,.006-.032c-.045-.014-.09.009-.134-.014.022-.045.022-.045.122-.151.128.172.128.172.2.152-.024-.033-.024-.033-.1-.083l.028-.061c-.02,0-.045-.01-.063-.012.039-.011.039-.011.1-.149a.112.112,0,0,1,.035.009.323.323,0,0,1,.04.065c.168.026.183-.235.182-.236a.161.161,0,0,0-.066.019.125.125,0,0,1-.023-.023.134.134,0,0,1,.073-.026c.052-.07.052-.07.217.019.029-.017.074-.038.083-.158a.43.43,0,0,0-.07.013.136.136,0,0,0-.027-.026.217.217,0,0,1,.033-.073c.049.031.049.031.09.023-.068-.113-.068-.113-.1-.123a.474.474,0,0,1,.029-.061c.007.038.007.038.058.073a.729.729,0,0,0,.144-.081c.058-.021.058-.021.156-.148a.171.171,0,0,1,.059.02c.014,0,.014.006.014.006a.445.445,0,0,0,.139-.085.2.2,0,0,0,0-.036c-.061-.036-.118.007-.181,0,.04-.2.308.037.431-.093-.2-.015-.2-.015-.225-.051Zm-.74-.666c-.006,0-.012,0-.022-.014s-.044-.016-.079,0a.294.294,0,0,0,.02-.04c.022-.005.022-.007.079-.049,0,.006,0,.008-.026.029s-.031.034,0,.039h.026l.01,0c.005.006,0,.014,0,.026h0m.237.066a.087.087,0,0,1-.043,0H427.8a.238.238,0,0,1-.048-.024c-.034-.015-.073-.007-.11-.019-.011-.007-.014-.012-.009-.027a.3.3,0,0,1,.112.01c.016,0,.016,0,.126.056a.038.038,0,0,1-.016,0m-.349-.125a.058.058,0,0,1-.057.006.071.071,0,0,0-.049,0,.193.193,0,0,0,.035-.023.154.154,0,0,1,.075.01l0,0m-.477-.031c-.006-.008.018-.032.042-.055s.034-.036.036-.055c.014.036.005.065-.074.114l0,0m.451.6c-.006,0-.016,0-.023,0a.069.069,0,0,1,.017-.011c0,.005.012.005.006.009m-.049.007a.885.885,0,0,1-.191.032.281.281,0,0,1,.193-.036h0l0,0" fill="#358ffe"/>
      <path id="Tracé_1373" data-name="Tracé 1373" d="M426.478,84.689a.685.685,0,0,1-.278-.02.039.039,0,0,0,0-.014.147.147,0,0,1-.028.015.1.1,0,0,0-.091-.02c.031.033.079.023.113.052a.27.27,0,0,1-.111.015c-.061-.005-.109-.05-.171-.054a1.046,1.046,0,0,1-.138.006s-.01-.006-.015-.006.009-.013.038-.028c-.035.008-.133.017-.133.017l-.008-.009c0-.008.006-.017.008-.024-.034-.006-.048.027-.072.039-.045-.042-.045-.042-.14,0,0-.04,0-.04,0-.052a.125.125,0,0,0-.038,0l-.009,0a.26.26,0,0,0,.03-.036.083.083,0,0,1-.03.013c.011-.024.043-.028.045-.059-.006,0-.011-.012-.015-.017a.106.106,0,0,0-.042.007v0c0,.023,0,.027-.022.07-.029.007-.029.007-.042,0a.267.267,0,0,1,.032-.06c-.035.017-.049.055-.083.072a.3.3,0,0,0-.03-.032.433.433,0,0,1,.038-.057c-.012.012-.027.032-.039.045-.032.008-.068,0-.1.012.027.02.072,0,.089.037-.036.076-.036.076-.041.076-.053.027-.112.006-.165.029-.006-.027-.006-.027-.022-.033a.033.033,0,0,0-.014.02c-.047.022-.1.03-.078-.048-.045,0-.078.048-.128.02l0-.011,0-.005v0h0c0-.028-.015-.028-.04-.028-.031.057-.1.073-.13.133-.093.006-.093.006-.109,0a.1.1,0,0,1,.036-.028c-.115.009-.115.009-.134,0,.035-.046.1-.038.145-.071a.037.037,0,0,0-.025-.005.944.944,0,0,1,.107-.059l-.1.017c-.011-.047-.012-.06.091-.087-.041,0-.041,0-.055,0l0-.009a.607.607,0,0,0-.135.034.248.248,0,0,1,.122-.1.382.382,0,0,0-.068.018.368.368,0,0,1,.081-.048c-.028,0-.054.009-.083,0,.013-.03.049-.028.072-.045-.015,0-.015,0-.051.007,0,0,.183-.139.235-.007.061-.022.12-.06.182-.084.069.116-.143.128-.186.217a.125.125,0,0,1,.032-.008l.009.008c.036-.01.044-.011.086-.021a.05.05,0,0,1,.024-.043l-.011-.007-.016,0c.025-.023.025-.023.228-.078-.032-.015-.067,0-.1,0,0-.013,0-.013.03-.037l-.005-.013-.021-.006,0-.017c.059-.039.231-.059.222.015a.277.277,0,0,1-.055.105c.023,0,.023,0,.09-.1a.069.069,0,0,1,.025,0v.01h0v.012c.036-.01.048-.015.055-.023l0-.009a.956.956,0,0,1,.128-.064c-.2.043-.2.043-.223.028v0l0-.033c-.045,0-.047,0-.057-.012a.534.534,0,0,1,.076-.02c-.053-.016-.108.022-.16,0a.209.209,0,0,0-.053.007.059.059,0,0,1,.021-.015.411.411,0,0,0-.05.015c.021-.017.05-.03.074-.049a.253.253,0,0,1-.055,0l0-.011c.015-.017.038-.043.268-.108,0,.015.018.022.02.038a.074.074,0,0,0,.039-.019c0-.019-.024-.029-.024-.05s.022-.021.074-.035c-.008.027-.008.027-.006.035h.025c.028-.07.134-.093.236-.113-.026.026-.055.043-.079.069.042-.008.072-.038.112-.045a.113.113,0,0,0-.029-.024s0,0,.113-.027l.029,0,.008.01a.176.176,0,0,0-.014.023.4.4,0,0,0,.11-.024h-.013a.022.022,0,0,1,0-.012c.008,0,.02-.012.029-.019H425.9c.011-.033.105-.046.107-.046s-.005.012-.067.059l.089-.019a.43.43,0,0,0,.043-.017l-.011,0v-.015a.085.085,0,0,1,.063-.017l0,.009c-.069.084-.069.084-.245.15-.146.045-.146.045-.179.108,0,.006-.006.017-.011.026l.036,0a.15.15,0,0,1-.056.028.155.155,0,0,0,.043,0,.773.773,0,0,1-.213.064v.012c.062,0,.123-.051.193-.027.036.015-.027.091-.027.091-.059.058-.3.084-.2.144.011,0,.027-.012.023-.027-.008-.046.162-.082.165-.082.039,0,.036.03.033.045-.008.041,0,.093.083.075-.018-.015-.047-.045,0-.056s.065.035.1.047c.006-.01.009-.025.015-.036.034,0,.063.022.1.022a1.476,1.476,0,0,1-.2-.172c0-.017.005-.025.085-.041-.037-.01-.078,0-.115,0l0-.008h0c0-.024,0-.034.093-.05a.291.291,0,0,0-.046-.02l0,0a.284.284,0,0,0,.027-.012c-.011-.074-.011-.074.04-.094.087.047.087.047.118.044a.256.256,0,0,1-.081-.06c.057-.011.063-.015.089,0a.3.3,0,0,0,.006.036l.016.005c.023-.017.023-.02.007-.051,0-.007,0-.009.005-.013a.051.051,0,0,1,.042,0l0,.013a.111.111,0,0,0,.032-.017l0-.011-.011-.006a.063.063,0,0,1,.056-.009l0,.013a.261.261,0,0,1-.051.036c.028.028.063.013.093.02l0,.01c-.018.015-.018.015-.113.054l.058-.014.01,0,0,.008c-.039.02-.082.031-.123.049l.107-.025-.008.017a.317.317,0,0,0-.072.02c.1.01.15-.091.237-.113-.009.016-.013.034-.021.049a.577.577,0,0,0,.116-.028c-.054.09-.163.1-.241.15l.068-.012c-.016.008-.016.008-.083.036a1.9,1.9,0,0,0,.208-.06c-.033.06-.119.056-.147.121.045-.014.077-.057.123-.071l0,.012a.136.136,0,0,0-.011.021.224.224,0,0,0,.092-.014.324.324,0,0,1-.039.025c.005,0,.012.013.02.013-.008.012-.008.012-.046.026a.088.088,0,0,1-.02.024h0c-.019.008-.042.014-.062.021.018,0,.018,0,.062-.021h0c.167-.084.191-.061.183-.024-.01.013-.01.013-.089.1a.376.376,0,0,1,.068-.018l.154.02c0,.017,0,.017-.032.054.039.012.052.016.028.065a.539.539,0,0,1-.237,0,.3.3,0,0,0,.157.025c.079,0,.082,0,.093.012-.03.064-.128.088-.1.183l-.038.012" fill="#358ffe"/>
      <path id="Tracé_1374" data-name="Tracé 1374" d="M433.752,86.057s-.006,0-.006.011.009.034.008.056c0,0,0,.012-.006.014s-.011,0-.011.008.015.024.018.036-.039,0-.039,0-.056-.031-.058-.045l.007-.008c-.009-.008-.023-.018-.034-.026.049,0,.029-.045.017-.066.017-.015.017-.015.025-.015a.105.105,0,0,1,.079.04" fill="#358ffe"/>
      <path id="Tracé_1375" data-name="Tracé 1375" d="M435.587,85.511c.005.006.012.014.012.02s0,.005-.01.006l.043.02a.241.241,0,0,1,.024.068c-.011.01-.024-.007-.033,0l0,0c.017.013.021.017.007.029s-.058,0-.081.024c-.009.006-.012.025-.028.025s-.04-.015-.059-.028c0,.025,0,.028-.008.041-.056-.038-.068-.066-.047-.07h0c-.1-.059-.1-.1-.082-.131-.053-.014-.048.029-.04.043s.013.01.013.022a.123.123,0,0,1-.094,0c-.017-.006-.017-.006-.033.017-.036-.043-.036-.043-.022-.074-.018-.01-.036-.023-.054-.033s-.05-.041-.076-.058c.01,0,.028-.009-.017-.055-.025-.026-.028-.028-.027-.033H435c.057.012.112.027.171.038a.4.4,0,0,1,.071.017l.076.04c.032.023.03.044.03.044s0,.009.008.019c.008-.018-.006-.037,0-.053.028-.013.113.03.147.069.047-.006-.047-.053-.066-.079l0,0,.152.068" fill="#358ffe"/>
      <path id="Tracé_1376" data-name="Tracé 1376" d="M433.661,86.221a.044.044,0,0,0-.033.009.044.044,0,0,1-.032.008c.076.079.076.079.08.094l0,0c-.015,0-.026-.01-.04-.01s-.012,0-.042.017c-.054-.043-.066-.054-.081-.083s0-.032-.009-.048-.023-.03-.023-.047,0-.021.021-.028.036,0,.059.028c.008-.008.042-.011.1.056" fill="#358ffe"/>
      <path id="Tracé_1377" data-name="Tracé 1377" d="M432.832,86.409l-.088.008c-.016,0-.032.018-.048.018a.118.118,0,0,0-.033,0c-.006,0,0,.017,0,.028a.061.061,0,0,1,0,.019c0,.008-.012.012-.016.021s0,.011-.005.015-.005,0-.02-.015-.029-.009-.042-.011-.026.036-.049.041-.027-.011-.04-.015a.194.194,0,0,0-.06.01c-.008-.018-.023-.044-.01-.061a.06.06,0,0,1,.045-.019c.013,0,.013,0,.02-.009s.034-.033.052-.048a.687.687,0,0,1,.118-.027.281.281,0,0,1,.2.043h-.014" fill="#358ffe"/>
      <path id="Tracé_1378" data-name="Tracé 1378" d="M433.015,86.4a.075.075,0,0,1-.008.031.038.038,0,0,1-.028,0c-.029,0-.037.011-.037.015s.025.024.037.035a.3.3,0,0,1-.1.006c.019.039.01.049-.032.076-.01-.022-.017-.031-.039-.027s-.034,0-.045-.055a.086.086,0,0,0-.05-.011.037.037,0,0,1-.005-.017h0a.41.41,0,0,0,.157-.015c.037-.015.03-.043.023-.066,0,0-.017-.008-.023-.014a.013.013,0,0,1,.011-.007c.019,0,.035,0,.053-.005.006.016.011.029.015.043.009-.009.009-.03.026-.025a.068.068,0,0,1,.039.031" fill="#358ffe"/>
      <path id="Tracé_1379" data-name="Tracé 1379" d="M431.333,86.677c0,.012-.011.1-.053.1-.018,0-.039.008-.007.034-.013.031-.032.04-.1.044.018.093-.043.1-.238.038s-.191-.04-.2-.032c-.028,0-.048-.06-.048-.06.025-.016.047.007.069.01a.114.114,0,0,0-.006-.025c.068,0,.086,0,.1-.031-.074-.027-.225.055-.23-.057.044,0,.044,0,.05-.049h-.008c-.079,0-.079-.02-.077-.06.083.023.083.023.085.04s0,.018.023.015l.005-.005c.013-.017-.005-.033,0-.05s.033-.008.041-.024c-.032-.011-.014-.059-.014-.059h0c.03.008.042.041.071.052.067.057.067.057.106.066a.07.07,0,0,1,.058.034c.049.013.062,0,.055-.055.009.011.02.027.03.041,0-.029,0-.055,0-.081a.119.119,0,0,1,.025.1.066.066,0,0,0,.038-.021c.018-.018.029-.04.049-.058,0,.022-.008.041-.01.066.024-.015.035-.041.06-.052,0,.025.009.078.117.057v.013" fill="#358ffe"/>
      <path id="Tracé_1380" data-name="Tracé 1380" d="M433.51,86.321a.061.061,0,0,1,.007.023.523.523,0,0,1,0,.056c-.009-.005-.028-.021-.041-.008-.021-.027-.047-.052-.065-.08s-.01-.018-.005-.021l.011,0c.014,0,.025.007.04.009a.07.07,0,0,1,.028,0,.041.041,0,0,1,.029.015" fill="#358ffe"/>
      <path id="Tracé_1381" data-name="Tracé 1381" d="M430.776,87.037h-.006c-.162,0-.13.124-.129.124.007.024.016.038.01.05s-.024,0-.034.016,0,.053-.016.076l-.007.006c-.01.01-.022.008-.034.015-.021.024-.027.056-.056.069s-.041.012-.055,0c-.034.022-.013.121-.064.1,0,.005,0,.005-.009.022-.019-.022-.024-.035-.041-.11-.019,0-.019,0-.081-.013-.013-.036-.015-.039-.051-.049-.075-.024-.069-.038-.051-.116a.052.052,0,0,1,.032.038l.1,0a.1.1,0,0,1-.04-.034c.011-.028.011-.028.091-.068-.059-.007-.157-.013-.174.022-.024-.017-.024-.017-.016-.115a.294.294,0,0,0,.032.023v-.027c.1.035.1.035.113,0,.1.04.16.036.182-.012-.07,0-.07,0-.083-.009s-.008-.043-.033-.044-.035.02-.047,0-.009-.035-.008-.073a.216.216,0,0,1-.043.021c0-.008,0-.008-.008-.011-.025.011,0,.047-.025.054s-.033-.006-.051-.006c-.037.08-.081.024-.081.022-.016-.023,0-.052-.007-.08s-.03-.071-.026-.113a.18.18,0,0,1,.028-.012c-.014-.019-.009-.043-.019-.06-.006.006-.017.015-.023.022.008-.039.02-.09.035-.1s.007.013.016.019.016-.006.025-.027a.43.43,0,0,1,.1.019c-.014.028-.046.032-.067.049a.065.065,0,0,1,.051.06h.014c-.01-.085.043-.1.065-.094a1.6,1.6,0,0,1,.088.233.639.639,0,0,1-.025-.183c0-.009,0-.016.01-.022l.085-.1.022.062c.037-.024.037-.024.1.06.023.033,0,.075.025.111,0-.019.007-.022.015-.029.058.019,0,.089.042.12s.09.027.123.062a.109.109,0,0,1,.013.033Z" fill="#358ffe"/>
      <path id="Tracé_1382" data-name="Tracé 1382" d="M433.673,86.449s0,.019-.013.017a.278.278,0,0,1-.064-.023s-.026-.044,0-.05a.108.108,0,0,1,.08.056" fill="#358ffe"/>
      <path id="Tracé_1383" data-name="Tracé 1383" d="M435.39,85.694c-.011.053-.013.069-.037.078-.042-.029-.086-.051-.124-.08s-.036-.028-.03-.037a.239.239,0,0,1,.191.036v0" fill="#358ffe"/>
      <path id="Tracé_1384" data-name="Tracé 1384" d="M435.885,85.482c.012.013.008.021.006.026h0l0,0v0h0v0h0l.052.076a.315.315,0,0,1-.079.021c.059.053.1.118.073.118a.044.044,0,0,1-.042-.027.081.081,0,0,0-.018-.02l-.113-.107a.092.092,0,0,0-.023-.017.466.466,0,0,1-.122-.083c-.054-.038-.054-.038-.072-.042.016,0,.018,0,.021,0s0-.007-.032-.02c.015,0,.015,0,.122.047-.024-.021-.024-.023-.024-.027s.011-.006.009-.017a.15.15,0,0,0,.1.021.2.2,0,0,1,.151.045" fill="#358ffe"/>
      <path id="Tracé_1385" data-name="Tracé 1385" d="M425.14,83.876a.09.09,0,0,1-.05,0c0-.016,0-.016.034-.026a2.173,2.173,0,0,0,.307-.142.2.2,0,0,0-.031,0c.006,0,.006,0,.033-.01,0-.013-.026-.02-.016-.033a.143.143,0,0,1,.055-.021l-.025.015,0,0c.011,0,.011,0,.032-.013h.034c.011-.005.011-.005.012-.009l0,0a.683.683,0,0,1,.087-.015H425.6a.021.021,0,0,1-.015-.007.3.3,0,0,1,.059-.009l-.008-.011a.278.278,0,0,1,.107-.013v0c-.052.035-.113.037-.166.068l0,0a.412.412,0,0,1,.067-.009l-.006.005c-.03.018-.065.019-.1.038l0,.013c.005.006-.006.012-.031.021a.2.2,0,0,0-.036.018l-.018.01c-.023.013-.052.013-.075.026a.454.454,0,0,1-.064.044.822.822,0,0,1-.173.059" fill="#358ffe"/>
      <path id="Tracé_1386" data-name="Tracé 1386" d="M425.664,83.512c-.007,0-.04,0-.035-.006a.374.374,0,0,1,.1-.055c.02,0,.078-.007.064.01l-.009.008a.309.309,0,0,1-.122.043" fill="#358ffe"/>
      <path id="Tracé_1387" data-name="Tracé 1387" d="M425.734,83.447c-.005,0-.013,0-.04,0,.029-.013.061-.021.088-.035l.011-.007,0-.012c.061-.014.059,0,.057.005l-.016.013a.351.351,0,0,1-.1.038v0" fill="#358ffe"/>
      <path id="Tracé_1388" data-name="Tracé 1388" d="M425.552,83.518c-.025,0-.025,0-.03,0l.005-.013a.839.839,0,0,0-.1.026c-.039,0-.045,0-.045,0s.015-.011.019-.021l0-.013,0,0c.008-.006.047-.023.051-.027a.7.7,0,0,1,.178-.035.024.024,0,0,0,0,.013l.006.007c.006.006.006.008,0,.015h.008s0,.008-.012.019a.034.034,0,0,1-.015.009c-.023.013-.035.017-.038.023a.154.154,0,0,0-.03,0" fill="#358ffe"/>
      <path id="Tracé_1389" data-name="Tracé 1389" d="M425.721,83.359c-.035,0-.068,0-.1.011.028-.01.056-.022.083-.03-.1.017-.12.017-.131.01v0l.01-.007v0a.536.536,0,0,1,.145-.025c0-.006-.015,0-.021-.008s0,0,.023-.007l-.049,0c-.029.007-.05.012-.061.006.005,0,.007-.006.059-.017a.264.264,0,0,0-.059.007c-.035,0-.037,0-.04,0s.1-.021.137-.034c-.027.007-.054.009-.082.017a.222.222,0,0,1,.044-.013.251.251,0,0,1-.031,0l0,0a.346.346,0,0,1,.057-.019c.015-.007.023-.018.036-.024s.128-.035.166-.042c-.018.016-.019.016-.022.023s.034,0,.047.012a.121.121,0,0,0-.017.011c.008.011.035,0,.035.019s0,.011-.035.024a.179.179,0,0,1-.053.024c-.027.006-.027.008-.028.01l.013,0a.323.323,0,0,0,.047-.011.3.3,0,0,1-.03.025.679.679,0,0,1-.146.039" fill="#358ffe"/>
      <path id="Tracé_1390" data-name="Tracé 1390" d="M430.874,87.194a.031.031,0,0,1-.019,0c-.021,0-.04-.015-.06-.015s-.016.009-.023,0l-.006-.014a.048.048,0,0,0-.008-.033.04.04,0,0,0-.017-.01.079.079,0,0,1-.039-.026.288.288,0,0,1,.123-.038.065.065,0,0,1,.066.047c.01.023-.015.059-.017.083" fill="#358ffe"/>
      <path id="Tracé_1391" data-name="Tracé 1391" d="M431.144,87.318c0,.014,0,.014-.13.055a.207.207,0,0,0-.088.013c0-.013,0-.028,0-.043a.961.961,0,0,0-.12.032.612.612,0,0,1,.024-.088c-.023-.01-.033-.017-.031-.033s.029-.034.043-.053c.025,0,.048.019.076.018s.021-.016.023-.023a.167.167,0,0,1,.093.066s.007.015.015.017a.374.374,0,0,1,.089.022c.012,0,.012.011.01.017" fill="#358ffe"/>
      <path id="Tracé_1392" data-name="Tracé 1392" d="M437.4,84.822c-.288-.178-.675-.416-.971-.581l-.111-.061c.437.27.453.281.674.439-.07-.041-.167-.092-.237-.135a2.089,2.089,0,0,0,.353.265c-.076-.044-.177-.1-.251-.152l.1.074c-.034-.015-.078-.037-.112-.054l.059.06h0a5.55,5.55,0,0,0,.657.589c-.034-.014-.079-.036-.114-.049.123.091.255.17.378.258a.729.729,0,0,1-.242-.016c.027.021.065.059.094.085-.036-.009-.084-.02-.122-.026a.821.821,0,0,0-.121.212.383.383,0,0,0-.234-.009c.1.15.1.15.3.3-.069-.037-.156-.09-.223-.13-.028.022-.069.052-.1.074h-.005c.243.238.243.238.285.387-.887-.866-.887-.866-.993-.87-.007.041-.017.1-.024.137l-.111.053a.472.472,0,0,0-.226-.064.346.346,0,0,0,.233.291c0,.037.014.088.022.127l.133.061-.059.108c-.033-.017-.079-.04-.114-.056a.9.9,0,0,0-.13.1c.085.588.085.588.314.69-.229.147-.229.147-.272.248.028.047,1.027.642,1.032.64.032.024.075.051.107.073h0v0c-.035-.01-.083-.028-.117-.041-.036.016-.084.04-.119.057-.269-.1-.273-.1-.381-.366a.887.887,0,0,1-.378-.04c-.02.03-.049.07-.07.1.036.02.082.042.114.058l-.12.03a.391.391,0,0,0,.214.131c-.025.028-.061.063-.085.089-.118-.03-.118-.03-.455-.357a2.418,2.418,0,0,0,.561.76,1,1,0,0,0,.243-.094c.179.095.278.323.52.311-.024.028-.058.064-.084.092a2.674,2.674,0,0,1-.422-.34.889.889,0,0,1-.083.09c.045.207.261.376.127.619a.842.842,0,0,1,.208.163,2.459,2.459,0,0,1-.23-.093l-.006.006-.006,0H436.8l0,0-.006,0,0,0-.006,0-.006,0c-.044,0-.1,0-.14,0,.047-.061.118-.138.172-.195-.028-.109-.808-1.349-1.226-1.254.077.278.217.537.3.813.036.008.036.008.324.235-.183.016-.222.018-.67-.127a.793.793,0,0,0-.195.147c.032.037.075.084.107.12-.009.036-.02.088-.028.124l-.127-.047c-.175.1-.37.169-.543.277,0-.037,0-.087,0-.123-.036,0-.087-.006-.123-.01a4.781,4.781,0,0,1-.4.355c0,.224-.026.235-.163.289a.914.914,0,0,1-.08-.1A.907.907,0,0,0,434,89.3a.562.562,0,0,0-.379-.139c.159.156.159.156.116.328.085.118.085.118.046.345-.027-.027-.063-.061-.089-.084-.148.006-.178.008-.286.18a.626.626,0,0,0,.152.2,2.353,2.353,0,0,1-.264.023c.008-.019.018-.045.025-.064l-.12-.05c-.016.039-.038.086-.055.121a.7.7,0,0,1,.163.22c-.349,0-.429-.388-.72-.477l-.088-.044h.009a.394.394,0,0,0-.133-.195c.9.162.9.162,1.041.01-.006-.049-.013-.114-.017-.164-.35-.268-.89-.128-1.172-.543-.03,0-.026.008-.025.019a.819.819,0,0,0-.246.027l.076-.1-.062-.132-.053.032c-.034.012-.078.03-.114.042-.015-.034-.034-.079-.049-.112a.408.408,0,0,0-.169.168v-.128a.663.663,0,0,0-.153.205c.008-.042.017-.1.022-.143-.028-.022-.062-.056-.092-.078a.406.406,0,0,0-.206.144c-.042-.009-.1-.024-.14-.034a.929.929,0,0,0-.108.12l-.123-.048c-.023.029-.05.067-.072.1-.016-.017-.032-.041-.049-.058,0,.038-.005.09-.008.127l-.049.021-.063-.03c-.025.069-.06.162-.086.228l-.126.046.119.025c-.025.029-.062.067-.088.1-.031-.021-.074-.045-.106-.063.014.035.028.084.041.123-.214.167-.878.728-.884.735.038,0,.088,0,.124,0a.479.479,0,0,1-.208.126c-.031-.027-.067-.058-.1-.083a.355.355,0,0,0-.136.169l-.067-.043-.119.013c-.018.036-.045.079-.063.116-.037,0-.084,0-.122,0,.015.027.038.058.052.082-.077-.008-.179-.019-.257-.022.029.025.07.057.1.08-.042.011-.1.028-.143.038a.351.351,0,0,0,.2.1.456.456,0,0,1-.242.025c-.006.021-.013.052-.018.077l.027.11h.01a.378.378,0,0,0,.228-.038,1.036,1.036,0,0,1-.224.19c.031.027.066.062.1.087-.027.035-.057.08-.081.118.061.189.061.189.812.009a.7.7,0,0,0,.115.182.354.354,0,0,0,.141.362,1.5,1.5,0,0,1-.058.252.44.44,0,0,0,.237.052c.028-.049.028-.049.466-.234-.04-.162.041-.328-.025-.488.17-.027.68-.105.3-.4-.03-.021-.073-.048-.1-.067a1.277,1.277,0,0,1,0-.42c.177-.136.384-.224.567-.357,0-.553.358-.407.513-.32,0,.039,0,.091,0,.125-.708.682-.486.84-.342.945.037.017.082.035.115.051l-.051.124a.577.577,0,0,1,.24.054,2.463,2.463,0,0,0,.215-.126l.056-.014.028,0A2.56,2.56,0,0,0,432,91.09c.018.035.04.081.057.115a.924.924,0,0,1,.252.089c-.115.066-.252.072-.366.128l-.128.01h-.068a.754.754,0,0,0-.4.1c-.009.151.035.3.018.446-.035.015-.089.035-.128.05a.556.556,0,0,0-.217-.122c-.111.139-.111.139-.162.53-.043,0-.1,0-.137.007-.111.278-.236.214-.363.114-.457.088-1.08.207-1.374-.062.21-.427.21-.427.229-.437-.045-.059-.106-.136-.156-.191l.117-.045c.009-.038.024-.089.032-.126a1.347,1.347,0,0,1-.4.163l.121.008c.021.032.045.078.066.111-.082,0-.19.018-.269.029.02.195.08.383.1.578-.414.444-1.211-.121-1.522.582-.435.117-.435.117-.533.114l-.064-.1a.342.342,0,0,0,0,.236,3.619,3.619,0,0,0-.624-.055c-.008.036-.02.085-.027.125.115.041.207.138.335.15.265.795.265.795.051.9-.52.259-.891-.376-1.391-.238a7.97,7.97,0,0,0-.3.9.59.59,0,0,1-.015.243,3.541,3.541,0,0,0,1.17.439l1.395-.887c.038-.089.117-.218.21-.246.323-.095.668.037.986-.1.015.008,1.414.977,1.18,1.434.029.022.067.054.1.075a2.331,2.331,0,0,0,.186-.239.63.63,0,0,1-.067-.287.961.961,0,0,1,.251.113c-.006-.041-.013-.1-.02-.145-.235-.114-.235-.114-1.048-.822a.469.469,0,0,0,.091-.233c.037-.006.092-.018.129-.027a.9.9,0,0,1,.139.208c.028-.034.064-.077.091-.111a3.5,3.5,0,0,0,1.008.791c-.037.284,0,.343.311.583l.037,0h.006c-.013.034-.035.08-.049.117.077.02.175.047.25.071-.04,0-.093,0-.13-.007-.012.041-.027.092-.04.128.021.037.051.08.071.11l.118,0h.067c.058-.044.141-.1.207-.141-.022-.036-.05-.088-.074-.122a.774.774,0,0,1,.271.086.936.936,0,0,0-.189-.2l-.1-.023h0l-.082.04a1.447,1.447,0,0,1,.012-.416c.02.034.043.076.06.108.038,0,.086,0,.122,0-.007-.038-.015-.092-.023-.131a1.022,1.022,0,0,1,.61.093,1.057,1.057,0,0,0,.395-.176c-.2-.148-.2-.148-.25-.274.164-.231.723-.884.725-.886.016.036.039.077.056.108a.644.644,0,0,0,.255-.006c-.022.033-.055.079-.08.112a.932.932,0,0,1,.106.269c.176-.047.335-.146.507-.2-.005-.041-.009-.041-.011-.041h-.03l-.01,0h-.033c-.049,0-.049,0-.338-.139.273-.093.54-.208.812-.3l-.073.119c-.032.019-.076.039-.107.056.023.025.057.065.081.089a2.081,2.081,0,0,1-.206.179c.835.424.835.424.889.607-.124.145-.353.411-1.131.107a2.444,2.444,0,0,0-1.134.233c.04.006.09.01.129.013-.638.233-.638.233-.674.33l.124.026c.013.034.03.076.044.11l-.1.064c.18.191.559.589.833.378l.079-.022c.275.067.275.067.909-.1.034.458.034.458.078.521-.509.783-.509.783-1.343.721-.607-.043-1.119-.675-1.8-.29-.036.02-.089.042-.126.059a.84.84,0,0,0-.032.252c-.37.223-1.507-.43-1.978-.723.1-.281.264-.633.264-.633a6.465,6.465,0,0,1-.648-.089l-.1-.017c-.023,0-2.412.138-2.731-.189l-.121,0a.86.86,0,0,1-.078.108c-.2.2-.523.163-.726.363-.154.15-.018.407-.2.547a4.823,4.823,0,0,1-.8.356c-.841.679-.841.679-.813,1.044a1.459,1.459,0,0,1-.259,1.135c.748,2.105.8,2.112,3.525,2.43-.022-.032-.047-.078-.066-.112.18.11.18.11.661.047l.06.016H426.5v0c.394.145.727.412,1.135.522l.1-.021c.4.394-.028.9-.035.9v.135a2.491,2.491,0,0,1,1.007,1.71c-.589.995-.589.995.055,1.557-.093.565.823.734.543,1.372.02.031.047.073.068.1.729.154,2.927-.031,2.921-.976.2-.079.442,0,.6-.195a.418.418,0,0,0-.036-.505c.294-.446.876-.366,1.246-.681.456-.385-.044-.872.141-1.285-.122-.148-.139-.167-.022-.383.659-1.218,2.186-1.728,2.6-3.152l-.131-.06c-.877.418-.98.383-1.458.213.022-.033.06-.079.086-.11-.075-.257-.564-.54-.741-.583a1.116,1.116,0,0,0-.461-.676c.079-.825-.693-1.224-.948-1.878a3.167,3.167,0,0,1,.306.261,1.33,1.33,0,0,0,.082-.112c.012,0,.945.694.852,1.227l.811,1.02c.1.5.1.5.775.423H436c2.216-1.046,2.3-2.294,2-2.393s-.3-.1-.36-.373c-.552.52-.552.52-.842.48a2.028,2.028,0,0,0-.022-.257.786.786,0,0,1-.223.088c-.084-.323-.366-.539-.45-.863.546.1,1.011.524,1.615.406.075.084.075.084,1.58-.158.015.034.032.079.044.113a.684.684,0,0,1,.227.105l.121-.031c0,.036,0,.083,0,.12.192.057.231.017.313-.1-.037.131-.139.235-.179.365a.563.563,0,0,0,.248.114c.13-.116.157-.136.17-.4.572.665.262,1.615.747,2.311a.969.969,0,0,0,.32-.666,5.139,5.139,0,0,1,.92-2.584c.159-.17.159-.17.149-.326.038-.006.085-.011.126-.015l.1.273c.03-.019.074-.043.105-.062.056.286.15.672.152.672a.731.731,0,0,0,.109-.247c.034.016.077.038.111.057.194.672.047,1.371.186,2.048a.881.881,0,0,0-.014-.939,4.472,4.472,0,0,1,.018-.844l.019-.091a.445.445,0,0,1,.2.427c.291-.887-.137-1.78.008-2.668.012.038.032.086.045.125a6.671,6.671,0,0,0,.011-.721l.012-.056v0c-.009-.586-.009-.586-.839-3.268a1.306,1.306,0,0,0,.049.26c-.079-.086-.079-.086-.341-.839a1.514,1.514,0,0,1,.117.235h.011c.01.032.029.078.041.112-.04-.124-.085-.244-.128-.367a3.058,3.058,0,0,1,.237.482c-.075-.17-.173-.4-.249-.565l0-.015A14.613,14.613,0,0,0,441.21,88.5c-.226-.3-.525-.7-.765-.992.029.036.069.083.1.119a13.993,13.993,0,0,0-3.141-2.805m-4.471,5.687a.035.035,0,0,1-.032.034c-.052,0-.131-.084-.15-.12.066.012.116.066.184.074l0,.012m.248.467a.132.132,0,0,1-.049.087.132.132,0,0,0-.039-.057.863.863,0,0,0-.146-.107c-.038-.015-.046-.024-.038-.029l.035-.061c.019-.015.044-.01.065-.015s.028-.075-.05-.071c-.046,0-.061-.008-.08-.057.139.019.139.019.161.043a.062.062,0,0,1,.017.049.1.1,0,0,0,.023.074c.028.034.069.057.09.1a.094.094,0,0,1,.011.048m-4.37-.257,0,0s0,0-.009-.011l-.005-.011a.153.153,0,0,0,.017.019m-.017-.02h0Zm3.843.456.021.053a.471.471,0,0,1-.14.04.116.116,0,0,1-.107-.056c-.02-.028-.033-.06-.053-.087s-.068-.075-.093-.116a.034.034,0,0,1,.005-.047.153.153,0,0,1,.067-.017c0-.07.09-.032.112-.009s.015.031.031.041a.665.665,0,0,0,.1.053.3.3,0,0,1,.122.164Zm-2.845.32c-.028.056-.03.067-.084.089a.416.416,0,0,1-.171.025h-.009c.009-.031.005-.066.025-.093l.012-.013a.142.142,0,0,1,.068-.024c.016,0,.025,0,.031-.009a.086.086,0,0,0,.015-.055.038.038,0,0,1,.013-.026c.024-.018.074.026.094.062s.009.04.006.045m7.132,3.551c0,.042-.051.062-.049.11a1.152,1.152,0,0,0-.185.014c-.019-.05-.023-.06-.074-.056.011.023.057.154-.006.223.012.01.012.01.224-.052-.146.051.073.21.079.321l-.012,0-.022-.016-.01.012a.427.427,0,0,0,.053.18c.066.152-.009.217-.039.182a.056.056,0,0,1-.007-.032c-.087.032-.156.1-.245.127a.341.341,0,0,1-.146-.029c-.061-.018-.113-.049-.174-.066s-.131,0-.184-.038c-.011-.009-.146-.167-.116-.276l.058-.041a.066.066,0,0,0,0-.018c-.029-.023-.029-.023-.032-.034.067-.076.022-.254.164-.25-.017-.026-.026-.036-.11-.074s-.071-.029-.308-.234a.472.472,0,0,1-.18-.3c0-.048,0-.05-.018-.064-.044-.04-.1,0-.143-.024a.1.1,0,0,0,.038-.055l.025-.3c-.006-.051.064-.06.064-.107a.1.1,0,0,1,.08.08c.047-.033.058-.05.058-.088a.109.109,0,0,1-.058,0c0-.019,0-.019.011-.039.013.01.016.012.042.01,0,0,.255-.089.307-.218.006-.016.016-.051.054-.045s.081.061.137.055a.317.317,0,0,1,.105.008c.04.011.082.023.122.038a.28.28,0,0,1,.1.041l.011.011c.02.028.017.062.038.09s.069.02.088.055a.168.168,0,0,1,0,.114l-.188.212c-.033.023-.069-.005-.091-.022.146-.08.172-.131.183-.152s-.006-.013-.007-.019c-.224-.043-.259-.032-.225.062a.834.834,0,0,1-.162.034.08.08,0,0,0,.113.073v.017c-.055.055-.152-.023-.2.063.007.024.013.037.088.054a.208.208,0,0,1,.137.153l.227.026c-.021.221-.021.221.051.247.027-.112.131-.187.172-.129a.265.265,0,0,0,.169.135.132.132,0,0,1,0,.028m.92-1c0,.025-.006.026-.014.03h0v0h0c-.023,0-.021.009.011.062l0,0h0c-.071.034-.073.132-.073.151-.038.064-.038.064-.152.113a.085.085,0,0,0-.037-.086.608.608,0,0,0-.029.162c-.014-.011-.033-.026-.049-.036.085-.03,0-.117,0-.117s-.039,0-.085.041a.154.154,0,0,1-.056.041.224.224,0,0,0-.03-.079.249.249,0,0,1-.033-.073l-.006-.027c0-.022.016-.037.014-.058s-.036-.058-.034-.1c0-.009.011-.015.015-.025.033-.048.035-.115.1-.146a.4.4,0,0,0,.011.075c.019,0,.022-.009.022-.009.018-.038-.022-.078,0-.116s.082-.019.1-.065c.01-.027.01-.027-.016-.066a.248.248,0,0,1,.091-.022c.024-.009.024-.017.006-.044a.244.244,0,0,0,.094-.012c0,.105-.042.209.005.312.033.086.1.078.16.071l0,.013m4.336,3s-.006.011-.01.022a.043.043,0,0,0-.014.019c.005-.011.006-.028.012-.034l.012-.007" fill="#358ffe"/>
      <path id="Tracé_1393" data-name="Tracé 1393" d="M424.689,83.792l.022.006a1.266,1.266,0,0,0,.308-.1l0,0a.629.629,0,0,1-.157.034c.09-.026.09-.026.106-.037-.011,0-.027,0-.038,0l.005,0a1.321,1.321,0,0,0,.136-.03l0-.012a1.49,1.49,0,0,1,.279-.1h-.006a.132.132,0,0,0-.027.009.307.307,0,0,1,.031-.016c-.033.007-.067.018-.1.025l.013-.007a.651.651,0,0,0-.1.023.405.405,0,0,1-.112.034.833.833,0,0,0-.107.035,1.045,1.045,0,0,1,.206-.11c.034-.012.266-.123.266-.123a.066.066,0,0,0-.02,0c.013-.007.027-.013.04-.021-.042,0-.074.025-.114.031,0,0,0,0,.019-.021-.034-.017-.048.032-.078.032a.087.087,0,0,1,.005-.019s-.02-.007-.093.036h0c-.039.017-.043.018-.052.018a.072.072,0,0,0,.036,0c0,.007-.005.007-.029.013-.045.006-.053.015-.055.019a.773.773,0,0,0,.156-.032.4.4,0,0,1-.1.032c-.08.015-.087.038-.087.045h.019a1,1,0,0,0-.1.053.122.122,0,0,0,.033,0,.151.151,0,0,1-.07.013l-.006,0,0-.006c.007-.013.028-.016.034-.03s-.006-.022,0-.03c-.038.008-.151.044-.151.081.018.014.036,0,.052,0l0,0-.03.051c-.029.021-.065.032-.09.051a.208.208,0,0,1,.035,0s0,0-.02.015-.013.009-.019.016Z" fill="#358ffe"/>
      <path id="Tracé_1394" data-name="Tracé 1394" d="M424.168,84.841c-.07-.024-.119.059-.185.034-.011-.019.006-.039,0-.059v0c.013-.034.054-.045.07-.081-.1.051-.085-.017-.085-.017.005-.02.028-.032.032-.054s-.017,0-.021-.009c.006-.021.04-.015.044-.04l-.009-.009c0-.006,0-.015,0-.021-.022-.006-.022-.006-.027-.011.029-.051.091-.044.128-.075-.061.016-.1.02-.1-.029l.044-.017v0c-.024-.008-.024-.008-.025-.01a.067.067,0,0,1,.029-.019c.117-.049.243-.073.359-.124.065-.026.115-.08.182-.1-.015,0-.03,0-.043,0a.849.849,0,0,1,.113-.089.436.436,0,0,1,.184-.059v.009a.252.252,0,0,0-.04.021l-.008.007c-.015.016-.024.039-.037.054a.219.219,0,0,1-.054.03c-.039.017-.038.018-.035.028a.152.152,0,0,1-.007.048c-.014.01-.038.017-.051.026a1.351,1.351,0,0,1-.134.089c0-.03,0-.037-.025-.032s-.03.025-.067.027c.011,0,.027.009.04.011l-.052.017,0,0a.118.118,0,0,0,.028,0,.423.423,0,0,1-.071.024.241.241,0,0,1-.065.092.107.107,0,0,1,.04-.01c0,.026-.034.028-.032.053.079.032.079.032.081.043s0,.008-.032.054c0,.01,0,.01,0,.047v0l-.047.027c-.016.021-.016.055-.034.072a.268.268,0,0,1-.088.064l-.009-.006" fill="#358ffe"/>
      <path id="Tracé_1395" data-name="Tracé 1395" d="M424.376,84.137v-.006l-.049.019s-.047-.083.17-.151c.014.012.034.011.066,0,.005-.07.005-.07.019-.079l.105-.019c-.009.019-.031.023-.046.036a2.161,2.161,0,0,0,.206-.068l.027-.01c.037-.009.039-.009.042-.007-.085.06-.2.062-.286.121v0l0,0c.012.005.025,0,.038-.007l.026-.013.149-.047v0c0,.006-.007.008-.007.012.016.007.018,0,.034-.01a.081.081,0,0,1,.084-.015c-.1.03-.151.042-.153.054.035.029.075-.052.094-.014a.058.058,0,0,1-.028.022c-.017.006-.034,0-.052.01s-.038.023-.057.028c-.041.016-.087.029-.132.042a2.033,2.033,0,0,1-.247.1" fill="#358ffe"/>
      <path id="Tracé_1396" data-name="Tracé 1396" d="M434.8,86.983c.028.131-.162.131-.147.254-.035-.026-.044-.018-.052.014s-.062.036-.085.064-.017.067-.04.1c0,0-.01.006-.016.012s.005,0,.024.032c-.008.012-.008.012-.052.016a.025.025,0,0,0,0,.021.451.451,0,0,1-.066.064l.042.041c-.024.03.026.069-.01.1h0c-.022-.031-.033-.031-.05-.031.005.012.005.012.058.08-.01,0-.02.005-.03.005a.223.223,0,0,1,.026.043l0,.006a.143.143,0,0,1-.054-.011c.09.129.017.117,0,.115a.464.464,0,0,0-.056-.022.055.055,0,0,1,0,.022c-.017.009-.028,0-.084-.013.012.044.029.035.065.02l0,0h0c.088,0,.088,0,.173.156l-.012.016a.031.031,0,0,0,.008.015c.006.014.022.024.03.04s.01.015.006.035-.006.023.078.117l.049.05c.071.091.189.064.278.11l-.027.036c-.041.009-.081-.012-.122-.012a.573.573,0,0,0,.066.08c-.017-.019-.017-.019-.074,0-.031.012-.057-.014-.086-.018a.2.2,0,0,0,.013.065.454.454,0,0,0-.125-.022c-.014.062-.068.009-.068.008a.039.039,0,0,1,0-.014l.022-.007s0,0-.06-.067a.605.605,0,0,0,.066-.036c-.008-.017-.018-.034-.03-.055-.052.038-.09.04-.118-.065-.013.005-.03.013-.04.016l.005.014c-.007.007-.007.007-.078-.008,0,.021,0,.047,0,.069h0c-.012,0-.1,0-.129-.17.009-.008.009-.008.056,0v-.02l.011-.006c0-.013,0-.013-.039-.049.013-.007.013-.007,0-.06l.008-.014h.009c-.066-.082-.066-.082-.07-.1.07-.036.085-.047.08-.105-.008.007-.016.02-.023.026l-.03-.026c-.011-.06-.015-.09.034-.086-.044-.029-.09.013-.137,0a.1.1,0,0,1,0-.025l.011,0h0v0l.012,0,0-.009a.66.66,0,0,1,.057-.091c0-.014-.006-.021-.025-.045l.019.007.006-.012a.1.1,0,0,1-.019-.049c.012-.007.012-.007.075,0-.063-.05-.063-.05-.045-.078l-.026.006c0-.021,0-.021.058-.039,0-.016-.007-.03-.007-.046a.092.092,0,0,1,.092-.019c0-.012.008-.024.012-.037l.035-.085c.011-.04.069-.038.075-.086l.063-.007c-.037-.042-.039-.044-.045-.06.036-.073.12.026.171-.027a1.418,1.418,0,0,0,.081-.132.094.094,0,0,0,.029,0c-.013-.082-.013-.082.015-.111.01,0,.01,0,.1.05,0,.034.045.034.051.064" fill="#358ffe"/>
      <path id="Tracé_1397" data-name="Tracé 1397" d="M425.456,83.372l-.012,0a.2.2,0,0,0-.043,0,.121.121,0,0,0-.041.007c-.02,0-.02,0-.02,0,.033-.028.131-.043.126-.027v0c.035-.009.039,0,.041,0h0a.24.24,0,0,1-.049.012" fill="#358ffe"/>
      <path id="Tracé_1398" data-name="Tracé 1398" d="M424.243,84.289c-.1.03-.1.03-.112.028s0-.011.035-.028a.03.03,0,0,0,.016-.01s0,0-.016,0a.223.223,0,0,1,.052-.037c.047-.03.054-.037.047-.043a.219.219,0,0,1,.072-.022.419.419,0,0,1,.08,0c.016,0,.03-.011.044-.013s0,.021,0,.021l0,.005a.954.954,0,0,1-.218.1" fill="#358ffe"/>
      <path id="Tracé_1399" data-name="Tracé 1399" d="M427.063,87.12l-.008.006c-.019,0-.038,0-.056,0a.029.029,0,0,0-.014,0,.057.057,0,0,1-.034.007c-.028,0-.025-.019-.025-.023,0-.02.009-.024.059-.1a.282.282,0,0,0,.07-.007c-.062.062-.025.073,0,.073a.074.074,0,0,0,.024,0c0,.017-.007.032-.02.039" fill="#358ffe"/>
      <path id="Tracé_1400" data-name="Tracé 1400" d="M426.8,87.143a.126.126,0,0,1-.037.036c0-.027.015-.049.043-.078.005,0,.016.015-.006.042" fill="#358ffe"/>
      <path id="Tracé_1401" data-name="Tracé 1401" d="M426.627,87.251c-.024.024-.08,0-.1-.015.02-.047.037-.062.06-.056s.036.041.055.058a.028.028,0,0,1-.011.013" fill="#358ffe"/>
      <path id="Tracé_1402" data-name="Tracé 1402" d="M423.561,84.455c-.092.025-.12-.014-.1-.051.01-.018.01-.018.169-.106a.9.9,0,0,0,.144-.085l0,0a.063.063,0,0,0-.026.011s.216-.149.269-.12c-.136.047-.161.1-.161.1a.188.188,0,0,0,.131-.046c.005-.006.127-.083.189-.057a.2.2,0,0,0-.091.051c.015.007.03,0,.042-.013s.049.009.036.04-.052-.01-.078-.006c-.051.071-.051.071-.159.112a.077.077,0,0,0,.017-.029l0,0c-.028,0-.089.04-.089.04h0c-.005.011-.02.024-.126.062a.045.045,0,0,0,.036.015c-.067.026-.129.064-.2.084" fill="#358ffe"/>
      <path id="Tracé_1403" data-name="Tracé 1403" d="M419.3,102.273c0-.16-.186-.707-.413-.736a2.127,2.127,0,0,0-.928-.913.146.146,0,0,0-.037-.1.338.338,0,0,0-.046-.185c-.019,0-.043,0-.064-.006-.011-.058-.142-.393-.307-.356v.068a.288.288,0,0,0-.12-.01.428.428,0,0,1-.17-.3.262.262,0,0,0-.049.139c-.02-.058-.02-.122-.036-.178-.108-.063-.25-.035-.341-.133a.467.467,0,0,1,.1.073,1.237,1.237,0,0,0,.257-.019.888.888,0,0,1,.06-.13c.021.032.05.076.071.11a.277.277,0,0,1,.045-.118.418.418,0,0,1-.06-.01.2.2,0,0,0-.015-.114l.055-.039c-.237-.357-.187-.815-.409-1.178a.421.421,0,0,0-.131-.149.313.313,0,0,0-.06.006,1.357,1.357,0,0,0-.114-.336c-.007.018-.015.045-.022.062l-.013-.007-.019.015c.084-.425-.076-.545-.217-.651a.271.271,0,0,0,.11-.044c.018-.118-.068-.206-.084-.314.013,0,.026-.009.039-.01-.031-.054-.059-.1-.089-.16,0,.015.007.038.008.056-.2-.129-.24-.493-.283-.878a.686.686,0,0,0,0,.15c-.013-.015-.032-.035-.044-.05a1.03,1.03,0,0,0-.037.288c-.072-.189.041-.36.043-.541-.036-.006-.08-.02-.115-.025a.474.474,0,0,0-.089.282,2.509,2.509,0,0,1,0-.414,7.081,7.081,0,0,1,.22-1.821c-.082.486-.189,1.137-.241,1.625v0s-.014.176-.023.359c.006-.044.011-.107.014-.151a6.348,6.348,0,0,1-.014.765,12.463,12.463,0,0,0,.548,4.273l.01.036a13.911,13.911,0,0,0,1.948,4l.307.421.013.014a.544.544,0,0,0,.045.055c-.089-.308-.357-.493-.5-.761a2.694,2.694,0,0,0,.385.5c.009-.012.025-.034.036-.051a1.189,1.189,0,0,1-.089-.253c.059.047.065.05.1.152a3.429,3.429,0,0,0-.212-.672.328.328,0,0,0,.034-.049c.237.055.237.055.255.068a.4.4,0,0,0-.029-.051.736.736,0,0,1,.228.094c.017-.011.034-.028.05-.039a.464.464,0,0,0-.022-.134c.1-.09.1-.09,0-1.17a.9.9,0,0,1,.092.1c.041-.219.359-.219.375-.466m.851-12.616c.018-.01.018-.01.13-.172a.038.038,0,0,0-.017-.014c-.034-.226-.034-.226-.279-.229a.273.273,0,0,1,.01-.046,1.218,1.218,0,0,0,.312.039.188.188,0,0,0,.033-.1l-.007-.005a.193.193,0,0,0-.036-.028c.007-.019.016-.045.021-.062-.01-.012-.023-.026-.032-.038a.161.161,0,0,0-.018-.086c.054-.105.063-.225.124-.327-.007,0-.021,0-.031-.009.015-.009.031-.021.044-.03l0-.035a.194.194,0,0,1,.045-.014.4.4,0,0,0,.016.049c.121-.092.122-.262.234-.362a.164.164,0,0,0-.018-.043c.116-.135.2-.3.324-.424-.166.018-.292.146-.453.168.085-.442.249-.5.394-.556,0-.029.008-.066.009-.1a.3.3,0,0,1,.051-.014c-.089-.18.131-.254.141-.4-.06-.011-.06-.011-.067-.191-.114-.014-.548.375-.554.379-.04-.011-.04-.011-.58.576.018-.008.035-.017.049-.025l-.062.077c-.423-.069-.494.383-.774.524l-.032-.037a19.19,19.19,0,0,1,1.524-2.072l-.006-.011a.841.841,0,0,1,.6-.3v0h0l0,0a.325.325,0,0,0,0,.044,1.948,1.948,0,0,0,.228-.129.369.369,0,0,1,.031.038c-.008.009-.019.027-.03.038a.452.452,0,0,0,.043.027c.146-.086.146-.086.207-.247a.338.338,0,0,0,.1-.034c-.056.064-.1.138-.148.2.085-.013.085-.013.166-.083a.472.472,0,0,1,.005.053c-.02.024-.049.051-.067.077.062-.009.062-.009.136-.09a.346.346,0,0,1-.069.1c.158.007.158.007.486-.187a.89.89,0,0,0,.215-.087c.036-.1.15-.141.176-.252-.191.013-.33.162-.508.206-.108.042-.108.042-.146.042.133-.2.379-.222.553-.359-.081-.013-.148.037-.225.055.072-.073.074-.075.61-.379a.194.194,0,0,0-.049.026.057.057,0,0,1,.005.024c.1-.056.585-.365.588-.369a.51.51,0,0,1,.1.067.348.348,0,0,0,.356-.223l-.048.008c0-.012.014-.03.018-.042a4.854,4.854,0,0,0-.7.265.162.162,0,0,0,.04-.034,3.908,3.908,0,0,0-.408.165.424.424,0,0,0-.008.047c-.024.017-.06.04-.086.06a.32.32,0,0,0,.023.04c-.152.018-.243.052-.26.1a.393.393,0,0,0-.316.09.547.547,0,0,1,.282-.187l-.024,0a.694.694,0,0,0,.18-.128.444.444,0,0,0-.156.073l-.009-.019.047-.044c.2-.184.458-.295.645-.5-.1.005-.106.024-.146.1-.065-.023-.065-.023-.264.082a6.375,6.375,0,0,1,.719-.426.406.406,0,0,1-.044.024c.358-.151.691-.359,1.057-.491-.019,0-.045.013-.066.019.249-.1.467-.177.624-.231-.071.021-.071.021-.558.206a14.429,14.429,0,0,0-1.774.844,15.593,15.593,0,0,0-2.21,1.554A14.142,14.142,0,0,0,418.05,88.7a13.434,13.434,0,0,0-1.127,2.038h0l-.031.061v0c-.013.029-.027.067-.038.092.006-.013.015-.034.022-.048-.024.062-.051.123-.074.187l.111-.263a1.424,1.424,0,0,1-.063.2l.019-.027-.033.11s-.309.917-.414,1.321c.3-.353.281-.862.6-1.2a.224.224,0,0,1,.046.015c.131-.094.131-.094.154-.178l.016.047a.162.162,0,0,0,.029-.087c.054-.041.054-.041.126-.271l.014.045a.685.685,0,0,1,.15-.284c.017-.025.041-.058.057-.084h.048a1.579,1.579,0,0,0-.188.316c.041-.019.041-.019.175-.236a.551.551,0,0,0-.01.1c.11-.052.143-.244.312-.2a.248.248,0,0,1,.02.04l.051-.03a.308.308,0,0,0,0,.06c.011.006.028.019.04.026.032-.154.032-.154.217-.274.011.012.023.029.031.038a.323.323,0,0,0,.083-.057l-.015.061.034-.032a.388.388,0,0,0,.007.049l.054,0a.6.6,0,0,0,.067-.1.417.417,0,0,1,.028.1c.022-.022.052-.05.074-.07,0,.014-.008.034-.013.047l.052.015c.026-.02.055-.053.079-.074,0,.01.008.027.013.042a.582.582,0,0,1-.084.064.269.269,0,0,0,.05.091.763.763,0,0,1-.067.043.142.142,0,0,0-.052-.073c-.2.138-.2.138-.2.218.01.006.023.018.036.026a.284.284,0,0,1-.02.043c.07,0,.113-.062.173-.088,0,.017-.005.039-.007.053a.979.979,0,0,1,.253-.023.224.224,0,0,1,.054-.125c-.036,0-.08.009-.114.011a.192.192,0,0,0-.01-.154l.049-.031c-.03-.087-.024-.091.088-.237-.01-.012-.023-.025-.034-.036.119-.081.119-.081.109-.15l-.045-.017a.815.815,0,0,1,.041-.1v.051c.015,0,.035.009.05.013l.049-.047.053,0c.206-.339-.113-.294-.149-.288-.053.006-.053.006-.329.134.2-.135.2-.135.21-.2.151.062.253-.094.393-.088l.3.428Zm-3.913,2.951c.023-.076.046-.15.068-.226-.032.11-.076.256-.109.367l.009-.026c.01-.038.02-.075.032-.115m7.361-8.2c.012-.005.048-.021.045-.013a.134.134,0,0,1-.027.024Zm-.26-.391c-.031.015-.061.029-.091.045.021-.011.125-.065.131-.067l.412-.2c-.031.014-.064.028-.094.043l-.144.071a.533.533,0,0,1,.077-.036c-.1.044-.193.1-.291.143m-.07.034a.1.1,0,0,0-.036.02Zm-1.039.618.053-.036a.742.742,0,0,0-.064.04l.018-.014c-.006,0-.008,0-.013.006l.006-.006a.179.179,0,0,1-.037.016.158.158,0,0,1,.027-.018.089.089,0,0,0-.019.01c.006,0,.01-.008.013-.01a.238.238,0,0,1-.044.024c.029-.016.059-.035.086-.052l-.011.007.19-.118.281-.165h0l0,0s-.281.165-.383.23l-.03.021a.164.164,0,0,0,.03-.016l-.006,0h.007s0,.007-.082.064a.054.054,0,0,1-.017.01m-.8.534a.129.129,0,0,1,.024-.021.275.275,0,0,0,.046-.037l-.012.007.027-.024a.171.171,0,0,1,.015-.013l-.038.028.09-.063a.586.586,0,0,1,.054-.038.058.058,0,0,1-.019.015c-.053.038-.053.038-.187.146m-3.2,4.024-.009.006a.035.035,0,0,1-.006-.019.165.165,0,0,1-.024.039c0-.009,0-.009.039-.149a.743.743,0,0,0-.108.094c-.067.089-.071.089-.081.087a.03.03,0,0,0-.022.01.461.461,0,0,1,.05-.082c.075-.11.072-.123.067-.134l-.03,0a.47.47,0,0,1,.088-.1.8.8,0,0,0,.182-.307h-.008c-.026.026-.066.027-.094.053a.866.866,0,0,0-.168.205.651.651,0,0,1-.157.179l0,0c.04-.111.04-.111.382-.509,0,0,0,0-.045.028l0-.007c.056-.068.087-.094.117-.1l.007,0v.014a.061.061,0,0,1,.014-.014l.005.005,0,.031a.158.158,0,0,0,.021-.012c-.016.05-.033.1-.049.157a1.09,1.09,0,0,0,.116-.215.064.064,0,0,0,0-.062c-.01-.016-.01-.019,0-.049a.723.723,0,0,1,.122-.212l0,.007c-.005.012-.005.012,0,.021.029-.006.043-.05.043-.059s-.019.005-.03.005l0-.015c-.01-.005-.01-.005-.024,0l-.007-.008a.422.422,0,0,1,.049-.083v0a.245.245,0,0,1,.034-.074.083.083,0,0,1,.019-.016c.01,0,.017,0,.027,0,0,.021.007.029.024.025s.034-.032.053-.043a.223.223,0,0,1,0,.024.27.27,0,0,0,.045-.029.23.23,0,0,0-.034.043l.007-.012,0,0-.01.019,0-.006,0,0a.715.715,0,0,0,.057-.054.239.239,0,0,0-.033.1.15.15,0,0,1-.017.036,1.607,1.607,0,0,0-.137.193c-.062.147-.183.259-.241.407s-.051.288-.115.42c-.009.014-.1.164-.107.171m0,.353c-.009.01-.021.022-.031.034a.179.179,0,0,1-.067.049l0,0c-.009.008,0,.03-.02.034,0,0-.01,0-.012,0s0-.019-.009-.025-.021,0-.028-.01a.1.1,0,0,1-.01-.045c-.005-.1-.005-.1-.01-.107-.013.023-.027.053-.038.075l0,0c-.01,0-.013,0-.034.015,0,0-.039.021-.05.012s-.015-.036-.032-.046-.011,0-.022,0-.024,0-.03-.008,0-.04.019-.074V89.5l0,0a.192.192,0,0,0,.025-.081.388.388,0,0,1,.117-.1l0,0c-.025.028-.059.047-.077.083,0,0-.023.051.011.049.019,0,.034-.014.05-.01s.043.013.041.034c0,.047,0,.047,0,.052a.111.111,0,0,0,.031-.073c.028-.022.04-.023.05-.005.019-.017.029-.017.023.03-.011.093-.011.093-.009.1s.009.018.024.009l.007-.007,0-.007a.3.3,0,0,1,.024-.114c.026.1.026.1.071.107a.1.1,0,0,0-.012.017" fill="#358ffe"/>
      <path id="Tracé_1404" data-name="Tracé 1404" d="M422.451,86.927c.064-.03.071-.105.116-.154a.287.287,0,0,0-.074.058.075.075,0,0,0,.009-.033c-.009.006-.021.011-.028.017a.039.039,0,0,1,.011-.029c-.023.006-.044.018-.067.025.023-.033.067-.046.1-.066a.094.094,0,0,0,0-.026.657.657,0,0,0-.074.048.149.149,0,0,1,.01-.1c.052,0,.087-.044.1-.083a.23.23,0,0,1-.06.015c.006-.009.006-.009.1-.074-.036-.008-.065.02-.1.021.035-.019.041-.023.054-.049-.019.013-.043.026-.061.036l.025-.036c-.018,0-.018,0-.054.022,0,0-.006-.007-.012-.009.032-.023.074-.03.094-.066a.111.111,0,0,1-.031.015c.045-.033.044-.042.03-.067a.276.276,0,0,1,.057-.016s-.006-.011-.008-.014l-.016-.007c.043-.037.036-.1.08-.141h0c.022.015.049.006.076.019a.758.758,0,0,1,.082-.089.133.133,0,0,0,.01.072c.047-.042.032-.12.082-.161.055.071.135,0,.179-.047a.03.03,0,0,0-.012-.011C423,86,423,86,422.984,86c.035-.018.035-.018.045-.035l0-.014a.042.042,0,0,1,.064,0,.079.079,0,0,0,.061-.064c-.02-.016-.049-.018-.069-.035a.635.635,0,0,0,.068-.011l.007-.011-.012-.012c-.05.013-.05.013-.062.008.037-.021.084-.023.12-.048l-.015,0a.045.045,0,0,1,.024-.025c-.021,0-.039.014-.056.017a.031.031,0,0,1-.01-.013c.034-.04.123-.04.113-.115-.025,0-.03,0-.086.039l.039-.037-.039,0a1.092,1.092,0,0,1,.1-.059c-.022-.009-.028-.011-.1.025.018-.036.061-.042.083-.075l.042.012a.983.983,0,0,0,.118-.074.042.042,0,0,0-.015-.007.034.034,0,0,0,.01-.016.138.138,0,0,0,.109-.062c0-.026-.028-.047-.024-.076.013-.048.056-.079.067-.126-.021-.021-.054-.009-.075,0-.046.026-.057.081-.1.109a.335.335,0,0,1,.039-.072c-.029,0-.029,0-.1.04l.014-.014c-.026,0-.026,0-.077.026.022-.028.022-.028.163-.091a.487.487,0,0,1-.053-.008c.018-.009.041-.011.055-.028l0-.013c-.019,0-.019,0-.153.047l-.008-.015a.119.119,0,0,1,.039-.036c.04.017.5-.184.505-.262a.2.2,0,0,0-.2,0l.005-.012-.009-.014s-.13.025-.15.1v0h0v.006c-.023,0-.026,0-.087.036.022-.023.022-.023.027-.043a.092.092,0,0,0-.086.056,1.07,1.07,0,0,0-.17.07.287.287,0,0,0,.039-.051.192.192,0,0,0-.021-.019l.009-.015a.056.056,0,0,1,.049.022c.394-.211.542-.29.547-.168.044-.017.048-.025.057-.038-.025-.05.017-.094.015-.144-.02-.013-.02-.013-.232.032a.753.753,0,0,0-.224.058c-.1.043-.15.141-.235.2l-.009,0v0h0v0c-.078-.013-.1.072-.157.092l-.009.014.021.02c-.033.058-.1.073-.145.126.022,0,.022,0,.054-.016a1.023,1.023,0,0,0-.079.1c.035.052-.053.075-.039.126.081-.006.1-.088.153-.122-.042.081-.123.122-.184.182l-.007.011c.064-.017.1-.077.159-.1l.006.013c-.061.113-.061.113-.061.126.032,0,.034,0,.11-.04a.1.1,0,0,1-.03-.009.067.067,0,0,1,.056-.017l.005.013a1.34,1.34,0,0,1-.2.169c.022,0,.022,0,.061-.021a.037.037,0,0,1,.015.023c-.017.013-.091.061-.1.066l.008.015a.112.112,0,0,0,.057-.021c-.005.03-.01.033-.042.053a.047.047,0,0,1,0-.015c-.078,0-.092.076-.139.11a.08.08,0,0,0,.018-.024c-.083,0-.116.071-.179.1.054.023.108,0,.161,0-.159.094-.194.115-.2.177a2.256,2.256,0,0,0-.2.148l0,0a.2.2,0,0,1-.021-.011c-.022.009-.043.017-.106.092-.113-.037-.113-.037-.394.237-.065-.1-.065-.1-.081-.1,0-.037-.03-.064-.031-.1,0,0-.126-.032-.3.2a.152.152,0,0,1,.008.021c.045.008.088-.015.134-.012,0,.027-.023.04-.034.065a.028.028,0,0,1,.011.007c.049-.013.065-.06.1-.086l.019.009a.17.17,0,0,0-.056.065l.015,0c0-.006.006-.01.011-.011s-.005.035-.072.091a.109.109,0,0,0,.026,0v.017c-.067.056-.11.13-.176.186a.114.114,0,0,1,.025,0,.124.124,0,0,0-.035.038.219.219,0,0,1,.044-.012c-.007.021-.007.021-.1.059a.155.155,0,0,1-.008.118s.007.009.01.016c.023,0,.029,0,.056-.016-.043.1.024.191.028.285a.03.03,0,0,0,.012.013.259.259,0,0,0,.086-.068c-.043-.12.139-.39.171-.4.026.037-.012.071-.012.108a.049.049,0,0,0,.031-.024c0,.031-.019.06-.015.087.045.024.06.032.01.073l.016.008c-.011.031-.041.053-.032.087h.014c.007-.039.049-.128.088-.126a.062.062,0,0,1,0,.027.286.286,0,0,1,.065-.07v.015l.012.011a.261.261,0,0,0,.1-.122.077.077,0,0,0-.051.044c0-.022,0-.022.027-.044l-.013-.009a2.157,2.157,0,0,1,.158-.228.213.213,0,0,0-.018-.022.774.774,0,0,1,.092-.1.133.133,0,0,0-.011.05c.069-.007.086-.077.131-.113-.009.032-.041.049-.049.081.034-.024.056-.054.087-.078a.146.146,0,0,0,0,.029c-.1.1-.142.148-.076.195-.021.02-.05.016-.072.026l.019.031-.032.017c.011,0,.019.013.027.015a.54.54,0,0,0-.064.03c.011.011.025.026.036.039a.036.036,0,0,1-.043,0,.1.1,0,0,1-.025.015l.036.013c-.053.047-.042.074-.03.091.1,0,.108-.095.165-.136a.491.491,0,0,1-.019.049l.019-.006.01.008a.159.159,0,0,0,0,.017c.024-.022.038-.051.061-.069v.012c.033-.01.057-.045.1-.034a.154.154,0,0,1,.045-.024.186.186,0,0,1,0,.047c.009,0,.009,0,.074-.068a.045.045,0,0,0,.007.028m-.363-.049s0,0,0-.007l0,0h0Z" fill="#358ffe"/>
      <path id="Tracé_1405" data-name="Tracé 1405" d="M423.122,84.494l-.009,0c.021-.055.081-.047.115-.083l-.01-.007a.2.2,0,0,0-.041.032l-.012,0v-.009c.029-.028.064-.051.1-.078a.787.787,0,0,0-.117.07l.008,0a.18.18,0,0,1-.1.054l-.008-.008c.008-.021.008-.021.129-.11v-.011a.865.865,0,0,1,.179-.093c.018-.007.033-.012.033-.031s-.025-.009-.036-.019c.043-.156.782-.454.789-.457-.072.041-.142.093-.216.131-.032.018-.032.022-.033.033s.03.009.055-.015V83.9l.082-.038v-.009a1.627,1.627,0,0,1,.36-.193.287.287,0,0,0-.1.075.5.5,0,0,0,.125-.072l-.006,0a.468.468,0,0,1,.074-.038l-.03.02.011,0,.008-.005a.51.51,0,0,1,.278-.092v.009h.007c-.023.015-.04.036-.064.049a.109.109,0,0,1,.037,0,.033.033,0,0,1-.01.015.8.8,0,0,1-.145.051.973.973,0,0,0-.271.111c.07-.018.138-.043.208-.06a1.506,1.506,0,0,1-.238.111c.034-.011.07-.013.106-.024a2.069,2.069,0,0,1-.4.161.742.742,0,0,0,.093-.008h0a1.486,1.486,0,0,1-.135.1c-.313.141-.313.141-.377.173l-.046.023c-.02.01-.041.024-.059.034a.215.215,0,0,0,.059-.014,1.783,1.783,0,0,1-.384.228" fill="#358ffe"/>
      <path id="Tracé_1406" data-name="Tracé 1406" d="M424.023,84.007a.059.059,0,0,1-.018,0h0a.623.623,0,0,1,.067-.04.4.4,0,0,1,.107-.056.866.866,0,0,1,.177-.053h0a3.533,3.533,0,0,1-.331.147" fill="#358ffe"/>
      <path id="Tracé_1407" data-name="Tracé 1407" d="M426.194,87.715a.045.045,0,0,1-.049-.01c0-.015,0-.024-.024-.058-.047-.069-.058-.1.005-.139-.008-.031-.008-.031.032-.029-.021-.031-.05-.072-.07-.1-.061.056-.163.056-.165.031s0-.035-.02-.039c.023-.026.054-.06.089-.06a.09.09,0,0,1,.033.011c.022.013.038.032.061.047a.416.416,0,0,1,.014-.047.33.33,0,0,0,.075-.011c.019,0,.022,0,.032,0s.022.013.068.085c-.012.014-.012.014-.044.027l.006,0,.011,0,.011,0,.007,0a.014.014,0,0,0,.009.006l.009,0,.01,0,.009,0c-.031.022-.072.017-.1.034a.182.182,0,0,1,.129.047c-.01.008-.02.012-.03.019a.148.148,0,0,0-.015.03.059.059,0,0,1-.038,0c-.022-.011-.029-.036-.049-.047,0,.015-.01.051.058.088a.408.408,0,0,1-.076.035c.067.036.016.061.016.061" fill="#358ffe"/>
      <path id="Tracé_1408" data-name="Tracé 1408" d="M425.667,87.805a.059.059,0,0,1-.055.008.3.3,0,0,1-.075-.04c-.041-.019-.088-.024-.13-.039a.128.128,0,0,1,.04-.06.233.233,0,0,0,.082.025.573.573,0,0,1,.116.035c.019.007.08.033.022.071" fill="#358ffe"/>
      <path id="Tracé_1409" data-name="Tracé 1409" d="M435.3,88.62c.01.049-.1.02-.107.02s-.021-.022-.037-.026-.037.006-.055,0-.1-.1-.058-.116a.57.57,0,0,1,.257.118" fill="#358ffe"/>
      <path id="Tracé_1410" data-name="Tracé 1410" d="M434.265,88.948a.114.114,0,0,1,.006.037V89l0,.015a.07.07,0,0,1,0,.029c-.01.02-.038.011-.05,0-.091-.047-.115-.142-.042-.161l0,0c.058-.005.08.055.086.064" fill="#358ffe"/>
      <path id="Tracé_1411" data-name="Tracé 1411" d="M426.117,89.448a.087.087,0,0,1-.084,0c-.1.089-.342.169-.424.093-.027.04-.027.04-.151-.036-.006.02-.01.051-.014.073-.028,0-.043.005-.062.038-.013-.011-.013-.011-.015-.025l.006,0c-.042-.015-.09,0-.13-.021a.49.49,0,0,0-.086-.042.054.054,0,0,1-.016,0,.071.071,0,0,1,.074-.031c-.018-.036-.051-.05-.147-.081-.112-.037-.14-.055-.134-.092a.545.545,0,0,0,.172-.021c-.047-.024-.015-.085-.047-.115s-.1.009-.145-.04c-.013-.015.02-.034.04-.04.07-.022.137.042.207,0-.036-.008-.036-.011-.041-.021.018-.026.053-.028.069-.059-.068-.054-.241.058-.231-.052a.187.187,0,0,0,.131-.012c.035-.021.015-.062.025-.089a.434.434,0,0,0,.039.027l-.007-.015c.034-.026.034-.026.051-.026a.1.1,0,0,0,.041.127c.01-.039-.014-.08.015-.118.085.041.1.065.025.191-.022.038-.02.047-.019.055.044.017.079-.034.122-.013.026-.029.033-.068.061-.1a.082.082,0,0,1,.061-.017s-.018.074,0,.1c.061-.019.1-.085.176-.072-.05.06-.052.085-.018.117.015-.028.026-.059.043-.087.059.047.169.11.236.028.022-.026.043-.035.054-.032.041.023.013.081.054.1s.081,0,.122,0c-.027.035-.081.028-.113.063.018.019.018.019-.034.089.041.011.085.026.127.035l-.048.084c.02.036.02.036.016.04" fill="#358ffe"/>
      <path id="Tracé_1412" data-name="Tracé 1412" d="M421.4,86.209c-.019.012-.069.038-.088.029a.142.142,0,0,0,.043-.073c.007-.037.023-.05.057-.083.011.007.011.007.089-.051,0-.024-.013-.024-.038-.02a.048.048,0,0,0-.018.011.992.992,0,0,1-.131.073c-.028.009-.052,0-.038-.015a.173.173,0,0,1,.088-.064c-.05-.043.059-.09.075-.092s.026.013.047.01a.2.2,0,0,0,.053-.036.894.894,0,0,1,.218-.124l0,0c-.007.021-.028.036-.038.035l0-.013c-.005,0-.005,0-.067.054.057,0-.018.084-.066.136a1.48,1.48,0,0,1-.193.163c.034-.011.055.007.044.027a.121.121,0,0,1-.039.03" fill="#358ffe"/>
      <path id="Tracé_1413" data-name="Tracé 1413" d="M431.174,91.549a.053.053,0,0,0-.034-.054h0a.114.114,0,0,1-.041.037c.006.022.014.045.022.067.041-.008.054-.033.054-.051m-.076-.016h0c-.006-.017-.008-.018-.008-.018l0,.006,0,.013v.005l.012-.006m-.012.007h0l-.018.006c.016.019.018,0,.018-.006" fill="#358ffe"/>
      <path id="Tracé_1414" data-name="Tracé 1414" d="M427.448,92.747a.275.275,0,0,1-.269.107c.012.048.012.048,0,.069a.326.326,0,0,1,.137.021.291.291,0,0,1-.2.092c-.034-.062-.079-.068-.173-.062a1.56,1.56,0,0,1-.4-.034c-.053,0-.092.034-.14.04s-.089-.053-.144-.055c-.081,0-.13.079-.208.088.005-.035-.021-.041-.082-.052.078-.125.266-.084.341-.216.29.068.29.068.342-.032l-.129.028c-.066-.04-.066-.04-.1-.03a.2.2,0,0,1-.1,0c0-.019.008-.041.01-.057-.044-.008-.081.023-.127.023a.039.039,0,0,1,.011-.021.023.023,0,0,0,.02,0l0-.01a.113.113,0,0,1-.049-.027c.063-.09.212-.073.251-.191a1.015,1.015,0,0,1-.123,0c.035-.064.127-.029.162-.1-.027,0-.064-.01-.062-.057.082.012.082.012.094.036s.126.027.128.027c.071-.023.114-.128.133-.184-.1-.016-.1-.016-.112-.023s.012-.053.012-.053c.022-.017.053-.013.077-.031l0-.012c-.074-.032-.24-.1-.257-.006-.086-.071-.086-.071.009-.17.07-.144.017-.16-.022-.156s-.039.049-.073.049c.031-.092.031-.092.031-.1l.009,0c.041,0,.065,0,.079-.038-.011-.008-.011-.008-.1-.011a.749.749,0,0,0,.084-.146c.01-.038-.023-.072-.016-.109a.1.1,0,0,0,.057-.02l0-.013a.045.045,0,0,1-.017-.005s.008-.009.01-.01c.029-.027.064.02.1-.007.006-.006,0-.022,0-.031s0-.049.084-.121c.026-.02.035-.022.045-.022s.013.014,0,.054c.05,0,.088-.035.138-.04a.146.146,0,0,1,.03,0c.065.018.085.082-.035.151s-.119.068-.144.12c.24-.01.451-.015.3.137-.044.045-.13.048-.145.129-.005.03.023.06,0,.094s-.028.024-.077.021c.038.028.09.068.128.1a.114.114,0,0,1,.03.038c.034.058.023.133.058.19.061.108.214.151.214.3-.037-.012-.059-.052-.1-.062,0,.066.086.079.093.14s-.028.085-.027.13c.008,0,.021,0,.03,0a.141.141,0,0,0,0-.024l.005-.01c.165.025.165.025.184.042.038.037.011.1,0,.119" fill="#358ffe"/>
      <path id="Tracé_1415" data-name="Tracé 1415" d="M426.539,91.1c-.021.051-.088.17-.148.139l-.062.031c.014-.029.032-.056.044-.087a.332.332,0,0,0,.02-.056.083.083,0,0,0,.04-.015.122.122,0,0,1,.1-.018l.008,0,0,0" fill="#358ffe"/>
      <path id="Tracé_1416" data-name="Tracé 1416" d="M431.238,91.673c-.015.032-.043.057-.058.087-.065,0-.076,0-.1.035-.062.005-.091-.09-.064-.13h.068c.051,0,.1-.008.153-.008,0,.006,0,.012,0,.016" fill="#358ffe"/>
      <path id="Tracé_1417" data-name="Tracé 1417" d="M430.614,91.835c0,.008-.006.008-.041.015a.222.222,0,0,1-.056.145.268.268,0,0,0-.048.08.225.225,0,0,1-.05-.062.612.612,0,0,1-.021-.1c.016.006.005.035.027.037l.008,0a.257.257,0,0,1,.076-.094c.013-.009.038.006.053.008.011-.038.011-.038.013-.038s0,0,.008,0h.031v.013" fill="#358ffe"/>
      <path id="Tracé_1418" data-name="Tracé 1418" d="M426.43,91.473a.132.132,0,0,1-.018.038l-.024-.005a.266.266,0,0,0-.009-.064c-.015-.057-.022-.1.009-.127.029.023.034.011.045-.024-.009.031-.021.062-.03.094s.006.048.023.057.013.01,0,.031" fill="#358ffe"/>
      <path id="Tracé_1419" data-name="Tracé 1419" d="M426.261,92.091a.358.358,0,0,1,.045,0,.1.1,0,0,0-.055-.123c.031-.028.076-.073.006-.078-.053,0-.1.01-.155.012.066-.083.066-.083.022-.109a.078.078,0,0,0-.016.02c-.07.029-.153,0-.218.048.021.007.04.02.059.026-.034.033-.1.028-.11.088-.025-.007-.061-.016-.085-.024H425.7l-.037-.051c-.006.015-.006.015.01.128-.071,0-.182.035-.134.1.014.017.08.075.126.046-.115.093-.136.11-.13.143a.051.051,0,0,1,.021.01c-.025.006-.06.015-.086.023a.048.048,0,0,0,0,.02l.013.008a.115.115,0,0,1,0,.025.754.754,0,0,0-.106-.006c0,.022.01.031.044.033a.636.636,0,0,0-.061.055.954.954,0,0,1,.119,0c-.013.028-.054.026-.07.054.048-.012.072-.013.141-.024-.008.029-.012.062.035.058h.012a.632.632,0,0,0,.132-.055c.027-.011.045.012.07.006a.308.308,0,0,0,.093-.039c.039-.023.051-.027.106,0l-.01-.058c.08,0,.107-.007.08-.157-.014-.063.064-.133.1-.171.016-.013.047-.011.091-.008m-.566.055a.064.064,0,0,1-.02.022.059.059,0,0,0,.018-.028s.007,0,0,0Z" fill="#358ffe"/>
      <path id="Tracé_1420" data-name="Tracé 1420" d="M419.907,90.835c-.083.092-.14.081-.171.076a.308.308,0,0,1,.058-.056c-.031-.048-.031-.048-.042-.043.023-.045.042-.09.067-.135-.092-.039-.14.086-.227.054.048-.052.121-.06.173-.1-.033-.019-.069.019-.1,0a.456.456,0,0,0,.049-.049c-.029-.021-.071-.023-.1-.048-.01-.012-.006-.041-.008-.058-.026,0-.046,0-.109-.08l-.009-.008-.007-.009-.006-.008-.008-.007-.007-.007-.008-.008-.007-.006-.005-.009c-.036-.032-.036-.057-.029-.064.043-.041.108-.036.155-.065a.112.112,0,0,0-.042-.053c.022-.028.042-.035.058.019.028-.047.032-.047.046-.047s.013.011.016.047c.015-.012.033-.012.046-.028a.111.111,0,0,0,0-.042.092.092,0,0,1,.036-.066c.159-.153.159-.153.205-.163.02,0,.043-.032.06-.048.041-.022.041-.022.116.039-.027.03-.051.036-.072.02-.052.076-.052.076-.059.076s-.011,0-.015-.021a2.686,2.686,0,0,0-.208.205c.029.013.1-.026.121-.048.034.042.017.061-.066.11a.158.158,0,0,1,.029.016c0,.009,0,.011-.021.038.007.005.007.005.035.008l0,.007c0,.011,0,.013-.018.041a.412.412,0,0,0,.042-.041c.015.023.015.023.07.019a.361.361,0,0,0-.034.034c.018.014.066-.006.067.031,0,.01-.027.091-.06.1a.041.041,0,0,1-.026-.011c-.01.056-.01.056-.017.064.012.01.012.01.042.009a.357.357,0,0,1-.064.048.462.462,0,0,0,.121.033c-.027.027-.067.03-.092.058s-.016.027,0,.055c-.022.013-.053,0-.065.032-.005.009.006.03.025.054.066-.1.107-.088.125-.086-.032.032-.073.045-.1.077,0,0-.024.026-.021.047.012,0,.012,0,.079-.021-.006.006-.011.016-.018.023" fill="#358ffe"/>
      <path id="Tracé_1421" data-name="Tracé 1421" d="M419.37,89.882c-.034,0-.039-.034-.043-.051s-.013-.125-.013-.125.015-.025.017-.034l.017-.079c0-.01-.014-.019-.008-.03s.008-.015.027-.036a.431.431,0,0,1,.032.145.143.143,0,0,1,0,.028.211.211,0,0,1-.008.034l0,.013a.353.353,0,0,1-.016.132l-.005,0" fill="#358ffe"/>
      <path id="Tracé_1422" data-name="Tracé 1422" d="M418.96,90.389c-.027.016-.038,0-.032-.03s.007-.025.039-.044l-.043-.005a.032.032,0,0,1-.021-.024v-.019c0-.025.007-.056.009-.086,0-.006-.006-.012,0-.019,0-.03.046-.053.05-.055.02-.011.028-.008.032-.006a.557.557,0,0,1-.063.061.265.265,0,0,0,.009.062c0,.007.018,0,.023,0a.2.2,0,0,1-.019.028.512.512,0,0,0,.057.065l-.011,0c-.022.033-.023.039-.018.069l-.007,0" fill="#358ffe"/>
      <path id="Tracé_1423" data-name="Tracé 1423" d="M428.548,95.106c-.017.141-.049.174-.061.18-.028.015-.117-.039-.137-.067a.107.107,0,0,1-.023-.076v-.009a.286.286,0,0,1,.225-.2.621.621,0,0,1,0,.172" fill="#358ffe"/>
      <path id="Tracé_1424" data-name="Tracé 1424" d="M428.575,95.571c-.044.252-.207.249-.248.191s-.032-.08-.026-.15a.253.253,0,0,0,0-.1.082.082,0,0,0-.013-.033c-.008-.009-.022-.017-.03-.025s0-.017,0-.024a.045.045,0,0,0,.005-.034c.078-.006.143-.063.224-.057s.1.13.087.231" fill="#358ffe"/>
      <path id="Tracé_1425" data-name="Tracé 1425" d="M429.621,96.117c-.007.014-.024.025-.025.04s.007.042.007.064c0,0,0,.051-.069.088,0,.045-.013.066-.054.054s-.078-.058-.122-.08-.1-.024-.141-.049a.769.769,0,0,1-.16-.1c-.017-.024-.021-.08.03-.082.016,0,.024.009.034.029.088,0,.114,0,.139.033.064,0,.064,0,.369-.017a.134.134,0,0,0-.008.024" fill="#358ffe"/>
      <path id="Tracé_1426" data-name="Tracé 1426" d="M416.257,93.9a.887.887,0,0,1-.066-.171.262.262,0,0,1,0-.088c.01,0,.02,0,.025-.028.008-.041.049-.329.049-.331a.1.1,0,0,0-.006-.03,1.045,1.045,0,0,1,.028-.24v-.027a1.172,1.172,0,0,0,.019-.138c.006-.015.009-.029.013-.041,0-.033.009-.065.008-.1-.007,0-.014.013-.021.017-.006-.034-.006-.034,0-.049l0,.006c.022-.064.023-.069.036-.077.011.018.011.018.009.058-.015.208-.015.208-.062.639l-.011.324c0,.023-.02.041-.023.07-.01.068.014.135,0,.206l0,0" fill="#358ffe"/>
      <path id="Tracé_1427" data-name="Tracé 1427" d="M416.383,94.744c-.018-.014-.028-.047-.057-.128a.068.068,0,0,1-.012.032h-.006c-.006,0-.006,0-.032-.155,0,.032-.006.079-.029.089,0,0-.007,0-.007-.007v0h0a.894.894,0,0,1,0-.09s-.024-.085-.05-.158v0c-.007-.032-.021-.125,0-.144.008.008.016.015.043.223a.143.143,0,0,0,.016-.041.846.846,0,0,1,.01-.122.671.671,0,0,0,.018-.15.471.471,0,0,1,.018.124.062.062,0,0,0,.013.034c.01.013.03.013.038.028.011.038.006.08.013.114l0,.015c.006.028,0,.051,0,.077.006.05.029.1.034.147a.465.465,0,0,1-.005.119l0,0" fill="#358ffe"/>
      <path id="Tracé_1428" data-name="Tracé 1428" d="M416.119,94.116s-.006,0-.008-.041l-.007.016a.4.4,0,0,1,0-.16.455.455,0,0,0,0-.074c0-.013.006-.015.013-.018s.008.013.012.04a.357.357,0,0,0,0,.066.783.783,0,0,1-.015.171" fill="#358ffe"/>
      <path id="Tracé_1429" data-name="Tracé 1429" d="M441.531,100.191c-.015.14-.153.342-.228.257a.687.687,0,0,1-.043-.262.048.048,0,0,1,.016-.043.311.311,0,0,0,.035-.119,1.623,1.623,0,0,1,.018-.174.111.111,0,0,1,.015-.034c.01,0,.016,0,.028.017.031.032.038.076.065.115s.056.034.072.065a.365.365,0,0,1,.022.178" fill="#358ffe"/>
      <path id="Tracé_1430" data-name="Tracé 1430" d="M443.181,100.379a.522.522,0,0,0-.052.129c-.011.023-.014.023-.021.023l-.012-.011,0-.012-.007.007-.01,0a.539.539,0,0,1,.015-.119,1.108,1.108,0,0,0-.007-.114c0-.064.011-.126.007-.19a.115.115,0,0,0-.022-.069c-.024-.038-.024-.04-.016-.253,0-.006,0-.006-.044-.01-.006-.015-.006-.021,0-.064-.023-.011-.039-.061-.051-.1h-.006l-.006.006-.008-.006,0-.013c-.094-.045-.074-.223-.05-.254a.053.053,0,0,1,.065-.01c.041-.022.042-.09.1-.094.018.021.018.021.023.082.008-.007.008-.02.017-.027.018.037.052.065.058.108a.058.058,0,0,1,.021-.017v.056l.012-.009,0,.007c-.008.069-.008.1.018.1,0-.014.007-.035.01-.05l.032.081c-.005.041-.005.041,0,.052.017-.015.017-.015.041-.105,0,.017,0,.018-.016.082l.008-.009.008,0c.026.1-.049.18-.038.276.008-.013.012-.03.02-.043l0,.005a.051.051,0,0,0,.017-.024,1.019,1.019,0,0,1-.023.168.329.329,0,0,1,.03-.055,3.123,3.123,0,0,1-.108.476" fill="#358ffe"/>
      <path id="Tracé_1431" data-name="Tracé 1431" d="M436.043,105.461a.176.176,0,0,1-.1.116c.008-.086-.046-.041-.046-.041-.05.041-.011.1-.02.146-.008.072-.087.1-.113.167-.006.012-.007.027-.012.04a.172.172,0,0,1-.064.072c-.057.05-.057.05-.215.295a4.314,4.314,0,0,1-.48.6c-.113.094-.593.257-.577-.041a.234.234,0,0,1,.012-.044c-.022-.008-.09-.046-.071-.095l.067-.167c.03-.042.086-.047.126-.081l-.009-.006c.023-.1.148-.092.189-.172a.065.065,0,0,0,0-.065.336.336,0,0,1-.027-.226.189.189,0,0,1,.041-.052,1.288,1.288,0,0,1,.655-.286c.019-.024.008-.062.036-.084s.041-.018.077-.008c.026-.027.062-.067.088-.1s-.007-.082.032-.085a.264.264,0,0,0,.124-.028l.009-.008c.01-.008.012-.02.016-.044.029-.134.065-.157.131-.193-.01.038,0,.043.071.071.013.005.051.02.052.035a.09.09,0,0,1,.006.027Z" fill="#358ffe"/>
      <path id="Tracé_1432" data-name="Tracé 1432" d="M389.641,139.217h-1.775V125.143h6.2v1.574h-4.426v4.148h3.847V132.4h-3.847Z" fill="#358ffe"/>
      <path id="Tracé_1433" data-name="Tracé 1433" d="M396.794,139.216h-1.576v-9.987h1.576Zm0-11.721h-1.576v-2.054h1.576Z" fill="#358ffe"/>
      <path id="Tracé_1434" data-name="Tracé 1434" d="M404.267,139.217h-1.616v-6.5c0-1.434,0-2.391-1.175-2.391-1.336,0-1.336,1.353-1.336,2.451v6.439h-1.594v-9.968h1.514v.917a2.636,2.636,0,0,1,2.133-1.1c2.074,0,2.074,1.754,2.074,3.13Z" fill="#358ffe"/>
      <path id="Tracé_1435" data-name="Tracé 1435" d="M409.724,133.535a9.718,9.718,0,0,1-1.316,1.076,2.387,2.387,0,0,0-1.254,2.135c0,.438,0,1.474,1.076,1.474a1.39,1.39,0,0,0,.856-.3,2.17,2.17,0,0,0,.638-1.913ZM411.3,137.1c0,1.554.06,1.773.478,2.114h-1.953v-1.195a2.154,2.154,0,0,1-2.052,1.374,2.323,2.323,0,0,1-1.2-.3,2.38,2.38,0,0,1-1.036-2.253,2.949,2.949,0,0,1,1.676-2.852,14.731,14.731,0,0,0,2.51-1.892c0-.816,0-1.754-1.216-1.754-1.2,0-1.2.837-1.2,1.434,0,.3.02.52.039.737H405.9a7.628,7.628,0,0,1,.139-1.992c.5-1.454,2.194-1.454,2.632-1.454a2.551,2.551,0,0,1,2.013.736c.618.639.618,1.176.618,2.533Z" fill="#358ffe"/>
      <path id="Tracé_1436" data-name="Tracé 1436" d="M418.79,139.217h-1.614v-6.5c0-1.434,0-2.391-1.176-2.391-1.336,0-1.336,1.353-1.336,2.451v6.439H413.07v-9.968h1.514v.917a2.638,2.638,0,0,1,2.133-1.1c2.073,0,2.073,1.754,2.073,3.13Z" fill="#358ffe"/>
      <path id="Tracé_1437" data-name="Tracé 1437" d="M426.043,135.508c0,1.817,0,3.888-2.891,3.888a2.34,2.34,0,0,1-2.532-1.577,13.36,13.36,0,0,1-.238-3.348c0-3.545.1-5.4,2.93-5.4,2.731,0,2.731,1.812,2.731,3.786h-1.515c0-1.711,0-2.57-1.257-2.57s-1.276.859-1.276,3.649c0,.4,0,1.813.02,2.67.021.519.061,1.535,1.237,1.535s1.276-.974,1.276-2.632Z" fill="#358ffe"/>
      <path id="Tracé_1438" data-name="Tracé 1438" d="M431.56,133.257V132.02c-.02-.536-.039-1.715-1.236-1.715a1.093,1.093,0,0,0-1.156.84,7.275,7.275,0,0,0-.12,2.112Zm1.5,2.87a4.93,4.93,0,0,1-.181,1.694,2.937,2.937,0,0,1-5.183.041c-.178-.479-.258-.677-.258-4.687,0-2.131.179-4.084,2.751-4.084a2.46,2.46,0,0,1,2.791,2.173,22.117,22.117,0,0,1,.08,3.289h-4.008c0,.777-.02,1.791.02,2.153s.119,1.415,1.256,1.415c1.156,0,1.256-.977,1.256-1.994Z" fill="#358ffe"/>
      <path id="Tracé_1439" data-name="Tracé 1439" d="M448.418,139.217h-2.313l-1.535-11.662-1.615,11.662h-2.312l-2.312-14.075h1.735l1.733,12.338,1.655-12.338h2.251l1.616,12.338,1.754-12.338h1.714Z" fill="#358ffe"/>
      <path id="Tracé_1440" data-name="Tracé 1440" d="M454.974,133.535a9.913,9.913,0,0,1-1.316,1.076,2.385,2.385,0,0,0-1.256,2.135c0,.438,0,1.474,1.077,1.474a1.39,1.39,0,0,0,.857-.3,2.17,2.17,0,0,0,.638-1.913Zm1.575,3.568c0,1.554.06,1.773.479,2.114h-1.954v-1.195a2.155,2.155,0,0,1-2.055,1.374,2.317,2.317,0,0,1-1.2-.3,2.382,2.382,0,0,1-1.036-2.253,2.951,2.951,0,0,1,1.674-2.852,14.765,14.765,0,0,0,2.512-1.892c0-.816,0-1.754-1.216-1.754-1.2,0-1.2.837-1.2,1.434,0,.3.022.52.04.737h-1.454a7.669,7.669,0,0,1,.138-1.992c.5-1.454,2.194-1.454,2.632-1.454a2.557,2.557,0,0,1,2.014.736c.618.639.618,1.176.618,2.533Z" fill="#358ffe"/>
      <path id="Tracé_1441" data-name="Tracé 1441" d="M461.849,130.446h-1.457v6.338c0,.638.061,1.276.917,1.276a1.977,1.977,0,0,0,.557-.079v1.3a2.979,2.979,0,0,1-.875.12c-1.4,0-1.835-.478-2.033-.938s-.2-.657-.2-2.493v-5.52h-1.194v-1.218H458.8v-2.67h1.594v2.67h1.457Z" fill="#358ffe"/>
      <path id="Tracé_1442" data-name="Tracé 1442" d="M468.383,135.508c0,1.817,0,3.888-2.892,3.888a2.339,2.339,0,0,1-2.531-1.577,13.36,13.36,0,0,1-.238-3.348c0-3.545.1-5.4,2.93-5.4,2.731,0,2.731,1.812,2.731,3.786h-1.515c0-1.711,0-2.57-1.257-2.57s-1.276.859-1.276,3.649c0,.4,0,1.813.021,2.67.021.519.06,1.535,1.236,1.535s1.276-.974,1.276-2.632Z" fill="#358ffe"/>
      <path id="Tracé_1443" data-name="Tracé 1443" d="M475.482,139.217H473.9v-5.98c0-1.936,0-2.91-1.235-2.91-1.335,0-1.335,1.314-1.335,2.91v5.98h-1.577V125.143h1.577v5a2.333,2.333,0,0,1,1.993-1.076,2.052,2.052,0,0,1,1.614.718,4.021,4.021,0,0,1,.541,2.57Z" fill="#358ffe"/>
    </g>
  </g>
</svg>
