<svg xmlns="http://www.w3.org/2000/svg" width="31.5" height="43.105" viewBox="0 0 31.5 43.105">
  <path id="pdf" d="M3890.2,1180.659a3.321,3.321,0,0,0-3.322,3.313v36.479a3.321,3.321,0,0,0,3.322,3.313h24.856a3.321,3.321,0,0,0,3.322-3.313V1192.9a.829.829,0,0,0-.232-.575l-10.982-11.411a.83.83,0,0,0-.6-.254Zm0,1.658h14.915v10.776a.829.829,0,0,0,.829.829h10.776v26.529a1.661,1.661,0,0,1-1.664,1.655H3890.2a1.661,1.661,0,0,1-1.664-1.655v-36.479A1.661,1.661,0,0,1,3890.2,1182.317Zm16.573.58,9.015,9.367h-9.015Zm-4.482,10.133a2.7,2.7,0,0,0-.693.088c-.65.162-1.7.8-1.4,3.22a16.857,16.857,0,0,0,1.1,3.9c-.312.979-.66,2-1,3.009-.322.948-.655,1.928-.952,2.852h0c-.238.741-.456,1.442-.663,2.1-.288.928-.55,1.77-.807,2.531-4.432,2.517-6.2,4.7-6.311,6.037a1.38,1.38,0,0,0,.584,1.3,1.61,1.61,0,0,0,.923.26,3.714,3.714,0,0,0,1.631-.46c2.392-1.2,3.522-3.174,4.529-5.993.851-.465,1.816-.952,2.908-1.456a23.351,23.351,0,0,1,4.423-1.575c1.426,1.5,2.933,2.48,4.348,2.48,1.539,0,2.625-.508,2.978-1.395a1.751,1.751,0,0,0-.532-1.944,5.938,5.938,0,0,0-4.226-1.157,13.746,13.746,0,0,0-1.973.209,29.227,29.227,0,0,1-4.1-6.875c1.044-3.37,1.426-5.572.474-6.607a1.667,1.667,0,0,0-1.249-.531Zm-.012,1.656a.245.245,0,0,0,.043,0c.029.037.332.479-.212,2.76a10.112,10.112,0,0,1-.263-1.31c-.122-1,.054-1.385.153-1.41A1.16,1.16,0,0,1,3902.281,1194.686Zm.031,7.808a29.425,29.425,0,0,0,3.063,4.96,26.228,26.228,0,0,0-3.921,1.466q-.768.354-1.467.7l.288-.923c.2-.658.421-1.354.657-2.09h0c.293-.911.624-1.884.944-2.825Q3902.1,1203.119,3902.312,1202.494Zm6.956,5.995a5.618,5.618,0,0,1,2.55.434,1.182,1.182,0,0,1,.524.416,2.1,2.1,0,0,1-1.423.333,3.859,3.859,0,0,1-2.33-1.149C3908.829,1208.5,3909.055,1208.493,3909.268,1208.489Zm-12.4,4.817a6.258,6.258,0,0,1-2.9,3.085,2.98,2.98,0,0,1-.667.254C3893.557,1216.087,3894.487,1214.89,3896.868,1213.306Z" transform="translate(-3886.88 -1180.659)" fill="#358ffe"/>
</svg>
