<svg xmlns="http://www.w3.org/2000/svg" width="108.439" height="108.439" viewBox="0 0 108.439 108.439">
  <g id="Groupe_451" data-name="Groupe 451" transform="translate(-4553.929 -4585.73)">
    <g id="Groupe_447" data-name="Groupe 447">
      <g id="Groupe_446" data-name="Groupe 446">
        <path id="Tracé_1854" data-name="Tracé 1854" d="M4608.149,4585.73a54.219,54.219,0,1,1-54.22,54.22,54.281,54.281,0,0,1,54.22-54.22" fill="#82bafe"/>
      </g>
    </g>
    <g id="Groupe_449" data-name="Groupe 449">
      <g id="Groupe_448" data-name="Groupe 448">
        <path id="Tracé_1855" data-name="Tracé 1855" d="M4608.149,4595.635a44.315,44.315,0,1,1-44.315,44.315,44.364,44.364,0,0,1,44.315-44.315" fill="#fff"/>
      </g>
    </g>
    <g id="Groupe_450" data-name="Groupe 450">
      <path id="Tracé_1856" data-name="Tracé 1856" d="M4604.589,4613.052a.817.817,0,0,0,.1-.054c0-.145,0-.145-1.276-.314a.661.661,0,0,1,.008-.109c-.583.145-.823.2-1.019.056.836-.283.836-.283.857-.394-.25-.166-.5.107-.761-.013a.626.626,0,0,0,.124-.22c-.379-.273-.843-.028-1.234-.218.624-.231.793-.152,1.723.28a.7.7,0,0,0,.789-.068c-.045-.135-.226-.169-.269-.317a1.707,1.707,0,0,0-.289-.013c.219-.066.263-.085.349-.22-.017-.023-.041-.053-.062-.083-.1.013-.214.03-.315.041.035-.041.035-.041.373-.165a2.406,2.406,0,0,0-.659-.513,1.651,1.651,0,0,1-.411-.189c-.047.015-.109.039-.153.052a.851.851,0,0,1-.03-.088.356.356,0,0,1-.176.028l-.01,0h0a.98.98,0,0,0-.581.256,1.555,1.555,0,0,1,.087-.184.419.419,0,0,1-.192.056.89.89,0,0,0,.141-.263.4.4,0,0,0-.207.041c0-.028-.005-.065-.009-.1-.361.216-.361.216-.413.225-.025-.009-.051-.03-.083-.047l-.259.186a1.017,1.017,0,0,1,.1-.178.419.419,0,0,0-.054-.073c-.15-.017-.15-.017-.763.734-.169-.107-.3-.19-.306-.19.173-.308.688-.313.652-.785-.293.147-.582.273-.879.419,0-.2,0-.2-.04-.282-.131-.009-.131-.009-.36.087.229-.173.542-.2.71-.449-.32.013-.32.013-.414-.143a.761.761,0,0,0-.785.1.765.765,0,0,1,.3-.246c-.158-.006-.158-.006-.688.224.028-.055.06-.128.087-.171-.006-.006-.808-.384-1.154.018.025.064.025.064.244.216a3.735,3.735,0,0,1-1.1.241l-.011-.013c-.327-.615-.9-.592-1.319.039a1.1,1.1,0,0,0,.091.068,1.816,1.816,0,0,0,.242-.077c-.072.071-.169.128-.237.206.118.2.118.2.124.243-.021.019-.045.049-.069.075a.38.38,0,0,0-.051-.081.671.671,0,0,1,.026-.084.752.752,0,0,0-.494-.113.687.687,0,0,0-.045-.075.447.447,0,0,0,.058-.079.514.514,0,0,1-.088-.056c-.165.092-.165.092-.323.353-.113,0-.413.148-.363.387a2.667,2.667,0,0,0,.406-.113c-.043.047-.1.113-.137.152a.3.3,0,0,1,.177.019.691.691,0,0,0-.029.094.642.642,0,0,1,.1.143c.081.007.175.013.243.013a.67.67,0,0,1-.173.127h.191c.027.581-.479.912-.667,1.385-.33.114-.33.114-.456.154.013.03.041.06.053.088a4.069,4.069,0,0,1-.8.774.446.446,0,0,0-.163-.045c-.2.195-.476.269-.688.443.008.03.017.066.023.092.133.034.266-.035.405.023.012.07.027.162.04.235-.019.02-.043.054-.066.079a.623.623,0,0,0,.162.1.581.581,0,0,0-.2.052c.024.066.06.149.086.205a.621.621,0,0,1-.094-.024c-.011.03-.034.066-.045.094a.592.592,0,0,0-.195.028c.011.021.026.056.041.083a.343.343,0,0,1-.173.056.413.413,0,0,1-.09.182c-.113-.242.083-.64-.282-.753a.923.923,0,0,0-.191.34c-.231-.079-.7.1-.729.319a.563.563,0,0,0,.066.075.521.521,0,0,1-.029.094.772.772,0,0,1-.092.013.733.733,0,0,0-.064-.06.282.282,0,0,0-.116.145c.255.306.7.056.716.041.248-.133.137-.447.31-.623.118.49.118.49.171.533-.027.09-.064.179-.436.355a.568.568,0,0,0,.086.055,1.284,1.284,0,0,0-.306.246v-.1c-.085.023-.085.023-.383.293-.231-.19-.276-.18-.438-.145a.411.411,0,0,0,.03.083.476.476,0,0,1,.242.139.623.623,0,0,1-.088.209c-.1-.111-.19-.23-.3-.333a.379.379,0,0,0-.067.177c-.081-.134-.12-.2-.489.071a5.1,5.1,0,0,1,.545.068c-.1.03-.1.03-.163.2l.086.045c.177-.13.177-.13.274-.128-.257.179-.349.164-.417.147-.088-.2-.107-.248-.456-.23-.334.389-.334.389-.4.41a.336.336,0,0,0,.007.075c-.017.011-.051.036-.073.049-.023,0-.066-.013-.088-.019a.658.658,0,0,0-.053.083c.013.022.034.05.051.075a.449.449,0,0,1-.168.1.7.7,0,0,0,.211.079,1.025,1.025,0,0,0-.055.1c-.028,0-.069,0-.107,0a1.269,1.269,0,0,0-.088.163c-.2.06-.227.274-.366.391.06.03.06.03.291.032a.4.4,0,0,1,.026.094c-.015.03-.041.062-.06.092-.079-.04-.079-.04-.321-.036,0,.03-.009.062-.009.092a1.082,1.082,0,0,1-.188.028c-.057.113-.049.244-.1.361-.024.006-.064.013-.088.019a.269.269,0,0,1-.077.163.342.342,0,0,1,.1.026,1.123,1.123,0,0,1-.119.2.924.924,0,0,0,.04.086c-.028.053-.066.113-.094.166.049.024.124.065.184.09a2.464,2.464,0,0,0-.3.223c.135-.1.167-.081.263-.045a1.515,1.515,0,0,1-.18.087c0,.127,0,.127-.158.244a.4.4,0,0,0,.158.079.626.626,0,0,0-.207.045c.023.161.023.161-.064.379a2.025,2.025,0,0,0,.586-.049.974.974,0,0,0-.131.222c-.021,0-.06.006-.092.006a.33.33,0,0,1,.043.184.594.594,0,0,0,.085.056.414.414,0,0,1,.075-.034.573.573,0,0,1,.032.083c.033,0,.069-.008.1-.008-.111.091-.246.13-.353.216a2.37,2.37,0,0,1,.287-.078c-.045.058-.1.118-.14.167a.962.962,0,0,0,.187-.074c-.12.237-.12.237-.12.324a.57.57,0,0,1,.085.043.591.591,0,0,1,.172-.032c.016-.055.042-.132.059-.192h.084a.931.931,0,0,0-.03-.236,2.967,2.967,0,0,0,1.308-.8c.047,0,.118.019.165.021a2.224,2.224,0,0,1,.253-.376c.038.055.085.119.126.169a2.36,2.36,0,0,1,.38-.338.489.489,0,0,1-.145-.126c.344-.124.344-.124.562-.45.2.073.242.041.392-.113.2.143.468.118.662.28-.015.035-.032.082-.043.112.137.017.236-.093.368-.107a.6.6,0,0,0,.009.107c1.755-.552,1.755-.552,2.025-1.01-.141.5.434.383.445.381l.072-.047c0,.032,0,.068,0,.1.342.064.342.064.372.092.874-.034.874-.034.973-.154.524.261.859.126,1.753-.242a1.7,1.7,0,0,0-.481-.342h-.006v-.006h-.012c-.225-.062-.462-.1-.687-.165.071-.042.154-.1.22-.143-.457-.167-.457-.167-.508-.237.139-.212.322-.251,1.007.03.233-.291-.039-.362-.539-.488l.053-.04h.015a.635.635,0,0,0,.092-.018c0-.023,0-.06,0-.091a.514.514,0,0,1,.095.006.358.358,0,0,0,.029.1c.093.2.381.161.479.37.123.263-.1.55.073.8a.473.473,0,0,0,.409.1v-.124c.1-.043.233-.092.284-.453a.742.742,0,0,1-.088-.024c.141-.425.127-.537-.333-.719,0,0,0,0,0-.008h-.008a.006.006,0,0,0-.006-.006h-.011l-.006-.007h-.007l0,0a.44.44,0,0,1,.2-.038c.017-.016.045-.045.064-.067-.128-.1-.37.088-.432-.115-.072-.266.007-.347.274-.432a5.678,5.678,0,0,1,.812-.092.715.715,0,0,1-.109.158c.3.438.9.434,1,.09a.321.321,0,0,0,.015-.09c-.124-.038-.248.024-.37-.038.062-.124.062-.124.336-.418.355.475.355.475.558.422-.067-.092-.067-.092-.282-.231.025-.049.055-.113.079-.167-.054-.011-.124-.028-.174-.036.107-.028.107-.028.27-.409a.352.352,0,0,1,.1.022.976.976,0,0,1,.111.181c.464.071.5-.65.5-.652a.445.445,0,0,0-.182.052.31.31,0,0,1-.062-.064.38.38,0,0,1,.2-.071c.143-.193.143-.193.6.053.079-.047.2-.1.227-.436a1.013,1.013,0,0,0-.191.034.393.393,0,0,0-.075-.072.654.654,0,0,1,.09-.2c.135.087.135.087.25.066-.188-.313-.188-.313-.284-.342a1.8,1.8,0,0,1,.081-.167c.02.1.02.1.159.2a2.154,2.154,0,0,0,.4-.223c.159-.059.159-.059.43-.41a.483.483,0,0,1,.163.055c.04.007.04.016.04.016a1.229,1.229,0,0,0,.383-.234.589.589,0,0,0,0-.1c-.167-.1-.326.019-.5,0,.111-.56.851.1,1.191-.258-.549-.039-.549-.039-.622-.141Zm-2.046-1.841c-.016,0-.033-.013-.062-.039-.063-.057-.12-.044-.217.015a.682.682,0,0,0,.054-.113c.062-.011.062-.017.22-.135-.006.019-.011.024-.072.082s-.086.094-.013.107c.027,0,.047,0,.074,0,.011,0,.026,0,.026.01s.013.037,0,.071h-.006m.656.182a.227.227,0,0,1-.12,0l-.032,0a.706.706,0,0,1-.133-.067,2.839,2.839,0,0,0-.305-.051c-.03-.021-.037-.034-.024-.075a.845.845,0,0,1,.308.028c.045.006.045.006.349.154a.089.089,0,0,1-.043.011m-.965-.345c-.085.041-.123.033-.158.017a.2.2,0,0,0-.136.011.8.8,0,0,0,.1-.064.442.442,0,0,1,.207.026l-.011.01m-1.319-.085c-.017-.024.049-.09.114-.154s.094-.1.1-.152c.039.1.015.18-.2.317-.006,0-.006,0-.011-.011m1.247,1.668c-.017.006-.045,0-.064.006a.212.212,0,0,1,.047-.03c0,.013.032.015.017.024m-.137.019a2.44,2.44,0,0,1-.528.09.775.775,0,0,1,.534-.1h.007c-.007,0-.011.011-.013.011" fill="#212975"/>
      <path id="Tracé_1857" data-name="Tracé 1857" d="M4599.382,4609.5a1.932,1.932,0,0,1-.766-.054.1.1,0,0,0-.006-.04.521.521,0,0,1-.079.042.282.282,0,0,0-.252-.055c.087.09.22.064.312.143a.773.773,0,0,1-.306.043c-.167-.015-.3-.139-.473-.15a3.238,3.238,0,0,1-.38.017c-.013,0-.028-.017-.043-.017.026-.036.026-.036.107-.077-.1.022-.37.047-.37.047a.225.225,0,0,0-.021-.025c.006-.022.017-.047.021-.067-.094-.015-.131.075-.2.109-.124-.117-.124-.117-.387-.015-.009-.109-.009-.109.008-.143a.291.291,0,0,0-.106.005l-.024-.013a.744.744,0,0,0,.081-.1.217.217,0,0,1-.081.035c.03-.067.116-.079.122-.163a.19.19,0,0,1-.041-.047.244.244,0,0,0-.115.021v.011c0,.064,0,.075-.06.195-.081.019-.081.019-.118-.007a.982.982,0,0,1,.088-.166c-.1.047-.135.154-.227.2-.025-.028-.057-.064-.083-.088a.894.894,0,0,1,.1-.16c-.034.034-.075.089-.107.124-.088.023-.188.012-.282.034.076.055.2,0,.247.1-.1.21-.1.21-.115.21-.145.073-.308.015-.455.079-.017-.075-.017-.075-.062-.09a.09.09,0,0,0-.039.054c-.128.06-.271.083-.214-.131-.124,0-.216.131-.353.054-.008-.006-.008-.017-.012-.03l0-.013v-.015c-.006-.077-.041-.077-.111-.077-.084.158-.285.2-.357.366-.257.017-.257.017-.3,0a.278.278,0,0,1,.1-.075c-.319.023-.319.023-.371,0,.1-.128.276-.107.4-.2a.1.1,0,0,0-.069-.013,2.9,2.9,0,0,1,.3-.166c-.267.047-.267.047-.282.047-.028-.129-.032-.163.252-.24-.113,0-.113,0-.15-.011,0-.008,0-.021,0-.027a1.714,1.714,0,0,0-.374.094.675.675,0,0,1,.339-.283,1.14,1.14,0,0,0-.19.048.964.964,0,0,1,.225-.131c-.079-.01-.15.024-.231,0,.038-.083.137-.079.2-.124-.041-.013-.041-.013-.139.019.006-.01.5-.386.648-.019.169-.062.333-.166.5-.233.19.319-.4.355-.515.6a.413.413,0,0,1,.088-.022.062.062,0,0,1,.027.022c.1-.028.122-.03.236-.058a.148.148,0,0,1,.066-.119l-.03-.018c-.011,0-.03.007-.043.007.067-.062.067-.062.631-.216-.09-.039-.186.008-.286,0,.006-.034.006-.034.083-.1a.223.223,0,0,0-.015-.036.348.348,0,0,1-.058-.017c0-.017,0-.034,0-.047.162-.107.639-.163.613.042a.807.807,0,0,1-.151.291c.062.007.062.007.248-.265a.163.163,0,0,1,.068,0v.062c.1-.026.133-.041.154-.062a.041.041,0,0,0-.01-.026,2.411,2.411,0,0,1,.356-.176c-.551.118-.551.118-.619.077v-.006l.01-.09c-.124,0-.13-.011-.158-.034a1.554,1.554,0,0,1,.21-.055c-.148-.045-.3.061-.443.006a.516.516,0,0,0-.144.019.145.145,0,0,1,.056-.043,1.249,1.249,0,0,0-.137.043c.058-.049.137-.083.2-.135a.782.782,0,0,1-.155,0c0-.007,0-.019,0-.032.041-.047.107-.118.742-.3,0,.041.049.062.054.1a.209.209,0,0,0,.109-.053c0-.052-.067-.079-.067-.137.041-.041.062-.058.206-.1-.022.074-.022.074-.017.1.017,0,.047,0,.068,0,.077-.193.372-.257.654-.313-.072.071-.152.12-.22.191.116-.022.2-.1.312-.126a.3.3,0,0,0-.081-.065c.006-.01.006-.01.312-.074.026,0,.056.006.079.006s.015.021.024.028c-.011.019-.032.043-.041.064a1.121,1.121,0,0,0,.3-.066h-.036a.045.045,0,0,1,.012-.032c.022-.015.056-.035.08-.054l-.086,0c.03-.092.291-.128.3-.128-.015.034-.015.034-.184.164.073-.017.174-.036.246-.053a1.123,1.123,0,0,0,.118-.047c-.009,0-.021-.006-.03-.007v-.042a.231.231,0,0,1,.173-.047l-.006.025c-.189.231-.189.231-.678.415-.4.124-.4.124-.494.3-.009.017-.017.047-.03.071.03,0,.068-.006.1-.006a.441.441,0,0,1-.154.076.478.478,0,0,0,.118,0,2.263,2.263,0,0,1-.588.178v.034c.171,0,.34-.141.532-.075.1.041-.074.251-.074.251-.163.16-.839.231-.563.4.028-.008.073-.034.062-.077-.023-.126.449-.226.456-.226.107-.011.1.083.092.126-.022.113.01.256.229.207-.048-.044-.131-.126-.009-.156s.18.1.278.131c.015-.028.024-.069.04-.1.093-.012.174.06.268.06a4.41,4.41,0,0,1-.545-.475c.01-.049.015-.07.237-.113-.1-.028-.216.013-.317-.011l-.006-.025h0c-.006-.066-.012-.094.257-.137a.793.793,0,0,0-.128-.056l0-.012c.024-.007.047-.024.077-.035-.032-.205-.032-.205.109-.258.24.13.24.13.327.121a.675.675,0,0,1-.224-.166c.156-.03.175-.041.244-.013a.6.6,0,0,0,.019.1c.008,0,.03.011.043.013.064-.049.064-.055.021-.143,0-.017.009-.024.011-.034a.133.133,0,0,1,.118,0c0,.006,0,.017-.007.034a.228.228,0,0,0,.088-.045.066.066,0,0,0,0-.03.194.194,0,0,0-.03-.019.184.184,0,0,1,.156-.024c0,.011,0,.028.009.035a.745.745,0,0,1-.143.1c.077.077.175.034.257.054a.156.156,0,0,1,.012.029c-.049.039-.049.039-.312.148.043-.008.109-.026.16-.038.005,0,.026.006.028.012s0,.018-.011.02c-.108.057-.228.087-.34.137.092-.024.214-.05.3-.071l-.024.047a1.043,1.043,0,0,0-.2.056c.276.027.413-.251.653-.311-.024.043-.035.093-.056.135a1.615,1.615,0,0,0,.319-.077c-.15.248-.449.268-.667.415.057-.013.128-.023.188-.034-.043.021-.043.021-.229.1a4.974,4.974,0,0,0,.575-.168c-.09.168-.327.155-.406.337.124-.04.214-.158.34-.2a.128.128,0,0,1,.006.034.25.25,0,0,0-.03.058c.067.006.069.006.255-.039a1.139,1.139,0,0,1-.109.07c.015.011.034.035.057.035-.023.034-.023.034-.128.072a.208.208,0,0,1-.056.065h-.006c-.053.023-.115.04-.171.061.051,0,.051,0,.171-.061h.006c.462-.231.529-.167.5-.065-.026.035-.026.035-.244.283a1.037,1.037,0,0,1,.188-.049l.424.055c-.011.049-.011.049-.088.15.109.032.144.045.077.181a1.549,1.549,0,0,1-.656,0,.857.857,0,0,0,.436.067c.218-.011.227,0,.255.034-.082.177-.353.244-.276.5l-.1.034" fill="#212975"/>
      <path id="Tracé_1858" data-name="Tracé 1858" d="M4619.493,4613.286c-.006.007-.019.013-.019.028-.017.049.027.1.025.156,0,.011-.006.034-.019.039s-.028.013-.028.021c0,.045.041.066.049.1-.021.029-.109-.013-.109-.013-.017-.009-.154-.086-.16-.124,0-.009.011-.017.019-.022-.025-.023-.064-.049-.094-.074.135,0,.081-.122.047-.18.047-.041.047-.041.069-.043a.286.286,0,0,1,.22.113" fill="#212975"/>
      <path id="Tracé_1859" data-name="Tracé 1859" d="M4624.564,4611.775c.013.017.034.039.034.054s-.009.015-.026.017a1.217,1.217,0,0,0,.118.055.679.679,0,0,1,.066.19c-.032.026-.066-.021-.092,0a.018.018,0,0,1-.006.011c.049.035.06.045.021.081-.066.052-.16,0-.226.065-.024.017-.031.07-.077.07a.343.343,0,0,1-.161-.079c0,.069,0,.079-.023.114-.156-.1-.189-.182-.129-.195h.011c-.263-.163-.263-.287-.227-.361-.147-.039-.134.079-.111.119.013.024.036.026.036.06a.333.333,0,0,1-.26.007c-.049-.018-.049-.018-.092.045-.1-.118-.1-.118-.062-.2-.049-.027-.1-.062-.148-.09-.073-.053-.137-.115-.209-.162.027-.009.077-.023-.048-.15-.068-.072-.077-.079-.074-.092a.45.45,0,0,1,.053,0c.158.033.308.075.471.107a1.01,1.01,0,0,1,.2.045c.026.011.212.112.212.112.086.062.083.121.083.121-.01.018,0,.024.02.052.023-.049-.017-.1,0-.146.077-.036.314.082.408.191.13-.017-.13-.146-.182-.218,0,0,0,0,0-.009.029.011.419.188.419.188" fill="#212975"/>
      <path id="Tracé_1860" data-name="Tracé 1860" d="M4619.24,4613.737a.128.128,0,0,0-.09.024.122.122,0,0,1-.089.023c.209.22.209.22.22.261,0,.006-.006.006-.006.011-.041.006-.071-.028-.109-.028s-.033-.007-.116.047c-.148-.118-.182-.148-.225-.231-.012-.047-.012-.088-.023-.131s-.064-.083-.064-.13c0-.024,0-.058.058-.077s.1.006.164.077c.021-.023.114-.03.28.154" fill="#212975"/>
      <path id="Tracé_1861" data-name="Tracé 1861" d="M4616.947,4614.257c-.05.006-.242.022-.242.022-.045.012-.088.049-.133.049a.3.3,0,0,0-.09.008c-.017.009-.01.045-.01.075a.119.119,0,0,1,0,.054c0,.021-.033.032-.045.057s0,.03-.013.043-.013.011-.056-.041c-.021-.027-.081-.027-.117-.032-.05.032-.071.1-.133.114-.038.012-.075-.03-.113-.041a.534.534,0,0,0-.165.028c-.023-.051-.062-.124-.028-.169a.162.162,0,0,1,.126-.054c.035,0,.035,0,.054-.025.051-.039.094-.09.145-.131a1.825,1.825,0,0,1,.325-.075.766.766,0,0,1,.539.118h-.04" fill="#212975"/>
      <path id="Tracé_1862" data-name="Tracé 1862" d="M4617.454,4614.23a.188.188,0,0,1-.023.084c-.015.015-.041.017-.077.015-.079-.006-.1.03-.1.041.028.021.069.066.1.1a.827.827,0,0,1-.268.019c.052.107.03.133-.087.21-.028-.062-.047-.088-.109-.077s-.094-.011-.124-.152a.242.242,0,0,0-.137-.03.09.09,0,0,1-.015-.045l0,0h.006a1.168,1.168,0,0,0,.433-.039c.1-.042.083-.12.064-.184-.013-.012-.047-.021-.064-.038.012-.017.017-.017.029-.019.052,0,.1.013.148-.015.017.045.03.081.041.119.025-.025.025-.083.072-.068a.187.187,0,0,1,.107.085" fill="#212975"/>
      <path id="Tracé_1863" data-name="Tracé 1863" d="M4612.805,4615c-.006.034-.03.286-.147.289-.05.006-.107.023-.02.094-.036.085-.087.109-.267.121.049.259-.119.285-.66.107-.5-.156-.526-.113-.542-.089-.079,0-.134-.167-.134-.167.07-.043.13.019.192.028a.3.3,0,0,0-.017-.069c.188,0,.237.007.265-.085-.205-.075-.622.151-.637-.159.122-.01.122-.01.139-.136h-.023c-.217-.013-.217-.054-.212-.165.229.064.229.064.235.111s.007.049.064.041a.017.017,0,0,0,.013-.015c.036-.047-.013-.09.006-.137s.092-.023.112-.066c-.086-.03-.037-.163-.037-.163h.007c.085.022.119.113.2.144.186.156.186.156.294.181a.2.2,0,0,1,.161.1c.133.033.169,0,.15-.153.025.031.057.074.083.113,0-.081.006-.152.006-.223a.321.321,0,0,1,.069.289.176.176,0,0,0,.1-.058c.049-.049.081-.111.136-.16,0,.06-.023.113-.029.182.068-.041.1-.112.168-.143,0,.068.024.216.323.158V4615" fill="#212975"/>
      <path id="Tracé_1864" data-name="Tracé 1864" d="M4618.824,4614.015a.155.155,0,0,1,.017.064c0,.05,0,.1-.009.154-.025-.015-.077-.059-.115-.023-.058-.073-.129-.143-.178-.22-.03-.041-.028-.05-.015-.058a.048.048,0,0,1,.03.006c.039,0,.071.017.111.022a.211.211,0,0,1,.079.013.112.112,0,0,1,.08.042" fill="#212975"/>
      <path id="Tracé_1865" data-name="Tracé 1865" d="M4611.265,4615.993h-.017c-.447.006-.36.344-.357.344.019.066.045.1.029.137s-.068.011-.094.045c-.034.066,0,.145-.046.209a.033.033,0,0,1-.018.017c-.027.028-.062.022-.094.043-.058.066-.075.154-.154.19s-.115.032-.152,0c-.1.06-.038.332-.179.272-.011.013-.011.013-.024.06-.053-.06-.066-.1-.113-.3-.053.009-.053.009-.224-.036-.035-.1-.041-.107-.142-.135-.207-.066-.19-.1-.139-.319a.142.142,0,0,1,.088.1c.075,0,.186-.006.267-.006a.27.27,0,0,1-.109-.094c.028-.077.028-.077.25-.189-.162-.017-.434-.036-.481.061-.066-.046-.066-.046-.043-.317a.542.542,0,0,0,.088.062c0-.024,0-.049,0-.073.263.1.263.1.312,0,.274.111.443.1.5-.032-.192,0-.192,0-.229-.026s-.021-.119-.09-.12c-.047-.006-.1.054-.13.007s-.024-.1-.023-.2a.434.434,0,0,1-.118.058c-.007-.02-.007-.02-.022-.03-.07.03.009.132-.07.151-.053.011-.09-.017-.141-.017-.1.221-.223.067-.223.062-.045-.064,0-.145-.021-.224.021-.107-.083-.195-.071-.312a.612.612,0,0,1,.078-.032c-.039-.052-.026-.118-.054-.165-.015.017-.047.041-.062.06.023-.109.055-.25.1-.274.02.017.02.036.043.053.028-.01.045-.017.07-.074a1.066,1.066,0,0,1,.279.053c-.039.077-.127.088-.186.133a.186.186,0,0,1,.143.167h.038c-.028-.236.118-.266.18-.261a4.639,4.639,0,0,1,.244.647,1.693,1.693,0,0,1-.069-.508c.007-.024.007-.045.026-.06l.237-.278c.056.164.056.164.058.171.1-.064.1-.064.265.167.062.092.007.207.068.307.013-.053.02-.061.041-.079.161.052.011.246.116.332s.25.073.34.171a.258.258,0,0,1,.036.09Z" fill="#212975"/>
      <path id="Tracé_1866" data-name="Tracé 1866" d="M4619.273,4614.367c0,.013,0,.054-.036.049a.773.773,0,0,1-.177-.066s-.071-.12-.007-.137.218.1.22.154" fill="#212975"/>
      <path id="Tracé_1867" data-name="Tracé 1867" d="M4624.019,4612.281c-.028.147-.033.19-.1.214-.117-.079-.237-.139-.342-.219-.083-.061-.1-.079-.083-.1a.651.651,0,0,1,.526.1v.007" fill="#212975"/>
      <path id="Tracé_1868" data-name="Tracé 1868" d="M4625.39,4611.695c.033.036.022.058.016.071v0l0,.006v0h-.006v.009l.143.208a.786.786,0,0,1-.218.061c.163.146.272.325.2.325a.123.123,0,0,1-.115-.074.224.224,0,0,0-.05-.056l-.312-.3a.335.335,0,0,0-.064-.047,1.306,1.306,0,0,1-.338-.227c-.149-.1-.149-.1-.2-.117.045,0,.05,0,.058,0s0-.019-.088-.057c.041,0,.041,0,.336.132-.064-.058-.064-.066-.064-.075.023-.011.028-.017.023-.047a.405.405,0,0,0,.263.056.573.573,0,0,1,.419.126" fill="#212975"/>
      <path id="Tracé_1869" data-name="Tracé 1869" d="M4595.684,4607.254a.245.245,0,0,1-.137,0c.006-.043.006-.043.092-.07a5.8,5.8,0,0,0,.849-.394.73.73,0,0,0-.085-.006.322.322,0,0,1,.091-.028c-.006-.034-.072-.055-.044-.09a.455.455,0,0,1,.153-.058c-.019.013-.044.026-.07.041l.006.007c.03,0,.03,0,.088-.035h.094c.03-.013.03-.013.034-.023l-.006-.015a1.742,1.742,0,0,1,.241-.041l-.083,0a.257.257,0,0,0,.034,0,.068.068,0,0,1-.042-.021.926.926,0,0,1,.166-.024l-.023-.03a.766.766,0,0,1,.295-.036v.007c-.143.1-.312.1-.458.188,0,0,0,.008,0,.008a1.129,1.129,0,0,1,.184-.026s-.009.011-.015.013c-.084.05-.18.054-.263.107-.009,0-.007.017-.007.034s-.019.035-.087.06a.405.405,0,0,0-.1.049.31.31,0,0,1-.051.028c-.062.035-.143.035-.206.071a1.3,1.3,0,0,1-.177.122,2.2,2.2,0,0,1-.479.162" fill="#212975"/>
      <path id="Tracé_1870" data-name="Tracé 1870" d="M4597.132,4606.249c-.018,0-.108.008-.095-.018a1.07,1.07,0,0,1,.281-.152c.055-.006.215-.017.177.028-.007.007-.013.017-.024.022a.864.864,0,0,1-.339.12" fill="#212975"/>
      <path id="Tracé_1871" data-name="Tracé 1871" d="M4597.327,4606.068c-.013-.008-.036-.008-.111,0,.081-.034.167-.058.242-.1a.137.137,0,0,0,.03-.02.219.219,0,0,1,.013-.032c.168-.04.162,0,.156.013a.482.482,0,0,1-.043.035,1,1,0,0,1-.287.106v-.006" fill="#212975"/>
      <path id="Tracé_1872" data-name="Tracé 1872" d="M4596.824,4606.266c-.069.006-.071.006-.084-.008s.015-.026.015-.035c-.087.015-.177.049-.263.071-.107.015-.124,0-.124,0,0-.028.041-.032.05-.058.006,0,0-.026.006-.036a.013.013,0,0,1,.008-.007c.02-.017.127-.066.139-.075a1.851,1.851,0,0,1,.492-.1.074.074,0,0,0-.01.036c0,.005.01.011.015.019s.017.022,0,.041a.084.084,0,0,0,.022,0c0,.009,0,.022-.034.052a.087.087,0,0,1-.041.025c-.062.036-.1.047-.1.064a.279.279,0,0,0-.081.011" fill="#212975"/>
      <path id="Tracé_1873" data-name="Tracé 1873" d="M4597.29,4605.826c-.1.011-.187.013-.282.03.079-.027.156-.06.231-.083-.276.047-.333.047-.363.028l0-.009c.006-.008.021-.013.028-.019v-.007a1.562,1.562,0,0,1,.4-.07c-.011-.017-.041,0-.056-.022.006-.014.009-.014.062-.021a1.314,1.314,0,0,0-.135.007c-.079.019-.137.034-.169.017.015-.011.02-.017.163-.049a.731.731,0,0,0-.163.019c-.1.013-.1.012-.109,0,0,0,.28-.059.377-.094-.073.017-.15.024-.227.045a.79.79,0,0,1,.122-.036.54.54,0,0,1-.084.008s0-.006.011-.006a1.49,1.49,0,0,1,.158-.053c.039-.017.062-.048.1-.063,0,0,.355-.1.461-.119-.051.045-.055.045-.062.064.028.055.094,0,.131.034a.344.344,0,0,0-.047.03c.021.032.1,0,.1.052,0,.014-.011.032-.1.068a.544.544,0,0,1-.148.066c-.074.015-.074.021-.077.028a.067.067,0,0,0,.035.013.813.813,0,0,0,.132-.032.792.792,0,0,1-.085.072,1.992,1.992,0,0,1-.4.107" fill="#212975"/>
      <path id="Tracé_1874" data-name="Tracé 1874" d="M4611.535,4616.428a.092.092,0,0,1-.051,0c-.06,0-.111-.04-.167-.04-.019,0-.045.025-.064.012a.069.069,0,0,1-.017-.04.137.137,0,0,0-.02-.09.154.154,0,0,0-.047-.03.216.216,0,0,1-.107-.07.779.779,0,0,1,.338-.107.187.187,0,0,1,.184.13c.026.066-.042.165-.049.231" fill="#212975"/>
      <path id="Tracé_1875" data-name="Tracé 1875" d="M4612.283,4616.769c-.011.04-.011.04-.36.152a.573.573,0,0,0-.244.036c-.006-.036-.006-.077-.01-.116a2.432,2.432,0,0,0-.332.086,1.589,1.589,0,0,1,.067-.242c-.065-.028-.092-.047-.086-.092.013-.068.081-.094.118-.145.07.006.132.051.211.049.045,0,.058-.043.064-.064a.468.468,0,0,1,.257.182c.011.011.019.042.039.047a1.09,1.09,0,0,1,.246.06c.036.013.036.03.03.047" fill="#212975"/>
      <path id="Tracé_1876" data-name="Tracé 1876" d="M4629.577,4609.869c-.8-.491-1.865-1.148-2.684-1.6-.094-.05-.222-.118-.308-.169,1.208.746,1.255.776,1.865,1.214-.2-.113-.462-.254-.657-.372a5.841,5.841,0,0,0,.976.731c-.21-.122-.49-.284-.693-.421.079.062.192.143.273.205-.092-.042-.216-.1-.309-.149l.162.166h.006v0h0a15.463,15.463,0,0,0,1.817,1.629c-.094-.039-.218-.1-.314-.137.34.252.705.47,1.045.714a1.99,1.99,0,0,1-.671-.045c.077.06.182.163.261.234-.1-.024-.233-.054-.336-.071a2.226,2.226,0,0,0-.335.586,1.082,1.082,0,0,0-.648-.024c.263.415.263.415.844.821-.19-.1-.432-.248-.616-.359-.079.062-.192.145-.275.205h-.015c.675.657.675.657.789,1.07-2.451-2.4-2.451-2.4-2.746-2.406-.019.113-.047.265-.064.379-.09.042-.216.1-.308.145a1.334,1.334,0,0,0-.624-.175.955.955,0,0,0,.645.8,3.182,3.182,0,0,0,.06.351l.368.171c-.049.084-.113.2-.165.3-.09-.047-.216-.111-.314-.154a2.544,2.544,0,0,0-.361.276c.235,1.625.235,1.625.868,1.908-.633.406-.633.406-.749.684.077.132,2.838,1.777,2.851,1.771.088.064.207.141.3.2l-.011,0v0c-.1-.026-.231-.077-.325-.112-.1.045-.231.11-.329.157-.744-.263-.755-.265-1.054-1.012a2.438,2.438,0,0,1-1.044-.111c-.055.083-.134.195-.192.278.1.055.226.115.314.16-.1.028-.235.06-.331.082a1.077,1.077,0,0,0,.59.363c-.069.077-.169.175-.233.246-.329-.083-.329-.083-1.258-.986a6.685,6.685,0,0,0,1.551,2.1,2.8,2.8,0,0,0,.671-.259c.5.261.768.892,1.437.858-.066.077-.16.177-.231.254a7.278,7.278,0,0,1-1.167-.939,2.3,2.3,0,0,1-.229.247c.122.573.721,1.041.349,1.712a2.263,2.263,0,0,1,.575.453c-.2-.07-.451-.171-.635-.258,0,0-.017.015-.017.015s-.005.006-.016.006l-.014,0s-.007,0-.013,0-.009.006-.017.006-.011,0-.011.008-.017,0-.017,0a.022.022,0,0,0-.017.006c-.12,0-.27.009-.387.011.13-.171.327-.381.476-.539-.077-.3-2.234-3.731-3.389-3.468.212.769.6,1.486.841,2.247.1.024.1.024.894.652a3.619,3.619,0,0,1-1.852-.353,2.234,2.234,0,0,0-.539.407c.088.1.209.231.3.333-.026.1-.055.242-.077.342-.1-.036-.248-.089-.351-.132-.485.28-1.024.468-1.5.767,0-.1-.008-.239-.008-.339-.1-.007-.24-.017-.34-.028a13.528,13.528,0,0,1-1.1.981c0,.62-.073.65-.452.8a2.749,2.749,0,0,1-.22-.269,2.51,2.51,0,0,0,.041-.8,1.542,1.542,0,0,0-1.048-.385c.44.432.44.432.321.907.235.325.235.325.128.953-.075-.076-.175-.168-.246-.233-.411.019-.494.024-.793.5a1.7,1.7,0,0,0,.423.563,6.055,6.055,0,0,1-.731.064c.023-.051.051-.122.068-.175-.094-.041-.229-.1-.331-.139-.045.107-.1.237-.152.335a1.942,1.942,0,0,1,.451.608c-.966.013-1.187-1.072-1.99-1.32l-.244-.121h0l.01,0h.013a1.076,1.076,0,0,0-.368-.538c2.481.448,2.481.448,2.877.027-.017-.135-.035-.314-.047-.453-.967-.742-2.459-.355-3.24-1.5-.083,0-.071.021-.068.051a2.312,2.312,0,0,0-.682.075c.062-.083.151-.195.211-.28-.049-.1-.117-.252-.171-.364l-.145.088c-.094.034-.218.083-.317.116-.042-.092-.094-.218-.134-.31a1.148,1.148,0,0,0-.467.466v-.355a1.839,1.839,0,0,0-.423.568c.021-.117.047-.271.06-.4-.079-.06-.173-.156-.253-.216a1.105,1.105,0,0,0-.57.4c-.116-.024-.27-.065-.388-.094a2.493,2.493,0,0,0-.3.333l-.34-.133c-.062.078-.137.184-.2.266-.046-.047-.091-.112-.136-.159,0,.1-.015.248-.022.351-.04.017-.092.041-.135.058l-.175-.083c-.07.19-.167.448-.239.632l-.349.125c.1.019.233.047.33.07-.069.079-.172.184-.244.269-.086-.059-.2-.124-.291-.175.038.1.075.233.111.34-.59.462-2.425,2.012-2.444,2.031.1.009.244.009.344.011a1.313,1.313,0,0,1-.575.349c-.085-.075-.186-.161-.272-.229a.956.956,0,0,0-.376.468l-.186-.12c-.09.007-.226.022-.329.035-.051.1-.124.22-.175.321-.1,0-.232,0-.336.01.042.073.1.16.143.225-.212-.022-.494-.052-.712-.06.081.068.194.156.269.22-.117.03-.276.077-.4.1a.954.954,0,0,0,.566.274,1.265,1.265,0,0,1-.669.07c-.015.058-.036.143-.049.212l.075.3h.026a1.04,1.04,0,0,0,.632-.1,3.014,3.014,0,0,1-.618.526c.084.075.182.171.264.241-.075.1-.157.221-.225.325.169.522.169.522,2.245.026a1.974,1.974,0,0,0,.319.5.975.975,0,0,0,.389,1,4.251,4.251,0,0,1-.16.7,1.2,1.2,0,0,0,.654.144c.079-.135.079-.135,1.291-.648-.111-.447.112-.905-.07-1.348.468-.076,1.881-.292.838-1.113-.085-.058-.2-.131-.284-.184a3.565,3.565,0,0,1,.006-1.161c.49-.377,1.061-.619,1.568-.986.012-1.529.99-1.125,1.419-.886,0,.109.011.251.011.347-1.959,1.884-1.345,2.322-.945,2.611.1.047.226.1.318.141-.042.1-.1.244-.143.342a1.633,1.633,0,0,1,.665.15,6.734,6.734,0,0,0,.593-.349l.154-.038.079.006a7.2,7.2,0,0,0,.791-.246c.049.1.111.223.156.319a2.527,2.527,0,0,1,.7.244c-.317.183-.7.2-1.012.354-.342.03-.346.03-.354.03h-.188a2.058,2.058,0,0,0-1.1.28c-.024.417.1.822.051,1.234-.1.041-.248.095-.355.137a1.541,1.541,0,0,0-.6-.336c-.308.385-.308.385-.449,1.465-.118,0-.265.007-.378.019-.308.77-.653.591-1,.315-1.262.243-2.985.573-3.8-.173.582-1.179.582-1.179.633-1.208-.124-.161-.293-.373-.43-.525l.323-.126c.026-.106.066-.246.088-.348a3.659,3.659,0,0,1-1.117.449c.1.006.242.019.336.025.056.088.124.214.182.306-.227.013-.526.049-.744.079.057.539.22,1.059.274,1.6-1.144,1.229-3.349-.334-4.207,1.608-1.2.325-1.2.325-1.475.316-.051-.085-.128-.2-.177-.28a.958.958,0,0,0,0,.652,9.8,9.8,0,0,0-1.724-.152c-.023.1-.055.234-.073.345.317.113.571.38.924.415.734,2.2.734,2.2.143,2.478-1.439.716-2.465-1.039-3.846-.657a22.018,22.018,0,0,0-.838,2.479,1.664,1.664,0,0,1-.041.673,9.8,9.8,0,0,0,3.235,1.213l3.856-2.453c.106-.244.322-.6.579-.678.894-.263,1.849.1,2.728-.288.041.021,3.909,2.7,3.261,3.964.08.06.184.148.266.207a6.515,6.515,0,0,0,.513-.662,1.736,1.736,0,0,1-.184-.792,2.663,2.663,0,0,1,.693.313c-.017-.114-.037-.272-.054-.4-.65-.313-.65-.313-2.9-2.273a1.274,1.274,0,0,0,.252-.644c.1-.015.254-.049.357-.075a2.456,2.456,0,0,1,.383.577c.077-.094.179-.214.252-.307.731.827.731.827,2.788,2.187-.1.783-.012.947.858,1.612l.1.007h.017c-.037.094-.095.222-.137.323.214.055.485.13.693.2-.112-.006-.257-.012-.36-.019-.032.113-.075.253-.111.353.06.1.141.22.2.3l.325.012h.186c.162-.122.391-.278.573-.391-.06-.1-.139-.242-.205-.338a2.134,2.134,0,0,1,.748.238,2.6,2.6,0,0,0-.522-.546c-.271-.064-.271-.064-.277-.064h-.011l-.225.111a3.868,3.868,0,0,1,.034-1.152c.054.094.118.211.165.3.1,0,.238-.008.336-.012-.019-.107-.041-.255-.062-.362a2.827,2.827,0,0,1,1.685.255,2.944,2.944,0,0,0,1.092-.484c-.562-.41-.562-.41-.692-.759.455-.639,2-2.444,2.007-2.45.043.1.107.212.154.3a1.781,1.781,0,0,0,.7-.019c-.06.092-.15.22-.22.31a2.577,2.577,0,0,1,.291.744c.489-.13.926-.4,1.4-.56-.013-.115-.025-.115-.03-.115h-.023l-.03,0h-.028a.051.051,0,0,1-.03.006c-.006,0-.011,0-.026,0a.087.087,0,0,0-.03,0h-.034c-.136.006-.136.006-.936-.385.757-.257,1.494-.574,2.245-.843-.058.094-.139.231-.2.329-.088.052-.208.109-.3.156.066.067.16.178.226.244a5.713,5.713,0,0,1-.57.5c2.309,1.172,2.309,1.172,2.458,1.677-.342.4-.975,1.137-3.126.3a6.724,6.724,0,0,0-3.136.644c.109.015.248.029.357.036-1.763.642-1.763.642-1.865.911.1.023.242.055.344.071.037.1.084.213.122.307-.085.052-.2.12-.287.176.5.528,1.544,1.629,2.3,1.045l.219-.06c.761.184.761.184,2.512-.278.1,1.268.1,1.268.218,1.442-1.409,2.162-1.409,2.162-3.714,1.993-1.677-.12-3.092-1.867-4.969-.8-.1.055-.244.115-.347.162a2.33,2.33,0,0,0-.088.7c-1.022.616-4.167-1.189-5.469-2,.275-.776.729-1.749.729-1.749a17.916,17.916,0,0,1-1.79-.246l-.285-.047c-.062,0-6.667.381-7.55-.522-.1,0-.233,0-.335.011a2.475,2.475,0,0,1-.214.3c-.559.56-1.446.451-2.008,1-.426.415-.049,1.123-.552,1.51a12.855,12.855,0,0,1-2.209.986c-2.326,1.877-2.326,1.877-2.247,2.886a4.035,4.035,0,0,1-.717,3.137c2.068,5.819,2.205,5.838,9.743,6.719-.058-.09-.127-.218-.182-.31.5.305.5.305,1.828.13l.165.043h-.011v-.006c1.088.4,2.008,1.139,3.135,1.445l.272-.058c1.111,1.087-.078,2.493-.1,2.5v.372c1.893,1.728,1.893,1.728,2.784,4.728-1.629,2.752-1.629,2.752.15,4.306-.256,1.561,2.277,2.029,1.5,3.793.054.084.129.2.186.285,2.017.425,8.092-.088,8.075-2.7.539-.22,1.221,0,1.655-.539a1.151,1.151,0,0,0-.1-1.4c.811-1.232,2.421-1.013,3.443-1.884,1.26-1.064-.122-2.41.391-3.553-.337-.407-.385-.46-.06-1.057,1.82-3.368,6.043-4.777,7.175-8.714-.11-.049-.253-.115-.362-.166-2.425,1.156-2.709,1.06-4.031.59.062-.092.167-.22.238-.306-.208-.71-1.559-1.492-2.047-1.61a3.1,3.1,0,0,0-1.276-1.871c.22-2.28-1.916-3.381-2.62-5.19a8.774,8.774,0,0,1,.847.721c.077-.1.163-.214.225-.31.034.011,2.611,1.92,2.356,3.393l2.241,2.819c.287,1.372.287,1.372,2.143,1.171h.03c6.126-2.893,6.352-6.344,5.531-6.616-.793-.267-.842-.288-1-1.032-1.525,1.437-1.525,1.437-2.328,1.326a5.664,5.664,0,0,0-.061-.71,2.141,2.141,0,0,1-.617.243c-.231-.893-1.012-1.488-1.243-2.384,1.508.27,2.795,1.446,4.463,1.121.209.231.209.231,4.368-.435.041.092.09.217.124.311a1.863,1.863,0,0,1,.627.292c.107-.031.237-.064.334-.089,0,.1,0,.231.006.333.53.158.639.047.864-.28-.1.362-.385.65-.494,1.01a1.549,1.549,0,0,0,.684.316c.361-.321.436-.377.471-1.114,1.58,1.837.725,4.463,2.065,6.389a2.674,2.674,0,0,0,.885-1.843,14.194,14.194,0,0,1,2.543-7.142c.44-.471.44-.471.412-.9.1-.017.236-.03.347-.043.079.226.186.534.265.755.083-.05.2-.118.289-.169.156.789.415,1.856.421,1.856a2.017,2.017,0,0,0,.3-.684c.094.046.215.107.309.16.535,1.856.127,3.789.512,5.66a2.431,2.431,0,0,0-.039-2.6,12.649,12.649,0,0,1,.051-2.333l.052-.25a1.227,1.227,0,0,1,.564,1.18c.8-2.454-.38-4.92.022-7.375.034.1.089.236.124.345a18.222,18.222,0,0,0,.032-2l.032-.154v-.005c-.024-1.62-.024-1.62-2.318-9.034a3.556,3.556,0,0,0,.134.718c-.218-.237-.218-.237-.942-2.32a4.408,4.408,0,0,1,.324.65h.03c.028.09.08.216.114.31-.113-.342-.237-.675-.355-1.015a8.443,8.443,0,0,1,.656,1.334c-.209-.47-.479-1.095-.688-1.563l-.011-.041a40.336,40.336,0,0,0-3.462-5.987c-.626-.829-1.452-1.946-2.115-2.745.08.1.189.232.266.331a38.658,38.658,0,0,0-8.684-7.756m-12.36,15.723a.1.1,0,0,1-.089.094c-.142,0-.362-.231-.413-.331.18.032.319.18.507.2a.059.059,0,0,0-.005.034m.685,1.29a.374.374,0,0,1-.135.243.361.361,0,0,0-.109-.16,2.341,2.341,0,0,0-.4-.295c-.1-.041-.128-.066-.1-.081l.1-.167c.052-.041.122-.028.18-.043.1-.04.077-.207-.139-.2-.126.008-.167-.022-.22-.157.383.052.383.052.445.118a.169.169,0,0,1,.046.135.273.273,0,0,0,.065.207c.077.094.19.156.248.263a.258.258,0,0,1,.03.133m-12.08-.71a.008.008,0,0,1-.008.008c-.007,0-.013-.008-.026-.03a.068.068,0,0,0-.013-.03.679.679,0,0,0,.047.052m-.047-.056v0Zm10.624,1.26c.017.045.038.1.057.147a1.17,1.17,0,0,1-.387.111.316.316,0,0,1-.295-.154c-.056-.077-.092-.166-.147-.241-.084-.114-.187-.206-.257-.321a.1.1,0,0,1,.015-.13.446.446,0,0,1,.184-.047c0-.193.248-.088.31-.024.028.032.041.085.085.113a1.841,1.841,0,0,0,.272.148.817.817,0,0,1,.336.451Zm-7.867.885c-.075.156-.082.186-.231.246a1.1,1.1,0,0,1-.473.07h-.006l0,0h-.014c.025-.087.014-.182.07-.258a.341.341,0,0,1,.032-.035.369.369,0,0,1,.188-.066c.045,0,.071,0,.088-.024a.252.252,0,0,0,.039-.154.106.106,0,0,1,.036-.072c.068-.049.207.072.261.173.032.075.025.111.015.122m19.717,9.817c-.008.117-.141.173-.135.306a3.113,3.113,0,0,0-.511.038c-.053-.137-.062-.165-.205-.156.03.066.158.426-.017.618.034.028.034.028.62-.145-.4.143.2.583.218.889a.071.071,0,0,1-.034.006.682.682,0,0,1-.058-.046l-.03.032a1.175,1.175,0,0,0,.146.5c.184.423-.024.6-.107.506a.174.174,0,0,1-.019-.089c-.24.087-.43.282-.678.35a.942.942,0,0,1-.4-.079c-.167-.051-.311-.137-.479-.184s-.362.015-.51-.106c-.029-.024-.4-.46-.32-.762l.16-.113a.147.147,0,0,0-.011-.049c-.081-.064-.081-.064-.089-.094.186-.212.06-.7.455-.693-.047-.071-.073-.1-.3-.2-.2-.081-.2-.081-.853-.648a1.313,1.313,0,0,1-.5-.834c-.011-.133-.011-.139-.049-.178-.122-.109-.261-.012-.394-.066a.272.272,0,0,0,.1-.15l.071-.823c-.017-.141.175-.165.175-.295a.272.272,0,0,1,.222.222c.131-.092.161-.139.161-.245a.3.3,0,0,1-.161,0c-.012-.052-.012-.052.032-.107.033.027.043.032.116.027.006,0,.705-.246.847-.6.017-.045.044-.14.149-.123.137.016.225.167.379.15a.873.873,0,0,1,.291.022c.111.03.226.064.337.1a.714.714,0,0,1,.27.115.418.418,0,0,0,.032.028c.054.077.045.173.1.25s.19.055.243.152a.467.467,0,0,1-.012.316l-.52.584c-.09.066-.19-.013-.25-.058.4-.224.475-.363.5-.423,0-.017-.017-.034-.02-.052-.618-.119-.714-.089-.62.172a2.271,2.271,0,0,1-.449.094.223.223,0,0,0,.314.2v.045c-.154.154-.423-.062-.547.175.021.068.036.1.244.148a.582.582,0,0,1,.38.423c.189.021.437.055.627.073-.058.611-.058.611.141.682.073-.308.361-.515.475-.357a.726.726,0,0,0,.466.374.339.339,0,0,1,0,.077m2.545-2.778c.012.071-.017.073-.039.084h-.008v.01h-.007c-.062,0-.056.026.032.173a.005.005,0,0,1-.006,0v0h0c-.2.094-.2.366-.2.419-.106.177-.106.177-.421.31a.229.229,0,0,0-.1-.237,1.742,1.742,0,0,0-.078.447c-.04-.03-.092-.069-.138-.1.237-.081,0-.323-.007-.323-.049-.021-.107.009-.235.114a.466.466,0,0,1-.156.113.6.6,0,0,0-.082-.218.719.719,0,0,1-.091-.2c0-.03-.011-.053-.017-.077-.011-.06.044-.1.038-.16-.009-.1-.1-.159-.092-.266,0-.025.03-.042.039-.07.092-.133.1-.319.269-.4a1.179,1.179,0,0,0,.032.207c.051.011.06-.025.06-.025.051-.1-.06-.216,0-.319s.226-.052.273-.18c.028-.075.028-.075-.045-.184a.7.7,0,0,1,.253-.06c.066-.025.066-.047.017-.121a.617.617,0,0,0,.259-.035c.006.291-.116.58.013.864.091.236.267.216.444.2,0,.013,0,.021,0,.036m11.987,8.307c0,.007-.017.03-.028.06a.1.1,0,0,0-.038.05c.012-.03.015-.075.032-.092,0,0,.034-.026.034-.018" fill="#212975"/>
      <path id="Tracé_1877" data-name="Tracé 1877" d="M4594.437,4607.023l.06.017a3.724,3.724,0,0,0,.851-.271.021.021,0,0,1-.005-.011,1.76,1.76,0,0,1-.434.094,1.052,1.052,0,0,0,.293-.1c-.032.008-.077.008-.107.013,0-.005.011-.007.013-.013a3.775,3.775,0,0,0,.377-.084.151.151,0,0,1-.011-.032,4.224,4.224,0,0,1,.772-.263h-.017a.312.312,0,0,0-.075.024.819.819,0,0,1,.085-.043c-.091.019-.184.049-.275.068a.291.291,0,0,0,.034-.019,1.728,1.728,0,0,0-.274.064,1.2,1.2,0,0,1-.312.094c-.1,0-.188.075-.295.095a2.772,2.772,0,0,1,.571-.3c.094-.034.733-.342.733-.342a.233.233,0,0,0-.053,0c.036-.019.074-.036.109-.058-.114.013-.205.069-.315.086,0-.011,0-.011.054-.058-.1-.047-.135.088-.218.088a.193.193,0,0,1,.015-.052s-.054-.019-.257.1v0c-.109.045-.118.049-.143.049a.234.234,0,0,0,.1-.009c-.011.018-.013.018-.079.035-.124.019-.147.044-.152.053a2.156,2.156,0,0,0,.43-.088,1.039,1.039,0,0,1-.288.088c-.221.043-.24.107-.24.126h.053c-.209.1-.256.141-.271.146a.363.363,0,0,0,.092,0,.391.391,0,0,1-.195.036c-.006,0-.006-.006-.015-.011a.017.017,0,0,0,.009-.017c.019-.036.075-.043.094-.083.013-.024-.019-.06,0-.083-.1.023-.419.123-.419.224.049.039.1-.008.145,0,0,.006,0,.013-.006.013l-.084.139c-.079.06-.179.088-.248.143a.535.535,0,0,1,.1-.013c-.007.013-.007.013-.056.043-.015.017-.036.024-.053.043Z" fill="#212975"/>
      <path id="Tracé_1878" data-name="Tracé 1878" d="M4593,4609.923c-.193-.066-.331.162-.513.094-.03-.053.017-.107.008-.163v-.008c.037-.1.15-.124.193-.223-.272.138-.235-.047-.235-.047.015-.057.079-.091.091-.151-.019-.022-.049-.011-.061-.024.017-.058.113-.041.124-.111a.09.09,0,0,1-.026-.024c0-.017,0-.042,0-.059-.058-.017-.058-.017-.073-.03.079-.141.252-.124.355-.208-.169.043-.276.054-.276-.081.086-.03.1-.036.122-.047v-.011c-.066-.021-.066-.021-.067-.027a.172.172,0,0,1,.078-.052c.324-.137.673-.2.994-.342.179-.073.318-.222.5-.291-.04-.008-.083,0-.119-.008a2.61,2.61,0,0,1,.314-.248,1.225,1.225,0,0,1,.507-.163.251.251,0,0,0,0,.026.683.683,0,0,0-.113.057.075.075,0,0,1-.022.02c-.041.045-.066.107-.1.149a.475.475,0,0,1-.15.082c-.107.049-.1.051-.1.079a.373.373,0,0,1-.018.132c-.038.028-.106.047-.141.073a3.5,3.5,0,0,1-.372.244c0-.083-.01-.1-.068-.088-.019.052-.084.071-.184.075.028.007.073.024.109.032l-.143.045.01.008a.35.35,0,0,0,.077.011c-.042.017-.042.017-.2.066a.662.662,0,0,1-.18.253.3.3,0,0,1,.113-.028c0,.071-.1.077-.091.146.218.089.218.089.224.121s.008.022-.088.148c-.012.028-.012.028,0,.13l0,.009-.131.073c-.043.061-.043.153-.094.2a.794.794,0,0,1-.243.177.086.086,0,0,0-.024-.017" fill="#212975"/>
      <path id="Tracé_1879" data-name="Tracé 1879" d="M4593.572,4607.978v-.019c-.038.019-.09.037-.135.054,0,0-.13-.231.469-.418.04.033.1.03.184,0,.013-.193.013-.193.053-.219a2.736,2.736,0,0,1,.289-.053c-.024.053-.086.066-.128.1a5.275,5.275,0,0,0,.571-.187l.074-.029c.1-.024.107-.024.116-.018-.235.165-.55.171-.791.336v.005s0,.006-.009.006c.034.013.069-.006.107-.021a.53.53,0,0,1,.071-.035l.412-.132v.006c-.008.017-.019.023-.019.036.043.017.049.013.094-.03a.222.222,0,0,1,.231-.04c-.282.081-.417.117-.423.149.1.08.209-.145.26-.038a.205.205,0,0,1-.076.058c-.047.017-.094.013-.144.03s-.1.062-.158.077c-.113.043-.24.079-.364.115a5.975,5.975,0,0,1-.684.265" fill="#212975"/>
      <path id="Tracé_1880" data-name="Tracé 1880" d="M4622.4,4615.845c.077.36-.449.36-.408.7-.1-.071-.12-.048-.144.04-.036.116-.17.1-.235.178s-.047.184-.109.261c-.01.012-.028.017-.045.034.013.011.013.011.065.088-.02.032-.02.032-.142.044a.079.079,0,0,0,0,.06,1.339,1.339,0,0,1-.183.176c.036.036.083.081.117.113-.066.083.071.19-.028.265h-.006c-.062-.086-.092-.086-.139-.086.013.033.013.033.162.221-.029,0-.055.013-.085.015a.514.514,0,0,1,.073.119.1.1,0,0,0-.011.016.4.4,0,0,1-.15-.031c.25.356.047.325,0,.319a1.233,1.233,0,0,0-.154-.062.191.191,0,0,1,0,.062c-.047.024-.077.013-.231-.036.032.12.079.1.179.055l.011-.006h.006c.242-.013.242-.013.477.432a.259.259,0,0,0-.032.043.088.088,0,0,0,.022.042c.015.039.061.067.083.11s.026.044.015.1-.015.066.216.325l.137.137c.2.254.521.177.769.307-.023.028-.053.071-.076.1-.114.025-.225-.034-.336-.034a1.3,1.3,0,0,0,.182.22c-.048-.053-.048-.053-.206.006-.085.034-.156-.038-.237-.049a.583.583,0,0,0,.036.18,1.23,1.23,0,0,0-.346-.062c-.039.171-.188.027-.188.023a.132.132,0,0,1,0-.04c.018,0,.039-.013.06-.018-.006-.015-.006-.015-.166-.185a2.073,2.073,0,0,0,.183-.1c-.023-.047-.049-.094-.083-.154-.143.107-.25.113-.327-.179-.034.014-.081.036-.111.045a.3.3,0,0,0,.015.038c-.02.019-.02.019-.216-.023,0,.059.006.132.012.192h-.006c-.032,0-.286-.011-.357-.47.026-.022.026-.022.154.008v-.056a.206.206,0,0,0,.032-.017c-.006-.036-.006-.036-.107-.134.036-.02.036-.02-.008-.167a.4.4,0,0,1,.023-.037h.026c-.184-.228-.184-.228-.2-.288.2-.1.235-.129.223-.291-.022.019-.045.054-.063.071l-.085-.071c-.03-.165-.041-.248.094-.239-.122-.078-.248.036-.378,0a.274.274,0,0,1,0-.07.067.067,0,0,1,.03-.007h.006v-.008a.072.072,0,0,0,.034,0,.039.039,0,0,1,.009-.025,1.791,1.791,0,0,1,.16-.252.277.277,0,0,0-.071-.124.432.432,0,0,1,.052.021c.008-.015.011-.028.019-.034a.259.259,0,0,1-.054-.137c.033-.019.033-.019.208.015-.175-.139-.175-.139-.126-.216-.022,0-.039.011-.071.017-.011-.058-.011-.058.161-.109.012-.043-.018-.083-.018-.126a.251.251,0,0,1,.253-.052c.008-.032.023-.068.032-.1l.1-.237c.03-.108.191-.1.206-.236a.982.982,0,0,0,.175-.019c-.1-.116-.109-.122-.126-.165.1-.2.333.071.474-.077a4.21,4.21,0,0,0,.225-.363.252.252,0,0,0,.079,0c-.036-.229-.036-.229.041-.308.028,0,.028,0,.282.137.008.1.126.1.143.179" fill="#212975"/>
      <path id="Tracé_1881" data-name="Tracé 1881" d="M4596.559,4605.862a.055.055,0,0,0-.034.007.678.678,0,0,0-.12.011.4.4,0,0,0-.113.019c-.054.011-.054.011-.054,0,.09-.077.36-.118.347-.075v.009c.1-.024.109-.011.115-.011l-.006,0a.638.638,0,0,1-.135.034" fill="#212975"/>
      <path id="Tracé_1882" data-name="Tracé 1882" d="M4593.205,4608.4c-.269.084-.282.084-.31.077,0-.028,0-.03.1-.077a.069.069,0,0,0,.045-.028c-.007,0-.007,0-.043,0a.583.583,0,0,1,.143-.1c.132-.083.15-.1.132-.118a.561.561,0,0,1,.2-.062,1.064,1.064,0,0,1,.221-.006c.046,0,.083-.03.123-.036s0,.059,0,.059l0,.013a2.594,2.594,0,0,1-.6.276" fill="#212975"/>
      <path id="Tracé_1883" data-name="Tracé 1883" d="M4601,4616.222c-.007,0-.013.017-.022.017-.053.013-.1-.012-.154.011a.061.061,0,0,0-.038.013.17.17,0,0,1-.1.019c-.077,0-.067-.053-.067-.066.009-.053.022-.066.163-.27a.771.771,0,0,0,.192-.019c-.171.171-.068.2.011.2a.248.248,0,0,0,.066-.013c-.01.047-.019.09-.055.107" fill="#212975"/>
      <path id="Tracé_1884" data-name="Tracé 1884" d="M4600.283,4616.288a.4.4,0,0,1-.1.1c-.011-.075.041-.137.12-.218.011.013.043.042-.019.119" fill="#212975"/>
      <path id="Tracé_1885" data-name="Tracé 1885" d="M4599.8,4616.585c-.067.066-.223,0-.287-.041.052-.13.1-.173.163-.154s.1.112.152.159a.081.081,0,0,1-.028.036" fill="#212975"/>
      <path id="Tracé_1886" data-name="Tracé 1886" d="M4591.318,4608.855c-.253.07-.331-.037-.272-.141.028-.048.028-.048.467-.293a2.706,2.706,0,0,0,.4-.234c0-.006-.006-.006-.01-.008a.166.166,0,0,0-.073.03c.008-.006.6-.411.746-.332-.376.131-.447.287-.447.287a.515.515,0,0,0,.362-.128c.015-.015.353-.229.523-.157a.555.555,0,0,0-.252.142c.043.019.084-.011.116-.035s.137.024.1.11c-.066.074-.145-.03-.218-.018-.141.2-.141.2-.44.31a.247.247,0,0,0,.049-.079l-.006-.012c-.078-.015-.246.109-.246.109v0c-.013.03-.056.068-.349.173a.142.142,0,0,0,.1.041c-.186.072-.357.177-.551.231" fill="#212975"/>
      <path id="Tracé_1887" data-name="Tracé 1887" d="M4579.532,4658.114c.006-.443-.516-1.954-1.142-2.034a5.887,5.887,0,0,0-2.566-2.525.421.421,0,0,0-.1-.274.955.955,0,0,0-.13-.511c-.052,0-.118-.012-.176-.017-.029-.16-.391-1.086-.848-.985,0,.061,0,.13,0,.19a.769.769,0,0,0-.332-.028,1.183,1.183,0,0,1-.468-.823.725.725,0,0,0-.137.385c-.054-.159-.054-.338-.1-.492-.3-.173-.691-.1-.941-.366a1.159,1.159,0,0,1,.263.2,3.345,3.345,0,0,0,.712-.053,2.455,2.455,0,0,1,.166-.359c.058.087.139.211.2.3a.783.783,0,0,1,.126-.325,1.386,1.386,0,0,1-.166-.028.555.555,0,0,0-.043-.316c.043-.03.1-.075.152-.107-.655-.988-.514-2.254-1.13-3.255a1.151,1.151,0,0,0-.361-.414.9.9,0,0,0-.167.017,3.623,3.623,0,0,0-.316-.93c-.017.051-.039.124-.06.173a.144.144,0,0,1-.036-.019l-.052.042c.233-1.176-.211-1.507-.6-1.8a.787.787,0,0,0,.305-.122c.05-.327-.19-.571-.233-.87.036,0,.073-.024.107-.026-.085-.15-.164-.289-.246-.441,0,.041.021.1.022.152-.554-.355-.663-1.362-.781-2.425a1.906,1.906,0,0,0-.008.415c-.037-.043-.09-.1-.124-.139a2.993,2.993,0,0,0-.1.794c-.2-.52.113-.993.118-1.493-.1-.019-.219-.056-.315-.071a1.3,1.3,0,0,0-.248.781,6.721,6.721,0,0,1,0-1.146,19.746,19.746,0,0,1,.608-5.032c-.225,1.343-.522,3.142-.665,4.491v.008s-.039.486-.063.993c.016-.122.03-.3.037-.419a17.542,17.542,0,0,1-.037,2.117,34.4,34.4,0,0,0,1.514,11.812l.026.1a38.535,38.535,0,0,0,5.386,11.05l.851,1.162.035.04a1.5,1.5,0,0,0,.122.15c-.246-.849-.984-1.362-1.39-2.1a7.455,7.455,0,0,0,1.065,1.394c.027-.036.07-.094.1-.141a3.169,3.169,0,0,1-.246-.7c.163.13.178.137.27.419a9.563,9.563,0,0,0-.584-1.856,1.169,1.169,0,0,0,.094-.135c.654.15.654.15.7.186a1.107,1.107,0,0,0-.08-.139,2.071,2.071,0,0,1,.631.259c.047-.03.092-.079.137-.107a1.334,1.334,0,0,0-.062-.372c.265-.248.265-.248.015-3.233a2.667,2.667,0,0,1,.256.286c.112-.6.991-.6,1.036-1.287m2.35-34.878c.051-.028.051-.028.361-.475-.007-.017-.034-.032-.047-.04-.094-.623-.094-.623-.77-.633a.727.727,0,0,1,.026-.126,3.4,3.4,0,0,0,.863.107.518.518,0,0,0,.092-.281c0-.006-.014-.008-.019-.014a.675.675,0,0,0-.1-.077c.021-.054.045-.124.059-.17-.027-.036-.062-.074-.087-.108a.439.439,0,0,0-.051-.236c.149-.29.173-.624.344-.906-.02-.011-.058-.013-.088-.024.043-.025.086-.058.122-.083,0-.028.008-.065.009-.1a.656.656,0,0,1,.124-.039c.014.039.027.1.044.135.336-.253.338-.723.648-1a.494.494,0,0,0-.049-.12c.319-.372.541-.821.9-1.173-.46.049-.808.4-1.255.464.237-1.221.689-1.392,1.09-1.536.009-.081.022-.182.026-.265a.83.83,0,0,1,.141-.039c-.246-.5.36-.7.391-1.109-.168-.03-.168-.03-.188-.528-.314-.039-1.514,1.037-1.531,1.049-.109-.03-.109-.03-1.6,1.591a1.171,1.171,0,0,0,.136-.068l-.173.212c-1.169-.189-1.364,1.058-2.14,1.449-.024-.029-.062-.072-.086-.1,1.072-2.145,2.878-3.762,4.213-5.727l-.017-.032a2.319,2.319,0,0,1,1.646-.84v-.006h.013v0l0,0a.88.88,0,0,0,.011.122,5.086,5.086,0,0,0,.631-.359c.026.038.064.068.087.107-.023.025-.055.073-.085.1.038.026.079.052.118.075.4-.239.4-.239.575-.682a.95.95,0,0,0,.284-.094c-.156.176-.267.379-.41.563.235-.035.235-.035.459-.231.007.047.013.1.015.147-.057.068-.137.143-.186.214.173-.024.173-.024.377-.248a.976.976,0,0,1-.193.271c.438.018.438.018,1.345-.519a2.457,2.457,0,0,0,.593-.238c.1-.273.416-.391.489-.7-.53.035-.913.447-1.405.567-.3.118-.3.118-.4.118.368-.543,1.048-.614,1.527-.993-.223-.036-.408.1-.622.152.2-.2.205-.207,1.689-1.048a.721.721,0,0,0-.137.071.158.158,0,0,1,.015.068c.282-.154,1.617-1.009,1.625-1.02a1.364,1.364,0,0,1,.269.184.959.959,0,0,0,.982-.617c-.041.008-.092.014-.132.023.012-.032.04-.083.051-.116a13.375,13.375,0,0,0-1.937.732.415.415,0,0,0,.111-.094,10.847,10.847,0,0,0-1.129.457c-.007.045-.017.088-.02.129-.068.049-.168.111-.237.166a.935.935,0,0,0,.062.112c-.421.049-.671.143-.719.267a1.084,1.084,0,0,0-.874.25,1.5,1.5,0,0,1,.78-.517c-.019,0-.044,0-.066,0a1.936,1.936,0,0,0,.5-.355,1.229,1.229,0,0,0-.432.2l-.025-.053.13-.12c.554-.509,1.266-.817,1.784-1.373-.27.013-.295.065-.4.283-.18-.064-.18-.064-.728.228a17.158,17.158,0,0,1,1.985-1.178.941.941,0,0,1-.12.066c.988-.418,1.909-.992,2.921-1.359-.053.012-.124.038-.182.055.689-.274,1.29-.49,1.724-.639-.195.058-.195.058-1.542.567a40.2,40.2,0,0,0-4.9,2.334,43.17,43.17,0,0,0-6.111,4.3,39.124,39.124,0,0,0-6.974,7.84,37.14,37.14,0,0,0-3.117,5.632l0,0-.084.169v.006c-.038.08-.075.184-.107.253.017-.035.041-.094.062-.131-.068.171-.141.338-.205.516.1-.244.205-.484.306-.729a3.615,3.615,0,0,1-.173.547l.051-.075-.09.3c0,.008-.853,2.534-1.144,3.652.815-.977.777-2.384,1.662-3.327a.725.725,0,0,1,.128.042c.363-.26.363-.26.426-.493.014.038.03.092.044.132a.435.435,0,0,0,.082-.242c.149-.113.149-.113.346-.748l.039.124a1.937,1.937,0,0,1,.415-.785c.047-.068.115-.16.158-.231h.132a4.338,4.338,0,0,0-.519.871c.113-.05.113-.05.483-.652a1.689,1.689,0,0,0-.028.267c.3-.144.4-.674.864-.552a.675.675,0,0,1,.055.113c.048-.029.1-.06.142-.083a.86.86,0,0,0-.011.165c.03.017.077.053.111.072.088-.427.088-.427.6-.759.032.035.064.082.087.107a.953.953,0,0,0,.231-.16c-.012.047-.028.118-.042.171l.094-.088a.949.949,0,0,0,.019.135c.043,0,.1-.006.148-.011a1.755,1.755,0,0,0,.186-.284,1.171,1.171,0,0,1,.077.265c.061-.062.143-.141.205-.194-.011.038-.022.094-.035.13.041.013.1.026.142.041.074-.056.152-.146.22-.206.009.028.023.077.034.118a1.558,1.558,0,0,1-.231.177.766.766,0,0,0,.139.251c-.057.04-.126.081-.186.119a.388.388,0,0,0-.145-.2c-.541.383-.541.383-.554.6.028.017.064.049.1.073a.692.692,0,0,1-.057.118c.194-.005.314-.17.479-.244-.007.047-.015.107-.019.147a2.851,2.851,0,0,1,.7-.064.6.6,0,0,1,.151-.344c-.1.013-.224.025-.316.03.047-.182.047-.182-.028-.426.043-.03.1-.06.135-.087-.083-.24-.068-.251.244-.653-.028-.034-.064-.07-.094-.1.329-.225.329-.225.3-.415-.032-.013-.088-.034-.126-.047a2.819,2.819,0,0,1,.115-.265v.141c.041.013.095.024.137.036.041-.042.1-.094.137-.132.047,0,.1.006.145.006.571-.936-.31-.812-.412-.8-.144.017-.144.017-.909.372.539-.374.539-.374.58-.544.417.17.7-.262,1.088-.245l.817,1.186Zm-10.816,8.158c.064-.208.126-.415.188-.623-.088.3-.209.706-.3,1.014l.025-.073c.026-.1.056-.207.088-.318m20.35-22.662c.034-.015.131-.058.124-.036a.341.341,0,0,1-.075.066Zm-.72-1.082c-.086.041-.169.081-.249.124.058-.03.345-.178.36-.184l1.139-.55c-.085.037-.175.077-.26.118-.129.067-.265.13-.4.2a1.605,1.605,0,0,1,.212-.1c-.272.122-.533.272-.8.4m-.191.094a.326.326,0,0,0-.1.054Zm-2.874,1.709c.048-.033.1-.069.146-.1a2.02,2.02,0,0,0-.176.109c.013-.013.03-.021.048-.038-.015,0-.02.008-.035.017l.017-.017a.452.452,0,0,1-.1.043.5.5,0,0,1,.075-.048.171.171,0,0,0-.054.028.142.142,0,0,0,.037-.028.675.675,0,0,1-.122.065c.079-.043.164-.095.239-.142-.006.005-.023.011-.03.018l.524-.326s.317-.188.778-.455h-.01l0,0c-.008,0-.776.456-1.06.636a.834.834,0,0,1-.083.059.554.554,0,0,0,.083-.043c0,.005,0,.011-.015.013.013,0,.015,0,.019,0s-.006.02-.226.178a.194.194,0,0,1-.048.028m-2.209,1.477c.013-.025.043-.036.065-.06a.753.753,0,0,0,.13-.1c-.011.006-.025.017-.034.021.025-.021.047-.043.075-.068a.193.193,0,0,1,.04-.035c-.03.02-.068.049-.106.077l.25-.175c.029-.026.149-.1.149-.1a.175.175,0,0,1-.053.041c-.145.1-.145.1-.516.4m-8.856,11.124a.123.123,0,0,1-.022.015.084.084,0,0,1-.017-.05.515.515,0,0,1-.068.1c-.007-.025-.007-.025.107-.41a2.165,2.165,0,0,0-.3.258c-.184.248-.2.248-.224.242a.1.1,0,0,0-.06.026,1.439,1.439,0,0,1,.137-.225c.209-.3.2-.34.186-.372-.028,0-.053.006-.083.006a1.384,1.384,0,0,1,.243-.282,2.159,2.159,0,0,0,.505-.847h-.023c-.071.071-.184.075-.259.146a2.363,2.363,0,0,0-.466.566,1.779,1.779,0,0,1-.433.5l-.008-.013c.109-.308.109-.308,1.056-1.409-.008,0-.008,0-.124.077a.078.078,0,0,0-.008-.018c.156-.188.242-.259.325-.284a.031.031,0,0,0,.019.011v.038a.194.194,0,0,1,.039-.038c0,.01.012.014.014.014a.559.559,0,0,0-.008.084.364.364,0,0,0,.056-.032c-.043.137-.09.286-.135.434a2.936,2.936,0,0,0,.321-.594.178.178,0,0,0,0-.172c-.028-.045-.028-.053,0-.136a1.988,1.988,0,0,1,.339-.586.034.034,0,0,0,.005.019c-.015.034-.015.034-.005.06.078-.019.118-.139.118-.165-.026,0-.053.015-.083.015,0-.015.006-.028.006-.041-.028-.015-.028-.015-.068-.006a.07.07,0,0,0-.019-.023c.025-.094.1-.152.138-.229v0a.654.654,0,0,1,.092-.205.355.355,0,0,1,.052-.045c.028,0,.047-.006.075,0,.012.06.021.081.068.069.071-.013.092-.088.146-.118a.444.444,0,0,1-.009.066.8.8,0,0,0,.124-.081.728.728,0,0,0-.094.12.111.111,0,0,1,.019-.034l-.008.006c-.009.017-.018.037-.028.053,0-.01,0-.016.01-.016l-.01.006a1.747,1.747,0,0,0,.158-.15.671.671,0,0,0-.092.261.318.318,0,0,1-.047.1,4.721,4.721,0,0,0-.378.534c-.17.408-.507.718-.665,1.125-.161.374-.14.8-.319,1.161-.024.041-.272.455-.3.475m0,.975c-.023.028-.057.06-.085.094a.515.515,0,0,1-.184.135.018.018,0,0,0-.011.014c-.027.022,0,.084-.057.1-.007,0-.028,0-.033-.007-.025-.015,0-.051-.025-.07s-.056,0-.077-.026a.279.279,0,0,1-.028-.124c-.013-.276-.013-.276-.026-.295-.036.062-.075.145-.106.207,0-.006-.005-.006-.005-.011-.028,0-.038,0-.1.041,0,0-.107.058-.137.032-.049-.03-.041-.1-.088-.126-.017-.013-.03-.006-.06.008a.059.059,0,0,1-.085-.021.281.281,0,0,1,.054-.207v.025s.006,0,.006,0a.585.585,0,0,0,.068-.225,1.062,1.062,0,0,1,.323-.282c0,.006,0,.011.009.011-.069.077-.163.13-.212.23,0,0-.064.14.03.135.051-.006.092-.04.137-.027.006,0,.118.034.115.094-.008.13-.008.13.005.143a.3.3,0,0,0,.085-.2c.077-.06.111-.064.139-.013.051-.047.081-.047.064.083a1.567,1.567,0,0,0-.027.272c0,.043.025.049.068.025l.019-.019a.031.031,0,0,1-.008-.021.826.826,0,0,1,.066-.314c.072.288.072.288.2.295a.335.335,0,0,0-.035.047" fill="#212975"/>
      <path id="Tracé_1888" data-name="Tracé 1888" d="M4588.25,4615.688c.178-.082.2-.289.321-.424a.794.794,0,0,0-.2.16.206.206,0,0,0,.025-.091c-.025.017-.057.03-.077.047a.1.1,0,0,1,.03-.08c-.062.016-.122.05-.184.069.062-.092.184-.128.268-.182a.262.262,0,0,0-.011-.073,2.335,2.335,0,0,0-.207.133.428.428,0,0,1,.029-.291c.144.015.24-.12.281-.229a.615.615,0,0,1-.165.043c.017-.027.017-.027.288-.207-.1-.021-.179.056-.277.06.1-.054.115-.066.149-.135-.051.034-.118.069-.169.1l.071-.1c-.051,0-.051,0-.15.06a.047.047,0,0,0-.034-.022c.088-.064.205-.083.261-.184a.416.416,0,0,1-.086.043c.124-.092.122-.119.082-.186a.82.82,0,0,1,.158-.045c-.011-.008-.015-.03-.02-.038s-.03-.011-.046-.019c.119-.1.1-.289.22-.39v0h.006c.062.041.135.016.212.054a1.725,1.725,0,0,1,.226-.246.364.364,0,0,0,.028.2c.129-.118.088-.332.227-.447.152.2.372,0,.494-.13a.11.11,0,0,0-.034-.03c-.184.03-.184.03-.236.021.095-.051.095-.051.124-.1a.091.091,0,0,1-.012-.039.116.116,0,0,1,.177-.006.217.217,0,0,0,.169-.176c-.056-.044-.135-.049-.192-.1.051-.006.13-.019.19-.03,0-.008.015-.025.017-.032s-.023-.023-.032-.032c-.137.034-.137.034-.171.021a2.986,2.986,0,0,0,.333-.134.346.346,0,0,0-.044,0,.135.135,0,0,1,.066-.068c-.056,0-.1.037-.154.047a.092.092,0,0,1-.026-.036c.092-.111.34-.111.312-.317-.07,0-.085,0-.239.107.034-.03.079-.073.107-.1l-.107.012a2.927,2.927,0,0,1,.278-.164c-.062-.024-.079-.028-.269.07.049-.1.168-.117.23-.207l.116.034a2.837,2.837,0,0,0,.327-.207.178.178,0,0,0-.043-.017.117.117,0,0,0,.028-.045.371.371,0,0,0,.3-.172c-.013-.072-.079-.13-.067-.209.035-.133.154-.218.186-.347-.06-.061-.151-.027-.209.009-.128.073-.156.225-.276.3a1.1,1.1,0,0,1,.107-.2c-.079.006-.079.006-.265.113.012-.013.025-.022.04-.039-.072-.014-.072-.014-.213.071.061-.077.061-.077.451-.25-.05,0-.1-.013-.146-.022.049-.027.112-.032.15-.077,0-.01-.007-.025-.011-.038-.053,0-.053,0-.423.132a.219.219,0,0,0-.021-.044.347.347,0,0,1,.108-.1c.11.049,1.386-.509,1.4-.723a.564.564,0,0,0-.567,0,.063.063,0,0,1,.015-.031c-.009-.016-.021-.029-.026-.04s-.359.07-.414.265v.006h0v.017c-.063.006-.073.008-.242.1.062-.066.062-.066.075-.12a.245.245,0,0,0-.236.155,3.057,3.057,0,0,0-.47.194.675.675,0,0,0,.107-.141.372.372,0,0,0-.058-.053c.007-.011.013-.02.024-.041a.155.155,0,0,1,.135.06c1.09-.582,1.5-.8,1.513-.464.122-.049.133-.069.157-.1-.067-.139.047-.261.042-.4-.055-.036-.055-.036-.641.088a2.132,2.132,0,0,0-.618.16c-.276.118-.417.39-.65.546l-.024-.013v-.005h0v-.006c-.217-.036-.273.2-.434.255a.4.4,0,0,0-.025.04c.019.019.04.036.058.054-.092.16-.283.2-.4.348.06,0,.06,0,.149-.045a2.688,2.688,0,0,0-.218.283c.1.143-.147.207-.107.348.221-.015.27-.242.422-.336-.118.223-.342.336-.509.5l-.019.028c.175-.047.28-.21.44-.278,0,.008.015.027.015.036-.167.314-.167.314-.167.349.088.014.094.014.3-.11a.3.3,0,0,1-.082-.025.189.189,0,0,1,.154-.049c0,.01.013.025.015.038a3.652,3.652,0,0,1-.56.466c.062,0,.062,0,.171-.058a.1.1,0,0,1,.039.065c-.045.034-.249.167-.272.183a.3.3,0,0,0,.023.041.328.328,0,0,0,.157-.058c-.015.082-.028.09-.118.146a.1.1,0,0,1,.007-.041c-.216,0-.255.21-.385.3a.232.232,0,0,0,.049-.068c-.227-.009-.319.2-.494.282.149.064.3,0,.445,0-.439.259-.537.318-.561.491a6.735,6.735,0,0,0-.562.407l-.006,0a.391.391,0,0,1-.056-.03c-.06.024-.118.046-.293.255-.312-.1-.312-.1-1.09.656-.18-.284-.18-.284-.225-.277.006-.1-.081-.178-.084-.278-.006,0-.35-.088-.829.541a.384.384,0,0,1,.021.061c.126.02.244-.042.372-.034,0,.075-.066.111-.1.178.007,0,.024.01.03.021.137-.036.18-.165.27-.237a.515.515,0,0,0,.051.025.47.47,0,0,0-.154.178c.013.006.026.006.041.013.01-.015.017-.026.032-.03,0,.023-.015.1-.2.252a.365.365,0,0,0,.072.009c0,.01,0,.034,0,.045-.186.156-.307.361-.487.515a.309.309,0,0,1,.068.008.35.35,0,0,0-.1.1.8.8,0,0,1,.12-.036c-.017.058-.017.058-.289.165a.437.437,0,0,1-.021.325.178.178,0,0,1,.027.044.225.225,0,0,0,.154-.044c-.119.282.065.528.077.789a.091.091,0,0,0,.033.036.745.745,0,0,0,.239-.188c-.12-.332.383-1.078.471-1.121.074.1-.031.2-.031.3a.127.127,0,0,0,.084-.065c.006.086-.053.165-.039.24.122.066.163.09.026.2a.138.138,0,0,0,.043.022c-.03.085-.111.145-.088.239a.2.2,0,0,1,.039,0c.019-.107.137-.355.244-.349a.2.2,0,0,1,0,.077.8.8,0,0,1,.181-.2v.044a.384.384,0,0,1,.033.028.709.709,0,0,0,.282-.336.214.214,0,0,0-.141.122c.012-.062.012-.062.075-.122-.007-.006-.024-.014-.035-.025a6.039,6.039,0,0,1,.436-.631c-.017-.021-.032-.043-.049-.06a2.068,2.068,0,0,1,.253-.269.439.439,0,0,0-.03.139c.19-.019.237-.214.361-.313-.025.088-.113.135-.135.223.094-.064.156-.148.242-.214a.384.384,0,0,0,.009.079c-.272.282-.39.411-.21.539-.058.056-.137.045-.2.073a.907.907,0,0,1,.054.085l-.088.047c.028.011.053.035.073.043a1.325,1.325,0,0,0-.176.083c.03.03.069.071.1.107a.1.1,0,0,1-.118.009.335.335,0,0,1-.07.041c.032.013.07.025.1.036-.147.13-.116.2-.083.25.271.013.3-.261.455-.374a.947.947,0,0,1-.053.135.2.2,0,0,0,.053-.017.173.173,0,0,0,.03.023.149.149,0,0,0-.008.045c.068-.06.106-.139.17-.19v.034c.09-.028.157-.124.27-.094a.348.348,0,0,1,.124-.067.46.46,0,0,1,.009.131c.025-.009.025-.009.205-.19a.115.115,0,0,0,.019.077m-1-.135c0-.007,0-.013.009-.019s0,.006,0,.012h0Z" fill="#212975"/>
      <path id="Tracé_1889" data-name="Tracé 1889" d="M4590.106,4608.963c-.007,0-.019,0-.024,0,.056-.152.223-.129.317-.229a.123.123,0,0,1-.028-.019.5.5,0,0,0-.115.089.117.117,0,0,0-.031.013v-.025c.08-.077.176-.141.262-.214a2.259,2.259,0,0,0-.324.192c0,.009.016.009.022.015a.506.506,0,0,1-.282.148.3.3,0,0,0-.022-.022c.022-.059.022-.059.357-.3v-.03a2.385,2.385,0,0,1,.494-.259c.05-.019.092-.032.092-.085-.032-.024-.07-.024-.1-.052.119-.432,2.162-1.255,2.183-1.263-.2.113-.393.256-.6.361-.088.051-.088.06-.09.092.028.015.082.025.152-.041v-.025c.075-.037.15-.073.227-.107v-.024a4.46,4.46,0,0,1,.994-.534.893.893,0,0,0-.274.207,1.294,1.294,0,0,0,.345-.2s-.015,0-.015-.008a1.235,1.235,0,0,1,.205-.1c-.026.019-.056.036-.083.055.006,0,.023-.006.028-.006l.023-.013a1.418,1.418,0,0,1,.768-.254l0,.025h.021c-.066.041-.111.1-.178.135a.273.273,0,0,1,.1,0,.069.069,0,0,1-.026.041,2.169,2.169,0,0,1-.4.143,2.551,2.551,0,0,0-.748.306c.194-.049.381-.12.575-.167a4.017,4.017,0,0,1-.658.308c.092-.03.194-.036.293-.067a5.851,5.851,0,0,1-1.121.447,1.943,1.943,0,0,0,.257-.023h.01a4.426,4.426,0,0,1-.374.265c-.866.391-.866.391-1.041.479-.039.021-.1.045-.129.062-.055.028-.113.066-.162.094a.611.611,0,0,0,.162-.038,5.086,5.086,0,0,1-1.06.63" fill="#212975"/>
      <path id="Tracé_1890" data-name="Tracé 1890" d="M4592.6,4607.617a.143.143,0,0,1-.05.008v0a1.413,1.413,0,0,1,.186-.111,1.192,1.192,0,0,1,.295-.156,2.638,2.638,0,0,1,.49-.147h-.006a9.172,9.172,0,0,1-.915.408" fill="#212975"/>
      <path id="Tracé_1891" data-name="Tracé 1891" d="M4598.6,4617.867a.124.124,0,0,1-.136-.028c0-.041-.009-.066-.067-.16-.128-.189-.158-.278.015-.385-.021-.084-.021-.084.088-.079-.058-.086-.137-.2-.193-.283-.169.154-.451.154-.455.084,0-.1,0-.1-.056-.109.062-.071.148-.165.246-.165a.257.257,0,0,1,.09.03c.062.036.107.09.169.132.009-.036.024-.094.039-.132a.781.781,0,0,0,.207-.03c.053-.006.062-.009.088,0,.061.036.061.036.19.237-.034.037-.034.037-.124.073,0,.006.011.006.017.011a.081.081,0,0,0,.03.006.048.048,0,0,0,.032.007.021.021,0,0,0,.019.01.049.049,0,0,0,.026.017.093.093,0,0,1,.025.007c.009,0,.02.006.028.006s.019.007.024.013c-.086.062-.2.047-.289.094a.523.523,0,0,1,.359.13c-.029.022-.057.033-.085.054a.334.334,0,0,0-.041.081.158.158,0,0,1-.105,0c-.061-.03-.079-.1-.136-.13,0,.039-.028.141.162.242a1.231,1.231,0,0,1-.211.1c.185.1.044.167.044.167" fill="#212975"/>
      <path id="Tracé_1892" data-name="Tracé 1892" d="M4597.141,4618.117a.176.176,0,0,1-.152.023.841.841,0,0,1-.207-.111c-.113-.052-.242-.067-.361-.109a.392.392,0,0,1,.111-.165.673.673,0,0,0,.227.068,1.644,1.644,0,0,1,.322.1c.05.021.219.09.06.2" fill="#212975"/>
      <path id="Tracé_1893" data-name="Tracé 1893" d="M4623.761,4620.371c.028.135-.291.055-.3.055-.028-.021-.058-.062-.1-.072s-.1.017-.152.01c-.071-.01-.27-.267-.159-.32a1.57,1.57,0,0,1,.71.327" fill="#212975"/>
      <path id="Tracé_1894" data-name="Tracé 1894" d="M4620.91,4621.276a.313.313,0,0,1,.017.1v.036a.165.165,0,0,1-.011.041.2.2,0,0,1,0,.081c-.029.056-.106.03-.138.013-.251-.13-.319-.393-.116-.445.006,0,.006,0,.011,0,.16-.015.22.152.237.176" fill="#212975"/>
      <path id="Tracé_1895" data-name="Tracé 1895" d="M4598.385,4622.658a.236.236,0,0,1-.231-.011c-.271.248-.945.467-1.173.259-.075.109-.075.109-.418-.1a1.929,1.929,0,0,0-.038.2c-.077-.011-.12.014-.171.106-.036-.031-.036-.031-.043-.07.007,0,.015-.007.019-.007-.117-.042-.25-.015-.361-.059a1.274,1.274,0,0,0-.237-.116.11.11,0,0,1-.045-.011.191.191,0,0,1,.205-.085c-.049-.1-.143-.141-.406-.225-.31-.1-.387-.153-.372-.256a1.5,1.5,0,0,0,.475-.056c-.129-.068-.041-.237-.129-.32-.122-.109-.289.027-.4-.109-.036-.043.054-.093.111-.11.193-.06.379.116.573.009-.1-.021-.1-.03-.115-.056.051-.072.146-.079.192-.164-.19-.15-.667.16-.639-.144a.525.525,0,0,0,.361-.032c.1-.059.041-.171.069-.246.032.022.069.052.107.075l-.019-.042c.094-.073.094-.073.143-.073a.265.265,0,0,0,.111.351c.03-.107-.038-.219.041-.326.237.114.276.18.072.529-.062.1-.057.128-.055.151.122.048.22-.092.338-.034.074-.081.092-.19.169-.265a.229.229,0,0,1,.169-.047s-.05.205,0,.263c.169-.053.28-.235.486-.2-.137.165-.145.233-.051.323.042-.077.074-.164.121-.243.163.13.467.305.651.079.063-.073.121-.1.151-.09.113.064.035.226.148.289s.226-.011.338,0c-.075.1-.225.078-.312.174.049.053.049.053-.093.248.112.028.232.07.351.1l-.135.231c.056.1.056.1.045.111" fill="#212975"/>
      <path id="Tracé_1896" data-name="Tracé 1896" d="M4585.359,4613.7c-.052.034-.191.107-.244.081a.4.4,0,0,0,.118-.2c.021-.1.064-.138.16-.229.028.019.028.019.246-.142-.009-.066-.037-.066-.107-.055a.164.164,0,0,0-.049.03,2.792,2.792,0,0,1-.362.2c-.077.026-.143.006-.1-.041a.48.48,0,0,1,.242-.175c-.137-.12.163-.25.208-.255s.074.035.13.028a.567.567,0,0,0,.147-.1,2.561,2.561,0,0,1,.6-.342s0,0,.011.008c-.021.058-.077.1-.1.1a.29.29,0,0,1-.006-.036c-.015,0-.015,0-.184.15.156,0-.051.231-.184.374a4.223,4.223,0,0,1-.532.453c.092-.032.151.019.12.073a.369.369,0,0,1-.107.083" fill="#212975"/>
      <path id="Tracé_1897" data-name="Tracé 1897" d="M4612.365,4628.466a.142.142,0,0,0-.094-.148l0,0a.309.309,0,0,1-.113.1c.017.06.039.124.06.186.115-.024.15-.092.15-.143m-.21-.043h0c-.017-.047-.023-.05-.023-.05s0,0,0,.016a.111.111,0,0,1-.008.036v.013c.011,0,.026-.013.034-.015m-.034.019v0c-.013.006-.03.008-.049.017.044.053.049,0,.049-.017" fill="#212975"/>
      <path id="Tracé_1898" data-name="Tracé 1898" d="M4602.064,4631.78a.756.756,0,0,1-.742.3c.031.131.031.131-.006.191a.882.882,0,0,1,.379.059.816.816,0,0,1-.567.253c-.094-.171-.218-.189-.479-.171a4.317,4.317,0,0,1-1.1-.094c-.144-.011-.253.094-.387.111-.158.019-.246-.148-.4-.152-.226-.006-.361.216-.577.242.015-.1-.058-.112-.227-.144.218-.346.736-.233.943-.6.8.19.8.19.947-.088-.1.026-.246.055-.357.079-.182-.113-.182-.113-.28-.084a.56.56,0,0,1-.278.011c.009-.053.022-.113.028-.158-.124-.023-.225.064-.353.064a.13.13,0,0,1,.03-.057.069.069,0,0,0,.056,0c.006,0,.008-.024.013-.03a.311.311,0,0,1-.135-.073c.175-.25.586-.2.693-.528a2.535,2.535,0,0,1-.338,0c.1-.177.35-.079.447-.263-.075-.01-.176-.027-.171-.158.226.035.226.035.26.1.045.091.347.077.355.077.2-.063.313-.355.366-.509-.28-.045-.28-.045-.31-.064-.058-.048.034-.148.034-.148.062-.047.146-.036.214-.085,0-.009-.008-.022-.008-.033-.2-.089-.663-.261-.708-.017-.238-.2-.238-.2.023-.47.193-.4.049-.441-.06-.43-.089.013-.107.135-.2.135.086-.253.086-.253.086-.289l.023,0c.114.015.18-.012.219-.106-.03-.022-.03-.022-.264-.03a2.1,2.1,0,0,0,.231-.4c.028-.1-.062-.2-.046-.3a.284.284,0,0,0,.158-.054.1.1,0,0,0,0-.036.17.17,0,0,1-.045-.015c.011,0,.02-.025.028-.026.079-.076.176.054.263-.021.017-.017.007-.06.007-.085s-.007-.135.231-.336c.074-.054.1-.06.124-.06.03.03.038.039,0,.148.138.012.245-.1.382-.109a.49.49,0,0,1,.082,0c.181.051.235.227-.1.419s-.329.188-.4.333c.665-.03,1.25-.044.829.377-.122.124-.361.132-.4.357-.015.083.062.165.009.259-.045.066-.077.066-.212.059.1.078.25.187.355.274a.346.346,0,0,1,.083.1c.094.162.062.368.159.528.169.3.592.415.592.834-.1-.034-.163-.145-.272-.171,0,.182.238.218.257.385.009.132-.077.237-.075.361.024-.006.06-.006.084-.013a.3.3,0,0,0-.009-.068s.009-.019.015-.026c.456.067.456.067.509.114.1.1.03.282-.007.331" fill="#212975"/>
      <path id="Tracé_1899" data-name="Tracé 1899" d="M4599.553,4627.223c-.06.141-.244.47-.412.383-.05.025-.124.066-.171.087.04-.081.089-.156.122-.241a.629.629,0,0,0,.055-.154.26.26,0,0,0,.113-.041.336.336,0,0,1,.276-.051.026.026,0,0,1,.022.01l0,.007" fill="#212975"/>
      <path id="Tracé_1900" data-name="Tracé 1900" d="M4612.541,4628.811c-.04.088-.118.156-.158.238-.18.006-.21.006-.265.1-.171.013-.25-.248-.176-.361.011,0,.045,0,.187,0s.286-.022.423-.022a.223.223,0,0,1-.011.045" fill="#212975"/>
      <path id="Tracé_1901" data-name="Tracé 1901" d="M4610.817,4629.256c-.009.023-.017.023-.113.042a.607.607,0,0,1-.156.4.817.817,0,0,0-.131.22.6.6,0,0,1-.139-.171,1.618,1.618,0,0,1-.058-.273c.045.017.013.1.075.1.009,0,.02-.013.02-.013a.727.727,0,0,1,.211-.261c.037-.025.1.016.146.022.032-.1.032-.1.038-.1s.007-.006.021,0,.035,0,.086,0a.2.2,0,0,1,0,.035" fill="#212975"/>
      <path id="Tracé_1902" data-name="Tracé 1902" d="M4599.251,4628.258a.59.59,0,0,1-.05.1c-.023,0-.045-.009-.068-.015a.693.693,0,0,0-.024-.177c-.042-.157-.06-.263.024-.351.083.064.094.03.126-.066-.024.085-.058.171-.083.26,0,.107.015.131.062.157.027.012.036.027.013.087" fill="#212975"/>
      <path id="Tracé_1903" data-name="Tracé 1903" d="M4598.784,4629.965a.942.942,0,0,1,.124.012.287.287,0,0,0-.152-.34c.084-.077.21-.2.017-.216a4.285,4.285,0,0,0-.43.032c.184-.23.184-.23.062-.3a.226.226,0,0,0-.044.055c-.193.082-.424-.008-.6.133.058.021.11.056.165.073-.094.09-.269.077-.3.243-.071-.019-.169-.046-.236-.066h-.135l-.1-.143c-.017.043-.017.043.026.355-.195-.015-.5.1-.37.263.04.047.222.207.35.128-.32.255-.378.3-.359.394a.187.187,0,0,1,.056.027c-.067.016-.165.043-.236.065a.142.142,0,0,0-.008.055.226.226,0,0,0,.034.022.262.262,0,0,1-.006.068,2.148,2.148,0,0,0-.291-.015c0,.06.028.084.122.09-.052.045-.122.1-.169.152a2.488,2.488,0,0,1,.329.012c-.038.078-.15.071-.194.15a3.345,3.345,0,0,1,.389-.066c-.02.079-.034.171.1.16h.036a1.673,1.673,0,0,0,.364-.154c.073-.028.124.035.194.018a.954.954,0,0,0,.257-.108c.107-.062.141-.076.293-.01-.007-.047-.019-.109-.028-.16.22.014.3-.018.22-.432-.038-.176.176-.368.283-.473.044-.036.13-.03.252-.023m-1.565.153a.189.189,0,0,1-.056.06.173.173,0,0,0,.051-.077c.005,0,.018,0,.005.011Z" fill="#212975"/>
      <path id="Tracé_1904" data-name="Tracé 1904" d="M4581.218,4626.494c-.231.253-.389.223-.473.208a.877.877,0,0,1,.161-.154c-.088-.133-.088-.133-.118-.12.064-.124.118-.248.186-.372-.254-.109-.387.237-.627.149.133-.143.334-.166.479-.28-.092-.053-.192.052-.28-.006a1.257,1.257,0,0,0,.135-.135c-.079-.059-.2-.064-.278-.136-.03-.031-.017-.112-.024-.159-.07,0-.126,0-.3-.222a.115.115,0,0,0-.024-.02.118.118,0,0,1-.019-.027.131.131,0,0,0-.017-.02.065.065,0,0,0-.023-.021.085.085,0,0,0-.018-.019c-.006-.006-.012-.017-.023-.021s-.009-.013-.019-.018a.065.065,0,0,0-.013-.025c-.1-.088-.1-.158-.081-.176.119-.113.3-.1.429-.179a.317.317,0,0,0-.117-.146c.062-.077.117-.1.162.052.075-.129.088-.129.126-.129.022.017.035.03.043.129.041-.034.092-.034.129-.077a.321.321,0,0,0,.008-.118.255.255,0,0,1,.1-.182c.44-.423.44-.423.566-.451.056-.011.118-.088.165-.132.115-.06.115-.06.323.107-.077.083-.143.1-.2.055-.143.21-.143.21-.163.212s-.028-.011-.041-.058a6.619,6.619,0,0,0-.573.567c.078.034.261-.073.332-.135.1.118.047.169-.18.306a.6.6,0,0,1,.079.043c.005.025.015.03-.059.106.021.013.021.013.1.022a.041.041,0,0,1,.009.019c0,.03-.005.036-.048.113a1.6,1.6,0,0,0,.116-.113c.041.064.041.064.194.053a.769.769,0,0,0-.094.093c.05.038.182-.016.184.085,0,.03-.074.254-.166.274a.1.1,0,0,1-.071-.03c-.028.154-.028.154-.047.177.032.028.032.028.115.024a.853.853,0,0,1-.175.134,1.345,1.345,0,0,0,.334.092c-.075.075-.186.082-.255.159-.045.053-.045.075-.006.152-.06.038-.146.012-.18.089-.013.026.019.082.069.15.184-.267.3-.244.348-.239-.09.089-.2.124-.288.213a.223.223,0,0,0-.056.131c.034.013.034.013.218-.06-.017.017-.03.047-.049.066" fill="#212975"/>
      <path id="Tracé_1905" data-name="Tracé 1905" d="M4579.733,4623.858c-.093,0-.109-.094-.118-.141-.006-.03-.037-.344-.037-.344,0-.041.041-.071.048-.1l.045-.218c0-.026-.039-.052-.022-.082s.022-.042.077-.1a1.185,1.185,0,0,1,.086.4.315.315,0,0,1,0,.079.808.808,0,0,1-.025.092c0,.012.006.025.006.038a.934.934,0,0,1-.043.364.017.017,0,0,0-.014.008" fill="#212975"/>
      <path id="Tracé_1906" data-name="Tracé 1906" d="M4578.6,4625.261c-.075.043-.1,0-.09-.085.02-.067.02-.067.109-.122l-.119-.013a.086.086,0,0,1-.058-.066c0-.016,0-.037,0-.052,0-.07.021-.154.025-.237,0-.019-.015-.034-.01-.054.006-.083.126-.145.138-.152.056-.029.077-.023.088-.017a1.263,1.263,0,0,1-.173.169.619.619,0,0,0,.024.173c.012.018.049.007.064,0a.761.761,0,0,1-.052.077,1.449,1.449,0,0,0,.158.18c-.008,0-.021-.009-.032-.009a.2.2,0,0,0-.049.192c-.011.007-.013.011-.019.011" fill="#212975"/>
      <path id="Tracé_1907" data-name="Tracé 1907" d="M4605.1,4638.3c-.045.389-.133.479-.167.5-.079.043-.323-.107-.379-.184a.291.291,0,0,1-.062-.21v-.027a.786.786,0,0,1,.62-.55,1.745,1.745,0,0,1-.012.475" fill="#212975"/>
      <path id="Tracé_1908" data-name="Tracé 1908" d="M4605.181,4639.586c-.124.7-.574.688-.687.526-.1-.122-.088-.219-.071-.413a.681.681,0,0,0-.006-.274.217.217,0,0,0-.036-.092.889.889,0,0,0-.082-.068c-.017-.022,0-.047.009-.067a.118.118,0,0,0,.013-.092c.214-.017.4-.175.62-.16.2.026.284.361.24.64" fill="#212975"/>
      <path id="Tracé_1909" data-name="Tracé 1909" d="M4608.071,4641.094c-.019.04-.066.07-.068.113-.017.058.019.116.019.176,0,.013,0,.141-.192.243,0,.124-.035.184-.148.148-.124-.053-.216-.16-.338-.22s-.269-.065-.389-.135a2.041,2.041,0,0,1-.443-.289c-.045-.066-.059-.22.082-.226.045.006.068.025.1.081.244-.011.316-.011.385.09.175,0,.175,0,1.02-.045a.331.331,0,0,0-.024.064" fill="#212975"/>
      <path id="Tracé_1910" data-name="Tracé 1910" d="M4571.126,4634.977a2.577,2.577,0,0,1-.18-.473.706.706,0,0,1,0-.243c.028-.005.056-.007.069-.078.023-.113.135-.91.135-.915a.215.215,0,0,0-.015-.081,2.676,2.676,0,0,1,.077-.665v-.073a3.2,3.2,0,0,0,.051-.384c.017-.041.026-.078.038-.112,0-.09.024-.181.022-.269-.021.011-.039.036-.06.049-.017-.1-.017-.1-.006-.137a.024.024,0,0,0,.006.017c.062-.177.066-.192.1-.213.028.049.028.049.022.16-.039.575-.039.575-.169,1.766l-.032.9c0,.062-.054.113-.064.191-.028.19.04.374.013.572,0,0-.007,0-.013-.01" fill="#212975"/>
      <path id="Tracé_1911" data-name="Tracé 1911" d="M4571.476,4637.3c-.051-.04-.079-.13-.158-.353-.013.058-.019.071-.034.088h-.017c-.015-.011-.015-.011-.086-.428-.01.088-.019.216-.083.244,0-.006-.017-.008-.017-.019v-.006h0c-.018-.082.012-.167,0-.247,0-.006-.065-.237-.137-.438v-.006c-.02-.088-.058-.344-.009-.4.022.023.045.043.118.616a.352.352,0,0,0,.045-.113,2.572,2.572,0,0,1,.027-.336,1.846,1.846,0,0,0,.05-.415,1.3,1.3,0,0,1,.051.344.163.163,0,0,0,.034.092c.03.036.084.037.1.077a2.867,2.867,0,0,1,.036.317.419.419,0,0,1,.007.042c.017.077-.013.139,0,.212.019.139.081.265.1.406a1.246,1.246,0,0,1-.015.328c0-.005,0-.005-.007-.007" fill="#212975"/>
      <path id="Tracé_1912" data-name="Tracé 1912" d="M4570.747,4635.563c-.014-.007-.017-.013-.025-.113-.009.031-.009.042-.017.044a1.069,1.069,0,0,1,.008-.442,1.488,1.488,0,0,0,0-.2c.014-.036.017-.042.038-.049.019.013.021.033.032.109a.86.86,0,0,0,0,.182,2.091,2.091,0,0,1-.039.473" fill="#212975"/>
      <path id="Tracé_1913" data-name="Tracé 1913" d="M4641,4652.357c-.041.389-.422.947-.631.71a1.918,1.918,0,0,1-.118-.723.135.135,0,0,1,.045-.118.883.883,0,0,0,.1-.329c.019-.167.015-.323.049-.481a.355.355,0,0,1,.041-.094c.028,0,.045-.011.079.045a2.349,2.349,0,0,1,.18.32c.045.078.154.092.2.178a1.02,1.02,0,0,1,.06.492" fill="#212975"/>
      <path id="Tracé_1914" data-name="Tracé 1914" d="M4645.559,4652.877a1.449,1.449,0,0,0-.144.357c-.03.064-.038.064-.058.064s-.023-.024-.034-.032a.062.062,0,0,1-.006-.032l-.019.021s-.015-.01-.026-.012a1.551,1.551,0,0,1,.039-.33,2.8,2.8,0,0,0-.017-.316c0-.174.029-.347.017-.524a.331.331,0,0,0-.058-.191c-.067-.1-.067-.111-.047-.7-.009-.017-.009-.017-.12-.028-.017-.04-.017-.059-.011-.177-.064-.03-.109-.167-.141-.278l-.017,0a.16.16,0,0,1-.017.019c-.007-.006-.023-.011-.023-.017s0-.023,0-.038c-.259-.124-.2-.616-.137-.7a.142.142,0,0,1,.178-.026c.115-.062.117-.248.284-.26.051.059.051.059.064.226.02-.019.022-.055.045-.075.051.1.144.18.161.3a.186.186,0,0,1,.059-.049v.156a.352.352,0,0,0,.033-.024c.006,0,.006.007.006.019-.023.189-.023.266.049.283.005-.037.019-.1.028-.137l.088.224c-.015.114-.015.114.01.142.045-.041.045-.041.111-.289,0,.047,0,.049-.044.227a.094.094,0,0,1,.023-.026c0,.006.015.006.022.006.072.272-.137.5-.107.762.023-.035.034-.082.057-.118a.019.019,0,0,0-.012.015.133.133,0,0,0,.047-.067,2.78,2.78,0,0,1-.063.463,1.021,1.021,0,0,1,.082-.15,8.449,8.449,0,0,1-.3,1.315" fill="#212975"/>
      <path id="Tracé_1915" data-name="Tracé 1915" d="M4625.824,4666.927a.492.492,0,0,1-.285.32c.021-.237-.128-.113-.128-.113-.137.113-.032.272-.054.4-.023.2-.243.282-.314.46-.017.036-.019.077-.034.113a.47.47,0,0,1-.175.2c-.157.139-.157.139-.6.817a11.859,11.859,0,0,1-1.328,1.655c-.312.261-1.638.71-1.593-.113a.736.736,0,0,1,.032-.122c-.06-.02-.248-.126-.2-.261l.186-.462c.082-.116.236-.129.347-.223a.058.058,0,0,0-.024-.019c.064-.284.409-.254.524-.475a.186.186,0,0,0,0-.181.921.921,0,0,1-.075-.623.506.506,0,0,1,.113-.143,3.574,3.574,0,0,1,1.81-.793c.055-.064.023-.171.1-.231s.115-.049.214-.023c.072-.073.171-.184.244-.268.1-.045-.02-.226.089-.235a.71.71,0,0,0,.342-.077.1.1,0,0,0,.024-.023c.028-.02.034-.054.043-.12.083-.372.182-.436.365-.533-.029.1-.012.118.195.195.036.015.141.055.145.1a.272.272,0,0,1,.017.075Z" fill="#212975"/>
    </g>
  </g>
</svg>
