<svg xmlns="http://www.w3.org/2000/svg" width="40.561" height="32.379" viewBox="0 0 40.561 32.379">
  <path id="Tracé_1841" data-name="Tracé 1841" d="M982.795,1261.4a.581.581,0,0,0,.005-.11c0-.023-.01-.045-.015-.068a.5.5,0,0,0-.037-.107c-.005-.011-.005-.021-.01-.031s-.019-.02-.027-.032a.478.478,0,0,0-.072-.084.415.415,0,0,0-.059-.05.358.358,0,0,0-.03-.026.517.517,0,0,0-.061-.023.452.452,0,0,0-.069-.028.463.463,0,0,0-.117-.015.567.567,0,0,0-.06,0,.518.518,0,0,0-.145.034c-.01,0-.019,0-.029.007l-.009.005h0L943.3,1278.194a.523.523,0,0,0,.113.99l10.68,2.094,3.9,10.832a.56.56,0,0,0,.051.1.232.232,0,0,0,.011.021.505.505,0,0,0,.124.124.353.353,0,0,0,.038.024.507.507,0,0,0,.152.063l.015.007h.008l.006,0a.51.51,0,0,0,.087.007h0a.51.51,0,0,0,.2-.045.585.585,0,0,0,.054-.031.491.491,0,0,0,.119-.094c.01-.01.023-.013.031-.024l5.693-7.031,9.772,3.724a.523.523,0,0,0,.689-.345l7.737-27.121,0-.016C982.792,1261.45,982.792,1261.427,982.795,1261.4Zm-37.562,17.073,32.282-14.428-23.146,16.219Zm32.188-13.086-17.547,17.241a.55.55,0,0,0-.13.2.542.542,0,0,0-.026.1l-1.38,7.054-3.225-8.955ZM959.4,1289.972l1.222-6.251,2.934,1.118Zm14.8-2.2-13.021-4.961,20.058-19.71Z" transform="translate(-942.615 -1260.451)" fill="#fff" stroke="#fff" stroke-miterlimit="10" stroke-width="0.75"/>
</svg>
