<svg xmlns="http://www.w3.org/2000/svg" width="31.387" height="33.723" viewBox="0 0 31.387 33.723">
  <path id="Tracé_1845" data-name="Tracé 1845" d="M578.841,1279.879v-.668a3.336,3.336,0,0,1-1.336-4.006v-.668a3.343,3.343,0,0,0-3.339-3.339h-5.234a.667.667,0,0,1-.633-.879l.166-.5a14.8,14.8,0,0,0,.641-6.469L569,1262.5a3.408,3.408,0,0,0-6.657-.514l-.668,2.336a9.708,9.708,0,0,1-5.692,6.3,4.047,4.047,0,0,0-1.1.663,3.315,3.315,0,0,0-2.089-.755h-2a3.343,3.343,0,0,0-3.339,3.339v10.685a1.336,1.336,0,0,0,2.672,0v-10.685a.668.668,0,0,1,.667-.668h2a.669.669,0,0,1,.668.668V1289.9a.669.669,0,0,1-.668.668h-2a.668.668,0,0,1-.667-.668v-1.336a1.336,1.336,0,0,0-2.672,0v1.336a3.343,3.343,0,0,0,3.339,3.339h2a3.338,3.338,0,0,0,2.752-1.454,4.647,4.647,0,0,0,2.59.786h14.024a3.343,3.343,0,0,0,3.339-3.339v-.668a3.276,3.276,0,0,0-.123-.9,3.343,3.343,0,0,0,2.126-3.11v-.668a3.337,3.337,0,0,1,1.336-4.007Zm-2.672,0a.668.668,0,0,1-.667.668h-1.336a1.336,1.336,0,1,0,0,2.671.668.668,0,0,1,.668.668v.668a.668.668,0,0,1-.668.667h-2a1.336,1.336,0,1,0,0,2.672.668.668,0,0,1,.667.667v.668a.668.668,0,0,1-.667.668H558.139a2.006,2.006,0,0,1-2-2v-13.551a1.33,1.33,0,0,1,.84-1.24,12.394,12.394,0,0,0,7.265-8.051l.668-2.335a.739.739,0,0,1,.71-.533.786.786,0,0,1,.144.014.735.735,0,0,1,.585.63l.107.855a12.1,12.1,0,0,1-.524,5.293l-.166.5a3.339,3.339,0,0,0,3.167,4.4h5.234a.668.668,0,0,1,.668.668v.668a.668.668,0,0,1-.668.667,1.336,1.336,0,1,0,0,2.672H575.5a.668.668,0,0,1,.667.667Z" transform="translate(-547.454 -1259.512)" fill="#fff"/>
</svg>
