<svg xmlns="http://www.w3.org/2000/svg" width="46.001" height="39.195" viewBox="0 0 46.001 39.195">
  <path id="Tracé_1846" data-name="Tracé 1846" d="M1352.48,1284.983h19.011l5.351,6.2a1.731,1.731,0,0,0,3.051-1.126v-5.07h1.174a4.286,4.286,0,0,0,4.271-4.271v-16.9a4.286,4.286,0,0,0-4.271-4.271H1352.48a4.286,4.286,0,0,0-4.271,4.271v16.9A4.317,4.317,0,0,0,1352.48,1284.983Zm-1.877-21.123a1.9,1.9,0,0,1,1.924-1.924h28.587a1.9,1.9,0,0,1,1.924,1.924v16.9a1.9,1.9,0,0,1-1.924,1.924h-2.347a1.163,1.163,0,0,0-1.174,1.174v4.553l-4.6-5.351a1.333,1.333,0,0,0-.892-.423H1352.48a1.9,1.9,0,0,1-1.924-1.924V1263.86Zm2.582,28.07-5.352,6.2a1.745,1.745,0,0,1-1.314.611,2.742,2.742,0,0,1-.61-.094,1.663,1.663,0,0,1-1.127-1.6v-5.117h-1.173a4.287,4.287,0,0,1-4.272-4.271v-16.9a4.288,4.288,0,0,1,4.272-4.272,1.174,1.174,0,0,1,0,2.347,1.9,1.9,0,0,0-1.925,1.925v16.9a1.9,1.9,0,0,0,1.925,1.924h2.347a1.162,1.162,0,0,1,1.173,1.174v4.553l4.6-5.351a1.335,1.335,0,0,1,.892-.423H1369.9a1.174,1.174,0,1,1,0,2.347h-16.71Zm12.016-19.245a1.6,1.6,0,1,1,1.6,1.6A1.583,1.583,0,0,1,1365.2,1272.685Zm-5.3,0a1.6,1.6,0,1,1,1.6,1.6A1.583,1.583,0,0,1,1359.9,1272.685Zm10.608,0a1.6,1.6,0,1,1,1.6,1.6A1.583,1.583,0,0,1,1370.505,1272.685Z" transform="translate(-1339.337 -1259.542)" fill="#fff"/>
</svg>
