<svg xmlns="http://www.w3.org/2000/svg" viewBox="0 0 44.2 44.2"><defs><style>.cls-1{fill:#9ac7fe;}.cls-2{fill:#358ffe;}</style></defs><title>Fichier 1</title><g id="Calque_2" data-name="Calque 2"><g id="Calque_1-2" data-name="Calque 1"><path class="cls-1" d="M22.1,1.22A20.88,20.88,0,1,1,1.22,22.1,20.9,20.9,0,0,1,22.1,1.22M22.1,0A22.1,22.1,0,1,0,44.2,22.1,22.09,22.09,0,0,0,22.1,0"/><path class="cls-2" d="M17.64,19.06h1.85v-1.8a4.81,4.81,0,0,1,.6-2.78A3.29,3.29,0,0,1,23,13.13a11.52,11.52,0,0,1,3.33.34l-.47,2.74A6.31,6.31,0,0,0,24.33,16c-.72,0-1.37.26-1.37,1v2.09h3l-.21,2.68H23v9.32H19.49V21.74H17.64Z"/></g></g></svg>