<svg xmlns="http://www.w3.org/2000/svg" viewBox="0 0 44.2 44.2"><defs><style>.cls-1{fill:#358ffe;}.cls-2{fill:#9ac7fe;}</style></defs><title>mail</title><g id="Calque_2" data-name="Calque 2"><g id="Calque_1-2" data-name="Calque 1"><path class="cls-1" d="M33.6,14.79l-9.13,8.62a3.46,3.46,0,0,1-2.37.92,3.51,3.51,0,0,1-2.38-.92L10.6,14.79a2.67,2.67,0,0,0-.39,1.37V28a2.65,2.65,0,0,0,2.64,2.64H31.34A2.65,2.65,0,0,0,34,28V16.16a2.66,2.66,0,0,0-.38-1.37"/><path class="cls-1" d="M23.56,22.45l9.09-8.58a2.55,2.55,0,0,0-1.31-.36H12.85a2.51,2.51,0,0,0-1.3.36l9.08,8.58a2.19,2.19,0,0,0,2.93,0"/><path class="cls-2" d="M22.1,1.22A20.88,20.88,0,1,1,1.22,22.1,20.9,20.9,0,0,1,22.1,1.22M22.1,0A22.1,22.1,0,1,0,44.2,22.1,22.09,22.09,0,0,0,22.1,0"/></g></g></svg>