<svg xmlns="http://www.w3.org/2000/svg" viewBox="0 0 44.2 44.2"><defs><style>.cls-1{fill:#9ac7fe;}.cls-2{fill:#358ffe;}</style></defs><title>Fichier 2</title><g id="Calque_2" data-name="Calque 2"><g id="Calque_1-2" data-name="Calque 1"><path class="cls-1" d="M22.1,1.22A20.88,20.88,0,1,1,1.22,22.1,20.9,20.9,0,0,1,22.1,1.22M22.1,0A22.1,22.1,0,1,0,44.2,22.1,22.09,22.09,0,0,0,22.1,0"/><path class="cls-2" d="M32.25,15.8a8.05,8.05,0,0,1-2.4.66,4.19,4.19,0,0,0,1.83-2.3,8.51,8.51,0,0,1-2.64,1A4.16,4.16,0,0,0,21.84,18,3.69,3.69,0,0,0,22,19a11.83,11.83,0,0,1-8.59-4.35,4.25,4.25,0,0,0-.56,2.1,4.16,4.16,0,0,0,1.85,3.46,4.13,4.13,0,0,1-1.88-.52v.05a4.16,4.16,0,0,0,3.34,4.09,4.42,4.42,0,0,1-1.1.14,4,4,0,0,1-.78-.07,4.16,4.16,0,0,0,3.88,2.89,8.32,8.32,0,0,1-5.17,1.78,8.22,8.22,0,0,1-1-.06,11.83,11.83,0,0,0,18.23-10c0-.18,0-.36,0-.54a8.55,8.55,0,0,0,2.08-2.16"/></g></g></svg>